G04 (created by PCBNEW (2013-feb-26)-stable) date ven. 05 avril 2013 21:49:21 CEST*
%MOIN*%
G04 Gerber Fmt 3.4, Leading zero omitted, Abs format*
%FSLAX34Y34*%
G01*
G70*
G90*
G04 APERTURE LIST*
%ADD10C,2.3622e-06*%
%ADD11R,0.0314961X0.0787402*%
%ADD12R,0.0118X0.059074*%
%ADD13R,0.045X0.0393701*%
%ADD14C,0.0708661*%
%ADD15C,0.110236*%
%ADD16C,0.055*%
%ADD17C,0.06*%
%ADD18R,0.649606X0.0787402*%
%ADD19R,0.19685X0.0787402*%
%ADD20R,0.015748X0.0531496*%
%ADD21R,0.0826772X0.0629921*%
%ADD22R,0.025X0.045*%
%ADD23R,0.045X0.025*%
%ADD24R,0.315X0.315*%
%ADD25C,0.035*%
%ADD26C,0.0157*%
%ADD27C,0.01*%
G04 APERTURE END LIST*
G54D10*
G54D11*
X43818Y-36062D03*
X45000Y-36062D03*
G54D12*
X51847Y-32238D03*
X51597Y-32238D03*
X51337Y-32238D03*
X51087Y-32238D03*
X50827Y-32238D03*
X50572Y-32238D03*
X50317Y-32238D03*
X50317Y-34516D03*
X50572Y-34516D03*
X50827Y-34516D03*
X51087Y-34516D03*
X51342Y-34516D03*
X51597Y-34516D03*
X51852Y-34516D03*
G54D13*
X49862Y-36786D03*
X49862Y-37386D03*
X50688Y-38587D03*
X50688Y-37987D03*
X50688Y-36786D03*
X50688Y-37386D03*
X51535Y-36786D03*
X51535Y-37386D03*
X51535Y-38587D03*
X51535Y-37987D03*
G54D10*
G36*
X39065Y-38412D02*
X38508Y-38969D01*
X38395Y-38856D01*
X38952Y-38299D01*
X39065Y-38412D01*
X39065Y-38412D01*
G37*
G36*
X39288Y-38635D02*
X38731Y-39192D01*
X38618Y-39079D01*
X39175Y-38522D01*
X39288Y-38635D01*
X39288Y-38635D01*
G37*
G36*
X39510Y-38858D02*
X38954Y-39415D01*
X38841Y-39302D01*
X39397Y-38745D01*
X39510Y-38858D01*
X39510Y-38858D01*
G37*
G36*
X39733Y-39081D02*
X39176Y-39637D01*
X39063Y-39524D01*
X39620Y-38968D01*
X39733Y-39081D01*
X39733Y-39081D01*
G37*
G36*
X39956Y-39303D02*
X39399Y-39860D01*
X39286Y-39747D01*
X39843Y-39190D01*
X39956Y-39303D01*
X39956Y-39303D01*
G37*
G36*
X40179Y-39526D02*
X39622Y-40083D01*
X39509Y-39970D01*
X40066Y-39413D01*
X40179Y-39526D01*
X40179Y-39526D01*
G37*
G36*
X38842Y-38190D02*
X38285Y-38747D01*
X38172Y-38633D01*
X38729Y-38077D01*
X38842Y-38190D01*
X38842Y-38190D01*
G37*
G36*
X38620Y-37967D02*
X38063Y-38524D01*
X37950Y-38411D01*
X38506Y-37854D01*
X38620Y-37967D01*
X38620Y-37967D01*
G37*
G36*
X38397Y-37744D02*
X37840Y-38301D01*
X37727Y-38188D01*
X38284Y-37631D01*
X38397Y-37744D01*
X38397Y-37744D01*
G37*
G36*
X38174Y-37522D02*
X37617Y-38078D01*
X37504Y-37965D01*
X38061Y-37408D01*
X38174Y-37522D01*
X38174Y-37522D01*
G37*
G36*
X37951Y-37299D02*
X37395Y-37856D01*
X37225Y-37686D01*
X37782Y-37129D01*
X37951Y-37299D01*
X37951Y-37299D01*
G37*
G36*
X42379Y-35098D02*
X41823Y-35655D01*
X41710Y-35542D01*
X42266Y-34985D01*
X42379Y-35098D01*
X42379Y-35098D01*
G37*
G36*
X42602Y-35321D02*
X42045Y-35878D01*
X41932Y-35764D01*
X42489Y-35208D01*
X42602Y-35321D01*
X42602Y-35321D01*
G37*
G36*
X42825Y-35543D02*
X42268Y-36100D01*
X42155Y-35987D01*
X42712Y-35430D01*
X42825Y-35543D01*
X42825Y-35543D01*
G37*
G36*
X43048Y-35766D02*
X42491Y-36323D01*
X42378Y-36210D01*
X42935Y-35653D01*
X43048Y-35766D01*
X43048Y-35766D01*
G37*
G36*
X43270Y-35989D02*
X42714Y-36546D01*
X42601Y-36433D01*
X43157Y-35876D01*
X43270Y-35989D01*
X43270Y-35989D01*
G37*
G36*
X42157Y-34875D02*
X41600Y-35432D01*
X41487Y-35319D01*
X42044Y-34762D01*
X42157Y-34875D01*
X42157Y-34875D01*
G37*
G36*
X41934Y-34653D02*
X41377Y-35209D01*
X41264Y-35096D01*
X41821Y-34539D01*
X41934Y-34653D01*
X41934Y-34653D01*
G37*
G36*
X41711Y-34430D02*
X41155Y-34987D01*
X41041Y-34873D01*
X41598Y-34317D01*
X41711Y-34430D01*
X41711Y-34430D01*
G37*
G36*
X41489Y-34207D02*
X40932Y-34764D01*
X40819Y-34651D01*
X41375Y-34094D01*
X41489Y-34207D01*
X41489Y-34207D01*
G37*
G36*
X41266Y-33984D02*
X40709Y-34541D01*
X40596Y-34428D01*
X41153Y-33871D01*
X41266Y-33984D01*
X41266Y-33984D01*
G37*
G36*
X42379Y-38856D02*
X42266Y-38969D01*
X41710Y-38412D01*
X41823Y-38299D01*
X42379Y-38856D01*
X42379Y-38856D01*
G37*
G36*
X39065Y-35542D02*
X38952Y-35655D01*
X38395Y-35098D01*
X38508Y-34985D01*
X39065Y-35542D01*
X39065Y-35542D01*
G37*
G36*
X42602Y-38633D02*
X42489Y-38747D01*
X41932Y-38190D01*
X42045Y-38077D01*
X42602Y-38633D01*
X42602Y-38633D01*
G37*
G36*
X39288Y-35319D02*
X39175Y-35432D01*
X38618Y-34875D01*
X38731Y-34762D01*
X39288Y-35319D01*
X39288Y-35319D01*
G37*
G36*
X39510Y-35096D02*
X39397Y-35209D01*
X38841Y-34653D01*
X38954Y-34539D01*
X39510Y-35096D01*
X39510Y-35096D01*
G37*
G36*
X42825Y-38411D02*
X42712Y-38524D01*
X42155Y-37967D01*
X42268Y-37854D01*
X42825Y-38411D01*
X42825Y-38411D01*
G37*
G36*
X43048Y-38188D02*
X42935Y-38301D01*
X42378Y-37744D01*
X42491Y-37631D01*
X43048Y-38188D01*
X43048Y-38188D01*
G37*
G36*
X39733Y-34873D02*
X39620Y-34987D01*
X39063Y-34430D01*
X39176Y-34317D01*
X39733Y-34873D01*
X39733Y-34873D01*
G37*
G36*
X39956Y-34651D02*
X39843Y-34764D01*
X39286Y-34207D01*
X39399Y-34094D01*
X39956Y-34651D01*
X39956Y-34651D01*
G37*
G36*
X43270Y-37965D02*
X43157Y-38078D01*
X42601Y-37522D01*
X42714Y-37408D01*
X43270Y-37965D01*
X43270Y-37965D01*
G37*
G36*
X43493Y-37742D02*
X43380Y-37856D01*
X42823Y-37299D01*
X42936Y-37186D01*
X43493Y-37742D01*
X43493Y-37742D01*
G37*
G36*
X40235Y-34371D02*
X40066Y-34541D01*
X39509Y-33984D01*
X39678Y-33815D01*
X40235Y-34371D01*
X40235Y-34371D01*
G37*
G36*
X38842Y-35764D02*
X38729Y-35878D01*
X38172Y-35321D01*
X38285Y-35208D01*
X38842Y-35764D01*
X38842Y-35764D01*
G37*
G36*
X42157Y-39079D02*
X42044Y-39192D01*
X41487Y-38635D01*
X41600Y-38522D01*
X42157Y-39079D01*
X42157Y-39079D01*
G37*
G36*
X41934Y-39302D02*
X41821Y-39415D01*
X41264Y-38858D01*
X41377Y-38745D01*
X41934Y-39302D01*
X41934Y-39302D01*
G37*
G36*
X38620Y-35987D02*
X38506Y-36100D01*
X37950Y-35543D01*
X38063Y-35430D01*
X38620Y-35987D01*
X38620Y-35987D01*
G37*
G36*
X38397Y-36210D02*
X38284Y-36323D01*
X37727Y-35766D01*
X37840Y-35653D01*
X38397Y-36210D01*
X38397Y-36210D01*
G37*
G36*
X41711Y-39524D02*
X41598Y-39637D01*
X41041Y-39081D01*
X41155Y-38968D01*
X41711Y-39524D01*
X41711Y-39524D01*
G37*
G36*
X41489Y-39747D02*
X41375Y-39860D01*
X40819Y-39303D01*
X40932Y-39190D01*
X41489Y-39747D01*
X41489Y-39747D01*
G37*
G36*
X38174Y-36433D02*
X38061Y-36546D01*
X37504Y-35989D01*
X37617Y-35876D01*
X38174Y-36433D01*
X38174Y-36433D01*
G37*
G36*
X37951Y-36655D02*
X37838Y-36768D01*
X37281Y-36212D01*
X37395Y-36099D01*
X37951Y-36655D01*
X37951Y-36655D01*
G37*
G36*
X41266Y-39970D02*
X41096Y-40140D01*
X40539Y-39583D01*
X40709Y-39413D01*
X41266Y-39970D01*
X41266Y-39970D01*
G37*
G36*
X43550Y-36268D02*
X42993Y-36825D01*
X42823Y-36655D01*
X43380Y-36099D01*
X43550Y-36268D01*
X43550Y-36268D01*
G37*
G54D13*
X43700Y-41874D03*
X43700Y-41274D03*
X43070Y-41874D03*
X43070Y-41274D03*
G54D14*
X48248Y-33350D03*
X48248Y-35271D03*
G54D15*
X30177Y-32007D03*
X28799Y-32007D03*
G54D16*
X61051Y-25177D03*
X60051Y-25177D03*
G54D17*
X34763Y-40661D03*
X34763Y-36661D03*
X33582Y-40661D03*
X33582Y-36661D03*
X32401Y-40661D03*
X32401Y-36661D03*
X31220Y-40661D03*
X31220Y-36661D03*
X30039Y-40661D03*
X30039Y-36661D03*
X28858Y-40661D03*
X28858Y-36661D03*
G54D18*
X44940Y-43976D03*
G54D16*
X46968Y-43188D03*
G54D19*
X47196Y-25078D03*
G54D16*
X47362Y-26653D03*
G54D20*
X43110Y-42746D03*
X43366Y-42746D03*
X43622Y-42746D03*
X43877Y-42746D03*
X44133Y-42746D03*
G54D21*
X44842Y-42795D03*
X42401Y-42795D03*
G54D10*
G36*
X34239Y-34874D02*
X35228Y-33884D01*
X35723Y-34379D01*
X34733Y-35369D01*
X34239Y-34874D01*
X34239Y-34874D01*
G37*
G36*
X35299Y-35935D02*
X36289Y-34945D01*
X36784Y-35440D01*
X35794Y-36430D01*
X35299Y-35935D01*
X35299Y-35935D01*
G37*
G54D16*
X45810Y-41827D03*
X45810Y-40827D03*
X45810Y-39827D03*
X45810Y-38827D03*
X45810Y-37827D03*
X45810Y-36827D03*
X45810Y-35827D03*
X45810Y-34827D03*
X45810Y-32227D03*
X45810Y-31227D03*
X45810Y-30227D03*
X45810Y-29227D03*
X45810Y-28227D03*
X45810Y-27227D03*
X45810Y-26227D03*
X45810Y-25227D03*
X26810Y-34827D03*
X26810Y-33827D03*
X26810Y-32827D03*
X26810Y-31827D03*
X26810Y-30827D03*
X26810Y-29827D03*
X26810Y-28827D03*
X26810Y-27827D03*
X26810Y-43827D03*
X26810Y-42827D03*
X26810Y-41827D03*
X26810Y-40827D03*
X26810Y-39827D03*
X26810Y-38827D03*
X26810Y-37827D03*
X26810Y-36827D03*
G54D17*
X47517Y-31007D03*
X47517Y-30007D03*
X48517Y-31007D03*
X48517Y-30007D03*
X49517Y-31007D03*
X49517Y-30007D03*
X37322Y-28590D03*
X37322Y-32590D03*
X52874Y-36464D03*
X52874Y-40464D03*
X54251Y-36464D03*
X54251Y-40464D03*
X57007Y-36464D03*
X57007Y-40464D03*
X58385Y-36464D03*
X58385Y-40464D03*
X55629Y-40464D03*
X55629Y-36464D03*
X58385Y-33968D03*
X58385Y-29968D03*
X57007Y-33968D03*
X57007Y-29968D03*
X55629Y-33968D03*
X55629Y-29968D03*
X54251Y-33968D03*
X54251Y-29968D03*
X44212Y-28590D03*
X44212Y-32590D03*
X41456Y-28590D03*
X41456Y-32590D03*
X40078Y-28590D03*
X40078Y-32590D03*
X38700Y-28590D03*
X38700Y-32590D03*
X31811Y-28590D03*
X31811Y-32590D03*
X33188Y-28590D03*
X33188Y-32590D03*
X34566Y-28590D03*
X34566Y-32590D03*
X42834Y-28590D03*
X42834Y-32590D03*
X35944Y-28590D03*
X35944Y-32590D03*
G54D22*
X44827Y-36889D03*
X44227Y-36889D03*
X37687Y-40527D03*
X38287Y-40527D03*
G54D23*
X52587Y-32727D03*
X52587Y-33327D03*
X43779Y-35300D03*
X43779Y-34700D03*
G54D22*
X40103Y-40511D03*
X39503Y-40511D03*
G54D23*
X36811Y-37337D03*
X36811Y-37937D03*
G54D22*
X40192Y-33562D03*
X40792Y-33562D03*
X43787Y-39977D03*
X43187Y-39977D03*
G54D13*
X49862Y-38587D03*
X49862Y-37987D03*
X49035Y-37386D03*
X49035Y-36786D03*
G54D23*
X50688Y-35349D03*
X50688Y-35949D03*
X31870Y-35201D03*
X31870Y-34601D03*
X44448Y-35300D03*
X44448Y-34700D03*
X32519Y-34601D03*
X32519Y-35201D03*
G54D13*
X49035Y-37987D03*
X49035Y-38587D03*
G54D23*
X33169Y-34601D03*
X33169Y-35201D03*
G54D10*
G36*
X36590Y-36542D02*
X36272Y-36224D01*
X36449Y-36047D01*
X36767Y-36365D01*
X36590Y-36542D01*
X36590Y-36542D01*
G37*
G36*
X37015Y-36118D02*
X36696Y-35799D01*
X36873Y-35623D01*
X37191Y-35941D01*
X37015Y-36118D01*
X37015Y-36118D01*
G37*
G54D16*
X57948Y-29015D03*
X56948Y-29015D03*
X55948Y-29015D03*
X54948Y-29015D03*
X53948Y-29015D03*
X52948Y-29015D03*
X51948Y-29015D03*
X50948Y-29015D03*
G54D24*
X29133Y-26259D03*
G54D16*
X27833Y-24959D03*
X30433Y-24959D03*
X27833Y-27559D03*
X30433Y-27559D03*
G54D24*
X32755Y-26259D03*
G54D16*
X31455Y-24959D03*
X34055Y-24959D03*
X31455Y-27559D03*
X34055Y-27559D03*
G54D24*
X32755Y-42795D03*
G54D16*
X34055Y-44095D03*
X31455Y-44095D03*
X34055Y-41495D03*
X31455Y-41495D03*
G54D24*
X49881Y-42795D03*
G54D16*
X51181Y-44095D03*
X48581Y-44095D03*
X51181Y-41495D03*
X48581Y-41495D03*
G54D24*
X53503Y-42795D03*
G54D16*
X54803Y-44095D03*
X52203Y-44095D03*
X54803Y-41495D03*
X52203Y-41495D03*
G54D24*
X57125Y-42795D03*
G54D16*
X58425Y-44095D03*
X55825Y-44095D03*
X58425Y-41495D03*
X55825Y-41495D03*
G54D24*
X60747Y-41771D03*
G54D16*
X62047Y-40471D03*
X62047Y-43071D03*
X59447Y-40471D03*
X59447Y-43071D03*
G54D24*
X60747Y-38149D03*
G54D16*
X62047Y-36849D03*
X62047Y-39449D03*
X59447Y-36849D03*
X59447Y-39449D03*
G54D24*
X60747Y-34527D03*
G54D16*
X62047Y-33227D03*
X62047Y-35827D03*
X59447Y-33227D03*
X59447Y-35827D03*
G54D24*
X60747Y-30905D03*
G54D16*
X62047Y-29605D03*
X62047Y-32205D03*
X59447Y-29605D03*
X59447Y-32205D03*
G54D24*
X60747Y-27283D03*
G54D16*
X62047Y-25983D03*
X62047Y-28583D03*
X59447Y-25983D03*
X59447Y-28583D03*
G54D24*
X57125Y-26259D03*
G54D16*
X55825Y-24959D03*
X58425Y-24959D03*
X55825Y-27559D03*
X58425Y-27559D03*
G54D24*
X53503Y-26259D03*
G54D16*
X52203Y-24959D03*
X54803Y-24959D03*
X52203Y-27559D03*
X54803Y-27559D03*
G54D24*
X49881Y-26259D03*
G54D16*
X48581Y-24959D03*
X51181Y-24959D03*
X48581Y-27559D03*
X51181Y-27559D03*
G54D24*
X36377Y-26259D03*
G54D16*
X35077Y-24959D03*
X37677Y-24959D03*
X35077Y-27559D03*
X37677Y-27559D03*
G54D24*
X24527Y-27283D03*
G54D16*
X23227Y-28583D03*
X23227Y-25983D03*
X25827Y-28583D03*
X25827Y-25983D03*
G54D24*
X24527Y-30905D03*
G54D16*
X23227Y-32205D03*
X23227Y-29605D03*
X25827Y-32205D03*
X25827Y-29605D03*
G54D24*
X24527Y-34527D03*
G54D16*
X23227Y-35827D03*
X23227Y-33227D03*
X25827Y-35827D03*
X25827Y-33227D03*
G54D24*
X24527Y-38149D03*
G54D16*
X23227Y-39449D03*
X23227Y-36849D03*
X25827Y-39449D03*
X25827Y-36849D03*
G54D24*
X24527Y-41771D03*
G54D16*
X23227Y-43071D03*
X23227Y-40471D03*
X25827Y-43071D03*
X25827Y-40471D03*
G54D24*
X29133Y-42795D03*
G54D16*
X30433Y-44095D03*
X27833Y-44095D03*
X30433Y-41495D03*
X27833Y-41495D03*
G54D24*
X36377Y-42795D03*
G54D16*
X37677Y-44095D03*
X35077Y-44095D03*
X37677Y-41495D03*
X35077Y-41495D03*
G54D24*
X39999Y-42795D03*
G54D16*
X41299Y-44095D03*
X38699Y-44095D03*
X41299Y-41495D03*
X38699Y-41495D03*
G54D24*
X39999Y-26259D03*
G54D16*
X38699Y-24959D03*
X41299Y-24959D03*
X38699Y-27559D03*
X41299Y-27559D03*
G54D24*
X43610Y-26259D03*
G54D16*
X42310Y-24959D03*
X44910Y-24959D03*
X42310Y-27559D03*
X44910Y-27559D03*
G54D25*
X35826Y-37106D03*
X51937Y-31377D03*
X41929Y-41732D03*
X56299Y-31496D03*
X51937Y-30027D03*
X35748Y-35078D03*
X36476Y-39783D03*
X36122Y-40118D03*
X35610Y-40196D03*
X38858Y-39921D03*
X49940Y-32165D03*
X40857Y-29427D03*
X28543Y-28937D03*
X47342Y-38622D03*
X45098Y-33838D03*
X38976Y-34153D03*
X36497Y-34347D03*
X52893Y-38484D03*
X55669Y-38838D03*
X42204Y-41338D03*
X37322Y-31161D03*
X35925Y-30610D03*
X58011Y-35925D03*
X58366Y-38838D03*
X52559Y-37598D03*
X46476Y-33996D03*
X53169Y-37224D03*
X46929Y-33976D03*
X58385Y-38287D03*
X46023Y-33996D03*
X52874Y-37972D03*
X50354Y-31594D03*
X44921Y-29409D03*
X43537Y-28227D03*
X47795Y-38877D03*
X40059Y-35374D03*
X53661Y-38700D03*
X41377Y-37972D03*
X40669Y-38562D03*
X53287Y-30728D03*
X33641Y-38385D03*
X36476Y-39330D03*
X44507Y-41692D03*
X42559Y-41043D03*
X50575Y-33164D03*
X36279Y-36909D03*
X38917Y-37657D03*
X56988Y-32657D03*
X54271Y-31850D03*
X54251Y-35196D03*
X57440Y-35984D03*
X52874Y-35787D03*
X52598Y-34429D03*
X41122Y-35846D03*
X39921Y-38444D03*
X36496Y-32933D03*
X34586Y-30531D03*
X53129Y-33405D03*
X49586Y-33858D03*
X44724Y-37440D03*
X40433Y-34153D03*
X47834Y-41870D03*
X42508Y-39477D03*
X32598Y-34133D03*
X49822Y-33031D03*
X51456Y-35196D03*
G54D26*
X35826Y-37106D02*
X35826Y-35903D01*
X35826Y-35903D02*
X36042Y-35687D01*
X36811Y-37337D02*
X36058Y-37337D01*
X36058Y-37337D02*
X35826Y-37106D01*
X40287Y-38956D02*
X40287Y-38299D01*
X39177Y-37188D02*
X39177Y-37066D01*
X40287Y-38299D02*
X39177Y-37188D01*
X51087Y-32238D02*
X51087Y-31748D01*
X53897Y-31496D02*
X53779Y-31377D01*
X51458Y-31377D02*
X51937Y-31377D01*
X51087Y-31748D02*
X51458Y-31377D01*
X51929Y-31377D02*
X53779Y-31377D01*
X51937Y-31377D02*
X51929Y-31377D01*
X56299Y-31496D02*
X53897Y-31496D01*
X54251Y-36464D02*
X54251Y-36437D01*
X53236Y-36102D02*
X52874Y-36464D01*
X53917Y-36102D02*
X53236Y-36102D01*
X54251Y-36437D02*
X53917Y-36102D01*
X52874Y-36464D02*
X52137Y-36464D01*
X51786Y-38587D02*
X51948Y-38425D01*
X51948Y-37047D02*
X51948Y-38425D01*
X51535Y-38587D02*
X51786Y-38587D01*
X52137Y-36464D02*
X51948Y-36653D01*
X51948Y-36653D02*
X51948Y-37047D01*
X58385Y-33968D02*
X58385Y-32893D01*
X56988Y-31496D02*
X56299Y-31496D01*
X58385Y-32893D02*
X56988Y-31496D01*
X41791Y-41161D02*
X41791Y-41594D01*
X41791Y-41594D02*
X41929Y-41732D01*
X41791Y-41161D02*
X41637Y-41007D01*
X41259Y-41007D02*
X41637Y-41007D01*
X40098Y-41007D02*
X41259Y-41007D01*
X27440Y-30433D02*
X27440Y-29457D01*
X27440Y-29457D02*
X26810Y-28827D01*
X27440Y-31197D02*
X26810Y-31827D01*
X27440Y-30433D02*
X27440Y-31197D01*
X57007Y-33968D02*
X58385Y-33968D01*
X43779Y-35300D02*
X43401Y-35300D01*
X43401Y-35300D02*
X42713Y-35988D01*
X44448Y-34700D02*
X44660Y-34700D01*
X45000Y-35039D02*
X45000Y-36062D01*
X44660Y-34700D02*
X45000Y-35039D01*
X44448Y-34700D02*
X44379Y-34700D01*
X44379Y-34700D02*
X43779Y-35300D01*
X41088Y-36496D02*
X42205Y-36496D01*
X42205Y-36496D02*
X42713Y-35988D01*
X41088Y-36496D02*
X40417Y-35826D01*
X52587Y-32727D02*
X51192Y-32727D01*
X51087Y-32623D02*
X51087Y-32238D01*
X51192Y-32727D02*
X51087Y-32623D01*
X50688Y-38587D02*
X51535Y-38587D01*
X49862Y-38587D02*
X50688Y-38587D01*
X40417Y-35826D02*
X40417Y-35225D01*
X40417Y-35225D02*
X39621Y-34429D01*
X40192Y-33562D02*
X39488Y-33562D01*
X39330Y-34138D02*
X39621Y-34429D01*
X39330Y-33720D02*
X39330Y-34138D01*
X39488Y-33562D02*
X39330Y-33720D01*
X39177Y-37066D02*
X38014Y-37066D01*
X38014Y-37066D02*
X37588Y-37492D01*
X36811Y-37337D02*
X37433Y-37337D01*
X37433Y-37337D02*
X37588Y-37492D01*
X40287Y-39305D02*
X39910Y-39682D01*
X40287Y-38956D02*
X40287Y-39305D01*
X40393Y-39199D02*
X40827Y-39199D01*
X40827Y-39199D02*
X41087Y-39459D01*
X40393Y-39199D02*
X39910Y-39682D01*
X40103Y-40511D02*
X40103Y-39874D01*
X40103Y-39874D02*
X39910Y-39682D01*
X40103Y-40511D02*
X40103Y-41002D01*
X40103Y-41002D02*
X40098Y-41007D01*
X35437Y-41007D02*
X40098Y-41007D01*
X35091Y-40661D02*
X35437Y-41007D01*
X34763Y-40661D02*
X35091Y-40661D01*
X40192Y-33562D02*
X40196Y-33562D01*
X42112Y-32631D02*
X42112Y-31432D01*
X41633Y-33110D02*
X42112Y-32631D01*
X40649Y-33110D02*
X41633Y-33110D01*
X40196Y-33562D02*
X40649Y-33110D01*
X42112Y-31432D02*
X44212Y-29332D01*
X44212Y-29332D02*
X44212Y-28590D01*
X58055Y-36795D02*
X57338Y-36795D01*
X58055Y-36795D02*
X58385Y-36464D01*
X57338Y-36795D02*
X57007Y-36464D01*
X40417Y-35826D02*
X39177Y-37066D01*
X47517Y-30007D02*
X47517Y-29944D01*
X50634Y-30051D02*
X50634Y-30027D01*
X49861Y-29278D02*
X50634Y-30051D01*
X48184Y-29278D02*
X49861Y-29278D01*
X47517Y-29944D02*
X48184Y-29278D01*
X54251Y-33968D02*
X54251Y-33321D01*
X53657Y-32727D02*
X52587Y-32727D01*
X54251Y-33321D02*
X53657Y-32727D01*
X55629Y-33968D02*
X57007Y-33968D01*
X58387Y-36462D02*
X58387Y-33970D01*
X58387Y-36462D02*
X58385Y-36464D01*
X58387Y-33970D02*
X58385Y-33968D01*
X34763Y-40661D02*
X33582Y-40661D01*
X33582Y-40661D02*
X32401Y-40661D01*
X32401Y-40661D02*
X31220Y-40661D01*
X28858Y-40661D02*
X30039Y-40661D01*
X30039Y-40661D02*
X31220Y-40661D01*
X50634Y-30027D02*
X51937Y-30027D01*
X30587Y-34777D02*
X26860Y-34777D01*
X31870Y-35201D02*
X31220Y-35201D01*
X30996Y-35186D02*
X30587Y-34777D01*
X31220Y-35201D02*
X30996Y-35186D01*
X26860Y-34777D02*
X26810Y-34827D01*
X34981Y-34627D02*
X35296Y-34627D01*
X35296Y-34627D02*
X35748Y-35078D01*
X36240Y-38298D02*
X35109Y-38298D01*
X34763Y-37952D02*
X34763Y-36661D01*
X35109Y-38298D02*
X34763Y-37952D01*
X36496Y-38298D02*
X36240Y-38298D01*
X37480Y-38298D02*
X36496Y-38298D01*
X32677Y-35527D02*
X33629Y-35527D01*
X26810Y-36304D02*
X26810Y-36827D01*
X30447Y-35087D02*
X30887Y-35527D01*
X28027Y-35087D02*
X26810Y-36304D01*
X30447Y-35087D02*
X28027Y-35087D01*
X32677Y-35527D02*
X30887Y-35527D01*
X33629Y-35527D02*
X34763Y-36661D01*
X37730Y-38298D02*
X38128Y-37900D01*
X37480Y-38298D02*
X37730Y-38298D01*
X25488Y-38149D02*
X26810Y-36827D01*
X24527Y-38149D02*
X25488Y-38149D01*
X36122Y-38547D02*
X34669Y-38547D01*
X33582Y-37460D02*
X33582Y-36661D01*
X34669Y-38547D02*
X33582Y-37460D01*
X36751Y-38547D02*
X36122Y-38547D01*
X37926Y-38547D02*
X38351Y-38123D01*
X36751Y-38547D02*
X37926Y-38547D01*
X33582Y-36661D02*
X33582Y-36272D01*
X33137Y-35827D02*
X30747Y-35827D01*
X33582Y-36272D02*
X33137Y-35827D01*
X27487Y-36041D02*
X27487Y-37150D01*
X27487Y-37150D02*
X26810Y-37827D01*
X30267Y-35347D02*
X30747Y-35827D01*
X28181Y-35347D02*
X30267Y-35347D01*
X28181Y-35347D02*
X27487Y-36041D01*
X26337Y-39977D02*
X26337Y-38300D01*
X26337Y-38300D02*
X26810Y-37827D01*
X24543Y-41771D02*
X26337Y-39977D01*
X24527Y-41771D02*
X24543Y-41771D01*
X36476Y-39783D02*
X36300Y-39783D01*
X35690Y-39173D02*
X32755Y-39173D01*
X36300Y-39783D02*
X35690Y-39173D01*
X38042Y-38877D02*
X37461Y-38877D01*
X36555Y-39783D02*
X36476Y-39783D01*
X37461Y-38877D02*
X36555Y-39783D01*
X38042Y-38877D02*
X38574Y-38345D01*
X32401Y-36661D02*
X32401Y-38451D01*
X32401Y-38818D02*
X32401Y-38451D01*
X32755Y-39173D02*
X32401Y-38818D01*
X32401Y-36661D02*
X32401Y-36411D01*
X32117Y-36127D02*
X30637Y-36127D01*
X32401Y-36411D02*
X32117Y-36127D01*
X27767Y-36129D02*
X27767Y-37870D01*
X30117Y-35607D02*
X30637Y-36127D01*
X27767Y-37870D02*
X26810Y-38827D01*
X30117Y-35607D02*
X28289Y-35607D01*
X28289Y-35607D02*
X27767Y-36129D01*
X38730Y-38634D02*
X38727Y-38634D01*
X36252Y-40248D02*
X36122Y-40118D01*
X36564Y-40248D02*
X36252Y-40248D01*
X37680Y-39133D02*
X36564Y-40248D01*
X38228Y-39133D02*
X37680Y-39133D01*
X38727Y-38634D02*
X38228Y-39133D01*
X35472Y-39468D02*
X35137Y-39468D01*
X36122Y-40118D02*
X35472Y-39468D01*
X31220Y-39015D02*
X31220Y-38630D01*
X31220Y-36661D02*
X31220Y-38630D01*
X35137Y-39468D02*
X31673Y-39468D01*
X31673Y-39468D02*
X31220Y-39015D01*
X31220Y-36661D02*
X30771Y-36661D01*
X30771Y-36661D02*
X29977Y-35867D01*
X26810Y-39827D02*
X26987Y-39827D01*
X28027Y-38610D02*
X28027Y-36237D01*
X28027Y-38610D02*
X26810Y-39827D01*
X28397Y-35867D02*
X29977Y-35867D01*
X28027Y-36237D02*
X28397Y-35867D01*
X35000Y-39822D02*
X35236Y-39822D01*
X35236Y-39822D02*
X35610Y-40196D01*
X35236Y-39822D02*
X35610Y-40196D01*
X36496Y-40498D02*
X35911Y-40498D01*
X35911Y-40498D02*
X35610Y-40196D01*
X38393Y-39417D02*
X37749Y-39417D01*
X37749Y-39417D02*
X37588Y-39578D01*
X34488Y-39822D02*
X35000Y-39822D01*
X36496Y-40498D02*
X36668Y-40498D01*
X36668Y-40498D02*
X37588Y-39578D01*
X30039Y-38503D02*
X30039Y-39389D01*
X30472Y-39822D02*
X34488Y-39822D01*
X30039Y-39389D02*
X30472Y-39822D01*
X38393Y-39417D02*
X38953Y-38857D01*
X30039Y-36661D02*
X30039Y-38503D01*
X28587Y-36127D02*
X29505Y-36127D01*
X29505Y-36127D02*
X30039Y-36661D01*
X28287Y-36427D02*
X28287Y-39350D01*
X28587Y-36127D02*
X28287Y-36427D01*
X28287Y-39350D02*
X26810Y-40827D01*
X38576Y-39679D02*
X37840Y-39679D01*
X37840Y-39679D02*
X37691Y-39828D01*
X31791Y-40177D02*
X34980Y-40177D01*
X31791Y-40177D02*
X29568Y-40177D01*
X29568Y-40177D02*
X28858Y-39467D01*
X34980Y-40177D02*
X35551Y-40748D01*
X35551Y-40748D02*
X36771Y-40748D01*
X36771Y-40748D02*
X37691Y-39828D01*
X38576Y-39679D02*
X39176Y-39080D01*
X26810Y-41827D02*
X26810Y-41514D01*
X26810Y-41514D02*
X28858Y-39467D01*
X28858Y-39467D02*
X28858Y-36661D01*
X29133Y-42795D02*
X27778Y-42795D01*
X27778Y-42795D02*
X26810Y-41827D01*
X38858Y-39921D02*
X38858Y-39843D01*
X38858Y-39843D02*
X39398Y-39303D01*
X38850Y-39928D02*
X37945Y-39928D01*
X37687Y-40186D02*
X37945Y-39928D01*
X37687Y-40527D02*
X37687Y-40186D01*
X38858Y-39921D02*
X38850Y-39928D01*
X55466Y-29251D02*
X55466Y-27918D01*
X55466Y-27918D02*
X57125Y-26259D01*
X55466Y-29251D02*
X55466Y-29297D01*
X54795Y-29968D02*
X54251Y-29968D01*
X55466Y-29297D02*
X54795Y-29968D01*
X52637Y-28366D02*
X53299Y-28366D01*
X53299Y-28366D02*
X53948Y-29015D01*
X54251Y-29968D02*
X54251Y-29318D01*
X54251Y-29318D02*
X53948Y-29015D01*
X52637Y-28366D02*
X47739Y-28366D01*
X47739Y-28366D02*
X46417Y-29687D01*
X44177Y-33327D02*
X42701Y-33327D01*
X42701Y-33327D02*
X41310Y-34718D01*
X44177Y-33327D02*
X45037Y-32467D01*
X46417Y-29687D02*
X46417Y-30587D01*
X45037Y-31077D02*
X45037Y-32467D01*
X45337Y-30777D02*
X45037Y-31077D01*
X46417Y-30587D02*
X46227Y-30777D01*
X46227Y-30777D02*
X45337Y-30777D01*
X53759Y-28405D02*
X54338Y-28405D01*
X54338Y-28405D02*
X54948Y-29015D01*
X53464Y-28116D02*
X53464Y-26298D01*
X53464Y-26298D02*
X53503Y-26259D01*
X53470Y-28116D02*
X53464Y-28116D01*
X53464Y-28116D02*
X47588Y-28116D01*
X53759Y-28405D02*
X53470Y-28116D01*
X47588Y-28116D02*
X45977Y-29727D01*
X44212Y-32590D02*
X44212Y-31032D01*
X45517Y-29727D02*
X45977Y-29727D01*
X44212Y-31032D02*
X45517Y-29727D01*
X43308Y-33077D02*
X43725Y-33077D01*
X43725Y-33077D02*
X44212Y-32590D01*
X42505Y-33077D02*
X43308Y-33077D01*
X42505Y-33077D02*
X41087Y-34495D01*
X28858Y-28127D02*
X30103Y-28127D01*
X30103Y-28127D02*
X34566Y-32590D01*
X34566Y-32590D02*
X35260Y-32590D01*
X36987Y-34467D02*
X38351Y-35831D01*
X36987Y-34467D02*
X36987Y-34317D01*
X35260Y-32590D02*
X36987Y-34317D01*
X27537Y-28127D02*
X27342Y-27933D01*
X27342Y-27933D02*
X27342Y-27519D01*
X27342Y-27519D02*
X27106Y-27283D01*
X27106Y-27283D02*
X24527Y-27283D01*
X27537Y-28127D02*
X28858Y-28127D01*
X49940Y-32165D02*
X49940Y-31240D01*
X50304Y-30876D02*
X50363Y-30876D01*
X49940Y-31240D02*
X50304Y-30876D01*
X55039Y-31082D02*
X56614Y-31082D01*
X52923Y-30876D02*
X53129Y-31082D01*
X50363Y-30876D02*
X52923Y-30876D01*
X55039Y-31082D02*
X53129Y-31082D01*
X56614Y-31082D02*
X57302Y-31082D01*
X49940Y-32165D02*
X49763Y-32165D01*
X49763Y-32165D02*
X49151Y-32777D01*
X57302Y-31082D02*
X57302Y-31051D01*
X57302Y-31051D02*
X58385Y-29968D01*
X57302Y-31082D02*
X60747Y-34527D01*
X49151Y-35475D02*
X49151Y-32777D01*
X44488Y-37814D02*
X45118Y-37814D01*
X43173Y-36500D02*
X43092Y-36500D01*
X44488Y-37814D02*
X43173Y-36500D01*
X46889Y-37322D02*
X47304Y-37322D01*
X49151Y-35475D02*
X47304Y-37322D01*
X45118Y-37814D02*
X45610Y-37322D01*
X45610Y-37322D02*
X46889Y-37322D01*
X40078Y-32590D02*
X39594Y-32590D01*
X39594Y-32590D02*
X38597Y-33587D01*
X40857Y-29427D02*
X40857Y-27117D01*
X40857Y-27117D02*
X39999Y-26259D01*
X40857Y-29427D02*
X40078Y-30206D01*
X40078Y-32590D02*
X40078Y-30206D01*
X38597Y-33587D02*
X38597Y-34296D01*
X38597Y-34296D02*
X39242Y-34941D01*
X28425Y-29055D02*
X28425Y-29370D01*
X28543Y-28937D02*
X28425Y-29055D01*
X28425Y-31023D02*
X28425Y-29370D01*
X26692Y-32302D02*
X27146Y-32302D01*
X31811Y-32007D02*
X31811Y-32590D01*
X30826Y-31023D02*
X31811Y-32007D01*
X28425Y-31023D02*
X30826Y-31023D01*
X27146Y-32302D02*
X28425Y-31023D01*
X33818Y-33346D02*
X33267Y-33346D01*
X33818Y-33346D02*
X34974Y-33346D01*
X34974Y-33346D02*
X37839Y-36211D01*
X33267Y-33346D02*
X32511Y-32590D01*
X32511Y-32590D02*
X31811Y-32590D01*
X26613Y-32302D02*
X24527Y-34387D01*
X26613Y-32302D02*
X26692Y-32302D01*
X24527Y-34387D02*
X24527Y-34527D01*
X55122Y-30476D02*
X53935Y-30476D01*
X53935Y-30476D02*
X53111Y-29652D01*
X61051Y-25177D02*
X61051Y-26980D01*
X61051Y-26980D02*
X60747Y-27283D01*
X46227Y-31677D02*
X45687Y-31677D01*
X46707Y-31197D02*
X46227Y-31677D01*
X46707Y-29917D02*
X46707Y-31197D01*
X44308Y-33577D02*
X42897Y-33577D01*
X42897Y-33577D02*
X41533Y-34941D01*
X44308Y-33577D02*
X45337Y-32547D01*
X50597Y-29652D02*
X49973Y-29028D01*
X49973Y-29028D02*
X47596Y-29028D01*
X47596Y-29028D02*
X46707Y-29917D01*
X53111Y-29652D02*
X50597Y-29652D01*
X45337Y-32547D02*
X45337Y-32027D01*
X45337Y-32027D02*
X45687Y-31677D01*
X55122Y-30476D02*
X55629Y-29968D01*
X56437Y-28777D02*
X56437Y-29160D01*
X56437Y-29160D02*
X55629Y-29968D01*
X59753Y-28277D02*
X60747Y-27283D01*
X56937Y-28277D02*
X59753Y-28277D01*
X56437Y-28777D02*
X56937Y-28277D01*
X47137Y-38827D02*
X45810Y-38827D01*
X47342Y-38622D02*
X47137Y-38827D01*
X53809Y-30738D02*
X56238Y-30738D01*
X56238Y-30738D02*
X57007Y-29968D01*
X53448Y-30377D02*
X53809Y-30738D01*
X45098Y-33838D02*
X45098Y-33586D01*
X44665Y-33818D02*
X44665Y-33826D01*
X43093Y-33826D02*
X41756Y-35163D01*
X44665Y-33826D02*
X43093Y-33826D01*
X45098Y-33838D02*
X45086Y-33826D01*
X45086Y-33826D02*
X44673Y-33826D01*
X44673Y-33826D02*
X44665Y-33818D01*
X45098Y-33586D02*
X46997Y-31687D01*
X47997Y-30247D02*
X47997Y-29817D01*
X46997Y-31687D02*
X46997Y-30667D01*
X47737Y-30507D02*
X47157Y-30507D01*
X47997Y-30247D02*
X47737Y-30507D01*
X47157Y-30507D02*
X46997Y-30667D01*
X53448Y-30377D02*
X50607Y-30377D01*
X50607Y-30377D02*
X49757Y-29527D01*
X47997Y-29817D02*
X48287Y-29527D01*
X48287Y-29527D02*
X49757Y-29527D01*
X59329Y-29487D02*
X57488Y-29487D01*
X59329Y-29487D02*
X60747Y-30905D01*
X57488Y-29487D02*
X57007Y-29968D01*
X38976Y-34153D02*
X38977Y-34153D01*
X38977Y-34153D02*
X38977Y-34231D01*
X40265Y-33100D02*
X39545Y-33100D01*
X38977Y-33667D02*
X38977Y-34231D01*
X40774Y-32590D02*
X40265Y-33100D01*
X41456Y-32590D02*
X40774Y-32590D01*
X39545Y-33100D02*
X38977Y-33667D01*
X43610Y-26259D02*
X43610Y-26395D01*
X42097Y-30507D02*
X41456Y-31148D01*
X42097Y-27907D02*
X42097Y-30507D01*
X43610Y-26395D02*
X42097Y-27907D01*
X41456Y-32590D02*
X41456Y-31148D01*
X38977Y-34231D02*
X39465Y-34718D01*
X27874Y-28378D02*
X29795Y-28378D01*
X33188Y-31771D02*
X33188Y-32590D01*
X29795Y-28378D02*
X33188Y-31771D01*
X27874Y-28378D02*
X26601Y-28378D01*
X35039Y-33070D02*
X33669Y-33070D01*
X33669Y-33070D02*
X33188Y-32590D01*
X35118Y-33070D02*
X35039Y-33070D01*
X35118Y-33070D02*
X35221Y-33070D01*
X35221Y-33070D02*
X36497Y-34347D01*
X26338Y-29094D02*
X24527Y-30905D01*
X26601Y-28378D02*
X26338Y-28641D01*
X26338Y-28641D02*
X26338Y-29094D01*
X36497Y-34347D02*
X36497Y-34423D01*
X36497Y-34423D02*
X38128Y-36054D01*
X38700Y-32590D02*
X38700Y-29590D01*
X38191Y-29081D02*
X38191Y-28073D01*
X38700Y-29590D02*
X38191Y-29081D01*
X38700Y-32590D02*
X38700Y-33084D01*
X38700Y-33084D02*
X38317Y-33467D01*
X38317Y-33467D02*
X38317Y-34462D01*
X38191Y-28073D02*
X36377Y-26259D01*
X38317Y-34462D02*
X39019Y-35163D01*
X54153Y-38307D02*
X54153Y-38327D01*
X54133Y-38327D02*
X54153Y-38307D01*
X53050Y-38327D02*
X54133Y-38327D01*
X52893Y-38484D02*
X53050Y-38327D01*
X54625Y-38327D02*
X55158Y-38327D01*
X54449Y-38327D02*
X54153Y-38327D01*
X54625Y-38327D02*
X54449Y-38327D01*
X55158Y-38327D02*
X55669Y-38838D01*
X42204Y-40688D02*
X42204Y-41338D01*
X52874Y-40464D02*
X52212Y-40464D01*
X52212Y-40464D02*
X49881Y-42795D01*
X41643Y-40127D02*
X41254Y-40127D01*
X41254Y-40127D02*
X40903Y-39776D01*
X41643Y-40127D02*
X42204Y-40688D01*
X37322Y-31161D02*
X37322Y-30669D01*
X32913Y-26259D02*
X32755Y-26259D01*
X37322Y-30669D02*
X32913Y-26259D01*
X37322Y-32590D02*
X37322Y-31161D01*
X37322Y-32590D02*
X37322Y-33312D01*
X37587Y-33577D02*
X37587Y-34177D01*
X37587Y-34177D02*
X38796Y-35386D01*
X37322Y-33312D02*
X37587Y-33577D01*
X36850Y-33496D02*
X36527Y-33496D01*
X35944Y-32913D02*
X35944Y-32590D01*
X36527Y-33496D02*
X35944Y-32913D01*
X36850Y-32263D02*
X36850Y-31535D01*
X36850Y-31535D02*
X35925Y-30610D01*
X36850Y-32519D02*
X36850Y-32263D01*
X36850Y-32519D02*
X36850Y-33496D01*
X36850Y-33496D02*
X36850Y-33503D01*
X36850Y-33503D02*
X36850Y-33496D01*
X32696Y-28067D02*
X33362Y-28067D01*
X32165Y-28067D02*
X31137Y-28067D01*
X31137Y-28067D02*
X30937Y-27867D01*
X30937Y-27867D02*
X30937Y-26827D01*
X30937Y-26827D02*
X30369Y-26259D01*
X30369Y-26259D02*
X29133Y-26259D01*
X32165Y-28067D02*
X32696Y-28067D01*
X33362Y-28067D02*
X35905Y-30610D01*
X35905Y-30610D02*
X35925Y-30610D01*
X37282Y-34318D02*
X37282Y-33928D01*
X37282Y-33928D02*
X36850Y-33496D01*
X37282Y-34318D02*
X38573Y-35609D01*
X52480Y-31732D02*
X53562Y-31732D01*
X53652Y-31822D02*
X55118Y-33287D01*
X53562Y-31732D02*
X53652Y-31822D01*
X55629Y-35039D02*
X55118Y-34527D01*
X57047Y-35039D02*
X55629Y-35039D01*
X55118Y-34527D02*
X55118Y-33287D01*
X58011Y-35925D02*
X57125Y-35039D01*
X57125Y-35039D02*
X57047Y-35039D01*
X51337Y-32238D02*
X51337Y-31851D01*
X51337Y-31851D02*
X51456Y-31732D01*
X51456Y-31732D02*
X52480Y-31732D01*
X54251Y-40464D02*
X54251Y-42047D01*
X54251Y-42047D02*
X53503Y-42795D01*
X43435Y-38612D02*
X42913Y-38612D01*
X42913Y-38612D02*
X42490Y-38189D01*
X53774Y-39987D02*
X54251Y-40464D01*
X44829Y-41482D02*
X44829Y-40006D01*
X44829Y-40006D02*
X43435Y-38612D01*
X44829Y-41482D02*
X45628Y-42282D01*
X46002Y-42282D02*
X45628Y-42282D01*
X48297Y-39987D02*
X46002Y-42282D01*
X53774Y-39987D02*
X48297Y-39987D01*
X57795Y-38818D02*
X58346Y-38818D01*
X58346Y-38818D02*
X58366Y-38838D01*
X46476Y-33996D02*
X46476Y-33405D01*
X48517Y-31364D02*
X48517Y-31007D01*
X46476Y-33405D02*
X48517Y-31364D01*
X55511Y-37607D02*
X56347Y-37607D01*
X56347Y-37607D02*
X57559Y-38818D01*
X57559Y-38818D02*
X57795Y-38818D01*
X55393Y-37607D02*
X55511Y-37607D01*
X43553Y-38356D02*
X43102Y-38356D01*
X46217Y-41327D02*
X47807Y-39738D01*
X45618Y-41327D02*
X46217Y-41327D01*
X45078Y-40787D02*
X45618Y-41327D01*
X45078Y-39881D02*
X43553Y-38356D01*
X45078Y-40787D02*
X45078Y-39881D01*
X56281Y-39738D02*
X57007Y-40464D01*
X47807Y-39738D02*
X56281Y-39738D01*
X43102Y-38356D02*
X42713Y-37966D01*
X52568Y-37607D02*
X55393Y-37607D01*
X52568Y-37607D02*
X52559Y-37598D01*
X57007Y-40464D02*
X57007Y-42677D01*
X57007Y-42677D02*
X57125Y-42795D01*
X53877Y-36948D02*
X53444Y-36948D01*
X53444Y-36948D02*
X53169Y-37224D01*
X55925Y-36948D02*
X53877Y-36948D01*
X56299Y-36948D02*
X56577Y-37227D01*
X55925Y-36948D02*
X56299Y-36948D01*
X49007Y-30590D02*
X49007Y-31779D01*
X48517Y-30007D02*
X48777Y-30007D01*
X48777Y-30007D02*
X49007Y-30237D01*
X49007Y-30237D02*
X49007Y-30590D01*
X49007Y-31779D02*
X46929Y-33858D01*
X46929Y-33858D02*
X46929Y-33976D01*
X57637Y-38287D02*
X58385Y-38287D01*
X56577Y-37227D02*
X57637Y-38287D01*
X43651Y-38080D02*
X43272Y-38080D01*
X43272Y-38080D02*
X42935Y-37743D01*
X45337Y-40127D02*
X45337Y-39766D01*
X45337Y-39766D02*
X43651Y-38080D01*
X57409Y-39488D02*
X58385Y-40464D01*
X46926Y-39488D02*
X57409Y-39488D01*
X45537Y-40327D02*
X45337Y-40127D01*
X45537Y-40327D02*
X46087Y-40327D01*
X46926Y-39488D02*
X46087Y-40327D01*
X58385Y-40464D02*
X59440Y-40464D01*
X59440Y-40464D02*
X60747Y-41771D01*
X57755Y-39227D02*
X57129Y-39227D01*
X57129Y-39227D02*
X56771Y-38869D01*
X55551Y-37967D02*
X56117Y-37967D01*
X56117Y-37967D02*
X56771Y-38622D01*
X56771Y-38622D02*
X56771Y-38869D01*
X56771Y-38869D02*
X56413Y-39227D01*
X56413Y-39227D02*
X56413Y-39238D01*
X56413Y-39238D02*
X56413Y-39227D01*
X43749Y-37786D02*
X43423Y-37786D01*
X46146Y-39227D02*
X56413Y-39227D01*
X46046Y-39327D02*
X45290Y-39327D01*
X46146Y-39227D02*
X46046Y-39327D01*
X43749Y-37786D02*
X45290Y-39327D01*
X43423Y-37786D02*
X43158Y-37521D01*
X46023Y-33081D02*
X46023Y-33996D01*
X52878Y-37967D02*
X52874Y-37972D01*
X55551Y-37967D02*
X52878Y-37967D01*
X56909Y-37047D02*
X59645Y-37047D01*
X59645Y-37047D02*
X60747Y-38149D01*
X55629Y-36464D02*
X56326Y-36464D01*
X56326Y-36464D02*
X56909Y-37047D01*
X59669Y-39227D02*
X60747Y-38149D01*
X57755Y-39227D02*
X59669Y-39227D01*
X47517Y-31587D02*
X47517Y-31007D01*
X46023Y-33081D02*
X47517Y-31587D01*
X50354Y-31594D02*
X50551Y-31594D01*
X50551Y-31594D02*
X50838Y-31881D01*
X44921Y-29409D02*
X44921Y-29389D01*
X44921Y-29389D02*
X45583Y-28727D01*
X44914Y-29416D02*
X44908Y-29416D01*
X44921Y-29409D02*
X44914Y-29416D01*
X46217Y-28727D02*
X46624Y-28727D01*
X45583Y-28727D02*
X46217Y-28727D01*
X47485Y-27867D02*
X48274Y-27867D01*
X48274Y-27867D02*
X49881Y-26259D01*
X46624Y-28727D02*
X47485Y-27867D01*
X50838Y-32277D02*
X50827Y-32277D01*
X50838Y-31881D02*
X50838Y-32277D01*
X42834Y-32590D02*
X42547Y-32590D01*
X42547Y-32590D02*
X40865Y-34272D01*
X43717Y-28047D02*
X44877Y-28047D01*
X44877Y-28047D02*
X45557Y-28727D01*
X43717Y-28047D02*
X43537Y-28227D01*
X45557Y-28727D02*
X45583Y-28727D01*
X42834Y-32590D02*
X42834Y-31490D01*
X42834Y-31490D02*
X44908Y-29416D01*
X48613Y-27527D02*
X49881Y-26259D01*
X48543Y-38978D02*
X47895Y-38978D01*
X47895Y-38978D02*
X47795Y-38877D01*
X39665Y-35374D02*
X40059Y-35374D01*
X37616Y-36434D02*
X37616Y-36435D01*
X37616Y-36435D02*
X37992Y-36811D01*
X38228Y-36811D02*
X39665Y-35374D01*
X37992Y-36811D02*
X38228Y-36811D01*
X52559Y-38978D02*
X53384Y-38978D01*
X53384Y-38978D02*
X53661Y-38700D01*
X48543Y-38978D02*
X52559Y-38978D01*
X36944Y-35870D02*
X37053Y-35870D01*
X37053Y-35870D02*
X37616Y-36434D01*
X41387Y-37962D02*
X41742Y-37962D01*
X41377Y-37972D02*
X41387Y-37962D01*
X41742Y-37962D02*
X42696Y-37007D01*
X50827Y-34057D02*
X50827Y-34516D01*
X49950Y-35029D02*
X49950Y-34175D01*
X44643Y-38327D02*
X46652Y-38327D01*
X46652Y-38327D02*
X49950Y-35029D01*
X43323Y-37007D02*
X44643Y-38327D01*
X43323Y-37007D02*
X42696Y-37007D01*
X49950Y-34175D02*
X50098Y-34027D01*
X50098Y-34027D02*
X50798Y-34027D01*
X50798Y-34027D02*
X50827Y-34057D01*
X50827Y-34516D02*
X50827Y-34979D01*
X50827Y-34979D02*
X50688Y-35118D01*
X50688Y-35118D02*
X50688Y-35349D01*
X41751Y-37336D02*
X41522Y-37336D01*
X40669Y-38188D02*
X40669Y-38562D01*
X41522Y-37336D02*
X40669Y-38188D01*
X41811Y-37336D02*
X41751Y-37336D01*
X48897Y-33425D02*
X48897Y-32263D01*
X49517Y-31643D02*
X49517Y-31007D01*
X48897Y-32263D02*
X49517Y-31643D01*
X43385Y-35905D02*
X43661Y-35905D01*
X43661Y-35905D02*
X43818Y-36062D01*
X43241Y-35905D02*
X42935Y-36211D01*
X43385Y-35905D02*
X43241Y-35905D01*
X44827Y-36889D02*
X44827Y-36796D01*
X44606Y-35984D02*
X44448Y-35826D01*
X44606Y-36574D02*
X44606Y-35984D01*
X44827Y-36796D02*
X44606Y-36574D01*
X43818Y-36062D02*
X44212Y-36062D01*
X44212Y-36062D02*
X44448Y-35826D01*
X44448Y-35826D02*
X44448Y-35300D01*
X44827Y-36889D02*
X45098Y-36889D01*
X45098Y-36889D02*
X45660Y-36327D01*
X47947Y-36327D02*
X45660Y-36327D01*
X48897Y-33425D02*
X48897Y-35376D01*
X48897Y-35376D02*
X47947Y-36327D01*
X41811Y-37336D02*
X42869Y-36277D01*
X42869Y-36277D02*
X42869Y-36295D01*
X49898Y-30627D02*
X49517Y-31007D01*
X53287Y-30728D02*
X53186Y-30627D01*
X53186Y-30627D02*
X49898Y-30627D01*
X36476Y-39330D02*
X36200Y-39330D01*
X35777Y-38907D02*
X35403Y-38907D01*
X36200Y-39330D02*
X35777Y-38907D01*
X33641Y-38385D02*
X34163Y-38907D01*
X34163Y-38907D02*
X35403Y-38907D01*
X44507Y-41692D02*
X44507Y-40078D01*
X44507Y-40078D02*
X43293Y-38864D01*
X42720Y-38864D02*
X42267Y-38412D01*
X43293Y-38864D02*
X42720Y-38864D01*
X42588Y-42175D02*
X42588Y-41072D01*
X43110Y-42746D02*
X43110Y-42480D01*
X43110Y-42480D02*
X42913Y-42283D01*
X42696Y-42283D02*
X42588Y-42175D01*
X42913Y-42283D02*
X42696Y-42283D01*
X42588Y-41072D02*
X42559Y-41043D01*
X51114Y-33278D02*
X50688Y-33278D01*
X51597Y-34516D02*
X51597Y-33761D01*
X51597Y-33761D02*
X51114Y-33278D01*
X50688Y-33278D02*
X50575Y-33164D01*
X39960Y-38976D02*
X39960Y-39186D01*
X39960Y-39186D02*
X39621Y-39525D01*
X39763Y-38602D02*
X39921Y-38444D01*
X39763Y-38779D02*
X39763Y-38602D01*
X39960Y-38976D02*
X39763Y-38779D01*
X36520Y-36294D02*
X36279Y-36535D01*
X36279Y-36535D02*
X36279Y-36909D01*
X36811Y-37937D02*
X35733Y-37937D01*
X35733Y-37937D02*
X35236Y-37440D01*
X38799Y-37755D02*
X38818Y-37755D01*
X38818Y-37755D02*
X38917Y-37657D01*
X54271Y-31850D02*
X56181Y-31850D01*
X56181Y-31850D02*
X56988Y-32657D01*
X54251Y-35196D02*
X54251Y-35501D01*
X52587Y-33327D02*
X53051Y-33327D01*
X53051Y-33327D02*
X53129Y-33405D01*
X56633Y-35787D02*
X57244Y-35787D01*
X57244Y-35787D02*
X57440Y-35984D01*
X54842Y-35787D02*
X54527Y-35787D01*
X54242Y-35501D02*
X54251Y-35501D01*
X54527Y-35787D02*
X54242Y-35501D01*
X54251Y-35501D02*
X54251Y-35492D01*
X54251Y-35492D02*
X53956Y-35787D01*
X53956Y-35787D02*
X52874Y-35787D01*
X52598Y-34429D02*
X52587Y-34429D01*
X52587Y-34429D02*
X52598Y-34429D01*
X52598Y-34429D02*
X52587Y-34429D01*
X38385Y-37437D02*
X38480Y-37437D01*
X38480Y-37437D02*
X38799Y-37755D01*
X41161Y-35885D02*
X41692Y-35885D01*
X41692Y-35885D02*
X41948Y-36141D01*
X41161Y-35885D02*
X41122Y-35846D01*
X42490Y-35765D02*
X42490Y-35777D01*
X42490Y-35777D02*
X42125Y-36141D01*
X42125Y-36141D02*
X41948Y-36141D01*
X38385Y-37437D02*
X38146Y-37437D01*
X38146Y-37437D02*
X37839Y-37743D01*
X37839Y-37743D02*
X38146Y-37437D01*
X36496Y-32933D02*
X36496Y-32440D01*
X36496Y-32440D02*
X34586Y-30531D01*
X38287Y-40527D02*
X39487Y-40527D01*
X39487Y-40527D02*
X39503Y-40511D01*
X39503Y-40511D02*
X39503Y-40487D01*
X39503Y-40487D02*
X39212Y-40196D01*
X39212Y-40196D02*
X39212Y-39934D01*
X39212Y-39934D02*
X39621Y-39525D01*
X52587Y-33327D02*
X52587Y-34429D01*
X52587Y-34429D02*
X52587Y-34774D01*
X52587Y-34774D02*
X51587Y-35774D01*
X54842Y-35787D02*
X56633Y-35787D01*
X51535Y-35774D02*
X51587Y-35774D01*
X51311Y-35774D02*
X51535Y-35774D01*
X51311Y-35774D02*
X51087Y-35550D01*
X51087Y-34516D02*
X51087Y-35550D01*
X51087Y-35550D02*
X50688Y-35949D01*
X51087Y-34516D02*
X51087Y-34906D01*
X51087Y-34477D02*
X51087Y-34906D01*
X49666Y-33778D02*
X49586Y-33858D01*
X50908Y-33778D02*
X51087Y-33957D01*
X51087Y-34477D02*
X51087Y-33957D01*
X50908Y-33778D02*
X49666Y-33778D01*
X35236Y-36456D02*
X35236Y-36968D01*
X35236Y-37440D02*
X35236Y-36968D01*
X33169Y-35201D02*
X33981Y-35201D01*
X33981Y-35201D02*
X35236Y-36456D01*
X31929Y-34901D02*
X31240Y-34901D01*
X31240Y-34901D02*
X30866Y-34527D01*
X44724Y-37440D02*
X44467Y-37440D01*
X44467Y-37440D02*
X44227Y-37201D01*
X44227Y-37201D02*
X44227Y-36889D01*
X43779Y-34700D02*
X43556Y-34700D01*
X43556Y-34700D02*
X42490Y-35765D01*
X42125Y-36141D02*
X41889Y-36141D01*
X42424Y-35843D02*
X42125Y-36141D01*
X42424Y-35832D02*
X42424Y-35843D01*
X40792Y-33794D02*
X40433Y-34153D01*
X40433Y-34153D02*
X40029Y-34153D01*
X32047Y-34901D02*
X31929Y-34901D01*
X27510Y-34527D02*
X26810Y-33827D01*
X27510Y-34527D02*
X30866Y-34527D01*
X32519Y-35059D02*
X32362Y-34901D01*
X32362Y-34901D02*
X32047Y-34901D01*
X32519Y-35201D02*
X32519Y-35059D01*
X47834Y-42598D02*
X47834Y-41870D01*
X50688Y-35949D02*
X50113Y-35949D01*
X49862Y-36200D02*
X49862Y-36786D01*
X50113Y-35949D02*
X49862Y-36200D01*
X49035Y-38587D02*
X49365Y-38587D01*
X49448Y-36909D02*
X49448Y-38503D01*
X49571Y-36786D02*
X49448Y-36909D01*
X49862Y-36786D02*
X49571Y-36786D01*
X49365Y-38587D02*
X49448Y-38503D01*
X37534Y-38048D02*
X37300Y-38048D01*
X37189Y-37937D02*
X36811Y-37937D01*
X37300Y-38048D02*
X37189Y-37937D01*
X37534Y-38048D02*
X37839Y-37743D01*
X42508Y-39477D02*
X42687Y-39477D01*
X42687Y-39477D02*
X43187Y-39977D01*
X42508Y-39477D02*
X42441Y-39477D01*
X41756Y-38791D02*
X41751Y-38791D01*
X42441Y-39477D02*
X41756Y-38791D01*
X43187Y-39977D02*
X43187Y-40027D01*
X43187Y-40027D02*
X44133Y-40973D01*
X44133Y-41712D02*
X44133Y-40973D01*
X44842Y-42795D02*
X47637Y-42795D01*
X47637Y-42795D02*
X47834Y-42598D01*
X42401Y-42795D02*
X42401Y-43307D01*
X43070Y-43976D02*
X44940Y-43976D01*
X42401Y-43307D02*
X43070Y-43976D01*
X44842Y-42795D02*
X44842Y-43878D01*
X44842Y-43878D02*
X44940Y-43976D01*
X44133Y-42746D02*
X44133Y-43169D01*
X44133Y-43169D02*
X44940Y-43976D01*
X40792Y-33562D02*
X40792Y-33794D01*
X40029Y-34153D02*
X39938Y-34244D01*
X44133Y-42746D02*
X44133Y-41712D01*
X32519Y-35201D02*
X33169Y-35201D01*
X32598Y-34133D02*
X32598Y-34522D01*
X32598Y-34522D02*
X32519Y-34601D01*
X32598Y-34522D02*
X32519Y-34601D01*
X51342Y-34516D02*
X51342Y-33859D01*
X50318Y-33527D02*
X51010Y-33527D01*
X51342Y-33859D02*
X51010Y-33527D01*
X49822Y-33031D02*
X50318Y-33527D01*
X32519Y-34601D02*
X33169Y-34601D01*
X31870Y-34601D02*
X32519Y-34601D01*
X49862Y-37987D02*
X49862Y-37386D01*
X51852Y-34516D02*
X51852Y-35036D01*
X51692Y-35196D02*
X51456Y-35196D01*
X51852Y-35036D02*
X51692Y-35196D01*
X49035Y-37987D02*
X49035Y-37386D01*
X43366Y-42746D02*
X43366Y-42383D01*
X43070Y-42088D02*
X43070Y-41874D01*
X43366Y-42383D02*
X43070Y-42088D01*
X43622Y-42746D02*
X43622Y-41953D01*
X43622Y-41953D02*
X43700Y-41874D01*
X43700Y-41274D02*
X43700Y-41181D01*
X43700Y-41181D02*
X41533Y-39014D01*
X43289Y-34076D02*
X44842Y-34076D01*
X43289Y-34076D02*
X41978Y-35386D01*
X48248Y-33838D02*
X47716Y-34370D01*
X48248Y-33350D02*
X48248Y-33838D01*
X44842Y-34076D02*
X45136Y-34370D01*
X45136Y-34370D02*
X47716Y-34370D01*
X43485Y-34325D02*
X44739Y-34325D01*
X45354Y-34940D02*
X45354Y-35021D01*
X44739Y-34325D02*
X45354Y-34940D01*
X48204Y-35314D02*
X45648Y-35314D01*
X48204Y-35314D02*
X48248Y-35271D01*
X45648Y-35314D02*
X45354Y-35021D01*
X43485Y-34325D02*
X42201Y-35609D01*
X42952Y-39114D02*
X42524Y-39114D01*
X42524Y-39114D02*
X42045Y-38634D01*
X43787Y-39977D02*
X43787Y-39949D01*
X43787Y-39949D02*
X42952Y-39114D01*
X51535Y-37386D02*
X51535Y-37987D01*
X54389Y-34515D02*
X53634Y-34515D01*
X51535Y-36614D02*
X51535Y-36786D01*
X53634Y-34515D02*
X51535Y-36614D01*
X51847Y-32238D02*
X53668Y-32238D01*
X53668Y-32238D02*
X54837Y-33407D01*
X51597Y-32238D02*
X51847Y-32238D01*
X54837Y-33407D02*
X54837Y-34067D01*
X54837Y-34067D02*
X54389Y-34515D01*
X43070Y-41274D02*
X43070Y-40997D01*
X43070Y-40997D02*
X41310Y-39236D01*
X53681Y-33326D02*
X53681Y-34114D01*
X53681Y-34114D02*
X51535Y-36259D01*
X52716Y-33027D02*
X53381Y-33027D01*
X53381Y-33027D02*
X53681Y-33326D01*
X51535Y-36259D02*
X51220Y-36259D01*
X50688Y-36786D02*
X50693Y-36786D01*
X50693Y-36786D02*
X51220Y-36259D01*
X51657Y-33027D02*
X52716Y-33027D01*
X50572Y-32582D02*
X51017Y-33027D01*
X50572Y-32277D02*
X50572Y-32582D01*
X51017Y-33027D02*
X51657Y-33027D01*
X50317Y-32277D02*
X50573Y-32277D01*
X50573Y-32277D02*
X50572Y-32277D01*
X50317Y-34516D02*
X50317Y-35075D01*
X49035Y-36786D02*
X49035Y-36358D01*
X49035Y-36358D02*
X50317Y-35075D01*
X50572Y-34516D02*
X50317Y-34516D01*
X50688Y-37386D02*
X50688Y-37987D01*
G54D10*
G36*
X45533Y-35506D02*
X45452Y-35587D01*
X45387Y-35742D01*
X45387Y-35911D01*
X45451Y-36067D01*
X45530Y-36146D01*
X45500Y-36167D01*
X45080Y-36586D01*
X45078Y-36580D01*
X45036Y-36539D01*
X44982Y-36516D01*
X44923Y-36516D01*
X44868Y-36516D01*
X44833Y-36480D01*
X44833Y-35984D01*
X44815Y-35897D01*
X44766Y-35823D01*
X44766Y-35823D01*
X44675Y-35732D01*
X44675Y-35573D01*
X44703Y-35573D01*
X44757Y-35550D01*
X44799Y-35509D01*
X44822Y-35454D01*
X44822Y-35395D01*
X44822Y-35145D01*
X44799Y-35091D01*
X44758Y-35049D01*
X44703Y-35026D01*
X44644Y-35026D01*
X44194Y-35026D01*
X44139Y-35049D01*
X44098Y-35090D01*
X44075Y-35145D01*
X44075Y-35204D01*
X44075Y-35454D01*
X44097Y-35508D01*
X44139Y-35550D01*
X44194Y-35573D01*
X44221Y-35573D01*
X44221Y-35732D01*
X44124Y-35829D01*
X44124Y-35639D01*
X44102Y-35585D01*
X44060Y-35543D01*
X44006Y-35520D01*
X43946Y-35520D01*
X43632Y-35520D01*
X43577Y-35543D01*
X43535Y-35585D01*
X43513Y-35639D01*
X43512Y-35678D01*
X43385Y-35678D01*
X43241Y-35678D01*
X43154Y-35695D01*
X43081Y-35745D01*
X43077Y-35748D01*
X43073Y-35750D01*
X43032Y-35792D01*
X42475Y-36348D01*
X42473Y-36352D01*
X41717Y-37109D01*
X41522Y-37109D01*
X41435Y-37126D01*
X41361Y-37175D01*
X40508Y-38028D01*
X40459Y-38102D01*
X40442Y-38188D01*
X40442Y-38332D01*
X40395Y-38379D01*
X40345Y-38498D01*
X40345Y-38627D01*
X40394Y-38745D01*
X40485Y-38837D01*
X40604Y-38886D01*
X40733Y-38886D01*
X40852Y-38837D01*
X40943Y-38746D01*
X40992Y-38627D01*
X40992Y-38498D01*
X40943Y-38380D01*
X40896Y-38332D01*
X40896Y-38282D01*
X41080Y-38098D01*
X41103Y-38155D01*
X41194Y-38246D01*
X41313Y-38295D01*
X41442Y-38295D01*
X41560Y-38246D01*
X41618Y-38189D01*
X41723Y-38189D01*
X41697Y-38215D01*
X41584Y-38328D01*
X41564Y-38376D01*
X41516Y-38396D01*
X41474Y-38438D01*
X41361Y-38551D01*
X41341Y-38599D01*
X41293Y-38619D01*
X41251Y-38661D01*
X41138Y-38774D01*
X41118Y-38822D01*
X41071Y-38842D01*
X41029Y-38883D01*
X40916Y-38997D01*
X40893Y-39051D01*
X40893Y-39110D01*
X40915Y-39165D01*
X40957Y-39206D01*
X41005Y-39254D01*
X40851Y-39345D01*
X40793Y-39287D01*
X40739Y-39265D01*
X40680Y-39265D01*
X40625Y-39287D01*
X40583Y-39329D01*
X40414Y-39499D01*
X40391Y-39553D01*
X40391Y-39612D01*
X40413Y-39667D01*
X40455Y-39709D01*
X40560Y-39813D01*
X40560Y-40835D01*
X39794Y-40835D01*
X39794Y-39879D01*
X39622Y-39848D01*
X40082Y-39388D01*
X40083Y-39384D01*
X40121Y-39347D01*
X40170Y-39273D01*
X40187Y-39186D01*
X40187Y-38976D01*
X40187Y-38976D01*
X40170Y-38889D01*
X40140Y-38845D01*
X40121Y-38815D01*
X40121Y-38815D01*
X40047Y-38742D01*
X40104Y-38719D01*
X40195Y-38628D01*
X40244Y-38509D01*
X40244Y-38380D01*
X40195Y-38261D01*
X40104Y-38170D01*
X39985Y-38121D01*
X39857Y-38121D01*
X39738Y-38170D01*
X39647Y-38261D01*
X39597Y-38380D01*
X39597Y-38450D01*
X39554Y-38515D01*
X39536Y-38602D01*
X39536Y-38674D01*
X39482Y-38619D01*
X39433Y-38599D01*
X39414Y-38551D01*
X39372Y-38509D01*
X39259Y-38396D01*
X39211Y-38376D01*
X39191Y-38329D01*
X39149Y-38287D01*
X39036Y-38174D01*
X38988Y-38154D01*
X38968Y-38106D01*
X38926Y-38064D01*
X38840Y-37978D01*
X38844Y-37977D01*
X38852Y-37980D01*
X38981Y-37980D01*
X39100Y-37931D01*
X39191Y-37840D01*
X39240Y-37722D01*
X39240Y-37593D01*
X39191Y-37474D01*
X39100Y-37383D01*
X38981Y-37334D01*
X38853Y-37333D01*
X38743Y-37379D01*
X38641Y-37276D01*
X38567Y-37227D01*
X38480Y-37210D01*
X38385Y-37210D01*
X38146Y-37210D01*
X38059Y-37227D01*
X37985Y-37276D01*
X37980Y-37281D01*
X37977Y-37282D01*
X37935Y-37324D01*
X37438Y-37821D01*
X37394Y-37821D01*
X37350Y-37777D01*
X37276Y-37728D01*
X37189Y-37710D01*
X37143Y-37710D01*
X37120Y-37687D01*
X37065Y-37664D01*
X37006Y-37664D01*
X36916Y-37664D01*
X36916Y-36336D01*
X36893Y-36281D01*
X36851Y-36239D01*
X36533Y-35921D01*
X36479Y-35898D01*
X36420Y-35898D01*
X36365Y-35921D01*
X36323Y-35963D01*
X36146Y-36139D01*
X36124Y-36194D01*
X36124Y-36253D01*
X36146Y-36308D01*
X36166Y-36327D01*
X36119Y-36374D01*
X36069Y-36448D01*
X36052Y-36535D01*
X36052Y-36678D01*
X36005Y-36726D01*
X35956Y-36844D01*
X35956Y-36973D01*
X36005Y-37092D01*
X36096Y-37183D01*
X36214Y-37232D01*
X36343Y-37232D01*
X36462Y-37183D01*
X36553Y-37092D01*
X36602Y-36974D01*
X36603Y-36845D01*
X36553Y-36726D01*
X36506Y-36678D01*
X36506Y-36667D01*
X36506Y-36668D01*
X36561Y-36690D01*
X36620Y-36690D01*
X36674Y-36668D01*
X36716Y-36626D01*
X36893Y-36449D01*
X36916Y-36395D01*
X36916Y-36336D01*
X36916Y-37664D01*
X36556Y-37664D01*
X36502Y-37686D01*
X36478Y-37710D01*
X35827Y-37710D01*
X35463Y-37346D01*
X35463Y-36968D01*
X35463Y-36456D01*
X35463Y-36456D01*
X35445Y-36369D01*
X35416Y-36325D01*
X35396Y-36296D01*
X35396Y-36296D01*
X34141Y-35041D01*
X34067Y-34991D01*
X33981Y-34974D01*
X33502Y-34974D01*
X33478Y-34950D01*
X33423Y-34928D01*
X33364Y-34928D01*
X32914Y-34928D01*
X32860Y-34950D01*
X32844Y-34966D01*
X32828Y-34950D01*
X32774Y-34928D01*
X32715Y-34928D01*
X32699Y-34928D01*
X32680Y-34898D01*
X32680Y-34898D01*
X32656Y-34875D01*
X32774Y-34875D01*
X32828Y-34852D01*
X32844Y-34836D01*
X32860Y-34852D01*
X32914Y-34874D01*
X32973Y-34875D01*
X33423Y-34875D01*
X33478Y-34852D01*
X33520Y-34810D01*
X33542Y-34756D01*
X33542Y-34697D01*
X33542Y-34447D01*
X33520Y-34392D01*
X33478Y-34350D01*
X33423Y-34328D01*
X33364Y-34328D01*
X32914Y-34328D01*
X32860Y-34350D01*
X32844Y-34366D01*
X32833Y-34355D01*
X32872Y-34317D01*
X32921Y-34198D01*
X32921Y-34069D01*
X32872Y-33950D01*
X32781Y-33859D01*
X32663Y-33810D01*
X32534Y-33810D01*
X32415Y-33859D01*
X32324Y-33950D01*
X32275Y-34069D01*
X32274Y-34197D01*
X32324Y-34316D01*
X32335Y-34328D01*
X32265Y-34328D01*
X32210Y-34350D01*
X32194Y-34366D01*
X32179Y-34350D01*
X32124Y-34328D01*
X32065Y-34328D01*
X31615Y-34328D01*
X31561Y-34350D01*
X31519Y-34392D01*
X31496Y-34446D01*
X31496Y-34505D01*
X31496Y-34674D01*
X31334Y-34674D01*
X31026Y-34367D01*
X30952Y-34317D01*
X30876Y-34302D01*
X30876Y-31869D01*
X30770Y-31612D01*
X30573Y-31415D01*
X30316Y-31308D01*
X30038Y-31308D01*
X29781Y-31414D01*
X29584Y-31611D01*
X29488Y-31843D01*
X29392Y-31612D01*
X29196Y-31415D01*
X28938Y-31308D01*
X28660Y-31308D01*
X28403Y-31414D01*
X28206Y-31611D01*
X28099Y-31868D01*
X28099Y-32146D01*
X28205Y-32403D01*
X28402Y-32600D01*
X28659Y-32707D01*
X28937Y-32707D01*
X29194Y-32601D01*
X29391Y-32404D01*
X29488Y-32172D01*
X29583Y-32403D01*
X29780Y-32600D01*
X30037Y-32707D01*
X30315Y-32707D01*
X30572Y-32601D01*
X30769Y-32404D01*
X30876Y-32147D01*
X30876Y-31869D01*
X30876Y-34302D01*
X30866Y-34300D01*
X27604Y-34300D01*
X27484Y-34180D01*
X27472Y-32297D01*
X28519Y-31250D01*
X30732Y-31250D01*
X31584Y-32101D01*
X31584Y-32199D01*
X31557Y-32210D01*
X31431Y-32336D01*
X31362Y-32500D01*
X31362Y-32679D01*
X31430Y-32844D01*
X31556Y-32970D01*
X31721Y-33038D01*
X31899Y-33039D01*
X32064Y-32970D01*
X32190Y-32844D01*
X32202Y-32817D01*
X32417Y-32817D01*
X33107Y-33506D01*
X33180Y-33556D01*
X33267Y-33573D01*
X33818Y-33573D01*
X34880Y-33573D01*
X35105Y-33798D01*
X35103Y-33800D01*
X34113Y-34790D01*
X34090Y-34844D01*
X34090Y-34904D01*
X34113Y-34958D01*
X34154Y-35000D01*
X34649Y-35495D01*
X34704Y-35518D01*
X34763Y-35518D01*
X34817Y-35495D01*
X34859Y-35453D01*
X35330Y-34982D01*
X35424Y-35076D01*
X35424Y-35142D01*
X35473Y-35261D01*
X35564Y-35352D01*
X35683Y-35402D01*
X35812Y-35402D01*
X35930Y-35353D01*
X36022Y-35262D01*
X36071Y-35143D01*
X36071Y-35014D01*
X36022Y-34895D01*
X35931Y-34804D01*
X35812Y-34755D01*
X35745Y-34755D01*
X35651Y-34661D01*
X35810Y-34503D01*
X36800Y-35492D01*
X36789Y-35497D01*
X36747Y-35538D01*
X36571Y-35715D01*
X36548Y-35770D01*
X36548Y-35829D01*
X36571Y-35883D01*
X36612Y-35925D01*
X36930Y-36243D01*
X36985Y-36266D01*
X37044Y-36266D01*
X37099Y-36243D01*
X37102Y-36240D01*
X37154Y-36292D01*
X37155Y-36296D01*
X37197Y-36337D01*
X37754Y-36894D01*
X37755Y-36895D01*
X37831Y-36971D01*
X37831Y-36971D01*
X37880Y-37004D01*
X37905Y-37020D01*
X37905Y-37020D01*
X37992Y-37037D01*
X37992Y-37037D01*
X38228Y-37037D01*
X38315Y-37020D01*
X38388Y-36971D01*
X39759Y-35600D01*
X39828Y-35600D01*
X39875Y-35648D01*
X39994Y-35697D01*
X40123Y-35697D01*
X40242Y-35648D01*
X40333Y-35557D01*
X40382Y-35438D01*
X40382Y-35309D01*
X40333Y-35191D01*
X40242Y-35099D01*
X40123Y-35050D01*
X39995Y-35050D01*
X39876Y-35099D01*
X39828Y-35147D01*
X39665Y-35147D01*
X39649Y-35150D01*
X39656Y-35132D01*
X39704Y-35112D01*
X39746Y-35071D01*
X39859Y-34958D01*
X39882Y-34903D01*
X39882Y-34844D01*
X39859Y-34789D01*
X39817Y-34748D01*
X39296Y-34226D01*
X39299Y-34218D01*
X39299Y-34089D01*
X39250Y-33970D01*
X39204Y-33924D01*
X39204Y-33761D01*
X39639Y-33326D01*
X40265Y-33326D01*
X40352Y-33309D01*
X40425Y-33260D01*
X40868Y-32817D01*
X41065Y-32817D01*
X41076Y-32844D01*
X41202Y-32970D01*
X41367Y-33038D01*
X41545Y-33039D01*
X41710Y-32970D01*
X41836Y-32844D01*
X41852Y-32806D01*
X41962Y-32854D01*
X41072Y-33744D01*
X41069Y-33745D01*
X41065Y-33749D01*
X41065Y-33308D01*
X41043Y-33254D01*
X41001Y-33212D01*
X40946Y-33189D01*
X40887Y-33189D01*
X40637Y-33189D01*
X40583Y-33212D01*
X40541Y-33253D01*
X40518Y-33308D01*
X40518Y-33367D01*
X40518Y-33747D01*
X40435Y-33830D01*
X40369Y-33830D01*
X40250Y-33879D01*
X40202Y-33926D01*
X40029Y-33926D01*
X40005Y-33931D01*
X39763Y-33689D01*
X39708Y-33666D01*
X39649Y-33666D01*
X39595Y-33689D01*
X39553Y-33730D01*
X39383Y-33900D01*
X39360Y-33955D01*
X39360Y-34014D01*
X39383Y-34068D01*
X39425Y-34110D01*
X39981Y-34667D01*
X40036Y-34689D01*
X40095Y-34690D01*
X40150Y-34667D01*
X40191Y-34625D01*
X40348Y-34468D01*
X40368Y-34476D01*
X40455Y-34476D01*
X40470Y-34512D01*
X40512Y-34554D01*
X40625Y-34667D01*
X40673Y-34687D01*
X40693Y-34735D01*
X40734Y-34776D01*
X40848Y-34890D01*
X40896Y-34910D01*
X40915Y-34957D01*
X40957Y-34999D01*
X41070Y-35112D01*
X41118Y-35132D01*
X41138Y-35180D01*
X41180Y-35222D01*
X41293Y-35335D01*
X41341Y-35355D01*
X41361Y-35403D01*
X41403Y-35445D01*
X41516Y-35558D01*
X41564Y-35578D01*
X41584Y-35626D01*
X41616Y-35658D01*
X41391Y-35658D01*
X41305Y-35572D01*
X41186Y-35523D01*
X41057Y-35522D01*
X40939Y-35572D01*
X40848Y-35663D01*
X40798Y-35781D01*
X40798Y-35910D01*
X40847Y-36029D01*
X40938Y-36120D01*
X41057Y-36169D01*
X41186Y-36169D01*
X41305Y-36120D01*
X41313Y-36112D01*
X41598Y-36112D01*
X41671Y-36185D01*
X41680Y-36228D01*
X41729Y-36302D01*
X41802Y-36351D01*
X41889Y-36368D01*
X41948Y-36368D01*
X42125Y-36368D01*
X42212Y-36351D01*
X42286Y-36302D01*
X42584Y-36003D01*
X42584Y-36003D01*
X42584Y-36003D01*
X42650Y-35937D01*
X42669Y-35909D01*
X42951Y-35628D01*
X42952Y-35624D01*
X43603Y-34973D01*
X44033Y-34973D01*
X44088Y-34950D01*
X44130Y-34909D01*
X44152Y-34854D01*
X44152Y-34795D01*
X44152Y-34552D01*
X44645Y-34552D01*
X45130Y-35038D01*
X45144Y-35107D01*
X45193Y-35181D01*
X45487Y-35475D01*
X45533Y-35506D01*
X45533Y-35506D01*
G37*
G54D27*
X45533Y-35506D02*
X45452Y-35587D01*
X45387Y-35742D01*
X45387Y-35911D01*
X45451Y-36067D01*
X45530Y-36146D01*
X45500Y-36167D01*
X45080Y-36586D01*
X45078Y-36580D01*
X45036Y-36539D01*
X44982Y-36516D01*
X44923Y-36516D01*
X44868Y-36516D01*
X44833Y-36480D01*
X44833Y-35984D01*
X44815Y-35897D01*
X44766Y-35823D01*
X44766Y-35823D01*
X44675Y-35732D01*
X44675Y-35573D01*
X44703Y-35573D01*
X44757Y-35550D01*
X44799Y-35509D01*
X44822Y-35454D01*
X44822Y-35395D01*
X44822Y-35145D01*
X44799Y-35091D01*
X44758Y-35049D01*
X44703Y-35026D01*
X44644Y-35026D01*
X44194Y-35026D01*
X44139Y-35049D01*
X44098Y-35090D01*
X44075Y-35145D01*
X44075Y-35204D01*
X44075Y-35454D01*
X44097Y-35508D01*
X44139Y-35550D01*
X44194Y-35573D01*
X44221Y-35573D01*
X44221Y-35732D01*
X44124Y-35829D01*
X44124Y-35639D01*
X44102Y-35585D01*
X44060Y-35543D01*
X44006Y-35520D01*
X43946Y-35520D01*
X43632Y-35520D01*
X43577Y-35543D01*
X43535Y-35585D01*
X43513Y-35639D01*
X43512Y-35678D01*
X43385Y-35678D01*
X43241Y-35678D01*
X43154Y-35695D01*
X43081Y-35745D01*
X43077Y-35748D01*
X43073Y-35750D01*
X43032Y-35792D01*
X42475Y-36348D01*
X42473Y-36352D01*
X41717Y-37109D01*
X41522Y-37109D01*
X41435Y-37126D01*
X41361Y-37175D01*
X40508Y-38028D01*
X40459Y-38102D01*
X40442Y-38188D01*
X40442Y-38332D01*
X40395Y-38379D01*
X40345Y-38498D01*
X40345Y-38627D01*
X40394Y-38745D01*
X40485Y-38837D01*
X40604Y-38886D01*
X40733Y-38886D01*
X40852Y-38837D01*
X40943Y-38746D01*
X40992Y-38627D01*
X40992Y-38498D01*
X40943Y-38380D01*
X40896Y-38332D01*
X40896Y-38282D01*
X41080Y-38098D01*
X41103Y-38155D01*
X41194Y-38246D01*
X41313Y-38295D01*
X41442Y-38295D01*
X41560Y-38246D01*
X41618Y-38189D01*
X41723Y-38189D01*
X41697Y-38215D01*
X41584Y-38328D01*
X41564Y-38376D01*
X41516Y-38396D01*
X41474Y-38438D01*
X41361Y-38551D01*
X41341Y-38599D01*
X41293Y-38619D01*
X41251Y-38661D01*
X41138Y-38774D01*
X41118Y-38822D01*
X41071Y-38842D01*
X41029Y-38883D01*
X40916Y-38997D01*
X40893Y-39051D01*
X40893Y-39110D01*
X40915Y-39165D01*
X40957Y-39206D01*
X41005Y-39254D01*
X40851Y-39345D01*
X40793Y-39287D01*
X40739Y-39265D01*
X40680Y-39265D01*
X40625Y-39287D01*
X40583Y-39329D01*
X40414Y-39499D01*
X40391Y-39553D01*
X40391Y-39612D01*
X40413Y-39667D01*
X40455Y-39709D01*
X40560Y-39813D01*
X40560Y-40835D01*
X39794Y-40835D01*
X39794Y-39879D01*
X39622Y-39848D01*
X40082Y-39388D01*
X40083Y-39384D01*
X40121Y-39347D01*
X40170Y-39273D01*
X40187Y-39186D01*
X40187Y-38976D01*
X40187Y-38976D01*
X40170Y-38889D01*
X40140Y-38845D01*
X40121Y-38815D01*
X40121Y-38815D01*
X40047Y-38742D01*
X40104Y-38719D01*
X40195Y-38628D01*
X40244Y-38509D01*
X40244Y-38380D01*
X40195Y-38261D01*
X40104Y-38170D01*
X39985Y-38121D01*
X39857Y-38121D01*
X39738Y-38170D01*
X39647Y-38261D01*
X39597Y-38380D01*
X39597Y-38450D01*
X39554Y-38515D01*
X39536Y-38602D01*
X39536Y-38674D01*
X39482Y-38619D01*
X39433Y-38599D01*
X39414Y-38551D01*
X39372Y-38509D01*
X39259Y-38396D01*
X39211Y-38376D01*
X39191Y-38329D01*
X39149Y-38287D01*
X39036Y-38174D01*
X38988Y-38154D01*
X38968Y-38106D01*
X38926Y-38064D01*
X38840Y-37978D01*
X38844Y-37977D01*
X38852Y-37980D01*
X38981Y-37980D01*
X39100Y-37931D01*
X39191Y-37840D01*
X39240Y-37722D01*
X39240Y-37593D01*
X39191Y-37474D01*
X39100Y-37383D01*
X38981Y-37334D01*
X38853Y-37333D01*
X38743Y-37379D01*
X38641Y-37276D01*
X38567Y-37227D01*
X38480Y-37210D01*
X38385Y-37210D01*
X38146Y-37210D01*
X38059Y-37227D01*
X37985Y-37276D01*
X37980Y-37281D01*
X37977Y-37282D01*
X37935Y-37324D01*
X37438Y-37821D01*
X37394Y-37821D01*
X37350Y-37777D01*
X37276Y-37728D01*
X37189Y-37710D01*
X37143Y-37710D01*
X37120Y-37687D01*
X37065Y-37664D01*
X37006Y-37664D01*
X36916Y-37664D01*
X36916Y-36336D01*
X36893Y-36281D01*
X36851Y-36239D01*
X36533Y-35921D01*
X36479Y-35898D01*
X36420Y-35898D01*
X36365Y-35921D01*
X36323Y-35963D01*
X36146Y-36139D01*
X36124Y-36194D01*
X36124Y-36253D01*
X36146Y-36308D01*
X36166Y-36327D01*
X36119Y-36374D01*
X36069Y-36448D01*
X36052Y-36535D01*
X36052Y-36678D01*
X36005Y-36726D01*
X35956Y-36844D01*
X35956Y-36973D01*
X36005Y-37092D01*
X36096Y-37183D01*
X36214Y-37232D01*
X36343Y-37232D01*
X36462Y-37183D01*
X36553Y-37092D01*
X36602Y-36974D01*
X36603Y-36845D01*
X36553Y-36726D01*
X36506Y-36678D01*
X36506Y-36667D01*
X36506Y-36668D01*
X36561Y-36690D01*
X36620Y-36690D01*
X36674Y-36668D01*
X36716Y-36626D01*
X36893Y-36449D01*
X36916Y-36395D01*
X36916Y-36336D01*
X36916Y-37664D01*
X36556Y-37664D01*
X36502Y-37686D01*
X36478Y-37710D01*
X35827Y-37710D01*
X35463Y-37346D01*
X35463Y-36968D01*
X35463Y-36456D01*
X35463Y-36456D01*
X35445Y-36369D01*
X35416Y-36325D01*
X35396Y-36296D01*
X35396Y-36296D01*
X34141Y-35041D01*
X34067Y-34991D01*
X33981Y-34974D01*
X33502Y-34974D01*
X33478Y-34950D01*
X33423Y-34928D01*
X33364Y-34928D01*
X32914Y-34928D01*
X32860Y-34950D01*
X32844Y-34966D01*
X32828Y-34950D01*
X32774Y-34928D01*
X32715Y-34928D01*
X32699Y-34928D01*
X32680Y-34898D01*
X32680Y-34898D01*
X32656Y-34875D01*
X32774Y-34875D01*
X32828Y-34852D01*
X32844Y-34836D01*
X32860Y-34852D01*
X32914Y-34874D01*
X32973Y-34875D01*
X33423Y-34875D01*
X33478Y-34852D01*
X33520Y-34810D01*
X33542Y-34756D01*
X33542Y-34697D01*
X33542Y-34447D01*
X33520Y-34392D01*
X33478Y-34350D01*
X33423Y-34328D01*
X33364Y-34328D01*
X32914Y-34328D01*
X32860Y-34350D01*
X32844Y-34366D01*
X32833Y-34355D01*
X32872Y-34317D01*
X32921Y-34198D01*
X32921Y-34069D01*
X32872Y-33950D01*
X32781Y-33859D01*
X32663Y-33810D01*
X32534Y-33810D01*
X32415Y-33859D01*
X32324Y-33950D01*
X32275Y-34069D01*
X32274Y-34197D01*
X32324Y-34316D01*
X32335Y-34328D01*
X32265Y-34328D01*
X32210Y-34350D01*
X32194Y-34366D01*
X32179Y-34350D01*
X32124Y-34328D01*
X32065Y-34328D01*
X31615Y-34328D01*
X31561Y-34350D01*
X31519Y-34392D01*
X31496Y-34446D01*
X31496Y-34505D01*
X31496Y-34674D01*
X31334Y-34674D01*
X31026Y-34367D01*
X30952Y-34317D01*
X30876Y-34302D01*
X30876Y-31869D01*
X30770Y-31612D01*
X30573Y-31415D01*
X30316Y-31308D01*
X30038Y-31308D01*
X29781Y-31414D01*
X29584Y-31611D01*
X29488Y-31843D01*
X29392Y-31612D01*
X29196Y-31415D01*
X28938Y-31308D01*
X28660Y-31308D01*
X28403Y-31414D01*
X28206Y-31611D01*
X28099Y-31868D01*
X28099Y-32146D01*
X28205Y-32403D01*
X28402Y-32600D01*
X28659Y-32707D01*
X28937Y-32707D01*
X29194Y-32601D01*
X29391Y-32404D01*
X29488Y-32172D01*
X29583Y-32403D01*
X29780Y-32600D01*
X30037Y-32707D01*
X30315Y-32707D01*
X30572Y-32601D01*
X30769Y-32404D01*
X30876Y-32147D01*
X30876Y-31869D01*
X30876Y-34302D01*
X30866Y-34300D01*
X27604Y-34300D01*
X27484Y-34180D01*
X27472Y-32297D01*
X28519Y-31250D01*
X30732Y-31250D01*
X31584Y-32101D01*
X31584Y-32199D01*
X31557Y-32210D01*
X31431Y-32336D01*
X31362Y-32500D01*
X31362Y-32679D01*
X31430Y-32844D01*
X31556Y-32970D01*
X31721Y-33038D01*
X31899Y-33039D01*
X32064Y-32970D01*
X32190Y-32844D01*
X32202Y-32817D01*
X32417Y-32817D01*
X33107Y-33506D01*
X33180Y-33556D01*
X33267Y-33573D01*
X33818Y-33573D01*
X34880Y-33573D01*
X35105Y-33798D01*
X35103Y-33800D01*
X34113Y-34790D01*
X34090Y-34844D01*
X34090Y-34904D01*
X34113Y-34958D01*
X34154Y-35000D01*
X34649Y-35495D01*
X34704Y-35518D01*
X34763Y-35518D01*
X34817Y-35495D01*
X34859Y-35453D01*
X35330Y-34982D01*
X35424Y-35076D01*
X35424Y-35142D01*
X35473Y-35261D01*
X35564Y-35352D01*
X35683Y-35402D01*
X35812Y-35402D01*
X35930Y-35353D01*
X36022Y-35262D01*
X36071Y-35143D01*
X36071Y-35014D01*
X36022Y-34895D01*
X35931Y-34804D01*
X35812Y-34755D01*
X35745Y-34755D01*
X35651Y-34661D01*
X35810Y-34503D01*
X36800Y-35492D01*
X36789Y-35497D01*
X36747Y-35538D01*
X36571Y-35715D01*
X36548Y-35770D01*
X36548Y-35829D01*
X36571Y-35883D01*
X36612Y-35925D01*
X36930Y-36243D01*
X36985Y-36266D01*
X37044Y-36266D01*
X37099Y-36243D01*
X37102Y-36240D01*
X37154Y-36292D01*
X37155Y-36296D01*
X37197Y-36337D01*
X37754Y-36894D01*
X37755Y-36895D01*
X37831Y-36971D01*
X37831Y-36971D01*
X37880Y-37004D01*
X37905Y-37020D01*
X37905Y-37020D01*
X37992Y-37037D01*
X37992Y-37037D01*
X38228Y-37037D01*
X38315Y-37020D01*
X38388Y-36971D01*
X39759Y-35600D01*
X39828Y-35600D01*
X39875Y-35648D01*
X39994Y-35697D01*
X40123Y-35697D01*
X40242Y-35648D01*
X40333Y-35557D01*
X40382Y-35438D01*
X40382Y-35309D01*
X40333Y-35191D01*
X40242Y-35099D01*
X40123Y-35050D01*
X39995Y-35050D01*
X39876Y-35099D01*
X39828Y-35147D01*
X39665Y-35147D01*
X39649Y-35150D01*
X39656Y-35132D01*
X39704Y-35112D01*
X39746Y-35071D01*
X39859Y-34958D01*
X39882Y-34903D01*
X39882Y-34844D01*
X39859Y-34789D01*
X39817Y-34748D01*
X39296Y-34226D01*
X39299Y-34218D01*
X39299Y-34089D01*
X39250Y-33970D01*
X39204Y-33924D01*
X39204Y-33761D01*
X39639Y-33326D01*
X40265Y-33326D01*
X40352Y-33309D01*
X40425Y-33260D01*
X40868Y-32817D01*
X41065Y-32817D01*
X41076Y-32844D01*
X41202Y-32970D01*
X41367Y-33038D01*
X41545Y-33039D01*
X41710Y-32970D01*
X41836Y-32844D01*
X41852Y-32806D01*
X41962Y-32854D01*
X41072Y-33744D01*
X41069Y-33745D01*
X41065Y-33749D01*
X41065Y-33308D01*
X41043Y-33254D01*
X41001Y-33212D01*
X40946Y-33189D01*
X40887Y-33189D01*
X40637Y-33189D01*
X40583Y-33212D01*
X40541Y-33253D01*
X40518Y-33308D01*
X40518Y-33367D01*
X40518Y-33747D01*
X40435Y-33830D01*
X40369Y-33830D01*
X40250Y-33879D01*
X40202Y-33926D01*
X40029Y-33926D01*
X40005Y-33931D01*
X39763Y-33689D01*
X39708Y-33666D01*
X39649Y-33666D01*
X39595Y-33689D01*
X39553Y-33730D01*
X39383Y-33900D01*
X39360Y-33955D01*
X39360Y-34014D01*
X39383Y-34068D01*
X39425Y-34110D01*
X39981Y-34667D01*
X40036Y-34689D01*
X40095Y-34690D01*
X40150Y-34667D01*
X40191Y-34625D01*
X40348Y-34468D01*
X40368Y-34476D01*
X40455Y-34476D01*
X40470Y-34512D01*
X40512Y-34554D01*
X40625Y-34667D01*
X40673Y-34687D01*
X40693Y-34735D01*
X40734Y-34776D01*
X40848Y-34890D01*
X40896Y-34910D01*
X40915Y-34957D01*
X40957Y-34999D01*
X41070Y-35112D01*
X41118Y-35132D01*
X41138Y-35180D01*
X41180Y-35222D01*
X41293Y-35335D01*
X41341Y-35355D01*
X41361Y-35403D01*
X41403Y-35445D01*
X41516Y-35558D01*
X41564Y-35578D01*
X41584Y-35626D01*
X41616Y-35658D01*
X41391Y-35658D01*
X41305Y-35572D01*
X41186Y-35523D01*
X41057Y-35522D01*
X40939Y-35572D01*
X40848Y-35663D01*
X40798Y-35781D01*
X40798Y-35910D01*
X40847Y-36029D01*
X40938Y-36120D01*
X41057Y-36169D01*
X41186Y-36169D01*
X41305Y-36120D01*
X41313Y-36112D01*
X41598Y-36112D01*
X41671Y-36185D01*
X41680Y-36228D01*
X41729Y-36302D01*
X41802Y-36351D01*
X41889Y-36368D01*
X41948Y-36368D01*
X42125Y-36368D01*
X42212Y-36351D01*
X42286Y-36302D01*
X42584Y-36003D01*
X42584Y-36003D01*
X42584Y-36003D01*
X42650Y-35937D01*
X42669Y-35909D01*
X42951Y-35628D01*
X42952Y-35624D01*
X43603Y-34973D01*
X44033Y-34973D01*
X44088Y-34950D01*
X44130Y-34909D01*
X44152Y-34854D01*
X44152Y-34795D01*
X44152Y-34552D01*
X44645Y-34552D01*
X45130Y-35038D01*
X45144Y-35107D01*
X45193Y-35181D01*
X45487Y-35475D01*
X45533Y-35506D01*
G54D10*
G36*
X48138Y-27593D02*
X48138Y-27620D01*
X47689Y-27620D01*
X47689Y-26601D01*
X47644Y-26480D01*
X47630Y-26458D01*
X47587Y-26428D01*
X47587Y-26428D01*
X47587Y-26427D01*
X47556Y-26385D01*
X47439Y-26331D01*
X47310Y-26326D01*
X47188Y-26371D01*
X47167Y-26385D01*
X47136Y-26427D01*
X47362Y-26653D01*
X47587Y-26427D01*
X47587Y-26428D01*
X47362Y-26653D01*
X47587Y-26878D01*
X47630Y-26848D01*
X47684Y-26730D01*
X47689Y-26601D01*
X47689Y-27620D01*
X47587Y-27620D01*
X47587Y-26879D01*
X47362Y-26653D01*
X47361Y-26654D01*
X47361Y-26653D01*
X47136Y-26428D01*
X47094Y-26458D01*
X47039Y-26576D01*
X47034Y-26705D01*
X47079Y-26826D01*
X47094Y-26848D01*
X47136Y-26878D01*
X47361Y-26653D01*
X47361Y-26654D01*
X47136Y-26879D01*
X47167Y-26921D01*
X47285Y-26975D01*
X47414Y-26980D01*
X47535Y-26935D01*
X47556Y-26921D01*
X47587Y-26879D01*
X47587Y-27620D01*
X47485Y-27620D01*
X47391Y-27639D01*
X47310Y-27692D01*
X47100Y-27902D01*
X46250Y-27902D01*
X46250Y-27874D01*
X46250Y-27323D01*
X46253Y-27316D01*
X46253Y-27139D01*
X46250Y-27132D01*
X46250Y-25522D01*
X47183Y-25522D01*
X47196Y-25509D01*
X47196Y-25078D01*
X47188Y-25078D01*
X47188Y-25078D01*
X47196Y-25078D01*
X47196Y-25070D01*
X47196Y-25070D01*
X47196Y-25078D01*
X47204Y-25078D01*
X47204Y-25078D01*
X47196Y-25078D01*
X47196Y-25509D01*
X47208Y-25522D01*
X48138Y-25522D01*
X48138Y-27593D01*
X48138Y-27593D01*
G37*
G54D27*
X48138Y-27593D02*
X48138Y-27620D01*
X47689Y-27620D01*
X47689Y-26601D01*
X47644Y-26480D01*
X47630Y-26458D01*
X47587Y-26428D01*
X47587Y-26428D01*
X47587Y-26427D01*
X47556Y-26385D01*
X47439Y-26331D01*
X47310Y-26326D01*
X47188Y-26371D01*
X47167Y-26385D01*
X47136Y-26427D01*
X47362Y-26653D01*
X47587Y-26427D01*
X47587Y-26428D01*
X47362Y-26653D01*
X47587Y-26878D01*
X47630Y-26848D01*
X47684Y-26730D01*
X47689Y-26601D01*
X47689Y-27620D01*
X47587Y-27620D01*
X47587Y-26879D01*
X47362Y-26653D01*
X47361Y-26654D01*
X47361Y-26653D01*
X47136Y-26428D01*
X47094Y-26458D01*
X47039Y-26576D01*
X47034Y-26705D01*
X47079Y-26826D01*
X47094Y-26848D01*
X47136Y-26878D01*
X47361Y-26653D01*
X47361Y-26654D01*
X47136Y-26879D01*
X47167Y-26921D01*
X47285Y-26975D01*
X47414Y-26980D01*
X47535Y-26935D01*
X47556Y-26921D01*
X47587Y-26879D01*
X47587Y-27620D01*
X47485Y-27620D01*
X47391Y-27639D01*
X47310Y-27692D01*
X47100Y-27902D01*
X46250Y-27902D01*
X46250Y-27874D01*
X46250Y-27323D01*
X46253Y-27316D01*
X46253Y-27139D01*
X46250Y-27132D01*
X46250Y-25522D01*
X47183Y-25522D01*
X47196Y-25509D01*
X47196Y-25078D01*
X47188Y-25078D01*
X47188Y-25078D01*
X47196Y-25078D01*
X47196Y-25070D01*
X47196Y-25070D01*
X47196Y-25078D01*
X47204Y-25078D01*
X47204Y-25078D01*
X47196Y-25078D01*
X47196Y-25509D01*
X47208Y-25522D01*
X48138Y-25522D01*
X48138Y-27593D01*
G54D10*
G36*
X48158Y-44124D02*
X48158Y-44147D01*
X41723Y-44147D01*
X41723Y-44066D01*
X41723Y-44011D01*
X41723Y-44011D01*
X41723Y-42274D01*
X42387Y-42274D01*
X42428Y-42335D01*
X42536Y-42443D01*
X42536Y-42443D01*
X42610Y-42493D01*
X42696Y-42510D01*
X42696Y-42510D01*
X42819Y-42510D01*
X42883Y-42574D01*
X42883Y-43041D01*
X42905Y-43095D01*
X42947Y-43137D01*
X43001Y-43160D01*
X43060Y-43160D01*
X43218Y-43160D01*
X43238Y-43152D01*
X43257Y-43160D01*
X43316Y-43160D01*
X43474Y-43160D01*
X43494Y-43152D01*
X43513Y-43160D01*
X43572Y-43160D01*
X43730Y-43160D01*
X43749Y-43152D01*
X43769Y-43160D01*
X43828Y-43160D01*
X43986Y-43160D01*
X44040Y-43137D01*
X44082Y-43095D01*
X44105Y-43041D01*
X44105Y-42982D01*
X44105Y-42450D01*
X44082Y-42396D01*
X44040Y-42354D01*
X43986Y-42331D01*
X43927Y-42331D01*
X43848Y-42331D01*
X43848Y-42274D01*
X45299Y-42274D01*
X45468Y-42442D01*
X45542Y-42492D01*
X45628Y-42509D01*
X46002Y-42509D01*
X46089Y-42492D01*
X46163Y-42442D01*
X46331Y-42274D01*
X48158Y-42274D01*
X48158Y-44124D01*
X48158Y-44124D01*
G37*
G54D27*
X48158Y-44124D02*
X48158Y-44147D01*
X41723Y-44147D01*
X41723Y-44066D01*
X41723Y-44011D01*
X41723Y-44011D01*
X41723Y-42274D01*
X42387Y-42274D01*
X42428Y-42335D01*
X42536Y-42443D01*
X42536Y-42443D01*
X42610Y-42493D01*
X42696Y-42510D01*
X42696Y-42510D01*
X42819Y-42510D01*
X42883Y-42574D01*
X42883Y-43041D01*
X42905Y-43095D01*
X42947Y-43137D01*
X43001Y-43160D01*
X43060Y-43160D01*
X43218Y-43160D01*
X43238Y-43152D01*
X43257Y-43160D01*
X43316Y-43160D01*
X43474Y-43160D01*
X43494Y-43152D01*
X43513Y-43160D01*
X43572Y-43160D01*
X43730Y-43160D01*
X43749Y-43152D01*
X43769Y-43160D01*
X43828Y-43160D01*
X43986Y-43160D01*
X44040Y-43137D01*
X44082Y-43095D01*
X44105Y-43041D01*
X44105Y-42982D01*
X44105Y-42450D01*
X44082Y-42396D01*
X44040Y-42354D01*
X43986Y-42331D01*
X43927Y-42331D01*
X43848Y-42331D01*
X43848Y-42274D01*
X45299Y-42274D01*
X45468Y-42442D01*
X45542Y-42492D01*
X45628Y-42509D01*
X46002Y-42509D01*
X46089Y-42492D01*
X46163Y-42442D01*
X46331Y-42274D01*
X48158Y-42274D01*
X48158Y-44124D01*
M02*
