M48
;DRILL file {Pcbnew (2013-feb-26)-stable} date dim. 28 avril 2013 00:55:09 CEST
;FORMAT={-:-/ absolute / inch / decimal}
FMAT,2
INCH,TZ
T1C0.025
T2C0.030
T3C0.032
T4C0.040
T5C0.047
T6C0.142
%
G90
G05
M72
T1
X2.8543Y-2.8937
X3.0689Y-3.4705
X3.2598Y-3.4134
X3.3642Y-3.8386
X3.4587Y-3.0531
X3.561Y-4.0197
X3.5748Y-3.5079
X3.5827Y-3.7106
X3.5925Y-3.061
X3.6122Y-4.0118
X3.628Y-3.6909
X3.6476Y-3.9331
X3.6476Y-3.9783
X3.6496Y-3.2933
X3.6498Y-3.4348
X3.7323Y-3.1161
X3.8858Y-3.9921
X3.8917Y-3.7657
X3.8976Y-3.4154
X4.0059Y-3.5374
X4.0433Y-3.4154
X4.0492Y-3.8602
X4.0858Y-2.9428
X4.0965Y-3.8701
X4.1122Y-3.5846
X4.1929Y-4.1732
X4.2205Y-4.1339
X4.2509Y-3.9477
X4.2559Y-4.1043
X4.3538Y-2.8228
X4.4508Y-4.1693
X4.4724Y-3.7441
X4.4921Y-2.9409
X4.5098Y-3.3839
X4.6024Y-3.3996
X4.6476Y-3.3996
X4.6929Y-3.3976
X4.7343Y-3.8622
X4.7795Y-3.8878
X4.9587Y-3.3858
X4.9823Y-3.3031
X4.9941Y-3.2165
X5.0354Y-3.1594
X5.0575Y-3.3165
X5.1457Y-3.5197
X5.1938Y-3.0028
X5.1938Y-3.1378
X5.2559Y-3.7598
X5.2598Y-3.4429
X5.2874Y-3.5787
X5.2874Y-3.7972
X5.2894Y-3.8484
X5.313Y-3.3406
X5.3169Y-3.7224
X5.3287Y-3.0728
X5.3661Y-3.8701
X5.4252Y-3.5197
X5.4272Y-3.185
X5.5669Y-3.8839
X5.6299Y-3.1496
X5.6988Y-3.2657
X5.7441Y-3.5984
X5.8012Y-3.5925
X5.8366Y-3.8839
X5.8386Y-3.8287
T2
X4.8248Y-3.335
X4.8248Y-3.5272
T3
X2.3248Y-2.6004
X2.3248Y-2.8563
X2.3248Y-2.9626
X2.3248Y-3.2185
X2.3248Y-3.3248
X2.3248Y-3.5807
X2.3248Y-3.687
X2.3248Y-3.9429
X2.3248Y-4.0492
X2.3248Y-4.3051
X2.5807Y-2.6004
X2.5807Y-2.8563
X2.5807Y-2.9626
X2.5807Y-3.2185
X2.5807Y-3.3248
X2.5807Y-3.5807
X2.5807Y-3.687
X2.5807Y-3.9429
X2.5807Y-4.0492
X2.5807Y-4.3051
X2.6811Y-2.7828
X2.6811Y-2.8828
X2.6811Y-2.9828
X2.6811Y-3.0828
X2.6811Y-3.1828
X2.6811Y-3.2828
X2.6811Y-3.3828
X2.6811Y-3.4828
X2.6811Y-3.6828
X2.6811Y-3.7828
X2.6811Y-3.8828
X2.6811Y-3.9828
X2.6811Y-4.0828
X2.6811Y-4.1828
X2.6811Y-4.2828
X2.6811Y-4.3828
X2.7854Y-2.498
X2.7854Y-2.7539
X2.7854Y-4.1516
X2.7854Y-4.4075
X2.8858Y-3.6661
X2.8858Y-4.0661
X3.0039Y-3.6661
X3.0039Y-4.0661
X3.0413Y-2.498
X3.0413Y-2.7539
X3.0413Y-4.1516
X3.0413Y-4.4075
X3.122Y-3.6661
X3.122Y-4.0661
X3.1476Y-2.498
X3.1476Y-2.7539
X3.1476Y-4.1516
X3.1476Y-4.4075
X3.1811Y-2.8591
X3.1811Y-3.2591
X3.2402Y-3.6661
X3.2402Y-4.0661
X3.3189Y-2.8591
X3.3189Y-3.2591
X3.3583Y-3.6661
X3.3583Y-4.0661
X3.4035Y-2.498
X3.4035Y-2.7539
X3.4035Y-4.1516
X3.4035Y-4.4075
X3.4567Y-2.8591
X3.4567Y-3.2591
X3.4764Y-3.6661
X3.4764Y-4.0661
X3.5098Y-2.498
X3.5098Y-2.7539
X3.5098Y-4.1516
X3.5098Y-4.4075
X3.5945Y-2.8591
X3.5945Y-3.2591
X3.7323Y-2.8591
X3.7323Y-3.2591
X3.7657Y-2.498
X3.7657Y-2.7539
X3.7657Y-4.1516
X3.7657Y-4.4075
X3.8701Y-2.8591
X3.8701Y-3.2591
X3.872Y-2.498
X3.872Y-2.7539
X3.872Y-4.1516
X3.872Y-4.4075
X4.0079Y-2.8591
X4.0079Y-3.2591
X4.1279Y-2.498
X4.1279Y-2.7539
X4.1279Y-4.1516
X4.1279Y-4.4075
X4.1457Y-2.8591
X4.1457Y-3.2591
X4.2331Y-2.498
X4.2331Y-2.7539
X4.2835Y-2.8591
X4.2835Y-3.2591
X4.4213Y-2.8591
X4.4213Y-3.2591
X4.489Y-2.498
X4.489Y-2.7539
X4.5811Y-2.5228
X4.5811Y-2.6228
X4.5811Y-2.7228
X4.5811Y-2.8228
X4.5811Y-2.9228
X4.5811Y-3.0228
X4.5811Y-3.1228
X4.5811Y-3.2228
X4.5811Y-3.4828
X4.5811Y-3.5828
X4.5811Y-3.6828
X4.5811Y-3.7828
X4.5811Y-3.8828
X4.5811Y-3.9828
X4.5811Y-4.0828
X4.5811Y-4.1828
X4.7362Y-2.6654
X4.7362Y-4.3189
X4.8602Y-2.498
X4.8602Y-2.7539
X4.8602Y-4.1516
X4.8602Y-4.4075
X5.0949Y-2.9016
X5.1161Y-2.498
X5.1161Y-2.7539
X5.1161Y-4.1516
X5.1161Y-4.4075
X5.1949Y-2.9016
X5.2224Y-2.498
X5.2224Y-2.7539
X5.2224Y-4.1516
X5.2224Y-4.4075
X5.2874Y-3.6465
X5.2874Y-4.0465
X5.2949Y-2.9016
X5.3949Y-2.9016
X5.4252Y-2.9969
X5.4252Y-3.3969
X5.4252Y-3.6465
X5.4252Y-4.0465
X5.4783Y-2.498
X5.4783Y-2.7539
X5.4783Y-4.1516
X5.4783Y-4.4075
X5.4949Y-2.9016
X5.563Y-2.9969
X5.563Y-3.3969
X5.563Y-3.6465
X5.563Y-4.0465
X5.5846Y-2.498
X5.5846Y-2.7539
X5.5846Y-4.1516
X5.5846Y-4.4075
X5.5949Y-2.9016
X5.6949Y-2.9016
X5.7008Y-2.9969
X5.7008Y-3.3969
X5.7008Y-3.6465
X5.7008Y-4.0465
X5.7949Y-2.9016
X5.8386Y-2.9969
X5.8386Y-3.3969
X5.8386Y-3.6465
X5.8386Y-4.0465
X5.8405Y-2.498
X5.8405Y-2.7539
X5.8405Y-4.1516
X5.8405Y-4.4075
X5.9468Y-2.6004
X5.9468Y-2.8563
X5.9468Y-2.9626
X5.9468Y-3.2185
X5.9468Y-3.3248
X5.9468Y-3.5807
X5.9468Y-3.687
X5.9468Y-3.9429
X5.9468Y-4.0492
X5.9468Y-4.3051
X6.0051Y-2.5177
X6.1051Y-2.5177
X6.2027Y-2.6004
X6.2027Y-2.8563
X6.2027Y-2.9626
X6.2027Y-3.2185
X6.2027Y-3.3248
X6.2027Y-3.5807
X6.2027Y-3.687
X6.2027Y-3.9429
X6.2027Y-4.0492
X6.2027Y-4.3051
T4
X4.7518Y-3.0008
X4.7518Y-3.1008
X4.8518Y-3.0008
X4.8518Y-3.1008
X4.9518Y-3.0008
X4.9518Y-3.1008
T5
X2.8799Y-3.2008
X3.0177Y-3.2008
T6
X2.4528Y-2.7284
X2.4528Y-3.0906
X2.4528Y-3.4528
X2.4528Y-3.815
X2.4528Y-4.1772
X2.9134Y-2.626
X2.9134Y-4.2796
X3.2756Y-2.626
X3.2756Y-4.2796
X3.6378Y-2.626
X3.6378Y-4.2796
X4.Y-2.626
X4.Y-4.2796
X4.361Y-2.626
X4.9882Y-2.626
X4.9882Y-4.2796
X5.3504Y-2.626
X5.3504Y-4.2796
X5.7126Y-2.626
X5.7126Y-4.2796
X6.0748Y-2.7284
X6.0748Y-3.0906
X6.0748Y-3.4528
X6.0748Y-3.815
X6.0748Y-4.1772
T0
M30
