G04 (created by PCBNEW (2013-feb-26)-stable) date ven. 05 avril 2013 21:49:21 CEST*
%MOIN*%
G04 Gerber Fmt 3.4, Leading zero omitted, Abs format*
%FSLAX34Y34*%
G01*
G70*
G90*
G04 APERTURE LIST*
%ADD10C,2.3622e-06*%
%ADD11R,0.051748X0.036*%
%ADD12R,0.055148X0.0276*%
%ADD13R,0.11811X0.0393701*%
%ADD14R,0.19685X0.0787402*%
%ADD15R,0.0314961X0.0787402*%
%ADD16R,0.095748X0.144*%
%ADD17R,0.095748X0.04*%
%ADD18R,0.133858X0.0629921*%
%ADD19R,0.259843X0.228346*%
%ADD20C,0.0708661*%
%ADD21R,0.045X0.0393701*%
%ADD22C,0.110236*%
%ADD23C,0.055*%
%ADD24C,0.06*%
%ADD25R,0.649606X0.0787402*%
%ADD26R,0.045X0.025*%
%ADD27R,0.315X0.315*%
%ADD28R,0.14X0.07*%
%ADD29C,0.035*%
%ADD30C,0.0157*%
%ADD31C,0.01*%
G04 APERTURE END LIST*
G54D10*
G54D11*
X32670Y-37524D03*
X32670Y-38224D03*
X33628Y-37874D03*
G54D12*
X30641Y-37874D03*
X31799Y-38249D03*
X31799Y-37499D03*
G54D13*
X35807Y-36161D03*
X35807Y-37736D03*
X28031Y-29409D03*
X28031Y-30984D03*
X34094Y-29803D03*
X34094Y-31377D03*
G54D14*
X28897Y-33110D03*
X28897Y-35866D03*
G54D15*
X28937Y-37913D03*
X27755Y-37913D03*
G54D16*
X32481Y-30196D03*
G54D17*
X29723Y-30196D03*
X29723Y-29296D03*
X29723Y-31096D03*
G54D18*
X31220Y-33588D03*
G54D19*
X34204Y-34488D03*
G54D18*
X31220Y-35388D03*
G54D20*
X48248Y-33350D03*
X48248Y-35271D03*
G54D21*
X48956Y-35310D03*
X48956Y-35910D03*
X48937Y-33361D03*
X48937Y-33961D03*
G54D22*
X30177Y-32007D03*
X28799Y-32007D03*
G54D23*
X61051Y-25177D03*
X60051Y-25177D03*
G54D24*
X34763Y-40661D03*
X34763Y-36661D03*
X33582Y-40661D03*
X33582Y-36661D03*
X32401Y-40661D03*
X32401Y-36661D03*
X31220Y-40661D03*
X31220Y-36661D03*
X30039Y-40661D03*
X30039Y-36661D03*
X28858Y-40661D03*
X28858Y-36661D03*
G54D25*
X44940Y-43976D03*
G54D23*
X46968Y-43188D03*
G54D14*
X47196Y-25078D03*
G54D23*
X47362Y-26653D03*
X45810Y-41827D03*
X45810Y-40827D03*
X45810Y-39827D03*
X45810Y-38827D03*
X45810Y-37827D03*
X45810Y-36827D03*
X45810Y-35827D03*
X45810Y-34827D03*
X45810Y-32227D03*
X45810Y-31227D03*
X45810Y-30227D03*
X45810Y-29227D03*
X45810Y-28227D03*
X45810Y-27227D03*
X45810Y-26227D03*
X45810Y-25227D03*
X26810Y-34827D03*
X26810Y-33827D03*
X26810Y-32827D03*
X26810Y-31827D03*
X26810Y-30827D03*
X26810Y-29827D03*
X26810Y-28827D03*
X26810Y-27827D03*
X26810Y-43827D03*
X26810Y-42827D03*
X26810Y-41827D03*
X26810Y-40827D03*
X26810Y-39827D03*
X26810Y-38827D03*
X26810Y-37827D03*
X26810Y-36827D03*
G54D24*
X47517Y-31007D03*
X47517Y-30007D03*
X48517Y-31007D03*
X48517Y-30007D03*
X49517Y-31007D03*
X49517Y-30007D03*
X37322Y-28590D03*
X37322Y-32590D03*
X52874Y-36464D03*
X52874Y-40464D03*
X54251Y-36464D03*
X54251Y-40464D03*
X57007Y-36464D03*
X57007Y-40464D03*
X58385Y-36464D03*
X58385Y-40464D03*
X55629Y-40464D03*
X55629Y-36464D03*
X58385Y-33968D03*
X58385Y-29968D03*
X57007Y-33968D03*
X57007Y-29968D03*
X55629Y-33968D03*
X55629Y-29968D03*
X54251Y-33968D03*
X54251Y-29968D03*
X44212Y-28590D03*
X44212Y-32590D03*
X41456Y-28590D03*
X41456Y-32590D03*
X40078Y-28590D03*
X40078Y-32590D03*
X38700Y-28590D03*
X38700Y-32590D03*
X31811Y-28590D03*
X31811Y-32590D03*
X33188Y-28590D03*
X33188Y-32590D03*
X34566Y-28590D03*
X34566Y-32590D03*
X42834Y-28590D03*
X42834Y-32590D03*
X35944Y-28590D03*
X35944Y-32590D03*
G54D26*
X52687Y-29927D03*
X52687Y-30527D03*
G54D23*
X57948Y-29015D03*
X56948Y-29015D03*
X55948Y-29015D03*
X54948Y-29015D03*
X53948Y-29015D03*
X52948Y-29015D03*
X51948Y-29015D03*
X50948Y-29015D03*
G54D27*
X29133Y-26259D03*
G54D23*
X27833Y-24959D03*
X30433Y-24959D03*
X27833Y-27559D03*
X30433Y-27559D03*
G54D27*
X32755Y-26259D03*
G54D23*
X31455Y-24959D03*
X34055Y-24959D03*
X31455Y-27559D03*
X34055Y-27559D03*
G54D27*
X32755Y-42795D03*
G54D23*
X34055Y-44095D03*
X31455Y-44095D03*
X34055Y-41495D03*
X31455Y-41495D03*
G54D27*
X49881Y-42795D03*
G54D23*
X51181Y-44095D03*
X48581Y-44095D03*
X51181Y-41495D03*
X48581Y-41495D03*
G54D27*
X53503Y-42795D03*
G54D23*
X54803Y-44095D03*
X52203Y-44095D03*
X54803Y-41495D03*
X52203Y-41495D03*
G54D27*
X57125Y-42795D03*
G54D23*
X58425Y-44095D03*
X55825Y-44095D03*
X58425Y-41495D03*
X55825Y-41495D03*
G54D27*
X60747Y-41771D03*
G54D23*
X62047Y-40471D03*
X62047Y-43071D03*
X59447Y-40471D03*
X59447Y-43071D03*
G54D27*
X60747Y-38149D03*
G54D23*
X62047Y-36849D03*
X62047Y-39449D03*
X59447Y-36849D03*
X59447Y-39449D03*
G54D27*
X60747Y-34527D03*
G54D23*
X62047Y-33227D03*
X62047Y-35827D03*
X59447Y-33227D03*
X59447Y-35827D03*
G54D27*
X60747Y-30905D03*
G54D23*
X62047Y-29605D03*
X62047Y-32205D03*
X59447Y-29605D03*
X59447Y-32205D03*
G54D27*
X60747Y-27283D03*
G54D23*
X62047Y-25983D03*
X62047Y-28583D03*
X59447Y-25983D03*
X59447Y-28583D03*
G54D27*
X57125Y-26259D03*
G54D23*
X55825Y-24959D03*
X58425Y-24959D03*
X55825Y-27559D03*
X58425Y-27559D03*
G54D27*
X53503Y-26259D03*
G54D23*
X52203Y-24959D03*
X54803Y-24959D03*
X52203Y-27559D03*
X54803Y-27559D03*
G54D27*
X49881Y-26259D03*
G54D23*
X48581Y-24959D03*
X51181Y-24959D03*
X48581Y-27559D03*
X51181Y-27559D03*
G54D27*
X36377Y-26259D03*
G54D23*
X35077Y-24959D03*
X37677Y-24959D03*
X35077Y-27559D03*
X37677Y-27559D03*
G54D27*
X24527Y-27283D03*
G54D23*
X23227Y-28583D03*
X23227Y-25983D03*
X25827Y-28583D03*
X25827Y-25983D03*
G54D27*
X24527Y-30905D03*
G54D23*
X23227Y-32205D03*
X23227Y-29605D03*
X25827Y-32205D03*
X25827Y-29605D03*
G54D27*
X24527Y-34527D03*
G54D23*
X23227Y-35827D03*
X23227Y-33227D03*
X25827Y-35827D03*
X25827Y-33227D03*
G54D27*
X24527Y-38149D03*
G54D23*
X23227Y-39449D03*
X23227Y-36849D03*
X25827Y-39449D03*
X25827Y-36849D03*
G54D27*
X24527Y-41771D03*
G54D23*
X23227Y-43071D03*
X23227Y-40471D03*
X25827Y-43071D03*
X25827Y-40471D03*
G54D27*
X29133Y-42795D03*
G54D23*
X30433Y-44095D03*
X27833Y-44095D03*
X30433Y-41495D03*
X27833Y-41495D03*
G54D27*
X36377Y-42795D03*
G54D23*
X37677Y-44095D03*
X35077Y-44095D03*
X37677Y-41495D03*
X35077Y-41495D03*
G54D27*
X39999Y-42795D03*
G54D23*
X41299Y-44095D03*
X38699Y-44095D03*
X41299Y-41495D03*
X38699Y-41495D03*
G54D27*
X39999Y-26259D03*
G54D23*
X38699Y-24959D03*
X41299Y-24959D03*
X38699Y-27559D03*
X41299Y-27559D03*
G54D27*
X43610Y-26259D03*
G54D23*
X42310Y-24959D03*
X44910Y-24959D03*
X42310Y-27559D03*
X44910Y-27559D03*
G54D28*
X43602Y-40848D03*
X43602Y-39348D03*
G54D29*
X35826Y-37106D03*
X51937Y-31377D03*
X41929Y-41732D03*
X56299Y-31496D03*
X51937Y-30027D03*
X35748Y-35078D03*
X36476Y-39783D03*
X36122Y-40118D03*
X35610Y-40196D03*
X38858Y-39921D03*
X49940Y-32165D03*
X40857Y-29427D03*
X28543Y-28937D03*
X47342Y-38622D03*
X45098Y-33838D03*
X38976Y-34153D03*
X36497Y-34347D03*
X52893Y-38484D03*
X55669Y-38838D03*
X42204Y-41338D03*
X37322Y-31161D03*
X35925Y-30610D03*
X58011Y-35925D03*
X58366Y-38838D03*
X52559Y-37598D03*
X46476Y-33996D03*
X53169Y-37224D03*
X46929Y-33976D03*
X58385Y-38287D03*
X46023Y-33996D03*
X52874Y-37972D03*
X50354Y-31594D03*
X44921Y-29409D03*
X43537Y-28227D03*
X47795Y-38877D03*
X40059Y-35374D03*
X53661Y-38700D03*
X41377Y-37972D03*
X40669Y-38562D03*
X53287Y-30728D03*
X33641Y-38385D03*
X36476Y-39330D03*
X44507Y-41692D03*
X42559Y-41043D03*
X50575Y-33164D03*
X36279Y-36909D03*
X38917Y-37657D03*
X56988Y-32657D03*
X54271Y-31850D03*
X54251Y-35196D03*
X57440Y-35984D03*
X52874Y-35787D03*
X52598Y-34429D03*
X41122Y-35846D03*
X39921Y-38444D03*
X36496Y-32933D03*
X34586Y-30531D03*
X53129Y-33405D03*
X49586Y-33858D03*
X44724Y-37440D03*
X40433Y-34153D03*
X47834Y-41870D03*
X42508Y-39477D03*
X32598Y-34133D03*
X49822Y-33031D03*
X51456Y-35196D03*
G54D30*
X35826Y-37106D02*
X35352Y-37106D01*
X34586Y-37872D02*
X34586Y-38267D01*
X35352Y-37106D02*
X34586Y-37872D01*
X33011Y-38897D02*
X33956Y-38897D01*
X33956Y-38897D02*
X34586Y-38267D01*
X31799Y-38748D02*
X31799Y-38249D01*
X31948Y-38897D02*
X31799Y-38748D01*
X33011Y-38897D02*
X31948Y-38897D01*
X51948Y-31366D02*
X51937Y-31377D01*
X51948Y-30027D02*
X51948Y-31366D01*
X51937Y-30027D02*
X51948Y-30027D01*
X42224Y-41732D02*
X41929Y-41732D01*
X48048Y-40944D02*
X46184Y-42808D01*
X51299Y-40944D02*
X49251Y-40944D01*
X55149Y-40944D02*
X55629Y-40464D01*
X51299Y-40944D02*
X55149Y-40944D01*
X44291Y-42342D02*
X44983Y-42342D01*
X45449Y-42808D02*
X46184Y-42808D01*
X44983Y-42342D02*
X45449Y-42808D01*
X43681Y-41732D02*
X44291Y-42342D01*
X42224Y-41732D02*
X43681Y-41732D01*
X49251Y-40944D02*
X48048Y-40944D01*
X58385Y-36464D02*
X58385Y-37708D01*
X58385Y-37708D02*
X55629Y-40464D01*
X56948Y-29015D02*
X56948Y-29074D01*
X56299Y-29724D02*
X56299Y-31496D01*
X56948Y-29074D02*
X56299Y-29724D01*
X31811Y-28590D02*
X28377Y-28590D01*
X28031Y-28937D02*
X28031Y-29409D01*
X28377Y-28590D02*
X28031Y-28937D01*
X29723Y-29296D02*
X28144Y-29296D01*
X28144Y-29296D02*
X28031Y-29409D01*
X28031Y-29409D02*
X27392Y-29409D01*
X27392Y-29409D02*
X26810Y-28827D01*
X34566Y-28590D02*
X33188Y-28590D01*
X33188Y-28590D02*
X31811Y-28590D01*
X54251Y-36464D02*
X54480Y-36464D01*
X54818Y-34534D02*
X54251Y-33968D01*
X54818Y-36126D02*
X54818Y-34534D01*
X54480Y-36464D02*
X54818Y-36126D01*
X35944Y-28590D02*
X34566Y-28590D01*
X37322Y-28590D02*
X35944Y-28590D01*
X38700Y-28590D02*
X37322Y-28590D01*
X40078Y-28590D02*
X38700Y-28590D01*
X41456Y-28590D02*
X40078Y-28590D01*
X42834Y-28590D02*
X41456Y-28590D01*
X44212Y-28590D02*
X42834Y-28590D01*
X28897Y-33110D02*
X28267Y-33110D01*
X26810Y-34567D02*
X26810Y-34827D01*
X28267Y-33110D02*
X26810Y-34567D01*
X28799Y-32007D02*
X28799Y-33011D01*
X28799Y-33011D02*
X28897Y-33110D01*
X27755Y-37913D02*
X27755Y-36773D01*
X27755Y-36773D02*
X26810Y-35827D01*
X26810Y-35827D02*
X26810Y-34827D01*
X31220Y-33588D02*
X30281Y-33588D01*
X29803Y-33110D02*
X28897Y-33110D01*
X30281Y-33588D02*
X29803Y-33110D01*
X35807Y-36161D02*
X35807Y-35137D01*
X35807Y-35137D02*
X35748Y-35078D01*
X33622Y-37165D02*
X33029Y-37165D01*
X33029Y-37165D02*
X32670Y-37524D01*
X33700Y-37165D02*
X33622Y-37165D01*
X35748Y-35078D02*
X34795Y-35078D01*
X34795Y-35078D02*
X34204Y-34488D01*
X34173Y-36889D02*
X34173Y-34519D01*
X33700Y-37165D02*
X33897Y-37165D01*
X33897Y-37165D02*
X34173Y-36889D01*
X34173Y-34519D02*
X34204Y-34488D01*
X34307Y-34385D02*
X34204Y-34488D01*
X34307Y-34385D02*
X34204Y-34488D01*
X37657Y-40930D02*
X37367Y-40930D01*
X38134Y-40930D02*
X39999Y-42795D01*
X38090Y-40930D02*
X38134Y-40930D01*
X38090Y-40930D02*
X38011Y-40930D01*
X38011Y-40930D02*
X37657Y-40930D01*
X36476Y-40039D02*
X36476Y-39783D01*
X37367Y-40930D02*
X36476Y-40039D01*
X36377Y-42795D02*
X36377Y-40373D01*
X36377Y-40373D02*
X36122Y-40118D01*
X34940Y-40177D02*
X34547Y-40177D01*
X34547Y-40177D02*
X34177Y-40546D01*
X34940Y-40177D02*
X35590Y-40177D01*
X35590Y-40177D02*
X35610Y-40196D01*
X32755Y-42795D02*
X34177Y-41373D01*
X34177Y-40546D02*
X34177Y-41373D01*
X52598Y-38956D02*
X52913Y-38956D01*
X52913Y-38956D02*
X53530Y-38340D01*
X53530Y-34671D02*
X53346Y-34488D01*
X53530Y-38340D02*
X53530Y-34671D01*
X52598Y-38956D02*
X52500Y-38956D01*
X39632Y-40695D02*
X39238Y-40695D01*
X38858Y-40314D02*
X38858Y-39921D01*
X39238Y-40695D02*
X38858Y-40314D01*
X39803Y-40695D02*
X39632Y-40695D01*
X40236Y-40695D02*
X39803Y-40695D01*
X52129Y-39327D02*
X52500Y-38956D01*
X45672Y-39327D02*
X51456Y-39327D01*
X51456Y-39327D02*
X52129Y-39327D01*
X40236Y-40695D02*
X42454Y-40695D01*
X42454Y-40695D02*
X42834Y-40314D01*
X42834Y-40314D02*
X44685Y-40314D01*
X44685Y-40314D02*
X45672Y-39327D01*
X46958Y-28966D02*
X49537Y-28966D01*
X49537Y-28966D02*
X50620Y-30049D01*
X50620Y-30049D02*
X50708Y-30137D01*
X46259Y-28267D02*
X46259Y-27027D01*
X46958Y-28966D02*
X46259Y-28267D01*
X50708Y-30137D02*
X50708Y-31515D01*
X45737Y-25227D02*
X45357Y-25607D01*
X45617Y-26727D02*
X45959Y-26727D01*
X45959Y-26727D02*
X46259Y-27027D01*
X45810Y-25227D02*
X45737Y-25227D01*
X45357Y-26467D02*
X45617Y-26727D01*
X45357Y-25607D02*
X45357Y-26467D01*
X50708Y-31614D02*
X50708Y-31515D01*
X53346Y-34488D02*
X50708Y-31850D01*
X50708Y-31850D02*
X50708Y-31614D01*
X56116Y-35944D02*
X56116Y-37387D01*
X56116Y-37387D02*
X54028Y-39475D01*
X54028Y-39475D02*
X52768Y-39475D01*
X52266Y-39978D02*
X51914Y-39978D01*
X52768Y-39475D02*
X52266Y-39978D01*
X55317Y-31033D02*
X54251Y-29968D01*
X55317Y-32954D02*
X55317Y-31033D01*
X56116Y-33753D02*
X55317Y-32954D01*
X56116Y-35944D02*
X56116Y-33753D01*
X51914Y-39978D02*
X47660Y-39978D01*
X47660Y-39978D02*
X45810Y-41827D01*
X55067Y-36181D02*
X55067Y-38003D01*
X55067Y-38003D02*
X53858Y-39212D01*
X51692Y-39728D02*
X52161Y-39728D01*
X52161Y-39728D02*
X52677Y-39212D01*
X53681Y-29665D02*
X53858Y-29488D01*
X54948Y-29015D02*
X54842Y-29015D01*
X54370Y-29488D02*
X53858Y-29488D01*
X54842Y-29015D02*
X54370Y-29488D01*
X55067Y-36181D02*
X55067Y-31484D01*
X55067Y-31484D02*
X53681Y-30098D01*
X53681Y-30098D02*
X53681Y-29665D01*
X53858Y-39212D02*
X52677Y-39212D01*
X51692Y-39728D02*
X46909Y-39728D01*
X46909Y-39728D02*
X45810Y-40827D01*
X34566Y-32590D02*
X34659Y-32590D01*
X35461Y-30227D02*
X35826Y-30227D01*
X34901Y-30787D02*
X35461Y-30227D01*
X34901Y-32348D02*
X34901Y-30787D01*
X34659Y-32590D02*
X34901Y-32348D01*
X45810Y-30227D02*
X35826Y-30227D01*
X45810Y-29227D02*
X45841Y-29227D01*
X49737Y-31941D02*
X49940Y-32165D01*
X46988Y-31941D02*
X49737Y-31941D01*
X46574Y-31528D02*
X46988Y-31941D01*
X46574Y-29960D02*
X46574Y-31528D01*
X45841Y-29227D02*
X46574Y-29960D01*
X43562Y-29427D02*
X44411Y-29427D01*
X45611Y-28227D02*
X45810Y-28227D01*
X44411Y-29427D02*
X45611Y-28227D01*
X40857Y-29427D02*
X41557Y-29427D01*
X41957Y-29427D02*
X41557Y-29427D01*
X41557Y-29427D02*
X41397Y-29427D01*
X41397Y-29427D02*
X40857Y-29427D01*
X43562Y-29427D02*
X41957Y-29427D01*
X41957Y-29427D02*
X41397Y-29427D01*
X43661Y-29067D02*
X44416Y-29067D01*
X45354Y-28129D02*
X45354Y-27971D01*
X44416Y-29067D02*
X45354Y-28129D01*
X29724Y-28840D02*
X28640Y-28840D01*
X28640Y-28840D02*
X28543Y-28937D01*
X29724Y-28840D02*
X31359Y-28840D01*
X32086Y-29067D02*
X31653Y-29067D01*
X40984Y-29067D02*
X43661Y-29067D01*
X40984Y-29067D02*
X32086Y-29067D01*
X45810Y-27227D02*
X45810Y-27514D01*
X45810Y-27514D02*
X45354Y-27971D01*
X31653Y-29067D02*
X31587Y-29067D01*
X31359Y-28840D02*
X31587Y-29067D01*
X26810Y-43800D02*
X26337Y-43327D01*
X26337Y-43327D02*
X26337Y-36337D01*
X26810Y-43827D02*
X26810Y-43800D01*
X26337Y-36337D02*
X24527Y-34527D01*
X56456Y-36082D02*
X56456Y-37460D01*
X56456Y-37460D02*
X54179Y-39738D01*
X51377Y-40227D02*
X52410Y-40227D01*
X45649Y-42302D02*
X45338Y-41992D01*
X45984Y-42302D02*
X48059Y-40227D01*
X45338Y-41992D02*
X45338Y-40299D01*
X45338Y-40299D02*
X45810Y-39827D01*
X45984Y-42302D02*
X45649Y-42302D01*
X48059Y-40227D02*
X51377Y-40227D01*
X52410Y-40227D02*
X52899Y-39738D01*
X52899Y-39738D02*
X54179Y-39738D01*
X56456Y-33661D02*
X56456Y-36082D01*
X55629Y-29968D02*
X55629Y-32834D01*
X55629Y-32834D02*
X56456Y-33661D01*
X46284Y-37224D02*
X46284Y-37564D01*
X46284Y-37564D02*
X47342Y-38622D01*
X46284Y-36791D02*
X46284Y-37224D01*
X46284Y-35647D02*
X46284Y-35654D01*
X45098Y-34881D02*
X45098Y-33838D01*
X45544Y-35327D02*
X45098Y-34881D01*
X46284Y-35654D02*
X45957Y-35327D01*
X45957Y-35327D02*
X45544Y-35327D01*
X46284Y-36791D02*
X46284Y-35647D01*
X60051Y-25177D02*
X59389Y-25177D01*
X59389Y-25177D02*
X58987Y-25579D01*
X60747Y-30905D02*
X60715Y-30905D01*
X58987Y-29177D02*
X58987Y-25579D01*
X60715Y-30905D02*
X58987Y-29177D01*
X39409Y-33799D02*
X42774Y-33799D01*
X45810Y-37827D02*
X45701Y-37827D01*
X45347Y-36372D02*
X42774Y-33799D01*
X45347Y-37473D02*
X45347Y-36372D01*
X45701Y-37827D02*
X45347Y-37473D01*
X39055Y-34153D02*
X39409Y-33799D01*
X38976Y-34153D02*
X39055Y-34153D01*
X36497Y-34347D02*
X38290Y-34347D01*
X38290Y-34347D02*
X39088Y-33549D01*
X39088Y-33549D02*
X42877Y-33549D01*
X42877Y-33549D02*
X45810Y-36482D01*
X45810Y-36482D02*
X45810Y-36827D01*
X39410Y-33300D02*
X42980Y-33300D01*
X45508Y-35827D02*
X45810Y-35827D01*
X42980Y-33300D02*
X45508Y-35827D01*
X39410Y-33300D02*
X38700Y-32590D01*
X52893Y-38484D02*
X47707Y-38484D01*
X47707Y-38484D02*
X47569Y-38346D01*
X54520Y-39987D02*
X55669Y-38838D01*
X53779Y-39987D02*
X54212Y-39987D01*
X53351Y-39987D02*
X52874Y-40464D01*
X53779Y-39987D02*
X53351Y-39987D01*
X54212Y-39987D02*
X54520Y-39987D01*
X46107Y-34827D02*
X46534Y-35254D01*
X47569Y-38346D02*
X46534Y-37311D01*
X46534Y-35254D02*
X46534Y-37311D01*
X45810Y-34827D02*
X46107Y-34827D01*
X42263Y-41397D02*
X43720Y-41397D01*
X42204Y-41338D02*
X42263Y-41397D01*
X49770Y-40492D02*
X52846Y-40492D01*
X52846Y-40492D02*
X52874Y-40464D01*
X44586Y-42047D02*
X45040Y-42047D01*
X48148Y-40492D02*
X49770Y-40492D01*
X46081Y-42559D02*
X48148Y-40492D01*
X45552Y-42559D02*
X46081Y-42559D01*
X45040Y-42047D02*
X45552Y-42559D01*
X43720Y-41397D02*
X44370Y-42047D01*
X44370Y-42047D02*
X44586Y-42047D01*
X37322Y-31161D02*
X37381Y-31102D01*
X44685Y-31102D02*
X45810Y-32227D01*
X37381Y-31102D02*
X44685Y-31102D01*
X37224Y-30531D02*
X36003Y-30531D01*
X45114Y-30531D02*
X45810Y-31227D01*
X37224Y-30531D02*
X45114Y-30531D01*
X36003Y-30531D02*
X35925Y-30610D01*
X57677Y-36751D02*
X57677Y-36259D01*
X54850Y-40464D02*
X54251Y-40464D01*
X57677Y-37637D02*
X54850Y-40464D01*
X57677Y-36751D02*
X57677Y-37637D01*
X57677Y-36259D02*
X58011Y-35925D01*
X57007Y-40196D02*
X57007Y-40464D01*
X58366Y-38838D02*
X57007Y-40196D01*
X52559Y-37598D02*
X47631Y-37598D01*
X47631Y-37598D02*
X47097Y-37064D01*
X47097Y-37064D02*
X47069Y-37064D01*
X47069Y-37064D02*
X47097Y-37064D01*
X47097Y-34755D02*
X46476Y-34133D01*
X46476Y-34133D02*
X46476Y-33996D01*
X47097Y-37064D02*
X47097Y-34755D01*
X53169Y-37224D02*
X51751Y-37224D01*
X53169Y-37224D02*
X51909Y-37224D01*
X51043Y-37224D02*
X51751Y-37224D01*
X51043Y-37224D02*
X47775Y-37224D01*
X47775Y-37224D02*
X47357Y-36806D01*
X47357Y-34582D02*
X47357Y-36806D01*
X46929Y-34153D02*
X47357Y-34582D01*
X46929Y-33976D02*
X46929Y-34153D01*
X51751Y-37224D02*
X51909Y-37224D01*
X58779Y-39094D02*
X58740Y-39094D01*
X58740Y-39055D02*
X58779Y-39094D01*
X58740Y-38641D02*
X58740Y-39055D01*
X58385Y-38287D02*
X58740Y-38641D01*
X58740Y-39094D02*
X58740Y-40110D01*
X58740Y-40110D02*
X58385Y-40464D01*
X52874Y-37972D02*
X47582Y-37972D01*
X47582Y-37972D02*
X46820Y-37209D01*
X46023Y-33996D02*
X46023Y-34153D01*
X46820Y-34949D02*
X46023Y-34153D01*
X46820Y-36023D02*
X46820Y-34949D01*
X46820Y-36023D02*
X46820Y-37209D01*
X50354Y-31397D02*
X50354Y-31594D01*
X46217Y-28727D02*
X45603Y-28727D01*
X45603Y-28727D02*
X44921Y-29409D01*
X46727Y-29237D02*
X49455Y-29237D01*
X50355Y-30137D02*
X50354Y-30137D01*
X49455Y-29237D02*
X50355Y-30137D01*
X46727Y-29237D02*
X46217Y-28727D01*
X50354Y-31397D02*
X50354Y-30137D01*
X43537Y-28227D02*
X43537Y-28217D01*
X43537Y-28217D02*
X43397Y-28077D01*
X26810Y-27850D02*
X27037Y-28077D01*
X43397Y-28077D02*
X27037Y-28077D01*
X26810Y-27850D02*
X26810Y-27827D01*
X43248Y-35039D02*
X40393Y-35039D01*
X40393Y-35039D02*
X40059Y-35374D01*
X43661Y-35039D02*
X43996Y-35374D01*
X43248Y-35039D02*
X43661Y-35039D01*
X53779Y-37559D02*
X53779Y-38582D01*
X53779Y-38582D02*
X53661Y-38700D01*
X53779Y-34568D02*
X53661Y-34450D01*
X53779Y-37559D02*
X53779Y-34568D01*
X46712Y-38976D02*
X46082Y-38346D01*
X47696Y-38976D02*
X46712Y-38976D01*
X47795Y-38877D02*
X47696Y-38976D01*
X45688Y-38346D02*
X46082Y-38346D01*
X45551Y-38346D02*
X45688Y-38346D01*
X43996Y-35374D02*
X44094Y-35472D01*
X44094Y-35472D02*
X45078Y-36456D01*
X45452Y-38346D02*
X45551Y-38346D01*
X45078Y-37972D02*
X45452Y-38346D01*
X45078Y-36456D02*
X45078Y-37972D01*
X50984Y-31773D02*
X50984Y-31496D01*
X50984Y-31496D02*
X50984Y-29051D01*
X50984Y-29051D02*
X50948Y-29015D01*
X53661Y-34450D02*
X50984Y-31773D01*
X41377Y-37972D02*
X41377Y-38641D01*
X40885Y-39133D02*
X39153Y-39133D01*
X41377Y-38641D02*
X40885Y-39133D01*
X39153Y-39133D02*
X38983Y-38963D01*
X35807Y-39468D02*
X34507Y-39468D01*
X33888Y-40087D02*
X33554Y-40087D01*
X34507Y-39468D02*
X33888Y-40087D01*
X35807Y-39468D02*
X36311Y-38963D01*
X38983Y-38963D02*
X36311Y-38963D01*
X27177Y-42827D02*
X27377Y-42627D01*
X27377Y-40927D02*
X27377Y-42627D01*
X28217Y-40087D02*
X27377Y-40927D01*
X33554Y-40087D02*
X28217Y-40087D01*
X26810Y-42827D02*
X27177Y-42827D01*
X40393Y-38838D02*
X40019Y-38838D01*
X40669Y-38562D02*
X40393Y-38838D01*
X39763Y-38838D02*
X40019Y-38838D01*
X34960Y-39183D02*
X34439Y-39183D01*
X33875Y-39747D02*
X33541Y-39747D01*
X34439Y-39183D02*
X33875Y-39747D01*
X39763Y-38838D02*
X39488Y-38838D01*
X35658Y-39183D02*
X36128Y-38714D01*
X33541Y-39747D02*
X33420Y-39747D01*
X27850Y-39747D02*
X27577Y-39747D01*
X27277Y-39447D02*
X27277Y-36647D01*
X27577Y-39747D02*
X27277Y-39447D01*
X26629Y-29827D02*
X26338Y-30118D01*
X26810Y-29827D02*
X26629Y-29827D01*
X26338Y-35708D02*
X26338Y-30118D01*
X27277Y-36647D02*
X26338Y-35708D01*
X27850Y-39747D02*
X33420Y-39747D01*
X39363Y-38714D02*
X36128Y-38714D01*
X34960Y-39183D02*
X35658Y-39183D01*
X39488Y-38838D02*
X39363Y-38714D01*
X52687Y-30527D02*
X53086Y-30527D01*
X53086Y-30527D02*
X53287Y-30728D01*
X33628Y-37874D02*
X33628Y-38372D01*
X33628Y-38372D02*
X33641Y-38385D01*
X37086Y-39330D02*
X38700Y-40944D01*
X36476Y-39330D02*
X37086Y-39330D01*
X42460Y-40944D02*
X42559Y-41043D01*
X38700Y-40944D02*
X42460Y-40944D01*
X44507Y-41692D02*
X44507Y-41377D01*
X43978Y-40848D02*
X43602Y-40848D01*
X44507Y-41377D02*
X43978Y-40848D01*
X43602Y-40848D02*
X42753Y-40848D01*
X42753Y-40848D02*
X42559Y-41043D01*
X49173Y-32191D02*
X49474Y-32191D01*
X49474Y-32191D02*
X50448Y-33164D01*
X50448Y-33164D02*
X50575Y-33164D01*
X29723Y-30196D02*
X27441Y-30196D01*
X27441Y-30196D02*
X26810Y-30827D01*
X32481Y-30196D02*
X29723Y-30196D01*
X34094Y-29803D02*
X32874Y-29803D01*
X32874Y-29803D02*
X32481Y-30196D01*
X35433Y-29787D02*
X34110Y-29787D01*
X34110Y-29787D02*
X34094Y-29803D01*
X45983Y-29742D02*
X46299Y-30058D01*
X45627Y-29787D02*
X45672Y-29742D01*
X35433Y-29787D02*
X45627Y-29787D01*
X45983Y-29742D02*
X45672Y-29742D01*
X46299Y-31634D02*
X46856Y-32191D01*
X46856Y-32191D02*
X49173Y-32191D01*
X46299Y-30058D02*
X46299Y-31634D01*
X29723Y-30196D02*
X32481Y-30196D01*
X38917Y-37657D02*
X40059Y-37657D01*
X40059Y-37657D02*
X40216Y-37814D01*
X38917Y-37657D02*
X38917Y-36576D01*
X38917Y-36576D02*
X39351Y-36141D01*
X38917Y-37657D02*
X35885Y-37657D01*
X35885Y-37657D02*
X35807Y-37736D01*
X35236Y-38928D02*
X34342Y-38928D01*
X33998Y-39271D02*
X33664Y-39271D01*
X34342Y-38928D02*
X33998Y-39271D01*
X36259Y-37834D02*
X36181Y-37913D01*
X36259Y-37204D02*
X36259Y-37834D01*
X36181Y-37913D02*
X35807Y-37736D01*
X36279Y-36909D02*
X36259Y-36929D01*
X36259Y-36929D02*
X36259Y-37204D01*
X49517Y-30007D02*
X49460Y-30007D01*
X49862Y-31594D02*
X49997Y-31730D01*
X49330Y-31594D02*
X49862Y-31594D01*
X49015Y-31279D02*
X49330Y-31594D01*
X49015Y-30452D02*
X49015Y-31279D01*
X49460Y-30007D02*
X49015Y-30452D01*
X56988Y-32657D02*
X56988Y-32263D01*
X56988Y-32263D02*
X57716Y-31535D01*
X53129Y-32992D02*
X53129Y-33405D01*
X54271Y-31850D02*
X53129Y-32992D01*
X53129Y-33405D02*
X53129Y-33523D01*
X54251Y-34645D02*
X54251Y-35196D01*
X53129Y-33523D02*
X54251Y-34645D01*
X58937Y-34488D02*
X58937Y-34330D01*
X57440Y-35984D02*
X58937Y-34488D01*
X52598Y-34330D02*
X52598Y-34429D01*
X49997Y-31730D02*
X52598Y-34330D01*
X52874Y-35787D02*
X52874Y-34704D01*
X52874Y-34704D02*
X52598Y-34429D01*
X48818Y-28169D02*
X48208Y-28169D01*
X47362Y-27322D02*
X47362Y-26653D01*
X48208Y-28169D02*
X47362Y-27322D01*
X40728Y-36181D02*
X40728Y-36141D01*
X40767Y-36141D02*
X40728Y-36181D01*
X40826Y-36141D02*
X40767Y-36141D01*
X41122Y-35846D02*
X40826Y-36141D01*
X41417Y-36141D02*
X41397Y-36141D01*
X41427Y-36604D02*
X41505Y-36604D01*
X42508Y-37607D02*
X42508Y-39477D01*
X41505Y-36604D02*
X42508Y-37607D01*
X39921Y-38444D02*
X40216Y-38149D01*
X40216Y-38149D02*
X40216Y-37814D01*
X39901Y-38464D02*
X39625Y-38464D01*
X39921Y-38444D02*
X39901Y-38464D01*
X36830Y-33267D02*
X36830Y-33307D01*
X36496Y-32933D02*
X36830Y-33267D01*
X37657Y-31968D02*
X37244Y-31968D01*
X37244Y-31968D02*
X36830Y-32381D01*
X36830Y-32381D02*
X36830Y-33307D01*
X36830Y-33307D02*
X36117Y-34020D01*
X36723Y-35207D02*
X36117Y-34602D01*
X36117Y-34020D02*
X36117Y-34602D01*
X36992Y-35207D02*
X36723Y-35207D01*
X33188Y-31377D02*
X33740Y-31377D01*
X33740Y-31377D02*
X34586Y-30531D01*
X57716Y-31535D02*
X57755Y-31535D01*
X35236Y-38928D02*
X35480Y-38928D01*
X35480Y-38928D02*
X35944Y-38464D01*
X53129Y-33405D02*
X53129Y-33405D01*
X58937Y-32716D02*
X57755Y-31535D01*
X58937Y-34330D02*
X58937Y-32716D01*
X57755Y-29208D02*
X57948Y-29015D01*
X57755Y-31535D02*
X57755Y-29208D01*
X47362Y-26653D02*
X47362Y-25244D01*
X47362Y-25244D02*
X47196Y-25078D01*
X57948Y-29015D02*
X57948Y-28499D01*
X49921Y-28169D02*
X48818Y-28169D01*
X57948Y-28499D02*
X57618Y-28169D01*
X57618Y-28169D02*
X49921Y-28169D01*
X31811Y-39271D02*
X30807Y-39271D01*
X31811Y-39271D02*
X33543Y-39271D01*
X28937Y-37913D02*
X29448Y-37913D01*
X33664Y-39271D02*
X33543Y-39271D01*
X30807Y-39271D02*
X29448Y-37913D01*
X29723Y-31096D02*
X29723Y-31554D01*
X29723Y-31554D02*
X30177Y-32007D01*
X28031Y-30984D02*
X29611Y-30984D01*
X29611Y-30984D02*
X29723Y-31096D01*
X28031Y-30984D02*
X28031Y-31606D01*
X28031Y-31606D02*
X26810Y-32827D01*
X33188Y-31377D02*
X32152Y-31377D01*
X32152Y-31377D02*
X31797Y-31732D01*
X31653Y-33078D02*
X31975Y-33078D01*
X32013Y-35388D02*
X31220Y-35388D01*
X32204Y-35196D02*
X32013Y-35388D01*
X32204Y-33307D02*
X32204Y-35196D01*
X31975Y-33078D02*
X32204Y-33307D01*
X28897Y-35866D02*
X29960Y-35866D01*
X31220Y-35388D02*
X30438Y-35388D01*
X29960Y-35866D02*
X30438Y-35388D01*
X26810Y-32827D02*
X26810Y-33827D01*
X31797Y-31732D02*
X31213Y-32316D01*
X31653Y-33078D02*
X31621Y-33078D01*
X31213Y-32670D02*
X31213Y-32316D01*
X31621Y-33078D02*
X31213Y-32670D01*
X30177Y-32007D02*
X30905Y-32007D01*
X30905Y-32007D02*
X31213Y-32316D01*
X31213Y-32316D02*
X31213Y-32316D01*
X39724Y-34153D02*
X39471Y-34153D01*
X39471Y-34153D02*
X38417Y-35207D01*
X37215Y-35207D02*
X38417Y-35207D01*
X37215Y-35207D02*
X36992Y-35207D01*
X43090Y-31968D02*
X37657Y-31968D01*
X43937Y-33208D02*
X43464Y-32736D01*
X43937Y-33208D02*
X47263Y-33208D01*
X48016Y-33961D02*
X47263Y-33208D01*
X48937Y-33961D02*
X48016Y-33961D01*
X43464Y-32736D02*
X43464Y-32342D01*
X43464Y-32342D02*
X43090Y-31968D01*
X38417Y-35207D02*
X38691Y-35481D01*
X39351Y-36141D02*
X38691Y-35481D01*
X40728Y-36141D02*
X39351Y-36141D01*
X40433Y-34153D02*
X39724Y-34153D01*
X39212Y-38464D02*
X39625Y-38464D01*
X39212Y-38464D02*
X35944Y-38464D01*
X40216Y-37814D02*
X40905Y-37125D01*
X40905Y-37125D02*
X41427Y-36604D01*
X41427Y-36604D02*
X41889Y-36141D01*
X41889Y-36141D02*
X41397Y-36141D01*
X41397Y-36141D02*
X40728Y-36141D01*
X43681Y-36141D02*
X41889Y-36141D01*
X44724Y-37185D02*
X43681Y-36141D01*
X44724Y-37185D02*
X44724Y-37440D01*
X44724Y-37440D02*
X44724Y-38582D01*
X48937Y-33961D02*
X49483Y-33961D01*
X49483Y-33961D02*
X49586Y-33858D01*
X47834Y-41870D02*
X47834Y-42598D01*
X43958Y-39348D02*
X43602Y-39348D01*
X44724Y-38582D02*
X43958Y-39348D01*
X42508Y-39477D02*
X43473Y-39477D01*
X43473Y-39477D02*
X43602Y-39348D01*
X47362Y-25244D02*
X47196Y-25078D01*
X46456Y-43976D02*
X44940Y-43976D01*
X47834Y-42598D02*
X46456Y-43976D01*
X47196Y-25078D02*
X47196Y-25205D01*
X46174Y-26227D02*
X47196Y-25205D01*
X45810Y-26227D02*
X46174Y-26227D01*
X48956Y-35910D02*
X49424Y-35910D01*
X49424Y-35910D02*
X49586Y-35748D01*
X49586Y-35748D02*
X49586Y-33858D01*
X32598Y-34133D02*
X32598Y-35748D01*
X31929Y-37369D02*
X31799Y-37499D01*
X31929Y-36417D02*
X31929Y-37369D01*
X32598Y-35748D02*
X31929Y-36417D01*
X30641Y-37874D02*
X30787Y-37874D01*
X30787Y-37874D02*
X31162Y-37499D01*
X31162Y-37499D02*
X31799Y-37499D01*
X32598Y-34291D02*
X32598Y-34133D01*
X32598Y-34291D02*
X32598Y-33700D01*
X32598Y-33385D02*
X32598Y-33700D01*
X37283Y-30807D02*
X36240Y-30807D01*
X36240Y-30807D02*
X35157Y-31889D01*
X34803Y-33110D02*
X35157Y-32755D01*
X35157Y-32755D02*
X35157Y-31889D01*
X33346Y-33110D02*
X34803Y-33110D01*
X32874Y-33110D02*
X32598Y-33385D01*
X33346Y-33110D02*
X32874Y-33110D01*
X44744Y-30807D02*
X37283Y-30807D01*
X49232Y-32440D02*
X49822Y-33031D01*
X46673Y-32440D02*
X49232Y-32440D01*
X45972Y-31740D02*
X46673Y-32440D01*
X45677Y-31740D02*
X44744Y-30807D01*
X45677Y-31740D02*
X45972Y-31740D01*
X35905Y-36535D02*
X35570Y-36535D01*
X35570Y-36535D02*
X34665Y-37440D01*
X34665Y-37440D02*
X33307Y-37440D01*
X36220Y-36535D02*
X35905Y-36535D01*
X34665Y-37440D02*
X33307Y-37440D01*
X35570Y-36535D02*
X34665Y-37440D01*
X36653Y-36082D02*
X36653Y-35490D01*
X36653Y-35490D02*
X35826Y-34663D01*
X36653Y-36082D02*
X36653Y-36417D01*
X36653Y-36417D02*
X36535Y-36535D01*
X36535Y-36535D02*
X36220Y-36535D01*
X48661Y-32690D02*
X48149Y-32690D01*
X48661Y-32716D02*
X48661Y-32690D01*
X48687Y-32690D02*
X48661Y-32716D01*
X48950Y-32690D02*
X48687Y-32690D01*
X51456Y-35196D02*
X48950Y-32690D01*
X35826Y-34212D02*
X35826Y-34663D01*
X35826Y-34212D02*
X35826Y-33425D01*
X35826Y-33425D02*
X35472Y-33070D01*
X35472Y-31988D02*
X35472Y-33070D01*
X45623Y-32690D02*
X44448Y-31515D01*
X35944Y-31515D02*
X35472Y-31988D01*
X44448Y-31515D02*
X35944Y-31515D01*
X45807Y-32690D02*
X45623Y-32690D01*
X46062Y-32690D02*
X45807Y-32690D01*
X48149Y-32690D02*
X46062Y-32690D01*
X32996Y-38224D02*
X32670Y-38224D01*
X33307Y-37440D02*
X33110Y-37637D01*
X33110Y-37637D02*
X33110Y-38110D01*
X33110Y-38110D02*
X32996Y-38224D01*
X48937Y-33361D02*
X48259Y-33361D01*
X48259Y-33361D02*
X48248Y-33350D01*
X48956Y-35310D02*
X48286Y-35310D01*
X48286Y-35310D02*
X48248Y-35271D01*
X55948Y-29015D02*
X55948Y-28822D01*
X52687Y-29927D02*
X52687Y-29566D01*
X55948Y-28822D02*
X55544Y-28418D01*
X55544Y-28418D02*
X52722Y-28418D01*
X52722Y-28418D02*
X52480Y-28661D01*
X52480Y-28661D02*
X52480Y-29359D01*
X52480Y-29359D02*
X52687Y-29566D01*
G54D10*
G36*
X48166Y-41171D02*
X48158Y-41190D01*
X48158Y-41249D01*
X48158Y-41524D01*
X48158Y-41579D01*
X48158Y-41579D01*
X48158Y-44124D01*
X48158Y-44147D01*
X46053Y-44147D01*
X41723Y-44147D01*
X41723Y-44066D01*
X41723Y-44011D01*
X41723Y-44011D01*
X41723Y-41983D01*
X41745Y-42006D01*
X41864Y-42055D01*
X41993Y-42055D01*
X42112Y-42006D01*
X42159Y-41959D01*
X42224Y-41959D01*
X43587Y-41959D01*
X44130Y-42502D01*
X44204Y-42552D01*
X44291Y-42569D01*
X44889Y-42569D01*
X45288Y-42969D01*
X45288Y-42969D01*
X45362Y-43018D01*
X45449Y-43035D01*
X46053Y-43035D01*
X46184Y-43035D01*
X46271Y-43018D01*
X46345Y-42969D01*
X48142Y-41171D01*
X48166Y-41171D01*
X48166Y-41171D01*
G37*
G54D31*
X48166Y-41171D02*
X48158Y-41190D01*
X48158Y-41249D01*
X48158Y-41524D01*
X48158Y-41579D01*
X48158Y-41579D01*
X48158Y-44124D01*
X48158Y-44147D01*
X46053Y-44147D01*
X41723Y-44147D01*
X41723Y-44066D01*
X41723Y-44011D01*
X41723Y-44011D01*
X41723Y-41983D01*
X41745Y-42006D01*
X41864Y-42055D01*
X41993Y-42055D01*
X42112Y-42006D01*
X42159Y-41959D01*
X42224Y-41959D01*
X43587Y-41959D01*
X44130Y-42502D01*
X44204Y-42552D01*
X44291Y-42569D01*
X44889Y-42569D01*
X45288Y-42969D01*
X45288Y-42969D01*
X45362Y-43018D01*
X45449Y-43035D01*
X46053Y-43035D01*
X46184Y-43035D01*
X46271Y-43018D01*
X46345Y-42969D01*
X48142Y-41171D01*
X48166Y-41171D01*
G54D10*
G36*
X53303Y-36929D02*
X53233Y-36901D01*
X53105Y-36900D01*
X52986Y-36950D01*
X52938Y-36997D01*
X51909Y-36997D01*
X51751Y-36997D01*
X51043Y-36997D01*
X49330Y-36997D01*
X49330Y-35477D01*
X49330Y-35083D01*
X49307Y-35029D01*
X49265Y-34987D01*
X49211Y-34964D01*
X49152Y-34964D01*
X48702Y-34964D01*
X48666Y-34979D01*
X48533Y-34845D01*
X48348Y-34768D01*
X48148Y-34768D01*
X47963Y-34845D01*
X47822Y-34986D01*
X47745Y-35171D01*
X47745Y-35371D01*
X47821Y-35556D01*
X47962Y-35697D01*
X48147Y-35774D01*
X48347Y-35774D01*
X48532Y-35698D01*
X48622Y-35608D01*
X48647Y-35632D01*
X48702Y-35655D01*
X48761Y-35655D01*
X49211Y-35655D01*
X49265Y-35632D01*
X49307Y-35591D01*
X49330Y-35536D01*
X49330Y-35477D01*
X49330Y-36997D01*
X47869Y-36997D01*
X47584Y-36712D01*
X47584Y-34582D01*
X47584Y-34582D01*
X47567Y-34495D01*
X47518Y-34421D01*
X47518Y-34421D01*
X47218Y-34122D01*
X47252Y-34040D01*
X47252Y-33912D01*
X47203Y-33793D01*
X47112Y-33702D01*
X46993Y-33653D01*
X46865Y-33652D01*
X46746Y-33702D01*
X46692Y-33755D01*
X46659Y-33722D01*
X46540Y-33672D01*
X46412Y-33672D01*
X46293Y-33721D01*
X46250Y-33765D01*
X46207Y-33722D01*
X46088Y-33672D01*
X45959Y-33672D01*
X45840Y-33721D01*
X45793Y-33768D01*
X45419Y-33768D01*
X45372Y-33655D01*
X45281Y-33564D01*
X45163Y-33515D01*
X45034Y-33515D01*
X44915Y-33564D01*
X44824Y-33655D01*
X44775Y-33773D01*
X44774Y-33902D01*
X44824Y-34021D01*
X44871Y-34069D01*
X44871Y-34869D01*
X44661Y-34659D01*
X44661Y-32501D01*
X44592Y-32336D01*
X44466Y-32210D01*
X44302Y-32142D01*
X44123Y-32142D01*
X43958Y-32210D01*
X43832Y-32336D01*
X43764Y-32500D01*
X43764Y-32679D01*
X43832Y-32844D01*
X43958Y-32970D01*
X44123Y-33038D01*
X44301Y-33039D01*
X44466Y-32970D01*
X44592Y-32844D01*
X44660Y-32680D01*
X44661Y-32501D01*
X44661Y-34659D01*
X43283Y-33281D01*
X43283Y-32501D01*
X43215Y-32336D01*
X43088Y-32210D01*
X42924Y-32142D01*
X42745Y-32142D01*
X42580Y-32210D01*
X42454Y-32336D01*
X42386Y-32500D01*
X42386Y-32679D01*
X42454Y-32844D01*
X42580Y-32970D01*
X42745Y-33038D01*
X42923Y-33039D01*
X43088Y-32970D01*
X43214Y-32844D01*
X43282Y-32680D01*
X43283Y-32501D01*
X43283Y-33281D01*
X43141Y-33139D01*
X43067Y-33090D01*
X42980Y-33073D01*
X41905Y-33073D01*
X41905Y-32501D01*
X41837Y-32336D01*
X41711Y-32210D01*
X41546Y-32142D01*
X41367Y-32142D01*
X41203Y-32210D01*
X41076Y-32336D01*
X41008Y-32500D01*
X41008Y-32679D01*
X41076Y-32844D01*
X41202Y-32970D01*
X41367Y-33038D01*
X41545Y-33039D01*
X41710Y-32970D01*
X41836Y-32844D01*
X41905Y-32680D01*
X41905Y-32501D01*
X41905Y-33073D01*
X40527Y-33073D01*
X40527Y-32501D01*
X40459Y-32336D01*
X40333Y-32210D01*
X40168Y-32142D01*
X39989Y-32142D01*
X39825Y-32210D01*
X39698Y-32336D01*
X39630Y-32500D01*
X39630Y-32679D01*
X39698Y-32844D01*
X39824Y-32970D01*
X39989Y-33038D01*
X40167Y-33039D01*
X40332Y-32970D01*
X40458Y-32844D01*
X40527Y-32680D01*
X40527Y-32501D01*
X40527Y-33073D01*
X39504Y-33073D01*
X39138Y-32706D01*
X39149Y-32680D01*
X39149Y-32501D01*
X39081Y-32336D01*
X38955Y-32210D01*
X38790Y-32142D01*
X38611Y-32142D01*
X38447Y-32210D01*
X38320Y-32336D01*
X38252Y-32500D01*
X38252Y-32679D01*
X38320Y-32844D01*
X38446Y-32970D01*
X38611Y-33038D01*
X38789Y-33039D01*
X38817Y-33027D01*
X39112Y-33322D01*
X39088Y-33322D01*
X39001Y-33340D01*
X38927Y-33389D01*
X38196Y-34120D01*
X37771Y-34120D01*
X37771Y-32501D01*
X37703Y-32336D01*
X37577Y-32210D01*
X37412Y-32142D01*
X37234Y-32142D01*
X37069Y-32210D01*
X36942Y-32336D01*
X36874Y-32500D01*
X36874Y-32679D01*
X36942Y-32844D01*
X37068Y-32970D01*
X37233Y-33038D01*
X37411Y-33039D01*
X37576Y-32970D01*
X37702Y-32844D01*
X37771Y-32680D01*
X37771Y-32501D01*
X37771Y-34120D01*
X36728Y-34120D01*
X36681Y-34073D01*
X36562Y-34024D01*
X36433Y-34024D01*
X36314Y-34073D01*
X36223Y-34164D01*
X36174Y-34282D01*
X36174Y-34411D01*
X36223Y-34530D01*
X36314Y-34621D01*
X36433Y-34670D01*
X36561Y-34671D01*
X36680Y-34621D01*
X36728Y-34574D01*
X38290Y-34574D01*
X38377Y-34557D01*
X38450Y-34508D01*
X38678Y-34280D01*
X38702Y-34336D01*
X38792Y-34427D01*
X38911Y-34476D01*
X39040Y-34477D01*
X39159Y-34427D01*
X39250Y-34336D01*
X39291Y-34238D01*
X39503Y-34026D01*
X42680Y-34026D01*
X43466Y-34812D01*
X43248Y-34812D01*
X40393Y-34812D01*
X40306Y-34829D01*
X40233Y-34878D01*
X40061Y-35050D01*
X39995Y-35050D01*
X39876Y-35099D01*
X39785Y-35190D01*
X39735Y-35309D01*
X39735Y-35438D01*
X39784Y-35556D01*
X39875Y-35648D01*
X39994Y-35697D01*
X40123Y-35697D01*
X40242Y-35648D01*
X40333Y-35557D01*
X40382Y-35438D01*
X40382Y-35371D01*
X40487Y-35266D01*
X43248Y-35266D01*
X43567Y-35266D01*
X43835Y-35534D01*
X43835Y-35534D01*
X43835Y-35534D01*
X43934Y-35632D01*
X43934Y-35632D01*
X43934Y-35632D01*
X44851Y-36550D01*
X44851Y-37972D01*
X44869Y-38059D01*
X44918Y-38132D01*
X45292Y-38506D01*
X45292Y-38506D01*
X45341Y-38539D01*
X45365Y-38556D01*
X45365Y-38556D01*
X45452Y-38573D01*
X45452Y-38573D01*
X45466Y-38573D01*
X45452Y-38587D01*
X45387Y-38742D01*
X45387Y-38911D01*
X45451Y-39067D01*
X45535Y-39151D01*
X45535Y-39151D01*
X45511Y-39167D01*
X44591Y-40088D01*
X42834Y-40088D01*
X42747Y-40105D01*
X42674Y-40154D01*
X42360Y-40468D01*
X40236Y-40468D01*
X39803Y-40468D01*
X39632Y-40468D01*
X39332Y-40468D01*
X39085Y-40220D01*
X39085Y-40151D01*
X39132Y-40104D01*
X39181Y-39985D01*
X39181Y-39857D01*
X39132Y-39738D01*
X39041Y-39647D01*
X38922Y-39597D01*
X38794Y-39597D01*
X38675Y-39646D01*
X38584Y-39737D01*
X38534Y-39856D01*
X38534Y-39985D01*
X38583Y-40104D01*
X38631Y-40151D01*
X38631Y-40314D01*
X38648Y-40401D01*
X38697Y-40475D01*
X38940Y-40717D01*
X38794Y-40717D01*
X37267Y-39190D01*
X38889Y-39190D01*
X38993Y-39294D01*
X38993Y-39294D01*
X39022Y-39314D01*
X39066Y-39343D01*
X39153Y-39360D01*
X39153Y-39360D01*
X40885Y-39360D01*
X40972Y-39343D01*
X41046Y-39294D01*
X41538Y-38802D01*
X41538Y-38802D01*
X41571Y-38753D01*
X41587Y-38728D01*
X41587Y-38728D01*
X41604Y-38641D01*
X41604Y-38641D01*
X41604Y-38202D01*
X41651Y-38155D01*
X41701Y-38037D01*
X41701Y-37908D01*
X41652Y-37789D01*
X41561Y-37698D01*
X41442Y-37649D01*
X41313Y-37648D01*
X41194Y-37698D01*
X41103Y-37788D01*
X41054Y-37907D01*
X41054Y-38036D01*
X41103Y-38155D01*
X41151Y-38202D01*
X41151Y-38547D01*
X40791Y-38906D01*
X40646Y-38906D01*
X40666Y-38886D01*
X40733Y-38886D01*
X40852Y-38837D01*
X40943Y-38746D01*
X40992Y-38627D01*
X40992Y-38498D01*
X40943Y-38380D01*
X40852Y-38288D01*
X40733Y-38239D01*
X40605Y-38239D01*
X40486Y-38288D01*
X40395Y-38379D01*
X40345Y-38498D01*
X40345Y-38565D01*
X40299Y-38611D01*
X40019Y-38611D01*
X39763Y-38611D01*
X39582Y-38611D01*
X39524Y-38553D01*
X39450Y-38504D01*
X39363Y-38487D01*
X36128Y-38487D01*
X36041Y-38504D01*
X35967Y-38553D01*
X35564Y-38956D01*
X34960Y-38956D01*
X34439Y-38956D01*
X34352Y-38974D01*
X34328Y-38990D01*
X34279Y-39023D01*
X33781Y-39520D01*
X33541Y-39520D01*
X33420Y-39520D01*
X32530Y-39520D01*
X29306Y-39520D01*
X29306Y-36572D01*
X29238Y-36407D01*
X29112Y-36281D01*
X28947Y-36213D01*
X28769Y-36212D01*
X28604Y-36281D01*
X28478Y-36407D01*
X28409Y-36571D01*
X28409Y-36750D01*
X28477Y-36915D01*
X28603Y-37041D01*
X28768Y-37109D01*
X28947Y-37109D01*
X29111Y-37041D01*
X29238Y-36915D01*
X29306Y-36751D01*
X29306Y-36572D01*
X29306Y-39520D01*
X27850Y-39520D01*
X27671Y-39520D01*
X27504Y-39353D01*
X27504Y-38423D01*
X27514Y-38432D01*
X27568Y-38455D01*
X27627Y-38455D01*
X27942Y-38455D01*
X27997Y-38432D01*
X28039Y-38391D01*
X28061Y-38336D01*
X28061Y-38277D01*
X28061Y-37490D01*
X28039Y-37435D01*
X27997Y-37393D01*
X27982Y-37387D01*
X27982Y-36773D01*
X27982Y-36773D01*
X27965Y-36686D01*
X27936Y-36642D01*
X27916Y-36612D01*
X27916Y-36612D01*
X27037Y-35734D01*
X27037Y-35191D01*
X27050Y-35186D01*
X27169Y-35067D01*
X27234Y-34912D01*
X27234Y-34743D01*
X27169Y-34588D01*
X27140Y-34558D01*
X28046Y-33652D01*
X29911Y-33652D01*
X29965Y-33629D01*
X29983Y-33611D01*
X30120Y-33748D01*
X30194Y-33797D01*
X30281Y-33815D01*
X30402Y-33815D01*
X30402Y-33932D01*
X30425Y-33987D01*
X30466Y-34028D01*
X30521Y-34051D01*
X30580Y-34051D01*
X31919Y-34051D01*
X31973Y-34029D01*
X32015Y-33987D01*
X32038Y-33932D01*
X32038Y-33873D01*
X32038Y-33243D01*
X32015Y-33189D01*
X31973Y-33147D01*
X31919Y-33124D01*
X31860Y-33124D01*
X30521Y-33124D01*
X30467Y-33147D01*
X30425Y-33189D01*
X30402Y-33243D01*
X30402Y-33302D01*
X30402Y-33361D01*
X30375Y-33361D01*
X30030Y-33016D01*
X30030Y-32687D01*
X30007Y-32632D01*
X29966Y-32590D01*
X29911Y-32568D01*
X29852Y-32568D01*
X29228Y-32568D01*
X29391Y-32404D01*
X29498Y-32147D01*
X29498Y-31869D01*
X29392Y-31612D01*
X29196Y-31415D01*
X28938Y-31308D01*
X28660Y-31308D01*
X28403Y-31414D01*
X28206Y-31611D01*
X28099Y-31868D01*
X28099Y-32146D01*
X28205Y-32403D01*
X28369Y-32568D01*
X27883Y-32568D01*
X27829Y-32590D01*
X27787Y-32632D01*
X27764Y-32686D01*
X27764Y-32745D01*
X27764Y-33292D01*
X26871Y-34185D01*
X26874Y-32251D01*
X26894Y-32251D01*
X27050Y-32186D01*
X27169Y-32067D01*
X27234Y-31912D01*
X27234Y-31743D01*
X27169Y-31588D01*
X27050Y-31468D01*
X26895Y-31404D01*
X26875Y-31404D01*
X26875Y-31251D01*
X26894Y-31251D01*
X27050Y-31186D01*
X27169Y-31067D01*
X27234Y-30912D01*
X27234Y-30743D01*
X27228Y-30730D01*
X27535Y-30423D01*
X29096Y-30423D01*
X29096Y-30426D01*
X29118Y-30480D01*
X29160Y-30522D01*
X29215Y-30545D01*
X29274Y-30545D01*
X30231Y-30545D01*
X30286Y-30522D01*
X30328Y-30481D01*
X30350Y-30426D01*
X30350Y-30423D01*
X31853Y-30423D01*
X31853Y-30946D01*
X31876Y-31000D01*
X31918Y-31042D01*
X31972Y-31065D01*
X32031Y-31065D01*
X32989Y-31065D01*
X33043Y-31042D01*
X33085Y-31001D01*
X33108Y-30946D01*
X33108Y-30887D01*
X33108Y-30030D01*
X33355Y-30030D01*
X33378Y-30083D01*
X33419Y-30125D01*
X33474Y-30148D01*
X33533Y-30148D01*
X34714Y-30148D01*
X34769Y-30125D01*
X34810Y-30084D01*
X34833Y-30029D01*
X34833Y-30014D01*
X35391Y-30014D01*
X35374Y-30017D01*
X35300Y-30067D01*
X34741Y-30626D01*
X34691Y-30700D01*
X34674Y-30787D01*
X34674Y-32149D01*
X34656Y-32142D01*
X34478Y-32142D01*
X34313Y-32210D01*
X34186Y-32336D01*
X34118Y-32500D01*
X34118Y-32679D01*
X34186Y-32844D01*
X34225Y-32883D01*
X33530Y-32883D01*
X33568Y-32844D01*
X33637Y-32680D01*
X33637Y-32501D01*
X33569Y-32336D01*
X33443Y-32210D01*
X33278Y-32142D01*
X33100Y-32142D01*
X32935Y-32210D01*
X32809Y-32336D01*
X32740Y-32500D01*
X32740Y-32679D01*
X32808Y-32844D01*
X32851Y-32887D01*
X32787Y-32900D01*
X32713Y-32949D01*
X32437Y-33225D01*
X32388Y-33298D01*
X32371Y-33385D01*
X32371Y-33700D01*
X32371Y-33903D01*
X32324Y-33950D01*
X32275Y-34069D01*
X32274Y-34197D01*
X32324Y-34316D01*
X32371Y-34364D01*
X32371Y-35654D01*
X32259Y-35766D01*
X32259Y-32501D01*
X32191Y-32336D01*
X32065Y-32210D01*
X31900Y-32142D01*
X31722Y-32142D01*
X31557Y-32210D01*
X31431Y-32336D01*
X31362Y-32500D01*
X31362Y-32679D01*
X31430Y-32844D01*
X31556Y-32970D01*
X31721Y-33038D01*
X31899Y-33039D01*
X32064Y-32970D01*
X32190Y-32844D01*
X32259Y-32680D01*
X32259Y-32501D01*
X32259Y-35766D01*
X31768Y-36256D01*
X31719Y-36330D01*
X31702Y-36417D01*
X31702Y-37212D01*
X31668Y-37212D01*
X31668Y-36572D01*
X31600Y-36407D01*
X31474Y-36281D01*
X31310Y-36213D01*
X31131Y-36212D01*
X30966Y-36281D01*
X30840Y-36407D01*
X30772Y-36571D01*
X30771Y-36750D01*
X30840Y-36915D01*
X30966Y-37041D01*
X31130Y-37109D01*
X31309Y-37109D01*
X31474Y-37041D01*
X31600Y-36915D01*
X31668Y-36751D01*
X31668Y-36572D01*
X31668Y-37212D01*
X31494Y-37212D01*
X31439Y-37235D01*
X31402Y-37272D01*
X31162Y-37272D01*
X31075Y-37289D01*
X31001Y-37338D01*
X30752Y-37587D01*
X30487Y-37587D01*
X30487Y-36572D01*
X30419Y-36407D01*
X30293Y-36281D01*
X30128Y-36213D01*
X29950Y-36212D01*
X29785Y-36281D01*
X29659Y-36407D01*
X29591Y-36571D01*
X29590Y-36750D01*
X29658Y-36915D01*
X29785Y-37041D01*
X29949Y-37109D01*
X30128Y-37109D01*
X30293Y-37041D01*
X30419Y-36915D01*
X30487Y-36751D01*
X30487Y-36572D01*
X30487Y-37587D01*
X30336Y-37587D01*
X30282Y-37610D01*
X30240Y-37651D01*
X30217Y-37706D01*
X30217Y-37765D01*
X30217Y-38041D01*
X30240Y-38095D01*
X30281Y-38137D01*
X30336Y-38160D01*
X30395Y-38160D01*
X30946Y-38160D01*
X31001Y-38137D01*
X31043Y-38096D01*
X31065Y-38041D01*
X31065Y-37982D01*
X31065Y-37916D01*
X31256Y-37725D01*
X31402Y-37725D01*
X31439Y-37762D01*
X31493Y-37785D01*
X31552Y-37785D01*
X32104Y-37785D01*
X32158Y-37762D01*
X32200Y-37721D01*
X32214Y-37687D01*
X32263Y-37687D01*
X32263Y-37733D01*
X32286Y-37787D01*
X32327Y-37829D01*
X32382Y-37852D01*
X32441Y-37852D01*
X32530Y-37852D01*
X32883Y-37852D01*
X32883Y-37895D01*
X32530Y-37895D01*
X32382Y-37895D01*
X32328Y-37918D01*
X32286Y-37959D01*
X32263Y-38014D01*
X32263Y-38073D01*
X32263Y-38433D01*
X32286Y-38487D01*
X32327Y-38529D01*
X32382Y-38552D01*
X32441Y-38552D01*
X32530Y-38552D01*
X32959Y-38552D01*
X33013Y-38529D01*
X33055Y-38488D01*
X33077Y-38434D01*
X33083Y-38433D01*
X33156Y-38384D01*
X33270Y-38270D01*
X33270Y-38270D01*
X33319Y-38197D01*
X33320Y-38194D01*
X33339Y-38202D01*
X33367Y-38202D01*
X33318Y-38321D01*
X33318Y-38449D01*
X33367Y-38568D01*
X33458Y-38659D01*
X33484Y-38670D01*
X33011Y-38670D01*
X32530Y-38670D01*
X32042Y-38670D01*
X32026Y-38654D01*
X32026Y-38535D01*
X32104Y-38535D01*
X32158Y-38512D01*
X32200Y-38471D01*
X32223Y-38416D01*
X32223Y-38357D01*
X32223Y-38081D01*
X32200Y-38027D01*
X32159Y-37985D01*
X32104Y-37962D01*
X32045Y-37962D01*
X31494Y-37962D01*
X31439Y-37985D01*
X31397Y-38026D01*
X31375Y-38081D01*
X31375Y-38140D01*
X31375Y-38416D01*
X31397Y-38470D01*
X31439Y-38512D01*
X31493Y-38535D01*
X31552Y-38535D01*
X31572Y-38535D01*
X31572Y-38748D01*
X31589Y-38834D01*
X31638Y-38908D01*
X31788Y-39058D01*
X31861Y-39107D01*
X31948Y-39124D01*
X32530Y-39124D01*
X33011Y-39124D01*
X33956Y-39124D01*
X34043Y-39107D01*
X34117Y-39058D01*
X34747Y-38428D01*
X34747Y-38428D01*
X34796Y-38354D01*
X34813Y-38267D01*
X34813Y-38267D01*
X34813Y-37987D01*
X35468Y-37333D01*
X35596Y-37333D01*
X35643Y-37380D01*
X35762Y-37429D01*
X35890Y-37429D01*
X36009Y-37380D01*
X36100Y-37289D01*
X36150Y-37170D01*
X36150Y-37042D01*
X36101Y-36923D01*
X36010Y-36832D01*
X35891Y-36782D01*
X35762Y-36782D01*
X35643Y-36831D01*
X35596Y-36879D01*
X35547Y-36879D01*
X35664Y-36762D01*
X36220Y-36762D01*
X36535Y-36762D01*
X36622Y-36745D01*
X36695Y-36695D01*
X36814Y-36577D01*
X36863Y-36504D01*
X36880Y-36417D01*
X36880Y-36082D01*
X36880Y-35490D01*
X36863Y-35403D01*
X36814Y-35330D01*
X36814Y-35330D01*
X36053Y-34569D01*
X36053Y-34212D01*
X36053Y-33425D01*
X36036Y-33338D01*
X35987Y-33264D01*
X35699Y-32976D01*
X35699Y-32974D01*
X35855Y-33038D01*
X36033Y-33039D01*
X36198Y-32970D01*
X36324Y-32844D01*
X36393Y-32680D01*
X36393Y-32501D01*
X36325Y-32336D01*
X36199Y-32210D01*
X36034Y-32142D01*
X35856Y-32142D01*
X35699Y-32206D01*
X35699Y-32082D01*
X36038Y-31742D01*
X44354Y-31742D01*
X45463Y-32850D01*
X45463Y-32850D01*
X45512Y-32883D01*
X45536Y-32900D01*
X45536Y-32900D01*
X45623Y-32917D01*
X45623Y-32917D01*
X45807Y-32917D01*
X46062Y-32917D01*
X47979Y-32917D01*
X47963Y-32923D01*
X47822Y-33065D01*
X47745Y-33249D01*
X47745Y-33449D01*
X47821Y-33634D01*
X47962Y-33776D01*
X48147Y-33853D01*
X48347Y-33853D01*
X48532Y-33776D01*
X48626Y-33682D01*
X48627Y-33684D01*
X48682Y-33706D01*
X48741Y-33706D01*
X49191Y-33706D01*
X49245Y-33684D01*
X49287Y-33642D01*
X49310Y-33587D01*
X49310Y-33528D01*
X49310Y-33371D01*
X51133Y-35194D01*
X51133Y-35260D01*
X51182Y-35379D01*
X51273Y-35470D01*
X51392Y-35520D01*
X51520Y-35520D01*
X51639Y-35471D01*
X51730Y-35380D01*
X51780Y-35261D01*
X51780Y-35132D01*
X51731Y-35013D01*
X51640Y-34922D01*
X51521Y-34873D01*
X51454Y-34873D01*
X49921Y-33340D01*
X50005Y-33305D01*
X50096Y-33214D01*
X50120Y-33157D01*
X50287Y-33325D01*
X50287Y-33325D01*
X50292Y-33328D01*
X50292Y-33328D01*
X50300Y-33347D01*
X50391Y-33438D01*
X50510Y-33488D01*
X50639Y-33488D01*
X50758Y-33439D01*
X50849Y-33348D01*
X50898Y-33229D01*
X50898Y-33100D01*
X50849Y-32981D01*
X50758Y-32890D01*
X50639Y-32841D01*
X50511Y-32841D01*
X50464Y-32860D01*
X50067Y-32463D01*
X50123Y-32439D01*
X50214Y-32348D01*
X50264Y-32229D01*
X50264Y-32101D01*
X50215Y-31982D01*
X50124Y-31891D01*
X50005Y-31841D01*
X49966Y-31841D01*
X49966Y-30918D01*
X49898Y-30753D01*
X49772Y-30627D01*
X49607Y-30559D01*
X49428Y-30559D01*
X49264Y-30627D01*
X49137Y-30753D01*
X49069Y-30917D01*
X49069Y-31096D01*
X49137Y-31261D01*
X49263Y-31387D01*
X49428Y-31455D01*
X49606Y-31456D01*
X49771Y-31387D01*
X49897Y-31261D01*
X49966Y-31097D01*
X49966Y-30918D01*
X49966Y-31841D01*
X49953Y-31841D01*
X49904Y-31788D01*
X49900Y-31785D01*
X49897Y-31781D01*
X49865Y-31759D01*
X49833Y-31736D01*
X49828Y-31735D01*
X49824Y-31732D01*
X49785Y-31724D01*
X49747Y-31715D01*
X49742Y-31715D01*
X49737Y-31714D01*
X48966Y-31714D01*
X48966Y-30918D01*
X48966Y-29918D01*
X48898Y-29753D01*
X48772Y-29627D01*
X48607Y-29559D01*
X48428Y-29559D01*
X48264Y-29627D01*
X48137Y-29753D01*
X48069Y-29917D01*
X48069Y-30096D01*
X48137Y-30261D01*
X48263Y-30387D01*
X48428Y-30455D01*
X48606Y-30456D01*
X48771Y-30387D01*
X48897Y-30261D01*
X48966Y-30097D01*
X48966Y-29918D01*
X48966Y-30918D01*
X48898Y-30753D01*
X48772Y-30627D01*
X48607Y-30559D01*
X48428Y-30559D01*
X48264Y-30627D01*
X48137Y-30753D01*
X48069Y-30917D01*
X48069Y-31096D01*
X48137Y-31261D01*
X48263Y-31387D01*
X48428Y-31455D01*
X48606Y-31456D01*
X48771Y-31387D01*
X48897Y-31261D01*
X48966Y-31097D01*
X48966Y-30918D01*
X48966Y-31714D01*
X47966Y-31714D01*
X47966Y-30918D01*
X47966Y-29918D01*
X47898Y-29753D01*
X47772Y-29627D01*
X47607Y-29559D01*
X47428Y-29559D01*
X47264Y-29627D01*
X47137Y-29753D01*
X47069Y-29917D01*
X47069Y-30096D01*
X47137Y-30261D01*
X47263Y-30387D01*
X47428Y-30455D01*
X47606Y-30456D01*
X47771Y-30387D01*
X47897Y-30261D01*
X47966Y-30097D01*
X47966Y-29918D01*
X47966Y-30918D01*
X47898Y-30753D01*
X47772Y-30627D01*
X47607Y-30559D01*
X47428Y-30559D01*
X47264Y-30627D01*
X47137Y-30753D01*
X47069Y-30917D01*
X47069Y-31096D01*
X47137Y-31261D01*
X47263Y-31387D01*
X47428Y-31455D01*
X47606Y-31456D01*
X47771Y-31387D01*
X47897Y-31261D01*
X47966Y-31097D01*
X47966Y-30918D01*
X47966Y-31714D01*
X47082Y-31714D01*
X46801Y-31434D01*
X46801Y-29960D01*
X46784Y-29873D01*
X46735Y-29800D01*
X46735Y-29800D01*
X46234Y-29299D01*
X46234Y-29143D01*
X46178Y-29009D01*
X46566Y-29397D01*
X46640Y-29446D01*
X46727Y-29464D01*
X49361Y-29464D01*
X50127Y-30230D01*
X50127Y-31364D01*
X50080Y-31411D01*
X50030Y-31529D01*
X50030Y-31658D01*
X50079Y-31777D01*
X50170Y-31868D01*
X50289Y-31917D01*
X50418Y-31917D01*
X50489Y-31888D01*
X50499Y-31937D01*
X50548Y-32010D01*
X53185Y-34648D01*
X53185Y-34648D01*
X53185Y-34648D01*
X53303Y-34765D01*
X53303Y-36328D01*
X53254Y-36210D01*
X53128Y-36084D01*
X52963Y-36016D01*
X52785Y-36016D01*
X52620Y-36084D01*
X52494Y-36210D01*
X52425Y-36374D01*
X52425Y-36553D01*
X52493Y-36718D01*
X52619Y-36844D01*
X52784Y-36912D01*
X52962Y-36913D01*
X53127Y-36844D01*
X53253Y-36718D01*
X53303Y-36600D01*
X53303Y-36929D01*
X53303Y-36929D01*
G37*
G54D31*
X53303Y-36929D02*
X53233Y-36901D01*
X53105Y-36900D01*
X52986Y-36950D01*
X52938Y-36997D01*
X51909Y-36997D01*
X51751Y-36997D01*
X51043Y-36997D01*
X49330Y-36997D01*
X49330Y-35477D01*
X49330Y-35083D01*
X49307Y-35029D01*
X49265Y-34987D01*
X49211Y-34964D01*
X49152Y-34964D01*
X48702Y-34964D01*
X48666Y-34979D01*
X48533Y-34845D01*
X48348Y-34768D01*
X48148Y-34768D01*
X47963Y-34845D01*
X47822Y-34986D01*
X47745Y-35171D01*
X47745Y-35371D01*
X47821Y-35556D01*
X47962Y-35697D01*
X48147Y-35774D01*
X48347Y-35774D01*
X48532Y-35698D01*
X48622Y-35608D01*
X48647Y-35632D01*
X48702Y-35655D01*
X48761Y-35655D01*
X49211Y-35655D01*
X49265Y-35632D01*
X49307Y-35591D01*
X49330Y-35536D01*
X49330Y-35477D01*
X49330Y-36997D01*
X47869Y-36997D01*
X47584Y-36712D01*
X47584Y-34582D01*
X47584Y-34582D01*
X47567Y-34495D01*
X47518Y-34421D01*
X47518Y-34421D01*
X47218Y-34122D01*
X47252Y-34040D01*
X47252Y-33912D01*
X47203Y-33793D01*
X47112Y-33702D01*
X46993Y-33653D01*
X46865Y-33652D01*
X46746Y-33702D01*
X46692Y-33755D01*
X46659Y-33722D01*
X46540Y-33672D01*
X46412Y-33672D01*
X46293Y-33721D01*
X46250Y-33765D01*
X46207Y-33722D01*
X46088Y-33672D01*
X45959Y-33672D01*
X45840Y-33721D01*
X45793Y-33768D01*
X45419Y-33768D01*
X45372Y-33655D01*
X45281Y-33564D01*
X45163Y-33515D01*
X45034Y-33515D01*
X44915Y-33564D01*
X44824Y-33655D01*
X44775Y-33773D01*
X44774Y-33902D01*
X44824Y-34021D01*
X44871Y-34069D01*
X44871Y-34869D01*
X44661Y-34659D01*
X44661Y-32501D01*
X44592Y-32336D01*
X44466Y-32210D01*
X44302Y-32142D01*
X44123Y-32142D01*
X43958Y-32210D01*
X43832Y-32336D01*
X43764Y-32500D01*
X43764Y-32679D01*
X43832Y-32844D01*
X43958Y-32970D01*
X44123Y-33038D01*
X44301Y-33039D01*
X44466Y-32970D01*
X44592Y-32844D01*
X44660Y-32680D01*
X44661Y-32501D01*
X44661Y-34659D01*
X43283Y-33281D01*
X43283Y-32501D01*
X43215Y-32336D01*
X43088Y-32210D01*
X42924Y-32142D01*
X42745Y-32142D01*
X42580Y-32210D01*
X42454Y-32336D01*
X42386Y-32500D01*
X42386Y-32679D01*
X42454Y-32844D01*
X42580Y-32970D01*
X42745Y-33038D01*
X42923Y-33039D01*
X43088Y-32970D01*
X43214Y-32844D01*
X43282Y-32680D01*
X43283Y-32501D01*
X43283Y-33281D01*
X43141Y-33139D01*
X43067Y-33090D01*
X42980Y-33073D01*
X41905Y-33073D01*
X41905Y-32501D01*
X41837Y-32336D01*
X41711Y-32210D01*
X41546Y-32142D01*
X41367Y-32142D01*
X41203Y-32210D01*
X41076Y-32336D01*
X41008Y-32500D01*
X41008Y-32679D01*
X41076Y-32844D01*
X41202Y-32970D01*
X41367Y-33038D01*
X41545Y-33039D01*
X41710Y-32970D01*
X41836Y-32844D01*
X41905Y-32680D01*
X41905Y-32501D01*
X41905Y-33073D01*
X40527Y-33073D01*
X40527Y-32501D01*
X40459Y-32336D01*
X40333Y-32210D01*
X40168Y-32142D01*
X39989Y-32142D01*
X39825Y-32210D01*
X39698Y-32336D01*
X39630Y-32500D01*
X39630Y-32679D01*
X39698Y-32844D01*
X39824Y-32970D01*
X39989Y-33038D01*
X40167Y-33039D01*
X40332Y-32970D01*
X40458Y-32844D01*
X40527Y-32680D01*
X40527Y-32501D01*
X40527Y-33073D01*
X39504Y-33073D01*
X39138Y-32706D01*
X39149Y-32680D01*
X39149Y-32501D01*
X39081Y-32336D01*
X38955Y-32210D01*
X38790Y-32142D01*
X38611Y-32142D01*
X38447Y-32210D01*
X38320Y-32336D01*
X38252Y-32500D01*
X38252Y-32679D01*
X38320Y-32844D01*
X38446Y-32970D01*
X38611Y-33038D01*
X38789Y-33039D01*
X38817Y-33027D01*
X39112Y-33322D01*
X39088Y-33322D01*
X39001Y-33340D01*
X38927Y-33389D01*
X38196Y-34120D01*
X37771Y-34120D01*
X37771Y-32501D01*
X37703Y-32336D01*
X37577Y-32210D01*
X37412Y-32142D01*
X37234Y-32142D01*
X37069Y-32210D01*
X36942Y-32336D01*
X36874Y-32500D01*
X36874Y-32679D01*
X36942Y-32844D01*
X37068Y-32970D01*
X37233Y-33038D01*
X37411Y-33039D01*
X37576Y-32970D01*
X37702Y-32844D01*
X37771Y-32680D01*
X37771Y-32501D01*
X37771Y-34120D01*
X36728Y-34120D01*
X36681Y-34073D01*
X36562Y-34024D01*
X36433Y-34024D01*
X36314Y-34073D01*
X36223Y-34164D01*
X36174Y-34282D01*
X36174Y-34411D01*
X36223Y-34530D01*
X36314Y-34621D01*
X36433Y-34670D01*
X36561Y-34671D01*
X36680Y-34621D01*
X36728Y-34574D01*
X38290Y-34574D01*
X38377Y-34557D01*
X38450Y-34508D01*
X38678Y-34280D01*
X38702Y-34336D01*
X38792Y-34427D01*
X38911Y-34476D01*
X39040Y-34477D01*
X39159Y-34427D01*
X39250Y-34336D01*
X39291Y-34238D01*
X39503Y-34026D01*
X42680Y-34026D01*
X43466Y-34812D01*
X43248Y-34812D01*
X40393Y-34812D01*
X40306Y-34829D01*
X40233Y-34878D01*
X40061Y-35050D01*
X39995Y-35050D01*
X39876Y-35099D01*
X39785Y-35190D01*
X39735Y-35309D01*
X39735Y-35438D01*
X39784Y-35556D01*
X39875Y-35648D01*
X39994Y-35697D01*
X40123Y-35697D01*
X40242Y-35648D01*
X40333Y-35557D01*
X40382Y-35438D01*
X40382Y-35371D01*
X40487Y-35266D01*
X43248Y-35266D01*
X43567Y-35266D01*
X43835Y-35534D01*
X43835Y-35534D01*
X43835Y-35534D01*
X43934Y-35632D01*
X43934Y-35632D01*
X43934Y-35632D01*
X44851Y-36550D01*
X44851Y-37972D01*
X44869Y-38059D01*
X44918Y-38132D01*
X45292Y-38506D01*
X45292Y-38506D01*
X45341Y-38539D01*
X45365Y-38556D01*
X45365Y-38556D01*
X45452Y-38573D01*
X45452Y-38573D01*
X45466Y-38573D01*
X45452Y-38587D01*
X45387Y-38742D01*
X45387Y-38911D01*
X45451Y-39067D01*
X45535Y-39151D01*
X45535Y-39151D01*
X45511Y-39167D01*
X44591Y-40088D01*
X42834Y-40088D01*
X42747Y-40105D01*
X42674Y-40154D01*
X42360Y-40468D01*
X40236Y-40468D01*
X39803Y-40468D01*
X39632Y-40468D01*
X39332Y-40468D01*
X39085Y-40220D01*
X39085Y-40151D01*
X39132Y-40104D01*
X39181Y-39985D01*
X39181Y-39857D01*
X39132Y-39738D01*
X39041Y-39647D01*
X38922Y-39597D01*
X38794Y-39597D01*
X38675Y-39646D01*
X38584Y-39737D01*
X38534Y-39856D01*
X38534Y-39985D01*
X38583Y-40104D01*
X38631Y-40151D01*
X38631Y-40314D01*
X38648Y-40401D01*
X38697Y-40475D01*
X38940Y-40717D01*
X38794Y-40717D01*
X37267Y-39190D01*
X38889Y-39190D01*
X38993Y-39294D01*
X38993Y-39294D01*
X39022Y-39314D01*
X39066Y-39343D01*
X39153Y-39360D01*
X39153Y-39360D01*
X40885Y-39360D01*
X40972Y-39343D01*
X41046Y-39294D01*
X41538Y-38802D01*
X41538Y-38802D01*
X41571Y-38753D01*
X41587Y-38728D01*
X41587Y-38728D01*
X41604Y-38641D01*
X41604Y-38641D01*
X41604Y-38202D01*
X41651Y-38155D01*
X41701Y-38037D01*
X41701Y-37908D01*
X41652Y-37789D01*
X41561Y-37698D01*
X41442Y-37649D01*
X41313Y-37648D01*
X41194Y-37698D01*
X41103Y-37788D01*
X41054Y-37907D01*
X41054Y-38036D01*
X41103Y-38155D01*
X41151Y-38202D01*
X41151Y-38547D01*
X40791Y-38906D01*
X40646Y-38906D01*
X40666Y-38886D01*
X40733Y-38886D01*
X40852Y-38837D01*
X40943Y-38746D01*
X40992Y-38627D01*
X40992Y-38498D01*
X40943Y-38380D01*
X40852Y-38288D01*
X40733Y-38239D01*
X40605Y-38239D01*
X40486Y-38288D01*
X40395Y-38379D01*
X40345Y-38498D01*
X40345Y-38565D01*
X40299Y-38611D01*
X40019Y-38611D01*
X39763Y-38611D01*
X39582Y-38611D01*
X39524Y-38553D01*
X39450Y-38504D01*
X39363Y-38487D01*
X36128Y-38487D01*
X36041Y-38504D01*
X35967Y-38553D01*
X35564Y-38956D01*
X34960Y-38956D01*
X34439Y-38956D01*
X34352Y-38974D01*
X34328Y-38990D01*
X34279Y-39023D01*
X33781Y-39520D01*
X33541Y-39520D01*
X33420Y-39520D01*
X32530Y-39520D01*
X29306Y-39520D01*
X29306Y-36572D01*
X29238Y-36407D01*
X29112Y-36281D01*
X28947Y-36213D01*
X28769Y-36212D01*
X28604Y-36281D01*
X28478Y-36407D01*
X28409Y-36571D01*
X28409Y-36750D01*
X28477Y-36915D01*
X28603Y-37041D01*
X28768Y-37109D01*
X28947Y-37109D01*
X29111Y-37041D01*
X29238Y-36915D01*
X29306Y-36751D01*
X29306Y-36572D01*
X29306Y-39520D01*
X27850Y-39520D01*
X27671Y-39520D01*
X27504Y-39353D01*
X27504Y-38423D01*
X27514Y-38432D01*
X27568Y-38455D01*
X27627Y-38455D01*
X27942Y-38455D01*
X27997Y-38432D01*
X28039Y-38391D01*
X28061Y-38336D01*
X28061Y-38277D01*
X28061Y-37490D01*
X28039Y-37435D01*
X27997Y-37393D01*
X27982Y-37387D01*
X27982Y-36773D01*
X27982Y-36773D01*
X27965Y-36686D01*
X27936Y-36642D01*
X27916Y-36612D01*
X27916Y-36612D01*
X27037Y-35734D01*
X27037Y-35191D01*
X27050Y-35186D01*
X27169Y-35067D01*
X27234Y-34912D01*
X27234Y-34743D01*
X27169Y-34588D01*
X27140Y-34558D01*
X28046Y-33652D01*
X29911Y-33652D01*
X29965Y-33629D01*
X29983Y-33611D01*
X30120Y-33748D01*
X30194Y-33797D01*
X30281Y-33815D01*
X30402Y-33815D01*
X30402Y-33932D01*
X30425Y-33987D01*
X30466Y-34028D01*
X30521Y-34051D01*
X30580Y-34051D01*
X31919Y-34051D01*
X31973Y-34029D01*
X32015Y-33987D01*
X32038Y-33932D01*
X32038Y-33873D01*
X32038Y-33243D01*
X32015Y-33189D01*
X31973Y-33147D01*
X31919Y-33124D01*
X31860Y-33124D01*
X30521Y-33124D01*
X30467Y-33147D01*
X30425Y-33189D01*
X30402Y-33243D01*
X30402Y-33302D01*
X30402Y-33361D01*
X30375Y-33361D01*
X30030Y-33016D01*
X30030Y-32687D01*
X30007Y-32632D01*
X29966Y-32590D01*
X29911Y-32568D01*
X29852Y-32568D01*
X29228Y-32568D01*
X29391Y-32404D01*
X29498Y-32147D01*
X29498Y-31869D01*
X29392Y-31612D01*
X29196Y-31415D01*
X28938Y-31308D01*
X28660Y-31308D01*
X28403Y-31414D01*
X28206Y-31611D01*
X28099Y-31868D01*
X28099Y-32146D01*
X28205Y-32403D01*
X28369Y-32568D01*
X27883Y-32568D01*
X27829Y-32590D01*
X27787Y-32632D01*
X27764Y-32686D01*
X27764Y-32745D01*
X27764Y-33292D01*
X26871Y-34185D01*
X26874Y-32251D01*
X26894Y-32251D01*
X27050Y-32186D01*
X27169Y-32067D01*
X27234Y-31912D01*
X27234Y-31743D01*
X27169Y-31588D01*
X27050Y-31468D01*
X26895Y-31404D01*
X26875Y-31404D01*
X26875Y-31251D01*
X26894Y-31251D01*
X27050Y-31186D01*
X27169Y-31067D01*
X27234Y-30912D01*
X27234Y-30743D01*
X27228Y-30730D01*
X27535Y-30423D01*
X29096Y-30423D01*
X29096Y-30426D01*
X29118Y-30480D01*
X29160Y-30522D01*
X29215Y-30545D01*
X29274Y-30545D01*
X30231Y-30545D01*
X30286Y-30522D01*
X30328Y-30481D01*
X30350Y-30426D01*
X30350Y-30423D01*
X31853Y-30423D01*
X31853Y-30946D01*
X31876Y-31000D01*
X31918Y-31042D01*
X31972Y-31065D01*
X32031Y-31065D01*
X32989Y-31065D01*
X33043Y-31042D01*
X33085Y-31001D01*
X33108Y-30946D01*
X33108Y-30887D01*
X33108Y-30030D01*
X33355Y-30030D01*
X33378Y-30083D01*
X33419Y-30125D01*
X33474Y-30148D01*
X33533Y-30148D01*
X34714Y-30148D01*
X34769Y-30125D01*
X34810Y-30084D01*
X34833Y-30029D01*
X34833Y-30014D01*
X35391Y-30014D01*
X35374Y-30017D01*
X35300Y-30067D01*
X34741Y-30626D01*
X34691Y-30700D01*
X34674Y-30787D01*
X34674Y-32149D01*
X34656Y-32142D01*
X34478Y-32142D01*
X34313Y-32210D01*
X34186Y-32336D01*
X34118Y-32500D01*
X34118Y-32679D01*
X34186Y-32844D01*
X34225Y-32883D01*
X33530Y-32883D01*
X33568Y-32844D01*
X33637Y-32680D01*
X33637Y-32501D01*
X33569Y-32336D01*
X33443Y-32210D01*
X33278Y-32142D01*
X33100Y-32142D01*
X32935Y-32210D01*
X32809Y-32336D01*
X32740Y-32500D01*
X32740Y-32679D01*
X32808Y-32844D01*
X32851Y-32887D01*
X32787Y-32900D01*
X32713Y-32949D01*
X32437Y-33225D01*
X32388Y-33298D01*
X32371Y-33385D01*
X32371Y-33700D01*
X32371Y-33903D01*
X32324Y-33950D01*
X32275Y-34069D01*
X32274Y-34197D01*
X32324Y-34316D01*
X32371Y-34364D01*
X32371Y-35654D01*
X32259Y-35766D01*
X32259Y-32501D01*
X32191Y-32336D01*
X32065Y-32210D01*
X31900Y-32142D01*
X31722Y-32142D01*
X31557Y-32210D01*
X31431Y-32336D01*
X31362Y-32500D01*
X31362Y-32679D01*
X31430Y-32844D01*
X31556Y-32970D01*
X31721Y-33038D01*
X31899Y-33039D01*
X32064Y-32970D01*
X32190Y-32844D01*
X32259Y-32680D01*
X32259Y-32501D01*
X32259Y-35766D01*
X31768Y-36256D01*
X31719Y-36330D01*
X31702Y-36417D01*
X31702Y-37212D01*
X31668Y-37212D01*
X31668Y-36572D01*
X31600Y-36407D01*
X31474Y-36281D01*
X31310Y-36213D01*
X31131Y-36212D01*
X30966Y-36281D01*
X30840Y-36407D01*
X30772Y-36571D01*
X30771Y-36750D01*
X30840Y-36915D01*
X30966Y-37041D01*
X31130Y-37109D01*
X31309Y-37109D01*
X31474Y-37041D01*
X31600Y-36915D01*
X31668Y-36751D01*
X31668Y-36572D01*
X31668Y-37212D01*
X31494Y-37212D01*
X31439Y-37235D01*
X31402Y-37272D01*
X31162Y-37272D01*
X31075Y-37289D01*
X31001Y-37338D01*
X30752Y-37587D01*
X30487Y-37587D01*
X30487Y-36572D01*
X30419Y-36407D01*
X30293Y-36281D01*
X30128Y-36213D01*
X29950Y-36212D01*
X29785Y-36281D01*
X29659Y-36407D01*
X29591Y-36571D01*
X29590Y-36750D01*
X29658Y-36915D01*
X29785Y-37041D01*
X29949Y-37109D01*
X30128Y-37109D01*
X30293Y-37041D01*
X30419Y-36915D01*
X30487Y-36751D01*
X30487Y-36572D01*
X30487Y-37587D01*
X30336Y-37587D01*
X30282Y-37610D01*
X30240Y-37651D01*
X30217Y-37706D01*
X30217Y-37765D01*
X30217Y-38041D01*
X30240Y-38095D01*
X30281Y-38137D01*
X30336Y-38160D01*
X30395Y-38160D01*
X30946Y-38160D01*
X31001Y-38137D01*
X31043Y-38096D01*
X31065Y-38041D01*
X31065Y-37982D01*
X31065Y-37916D01*
X31256Y-37725D01*
X31402Y-37725D01*
X31439Y-37762D01*
X31493Y-37785D01*
X31552Y-37785D01*
X32104Y-37785D01*
X32158Y-37762D01*
X32200Y-37721D01*
X32214Y-37687D01*
X32263Y-37687D01*
X32263Y-37733D01*
X32286Y-37787D01*
X32327Y-37829D01*
X32382Y-37852D01*
X32441Y-37852D01*
X32530Y-37852D01*
X32883Y-37852D01*
X32883Y-37895D01*
X32530Y-37895D01*
X32382Y-37895D01*
X32328Y-37918D01*
X32286Y-37959D01*
X32263Y-38014D01*
X32263Y-38073D01*
X32263Y-38433D01*
X32286Y-38487D01*
X32327Y-38529D01*
X32382Y-38552D01*
X32441Y-38552D01*
X32530Y-38552D01*
X32959Y-38552D01*
X33013Y-38529D01*
X33055Y-38488D01*
X33077Y-38434D01*
X33083Y-38433D01*
X33156Y-38384D01*
X33270Y-38270D01*
X33270Y-38270D01*
X33319Y-38197D01*
X33320Y-38194D01*
X33339Y-38202D01*
X33367Y-38202D01*
X33318Y-38321D01*
X33318Y-38449D01*
X33367Y-38568D01*
X33458Y-38659D01*
X33484Y-38670D01*
X33011Y-38670D01*
X32530Y-38670D01*
X32042Y-38670D01*
X32026Y-38654D01*
X32026Y-38535D01*
X32104Y-38535D01*
X32158Y-38512D01*
X32200Y-38471D01*
X32223Y-38416D01*
X32223Y-38357D01*
X32223Y-38081D01*
X32200Y-38027D01*
X32159Y-37985D01*
X32104Y-37962D01*
X32045Y-37962D01*
X31494Y-37962D01*
X31439Y-37985D01*
X31397Y-38026D01*
X31375Y-38081D01*
X31375Y-38140D01*
X31375Y-38416D01*
X31397Y-38470D01*
X31439Y-38512D01*
X31493Y-38535D01*
X31552Y-38535D01*
X31572Y-38535D01*
X31572Y-38748D01*
X31589Y-38834D01*
X31638Y-38908D01*
X31788Y-39058D01*
X31861Y-39107D01*
X31948Y-39124D01*
X32530Y-39124D01*
X33011Y-39124D01*
X33956Y-39124D01*
X34043Y-39107D01*
X34117Y-39058D01*
X34747Y-38428D01*
X34747Y-38428D01*
X34796Y-38354D01*
X34813Y-38267D01*
X34813Y-38267D01*
X34813Y-37987D01*
X35468Y-37333D01*
X35596Y-37333D01*
X35643Y-37380D01*
X35762Y-37429D01*
X35890Y-37429D01*
X36009Y-37380D01*
X36100Y-37289D01*
X36150Y-37170D01*
X36150Y-37042D01*
X36101Y-36923D01*
X36010Y-36832D01*
X35891Y-36782D01*
X35762Y-36782D01*
X35643Y-36831D01*
X35596Y-36879D01*
X35547Y-36879D01*
X35664Y-36762D01*
X36220Y-36762D01*
X36535Y-36762D01*
X36622Y-36745D01*
X36695Y-36695D01*
X36814Y-36577D01*
X36863Y-36504D01*
X36880Y-36417D01*
X36880Y-36082D01*
X36880Y-35490D01*
X36863Y-35403D01*
X36814Y-35330D01*
X36814Y-35330D01*
X36053Y-34569D01*
X36053Y-34212D01*
X36053Y-33425D01*
X36036Y-33338D01*
X35987Y-33264D01*
X35699Y-32976D01*
X35699Y-32974D01*
X35855Y-33038D01*
X36033Y-33039D01*
X36198Y-32970D01*
X36324Y-32844D01*
X36393Y-32680D01*
X36393Y-32501D01*
X36325Y-32336D01*
X36199Y-32210D01*
X36034Y-32142D01*
X35856Y-32142D01*
X35699Y-32206D01*
X35699Y-32082D01*
X36038Y-31742D01*
X44354Y-31742D01*
X45463Y-32850D01*
X45463Y-32850D01*
X45512Y-32883D01*
X45536Y-32900D01*
X45536Y-32900D01*
X45623Y-32917D01*
X45623Y-32917D01*
X45807Y-32917D01*
X46062Y-32917D01*
X47979Y-32917D01*
X47963Y-32923D01*
X47822Y-33065D01*
X47745Y-33249D01*
X47745Y-33449D01*
X47821Y-33634D01*
X47962Y-33776D01*
X48147Y-33853D01*
X48347Y-33853D01*
X48532Y-33776D01*
X48626Y-33682D01*
X48627Y-33684D01*
X48682Y-33706D01*
X48741Y-33706D01*
X49191Y-33706D01*
X49245Y-33684D01*
X49287Y-33642D01*
X49310Y-33587D01*
X49310Y-33528D01*
X49310Y-33371D01*
X51133Y-35194D01*
X51133Y-35260D01*
X51182Y-35379D01*
X51273Y-35470D01*
X51392Y-35520D01*
X51520Y-35520D01*
X51639Y-35471D01*
X51730Y-35380D01*
X51780Y-35261D01*
X51780Y-35132D01*
X51731Y-35013D01*
X51640Y-34922D01*
X51521Y-34873D01*
X51454Y-34873D01*
X49921Y-33340D01*
X50005Y-33305D01*
X50096Y-33214D01*
X50120Y-33157D01*
X50287Y-33325D01*
X50287Y-33325D01*
X50292Y-33328D01*
X50292Y-33328D01*
X50300Y-33347D01*
X50391Y-33438D01*
X50510Y-33488D01*
X50639Y-33488D01*
X50758Y-33439D01*
X50849Y-33348D01*
X50898Y-33229D01*
X50898Y-33100D01*
X50849Y-32981D01*
X50758Y-32890D01*
X50639Y-32841D01*
X50511Y-32841D01*
X50464Y-32860D01*
X50067Y-32463D01*
X50123Y-32439D01*
X50214Y-32348D01*
X50264Y-32229D01*
X50264Y-32101D01*
X50215Y-31982D01*
X50124Y-31891D01*
X50005Y-31841D01*
X49966Y-31841D01*
X49966Y-30918D01*
X49898Y-30753D01*
X49772Y-30627D01*
X49607Y-30559D01*
X49428Y-30559D01*
X49264Y-30627D01*
X49137Y-30753D01*
X49069Y-30917D01*
X49069Y-31096D01*
X49137Y-31261D01*
X49263Y-31387D01*
X49428Y-31455D01*
X49606Y-31456D01*
X49771Y-31387D01*
X49897Y-31261D01*
X49966Y-31097D01*
X49966Y-30918D01*
X49966Y-31841D01*
X49953Y-31841D01*
X49904Y-31788D01*
X49900Y-31785D01*
X49897Y-31781D01*
X49865Y-31759D01*
X49833Y-31736D01*
X49828Y-31735D01*
X49824Y-31732D01*
X49785Y-31724D01*
X49747Y-31715D01*
X49742Y-31715D01*
X49737Y-31714D01*
X48966Y-31714D01*
X48966Y-30918D01*
X48966Y-29918D01*
X48898Y-29753D01*
X48772Y-29627D01*
X48607Y-29559D01*
X48428Y-29559D01*
X48264Y-29627D01*
X48137Y-29753D01*
X48069Y-29917D01*
X48069Y-30096D01*
X48137Y-30261D01*
X48263Y-30387D01*
X48428Y-30455D01*
X48606Y-30456D01*
X48771Y-30387D01*
X48897Y-30261D01*
X48966Y-30097D01*
X48966Y-29918D01*
X48966Y-30918D01*
X48898Y-30753D01*
X48772Y-30627D01*
X48607Y-30559D01*
X48428Y-30559D01*
X48264Y-30627D01*
X48137Y-30753D01*
X48069Y-30917D01*
X48069Y-31096D01*
X48137Y-31261D01*
X48263Y-31387D01*
X48428Y-31455D01*
X48606Y-31456D01*
X48771Y-31387D01*
X48897Y-31261D01*
X48966Y-31097D01*
X48966Y-30918D01*
X48966Y-31714D01*
X47966Y-31714D01*
X47966Y-30918D01*
X47966Y-29918D01*
X47898Y-29753D01*
X47772Y-29627D01*
X47607Y-29559D01*
X47428Y-29559D01*
X47264Y-29627D01*
X47137Y-29753D01*
X47069Y-29917D01*
X47069Y-30096D01*
X47137Y-30261D01*
X47263Y-30387D01*
X47428Y-30455D01*
X47606Y-30456D01*
X47771Y-30387D01*
X47897Y-30261D01*
X47966Y-30097D01*
X47966Y-29918D01*
X47966Y-30918D01*
X47898Y-30753D01*
X47772Y-30627D01*
X47607Y-30559D01*
X47428Y-30559D01*
X47264Y-30627D01*
X47137Y-30753D01*
X47069Y-30917D01*
X47069Y-31096D01*
X47137Y-31261D01*
X47263Y-31387D01*
X47428Y-31455D01*
X47606Y-31456D01*
X47771Y-31387D01*
X47897Y-31261D01*
X47966Y-31097D01*
X47966Y-30918D01*
X47966Y-31714D01*
X47082Y-31714D01*
X46801Y-31434D01*
X46801Y-29960D01*
X46784Y-29873D01*
X46735Y-29800D01*
X46735Y-29800D01*
X46234Y-29299D01*
X46234Y-29143D01*
X46178Y-29009D01*
X46566Y-29397D01*
X46640Y-29446D01*
X46727Y-29464D01*
X49361Y-29464D01*
X50127Y-30230D01*
X50127Y-31364D01*
X50080Y-31411D01*
X50030Y-31529D01*
X50030Y-31658D01*
X50079Y-31777D01*
X50170Y-31868D01*
X50289Y-31917D01*
X50418Y-31917D01*
X50489Y-31888D01*
X50499Y-31937D01*
X50548Y-32010D01*
X53185Y-34648D01*
X53185Y-34648D01*
X53185Y-34648D01*
X53303Y-34765D01*
X53303Y-36328D01*
X53254Y-36210D01*
X53128Y-36084D01*
X52963Y-36016D01*
X52785Y-36016D01*
X52620Y-36084D01*
X52494Y-36210D01*
X52425Y-36374D01*
X52425Y-36553D01*
X52493Y-36718D01*
X52619Y-36844D01*
X52784Y-36912D01*
X52962Y-36913D01*
X53127Y-36844D01*
X53253Y-36718D01*
X53303Y-36600D01*
X53303Y-36929D01*
G54D10*
G36*
X59126Y-36288D02*
X58834Y-36288D01*
X58834Y-33879D01*
X58834Y-29879D01*
X58766Y-29714D01*
X58640Y-29588D01*
X58475Y-29520D01*
X58297Y-29520D01*
X58132Y-29588D01*
X58005Y-29714D01*
X57937Y-29878D01*
X57937Y-30057D01*
X58005Y-30222D01*
X58131Y-30348D01*
X58296Y-30416D01*
X58474Y-30417D01*
X58639Y-30348D01*
X58765Y-30222D01*
X58834Y-30058D01*
X58834Y-29879D01*
X58834Y-33879D01*
X58766Y-33714D01*
X58640Y-33588D01*
X58475Y-33520D01*
X58297Y-33520D01*
X58132Y-33588D01*
X58005Y-33714D01*
X57937Y-33878D01*
X57937Y-34057D01*
X58005Y-34222D01*
X58131Y-34348D01*
X58296Y-34416D01*
X58474Y-34417D01*
X58639Y-34348D01*
X58765Y-34222D01*
X58834Y-34058D01*
X58834Y-33879D01*
X58834Y-36288D01*
X58798Y-36288D01*
X58766Y-36210D01*
X58640Y-36084D01*
X58475Y-36016D01*
X58324Y-36016D01*
X58335Y-35989D01*
X58335Y-35861D01*
X58286Y-35742D01*
X58195Y-35651D01*
X58076Y-35601D01*
X57947Y-35601D01*
X57828Y-35650D01*
X57737Y-35741D01*
X57688Y-35860D01*
X57688Y-35927D01*
X57516Y-36099D01*
X57467Y-36173D01*
X57450Y-36259D01*
X57450Y-36360D01*
X57388Y-36210D01*
X57262Y-36084D01*
X57097Y-36016D01*
X56919Y-36016D01*
X56754Y-36084D01*
X56683Y-36154D01*
X56683Y-36082D01*
X56683Y-34278D01*
X56753Y-34348D01*
X56918Y-34416D01*
X57096Y-34417D01*
X57261Y-34348D01*
X57387Y-34222D01*
X57456Y-34058D01*
X57456Y-33879D01*
X57388Y-33714D01*
X57262Y-33588D01*
X57097Y-33520D01*
X56919Y-33520D01*
X56754Y-33588D01*
X56683Y-33659D01*
X56666Y-33574D01*
X56617Y-33500D01*
X56617Y-33500D01*
X55856Y-32740D01*
X55856Y-30359D01*
X55883Y-30348D01*
X56009Y-30222D01*
X56072Y-30072D01*
X56072Y-31265D01*
X56025Y-31312D01*
X55975Y-31431D01*
X55975Y-31560D01*
X56024Y-31679D01*
X56115Y-31770D01*
X56234Y-31819D01*
X56363Y-31819D01*
X56482Y-31770D01*
X56573Y-31679D01*
X56622Y-31560D01*
X56622Y-31432D01*
X56573Y-31313D01*
X56526Y-31265D01*
X56526Y-29818D01*
X56626Y-29718D01*
X56559Y-29878D01*
X56559Y-30057D01*
X56627Y-30222D01*
X56753Y-30348D01*
X56918Y-30416D01*
X57096Y-30417D01*
X57261Y-30348D01*
X57387Y-30222D01*
X57456Y-30058D01*
X57456Y-29879D01*
X57388Y-29714D01*
X57262Y-29588D01*
X57097Y-29520D01*
X56919Y-29520D01*
X56757Y-29586D01*
X56905Y-29438D01*
X57032Y-29439D01*
X57188Y-29374D01*
X57307Y-29255D01*
X57372Y-29100D01*
X57372Y-28931D01*
X57307Y-28776D01*
X57188Y-28656D01*
X57033Y-28592D01*
X56864Y-28592D01*
X56709Y-28656D01*
X56590Y-28775D01*
X56525Y-28930D01*
X56525Y-29099D01*
X56548Y-29154D01*
X56138Y-29563D01*
X56089Y-29637D01*
X56072Y-29724D01*
X56072Y-29864D01*
X56010Y-29714D01*
X55884Y-29588D01*
X55719Y-29520D01*
X55541Y-29520D01*
X55376Y-29588D01*
X55249Y-29714D01*
X55181Y-29878D01*
X55181Y-30057D01*
X55249Y-30222D01*
X55375Y-30348D01*
X55402Y-30359D01*
X55402Y-30798D01*
X54689Y-30084D01*
X54700Y-30058D01*
X54700Y-29879D01*
X54632Y-29714D01*
X54548Y-29630D01*
X54776Y-29402D01*
X54864Y-29438D01*
X55032Y-29439D01*
X55188Y-29374D01*
X55307Y-29255D01*
X55372Y-29100D01*
X55372Y-28931D01*
X55307Y-28776D01*
X55188Y-28656D01*
X55162Y-28645D01*
X55450Y-28645D01*
X55587Y-28782D01*
X55525Y-28930D01*
X55525Y-29099D01*
X55589Y-29255D01*
X55708Y-29374D01*
X55864Y-29438D01*
X56032Y-29439D01*
X56188Y-29374D01*
X56307Y-29255D01*
X56372Y-29100D01*
X56372Y-28931D01*
X56307Y-28776D01*
X56188Y-28656D01*
X56043Y-28596D01*
X55705Y-28258D01*
X55631Y-28209D01*
X55544Y-28191D01*
X52722Y-28191D01*
X52636Y-28209D01*
X52591Y-28238D01*
X52562Y-28258D01*
X52319Y-28500D01*
X52270Y-28574D01*
X52253Y-28661D01*
X52253Y-28721D01*
X52188Y-28656D01*
X52033Y-28592D01*
X51864Y-28592D01*
X51709Y-28656D01*
X51590Y-28775D01*
X51525Y-28930D01*
X51525Y-29099D01*
X51589Y-29255D01*
X51708Y-29374D01*
X51864Y-29438D01*
X52032Y-29439D01*
X52188Y-29374D01*
X52253Y-29309D01*
X52253Y-29359D01*
X52270Y-29446D01*
X52319Y-29519D01*
X52454Y-29654D01*
X52433Y-29654D01*
X52378Y-29676D01*
X52337Y-29718D01*
X52314Y-29772D01*
X52314Y-29831D01*
X52314Y-30081D01*
X52336Y-30136D01*
X52378Y-30178D01*
X52433Y-30200D01*
X52492Y-30201D01*
X52942Y-30201D01*
X52996Y-30178D01*
X53038Y-30136D01*
X53061Y-30082D01*
X53061Y-30023D01*
X53061Y-29773D01*
X53038Y-29718D01*
X52996Y-29676D01*
X52942Y-29654D01*
X52914Y-29654D01*
X52914Y-29566D01*
X52897Y-29480D01*
X52869Y-29438D01*
X53032Y-29439D01*
X53188Y-29374D01*
X53307Y-29255D01*
X53372Y-29100D01*
X53372Y-28931D01*
X53307Y-28776D01*
X53188Y-28656D01*
X53162Y-28645D01*
X53735Y-28645D01*
X53709Y-28656D01*
X53590Y-28775D01*
X53525Y-28930D01*
X53525Y-29099D01*
X53589Y-29255D01*
X53679Y-29345D01*
X53520Y-29504D01*
X53471Y-29578D01*
X53454Y-29665D01*
X53454Y-30098D01*
X53471Y-30185D01*
X53520Y-30258D01*
X54840Y-31578D01*
X54840Y-34236D01*
X54689Y-34084D01*
X54700Y-34058D01*
X54700Y-33879D01*
X54632Y-33714D01*
X54506Y-33588D01*
X54341Y-33520D01*
X54163Y-33520D01*
X53998Y-33588D01*
X53872Y-33714D01*
X53803Y-33878D01*
X53803Y-34057D01*
X53871Y-34222D01*
X53997Y-34348D01*
X54162Y-34416D01*
X54340Y-34417D01*
X54368Y-34405D01*
X54591Y-34628D01*
X54591Y-36032D01*
X54522Y-36101D01*
X54506Y-36084D01*
X54341Y-36016D01*
X54163Y-36016D01*
X54006Y-36080D01*
X54006Y-34568D01*
X53989Y-34481D01*
X53939Y-34407D01*
X53821Y-34289D01*
X53610Y-34078D01*
X53610Y-30664D01*
X53561Y-30545D01*
X53470Y-30454D01*
X53352Y-30404D01*
X53284Y-30404D01*
X53247Y-30367D01*
X53173Y-30317D01*
X53086Y-30300D01*
X53020Y-30300D01*
X52996Y-30276D01*
X52942Y-30254D01*
X52883Y-30254D01*
X52433Y-30254D01*
X52378Y-30276D01*
X52337Y-30318D01*
X52314Y-30372D01*
X52314Y-30431D01*
X52314Y-30681D01*
X52336Y-30736D01*
X52378Y-30778D01*
X52433Y-30800D01*
X52492Y-30801D01*
X52942Y-30801D01*
X52963Y-30792D01*
X52963Y-30792D01*
X53013Y-30911D01*
X53103Y-31002D01*
X53222Y-31051D01*
X53351Y-31051D01*
X53470Y-31002D01*
X53561Y-30911D01*
X53610Y-30792D01*
X53610Y-30664D01*
X53610Y-34078D01*
X52261Y-32729D01*
X52261Y-31313D01*
X52212Y-31194D01*
X52175Y-31158D01*
X52175Y-30247D01*
X52211Y-30211D01*
X52261Y-30092D01*
X52261Y-29963D01*
X52212Y-29844D01*
X52121Y-29753D01*
X52002Y-29704D01*
X51873Y-29704D01*
X51754Y-29753D01*
X51663Y-29844D01*
X51614Y-29962D01*
X51614Y-30091D01*
X51663Y-30210D01*
X51721Y-30269D01*
X51721Y-31136D01*
X51663Y-31194D01*
X51614Y-31312D01*
X51614Y-31441D01*
X51663Y-31560D01*
X51754Y-31651D01*
X51873Y-31700D01*
X52001Y-31701D01*
X52120Y-31651D01*
X52211Y-31561D01*
X52261Y-31442D01*
X52261Y-31313D01*
X52261Y-32729D01*
X51211Y-31679D01*
X51211Y-31496D01*
X51211Y-29351D01*
X51307Y-29255D01*
X51372Y-29100D01*
X51372Y-28931D01*
X51307Y-28776D01*
X51188Y-28656D01*
X51033Y-28592D01*
X50864Y-28592D01*
X50709Y-28656D01*
X50590Y-28775D01*
X50525Y-28930D01*
X50525Y-29099D01*
X50589Y-29255D01*
X50708Y-29374D01*
X50757Y-29394D01*
X50757Y-29865D01*
X49697Y-28806D01*
X49624Y-28756D01*
X49537Y-28739D01*
X47052Y-28739D01*
X46486Y-28173D01*
X46486Y-27027D01*
X46486Y-27027D01*
X46469Y-26940D01*
X46420Y-26867D01*
X46420Y-26867D01*
X46120Y-26567D01*
X46046Y-26517D01*
X45959Y-26500D01*
X45837Y-26500D01*
X45837Y-25651D01*
X45894Y-25651D01*
X46050Y-25586D01*
X46169Y-25467D01*
X46234Y-25312D01*
X46234Y-25143D01*
X46169Y-24988D01*
X46090Y-24907D01*
X48158Y-24907D01*
X48158Y-24988D01*
X48158Y-25043D01*
X48158Y-25043D01*
X48158Y-27588D01*
X48158Y-27643D01*
X48158Y-27643D01*
X48158Y-27863D01*
X48180Y-27918D01*
X48222Y-27960D01*
X48277Y-27982D01*
X48336Y-27983D01*
X48610Y-27983D01*
X48665Y-27983D01*
X48665Y-27983D01*
X51210Y-27983D01*
X51265Y-27983D01*
X51265Y-27983D01*
X51486Y-27983D01*
X51540Y-27960D01*
X51572Y-27928D01*
X51812Y-27928D01*
X51844Y-27960D01*
X51899Y-27982D01*
X51958Y-27983D01*
X52232Y-27983D01*
X52287Y-27983D01*
X52287Y-27983D01*
X54832Y-27983D01*
X54887Y-27983D01*
X54887Y-27983D01*
X55108Y-27983D01*
X55162Y-27960D01*
X55196Y-27926D01*
X55432Y-27926D01*
X55466Y-27960D01*
X55521Y-27982D01*
X55580Y-27983D01*
X55854Y-27983D01*
X55909Y-27983D01*
X55909Y-27983D01*
X58454Y-27983D01*
X58509Y-27983D01*
X58509Y-27983D01*
X58730Y-27983D01*
X58760Y-27970D01*
X58760Y-29177D01*
X58778Y-29264D01*
X58827Y-29338D01*
X59024Y-29535D01*
X59024Y-29634D01*
X59024Y-29689D01*
X59024Y-29689D01*
X59024Y-32234D01*
X59024Y-32289D01*
X59024Y-32289D01*
X59024Y-32509D01*
X59046Y-32564D01*
X59088Y-32606D01*
X59099Y-32610D01*
X59100Y-32821D01*
X59088Y-32826D01*
X59047Y-32868D01*
X59024Y-32922D01*
X59024Y-32981D01*
X59024Y-33256D01*
X59024Y-33311D01*
X59024Y-33311D01*
X59024Y-35856D01*
X59024Y-35911D01*
X59024Y-35911D01*
X59024Y-36131D01*
X59046Y-36186D01*
X59088Y-36228D01*
X59125Y-36243D01*
X59126Y-36288D01*
X59126Y-36288D01*
G37*
G54D31*
X59126Y-36288D02*
X58834Y-36288D01*
X58834Y-33879D01*
X58834Y-29879D01*
X58766Y-29714D01*
X58640Y-29588D01*
X58475Y-29520D01*
X58297Y-29520D01*
X58132Y-29588D01*
X58005Y-29714D01*
X57937Y-29878D01*
X57937Y-30057D01*
X58005Y-30222D01*
X58131Y-30348D01*
X58296Y-30416D01*
X58474Y-30417D01*
X58639Y-30348D01*
X58765Y-30222D01*
X58834Y-30058D01*
X58834Y-29879D01*
X58834Y-33879D01*
X58766Y-33714D01*
X58640Y-33588D01*
X58475Y-33520D01*
X58297Y-33520D01*
X58132Y-33588D01*
X58005Y-33714D01*
X57937Y-33878D01*
X57937Y-34057D01*
X58005Y-34222D01*
X58131Y-34348D01*
X58296Y-34416D01*
X58474Y-34417D01*
X58639Y-34348D01*
X58765Y-34222D01*
X58834Y-34058D01*
X58834Y-33879D01*
X58834Y-36288D01*
X58798Y-36288D01*
X58766Y-36210D01*
X58640Y-36084D01*
X58475Y-36016D01*
X58324Y-36016D01*
X58335Y-35989D01*
X58335Y-35861D01*
X58286Y-35742D01*
X58195Y-35651D01*
X58076Y-35601D01*
X57947Y-35601D01*
X57828Y-35650D01*
X57737Y-35741D01*
X57688Y-35860D01*
X57688Y-35927D01*
X57516Y-36099D01*
X57467Y-36173D01*
X57450Y-36259D01*
X57450Y-36360D01*
X57388Y-36210D01*
X57262Y-36084D01*
X57097Y-36016D01*
X56919Y-36016D01*
X56754Y-36084D01*
X56683Y-36154D01*
X56683Y-36082D01*
X56683Y-34278D01*
X56753Y-34348D01*
X56918Y-34416D01*
X57096Y-34417D01*
X57261Y-34348D01*
X57387Y-34222D01*
X57456Y-34058D01*
X57456Y-33879D01*
X57388Y-33714D01*
X57262Y-33588D01*
X57097Y-33520D01*
X56919Y-33520D01*
X56754Y-33588D01*
X56683Y-33659D01*
X56666Y-33574D01*
X56617Y-33500D01*
X56617Y-33500D01*
X55856Y-32740D01*
X55856Y-30359D01*
X55883Y-30348D01*
X56009Y-30222D01*
X56072Y-30072D01*
X56072Y-31265D01*
X56025Y-31312D01*
X55975Y-31431D01*
X55975Y-31560D01*
X56024Y-31679D01*
X56115Y-31770D01*
X56234Y-31819D01*
X56363Y-31819D01*
X56482Y-31770D01*
X56573Y-31679D01*
X56622Y-31560D01*
X56622Y-31432D01*
X56573Y-31313D01*
X56526Y-31265D01*
X56526Y-29818D01*
X56626Y-29718D01*
X56559Y-29878D01*
X56559Y-30057D01*
X56627Y-30222D01*
X56753Y-30348D01*
X56918Y-30416D01*
X57096Y-30417D01*
X57261Y-30348D01*
X57387Y-30222D01*
X57456Y-30058D01*
X57456Y-29879D01*
X57388Y-29714D01*
X57262Y-29588D01*
X57097Y-29520D01*
X56919Y-29520D01*
X56757Y-29586D01*
X56905Y-29438D01*
X57032Y-29439D01*
X57188Y-29374D01*
X57307Y-29255D01*
X57372Y-29100D01*
X57372Y-28931D01*
X57307Y-28776D01*
X57188Y-28656D01*
X57033Y-28592D01*
X56864Y-28592D01*
X56709Y-28656D01*
X56590Y-28775D01*
X56525Y-28930D01*
X56525Y-29099D01*
X56548Y-29154D01*
X56138Y-29563D01*
X56089Y-29637D01*
X56072Y-29724D01*
X56072Y-29864D01*
X56010Y-29714D01*
X55884Y-29588D01*
X55719Y-29520D01*
X55541Y-29520D01*
X55376Y-29588D01*
X55249Y-29714D01*
X55181Y-29878D01*
X55181Y-30057D01*
X55249Y-30222D01*
X55375Y-30348D01*
X55402Y-30359D01*
X55402Y-30798D01*
X54689Y-30084D01*
X54700Y-30058D01*
X54700Y-29879D01*
X54632Y-29714D01*
X54548Y-29630D01*
X54776Y-29402D01*
X54864Y-29438D01*
X55032Y-29439D01*
X55188Y-29374D01*
X55307Y-29255D01*
X55372Y-29100D01*
X55372Y-28931D01*
X55307Y-28776D01*
X55188Y-28656D01*
X55162Y-28645D01*
X55450Y-28645D01*
X55587Y-28782D01*
X55525Y-28930D01*
X55525Y-29099D01*
X55589Y-29255D01*
X55708Y-29374D01*
X55864Y-29438D01*
X56032Y-29439D01*
X56188Y-29374D01*
X56307Y-29255D01*
X56372Y-29100D01*
X56372Y-28931D01*
X56307Y-28776D01*
X56188Y-28656D01*
X56043Y-28596D01*
X55705Y-28258D01*
X55631Y-28209D01*
X55544Y-28191D01*
X52722Y-28191D01*
X52636Y-28209D01*
X52591Y-28238D01*
X52562Y-28258D01*
X52319Y-28500D01*
X52270Y-28574D01*
X52253Y-28661D01*
X52253Y-28721D01*
X52188Y-28656D01*
X52033Y-28592D01*
X51864Y-28592D01*
X51709Y-28656D01*
X51590Y-28775D01*
X51525Y-28930D01*
X51525Y-29099D01*
X51589Y-29255D01*
X51708Y-29374D01*
X51864Y-29438D01*
X52032Y-29439D01*
X52188Y-29374D01*
X52253Y-29309D01*
X52253Y-29359D01*
X52270Y-29446D01*
X52319Y-29519D01*
X52454Y-29654D01*
X52433Y-29654D01*
X52378Y-29676D01*
X52337Y-29718D01*
X52314Y-29772D01*
X52314Y-29831D01*
X52314Y-30081D01*
X52336Y-30136D01*
X52378Y-30178D01*
X52433Y-30200D01*
X52492Y-30201D01*
X52942Y-30201D01*
X52996Y-30178D01*
X53038Y-30136D01*
X53061Y-30082D01*
X53061Y-30023D01*
X53061Y-29773D01*
X53038Y-29718D01*
X52996Y-29676D01*
X52942Y-29654D01*
X52914Y-29654D01*
X52914Y-29566D01*
X52897Y-29480D01*
X52869Y-29438D01*
X53032Y-29439D01*
X53188Y-29374D01*
X53307Y-29255D01*
X53372Y-29100D01*
X53372Y-28931D01*
X53307Y-28776D01*
X53188Y-28656D01*
X53162Y-28645D01*
X53735Y-28645D01*
X53709Y-28656D01*
X53590Y-28775D01*
X53525Y-28930D01*
X53525Y-29099D01*
X53589Y-29255D01*
X53679Y-29345D01*
X53520Y-29504D01*
X53471Y-29578D01*
X53454Y-29665D01*
X53454Y-30098D01*
X53471Y-30185D01*
X53520Y-30258D01*
X54840Y-31578D01*
X54840Y-34236D01*
X54689Y-34084D01*
X54700Y-34058D01*
X54700Y-33879D01*
X54632Y-33714D01*
X54506Y-33588D01*
X54341Y-33520D01*
X54163Y-33520D01*
X53998Y-33588D01*
X53872Y-33714D01*
X53803Y-33878D01*
X53803Y-34057D01*
X53871Y-34222D01*
X53997Y-34348D01*
X54162Y-34416D01*
X54340Y-34417D01*
X54368Y-34405D01*
X54591Y-34628D01*
X54591Y-36032D01*
X54522Y-36101D01*
X54506Y-36084D01*
X54341Y-36016D01*
X54163Y-36016D01*
X54006Y-36080D01*
X54006Y-34568D01*
X53989Y-34481D01*
X53939Y-34407D01*
X53821Y-34289D01*
X53610Y-34078D01*
X53610Y-30664D01*
X53561Y-30545D01*
X53470Y-30454D01*
X53352Y-30404D01*
X53284Y-30404D01*
X53247Y-30367D01*
X53173Y-30317D01*
X53086Y-30300D01*
X53020Y-30300D01*
X52996Y-30276D01*
X52942Y-30254D01*
X52883Y-30254D01*
X52433Y-30254D01*
X52378Y-30276D01*
X52337Y-30318D01*
X52314Y-30372D01*
X52314Y-30431D01*
X52314Y-30681D01*
X52336Y-30736D01*
X52378Y-30778D01*
X52433Y-30800D01*
X52492Y-30801D01*
X52942Y-30801D01*
X52963Y-30792D01*
X52963Y-30792D01*
X53013Y-30911D01*
X53103Y-31002D01*
X53222Y-31051D01*
X53351Y-31051D01*
X53470Y-31002D01*
X53561Y-30911D01*
X53610Y-30792D01*
X53610Y-30664D01*
X53610Y-34078D01*
X52261Y-32729D01*
X52261Y-31313D01*
X52212Y-31194D01*
X52175Y-31158D01*
X52175Y-30247D01*
X52211Y-30211D01*
X52261Y-30092D01*
X52261Y-29963D01*
X52212Y-29844D01*
X52121Y-29753D01*
X52002Y-29704D01*
X51873Y-29704D01*
X51754Y-29753D01*
X51663Y-29844D01*
X51614Y-29962D01*
X51614Y-30091D01*
X51663Y-30210D01*
X51721Y-30269D01*
X51721Y-31136D01*
X51663Y-31194D01*
X51614Y-31312D01*
X51614Y-31441D01*
X51663Y-31560D01*
X51754Y-31651D01*
X51873Y-31700D01*
X52001Y-31701D01*
X52120Y-31651D01*
X52211Y-31561D01*
X52261Y-31442D01*
X52261Y-31313D01*
X52261Y-32729D01*
X51211Y-31679D01*
X51211Y-31496D01*
X51211Y-29351D01*
X51307Y-29255D01*
X51372Y-29100D01*
X51372Y-28931D01*
X51307Y-28776D01*
X51188Y-28656D01*
X51033Y-28592D01*
X50864Y-28592D01*
X50709Y-28656D01*
X50590Y-28775D01*
X50525Y-28930D01*
X50525Y-29099D01*
X50589Y-29255D01*
X50708Y-29374D01*
X50757Y-29394D01*
X50757Y-29865D01*
X49697Y-28806D01*
X49624Y-28756D01*
X49537Y-28739D01*
X47052Y-28739D01*
X46486Y-28173D01*
X46486Y-27027D01*
X46486Y-27027D01*
X46469Y-26940D01*
X46420Y-26867D01*
X46420Y-26867D01*
X46120Y-26567D01*
X46046Y-26517D01*
X45959Y-26500D01*
X45837Y-26500D01*
X45837Y-25651D01*
X45894Y-25651D01*
X46050Y-25586D01*
X46169Y-25467D01*
X46234Y-25312D01*
X46234Y-25143D01*
X46169Y-24988D01*
X46090Y-24907D01*
X48158Y-24907D01*
X48158Y-24988D01*
X48158Y-25043D01*
X48158Y-25043D01*
X48158Y-27588D01*
X48158Y-27643D01*
X48158Y-27643D01*
X48158Y-27863D01*
X48180Y-27918D01*
X48222Y-27960D01*
X48277Y-27982D01*
X48336Y-27983D01*
X48610Y-27983D01*
X48665Y-27983D01*
X48665Y-27983D01*
X51210Y-27983D01*
X51265Y-27983D01*
X51265Y-27983D01*
X51486Y-27983D01*
X51540Y-27960D01*
X51572Y-27928D01*
X51812Y-27928D01*
X51844Y-27960D01*
X51899Y-27982D01*
X51958Y-27983D01*
X52232Y-27983D01*
X52287Y-27983D01*
X52287Y-27983D01*
X54832Y-27983D01*
X54887Y-27983D01*
X54887Y-27983D01*
X55108Y-27983D01*
X55162Y-27960D01*
X55196Y-27926D01*
X55432Y-27926D01*
X55466Y-27960D01*
X55521Y-27982D01*
X55580Y-27983D01*
X55854Y-27983D01*
X55909Y-27983D01*
X55909Y-27983D01*
X58454Y-27983D01*
X58509Y-27983D01*
X58509Y-27983D01*
X58730Y-27983D01*
X58760Y-27970D01*
X58760Y-29177D01*
X58778Y-29264D01*
X58827Y-29338D01*
X59024Y-29535D01*
X59024Y-29634D01*
X59024Y-29689D01*
X59024Y-29689D01*
X59024Y-32234D01*
X59024Y-32289D01*
X59024Y-32289D01*
X59024Y-32509D01*
X59046Y-32564D01*
X59088Y-32606D01*
X59099Y-32610D01*
X59100Y-32821D01*
X59088Y-32826D01*
X59047Y-32868D01*
X59024Y-32922D01*
X59024Y-32981D01*
X59024Y-33256D01*
X59024Y-33311D01*
X59024Y-33311D01*
X59024Y-35856D01*
X59024Y-35911D01*
X59024Y-35911D01*
X59024Y-36131D01*
X59046Y-36186D01*
X59088Y-36228D01*
X59125Y-36243D01*
X59126Y-36288D01*
M02*
