G04 (created by PCBNEW (2013-feb-26)-stable) date sam. 27 avril 2013 23:09:49 CEST*
%MOIN*%
G04 Gerber Fmt 3.4, Leading zero omitted, Abs format*
%FSLAX34Y34*%
G01*
G70*
G90*
G04 APERTURE LIST*
%ADD10C,2.3622e-06*%
%ADD11R,0.035748X0.0731496*%
%ADD12R,0.102677X0.0829921*%
%ADD13R,0.0514961X0.0987402*%
%ADD14R,0.0318X0.079074*%
%ADD15R,0.065X0.0593701*%
%ADD16C,0.0908661*%
%ADD17C,0.130236*%
%ADD18C,0.075*%
%ADD19C,0.08*%
%ADD20R,0.669606X0.0948031*%
%ADD21R,0.21685X0.0948031*%
%ADD22R,0.045X0.065*%
%ADD23R,0.065X0.045*%
%ADD24R,0.331024X0.331024*%
%ADD25C,0.055*%
%ADD26C,0.01*%
G04 APERTURE END LIST*
G54D10*
G54D11*
X43110Y-42746D03*
X43366Y-42746D03*
X43622Y-42746D03*
X43877Y-42746D03*
X44133Y-42746D03*
G54D12*
X44842Y-42795D03*
X42401Y-42795D03*
G54D13*
X43818Y-36062D03*
X45000Y-36062D03*
G54D14*
X51847Y-32238D03*
X51597Y-32238D03*
X51337Y-32238D03*
X51087Y-32238D03*
X50827Y-32238D03*
X50572Y-32238D03*
X50317Y-32238D03*
X50317Y-34516D03*
X50572Y-34516D03*
X50827Y-34516D03*
X51087Y-34516D03*
X51342Y-34516D03*
X51597Y-34516D03*
X51852Y-34516D03*
G54D15*
X49862Y-36786D03*
X49862Y-37386D03*
X50688Y-38587D03*
X50688Y-37987D03*
X50688Y-36786D03*
X50688Y-37386D03*
X51535Y-36786D03*
X51535Y-37386D03*
X51535Y-38587D03*
X51535Y-37987D03*
G54D10*
G36*
X39206Y-38412D02*
X38508Y-39111D01*
X38254Y-38856D01*
X38952Y-38158D01*
X39206Y-38412D01*
X39206Y-38412D01*
G37*
G36*
X39429Y-38635D02*
X38731Y-39333D01*
X38476Y-39079D01*
X39175Y-38381D01*
X39429Y-38635D01*
X39429Y-38635D01*
G37*
G36*
X39652Y-38858D02*
X38954Y-39556D01*
X38699Y-39302D01*
X39397Y-38603D01*
X39652Y-38858D01*
X39652Y-38858D01*
G37*
G36*
X39875Y-39081D02*
X39176Y-39779D01*
X38922Y-39524D01*
X39620Y-38826D01*
X39875Y-39081D01*
X39875Y-39081D01*
G37*
G36*
X40097Y-39303D02*
X39399Y-40002D01*
X39145Y-39747D01*
X39843Y-39049D01*
X40097Y-39303D01*
X40097Y-39303D01*
G37*
G36*
X40320Y-39526D02*
X39622Y-40224D01*
X39367Y-39970D01*
X40066Y-39272D01*
X40320Y-39526D01*
X40320Y-39526D01*
G37*
G36*
X38984Y-38190D02*
X38285Y-38888D01*
X38031Y-38633D01*
X38729Y-37935D01*
X38984Y-38190D01*
X38984Y-38190D01*
G37*
G36*
X38761Y-37967D02*
X38063Y-38665D01*
X37808Y-38411D01*
X38506Y-37712D01*
X38761Y-37967D01*
X38761Y-37967D01*
G37*
G36*
X38538Y-37744D02*
X37840Y-38442D01*
X37585Y-38188D01*
X38284Y-37490D01*
X38538Y-37744D01*
X38538Y-37744D01*
G37*
G36*
X38315Y-37522D02*
X37617Y-38220D01*
X37363Y-37965D01*
X38061Y-37267D01*
X38315Y-37522D01*
X38315Y-37522D01*
G37*
G36*
X38093Y-37299D02*
X37395Y-37997D01*
X37083Y-37686D01*
X37782Y-36988D01*
X38093Y-37299D01*
X38093Y-37299D01*
G37*
G36*
X42521Y-35098D02*
X41823Y-35796D01*
X41568Y-35542D01*
X42266Y-34843D01*
X42521Y-35098D01*
X42521Y-35098D01*
G37*
G36*
X42744Y-35321D02*
X42045Y-36019D01*
X41791Y-35764D01*
X42489Y-35066D01*
X42744Y-35321D01*
X42744Y-35321D01*
G37*
G36*
X42966Y-35543D02*
X42268Y-36242D01*
X42014Y-35987D01*
X42712Y-35289D01*
X42966Y-35543D01*
X42966Y-35543D01*
G37*
G36*
X43189Y-35766D02*
X42491Y-36464D01*
X42236Y-36210D01*
X42935Y-35512D01*
X43189Y-35766D01*
X43189Y-35766D01*
G37*
G36*
X43412Y-35989D02*
X42714Y-36687D01*
X42459Y-36433D01*
X43157Y-35734D01*
X43412Y-35989D01*
X43412Y-35989D01*
G37*
G36*
X42298Y-34875D02*
X41600Y-35573D01*
X41345Y-35319D01*
X42044Y-34621D01*
X42298Y-34875D01*
X42298Y-34875D01*
G37*
G36*
X42075Y-34653D02*
X41377Y-35351D01*
X41123Y-35096D01*
X41821Y-34398D01*
X42075Y-34653D01*
X42075Y-34653D01*
G37*
G36*
X41853Y-34430D02*
X41155Y-35128D01*
X40900Y-34873D01*
X41598Y-34175D01*
X41853Y-34430D01*
X41853Y-34430D01*
G37*
G36*
X41630Y-34207D02*
X40932Y-34905D01*
X40677Y-34651D01*
X41375Y-33952D01*
X41630Y-34207D01*
X41630Y-34207D01*
G37*
G36*
X41407Y-33984D02*
X40709Y-34682D01*
X40454Y-34428D01*
X41153Y-33730D01*
X41407Y-33984D01*
X41407Y-33984D01*
G37*
G36*
X42521Y-38856D02*
X42266Y-39111D01*
X41568Y-38412D01*
X41823Y-38158D01*
X42521Y-38856D01*
X42521Y-38856D01*
G37*
G36*
X39206Y-35542D02*
X38952Y-35796D01*
X38254Y-35098D01*
X38508Y-34843D01*
X39206Y-35542D01*
X39206Y-35542D01*
G37*
G36*
X42744Y-38633D02*
X42489Y-38888D01*
X41791Y-38190D01*
X42045Y-37935D01*
X42744Y-38633D01*
X42744Y-38633D01*
G37*
G36*
X39429Y-35319D02*
X39175Y-35573D01*
X38476Y-34875D01*
X38731Y-34621D01*
X39429Y-35319D01*
X39429Y-35319D01*
G37*
G36*
X39652Y-35096D02*
X39397Y-35351D01*
X38699Y-34653D01*
X38954Y-34398D01*
X39652Y-35096D01*
X39652Y-35096D01*
G37*
G36*
X42966Y-38411D02*
X42712Y-38665D01*
X42014Y-37967D01*
X42268Y-37712D01*
X42966Y-38411D01*
X42966Y-38411D01*
G37*
G36*
X43189Y-38188D02*
X42935Y-38442D01*
X42236Y-37744D01*
X42491Y-37490D01*
X43189Y-38188D01*
X43189Y-38188D01*
G37*
G36*
X39875Y-34873D02*
X39620Y-35128D01*
X38922Y-34430D01*
X39176Y-34175D01*
X39875Y-34873D01*
X39875Y-34873D01*
G37*
G36*
X40097Y-34651D02*
X39843Y-34905D01*
X39145Y-34207D01*
X39399Y-33952D01*
X40097Y-34651D01*
X40097Y-34651D01*
G37*
G36*
X43412Y-37965D02*
X43157Y-38220D01*
X42459Y-37522D01*
X42714Y-37267D01*
X43412Y-37965D01*
X43412Y-37965D01*
G37*
G36*
X43635Y-37742D02*
X43380Y-37997D01*
X42682Y-37299D01*
X42936Y-37044D01*
X43635Y-37742D01*
X43635Y-37742D01*
G37*
G36*
X40377Y-34371D02*
X40066Y-34682D01*
X39367Y-33984D01*
X39678Y-33673D01*
X40377Y-34371D01*
X40377Y-34371D01*
G37*
G36*
X38984Y-35764D02*
X38729Y-36019D01*
X38031Y-35321D01*
X38285Y-35066D01*
X38984Y-35764D01*
X38984Y-35764D01*
G37*
G36*
X42298Y-39079D02*
X42044Y-39333D01*
X41345Y-38635D01*
X41600Y-38381D01*
X42298Y-39079D01*
X42298Y-39079D01*
G37*
G36*
X42075Y-39302D02*
X41821Y-39556D01*
X41123Y-38858D01*
X41377Y-38603D01*
X42075Y-39302D01*
X42075Y-39302D01*
G37*
G36*
X38761Y-35987D02*
X38506Y-36242D01*
X37808Y-35543D01*
X38063Y-35289D01*
X38761Y-35987D01*
X38761Y-35987D01*
G37*
G36*
X38538Y-36210D02*
X38284Y-36464D01*
X37585Y-35766D01*
X37840Y-35512D01*
X38538Y-36210D01*
X38538Y-36210D01*
G37*
G36*
X41853Y-39524D02*
X41598Y-39779D01*
X40900Y-39081D01*
X41155Y-38826D01*
X41853Y-39524D01*
X41853Y-39524D01*
G37*
G36*
X41630Y-39747D02*
X41375Y-40002D01*
X40677Y-39303D01*
X40932Y-39049D01*
X41630Y-39747D01*
X41630Y-39747D01*
G37*
G36*
X38315Y-36433D02*
X38061Y-36687D01*
X37363Y-35989D01*
X37617Y-35734D01*
X38315Y-36433D01*
X38315Y-36433D01*
G37*
G36*
X38093Y-36655D02*
X37838Y-36910D01*
X37140Y-36212D01*
X37395Y-35957D01*
X38093Y-36655D01*
X38093Y-36655D01*
G37*
G36*
X41407Y-39970D02*
X41096Y-40281D01*
X40398Y-39583D01*
X40709Y-39272D01*
X41407Y-39970D01*
X41407Y-39970D01*
G37*
G36*
X43691Y-36268D02*
X42993Y-36966D01*
X42682Y-36655D01*
X43380Y-35957D01*
X43691Y-36268D01*
X43691Y-36268D01*
G37*
G54D15*
X43700Y-41874D03*
X43700Y-41274D03*
X43070Y-41874D03*
X43070Y-41274D03*
G54D16*
X48248Y-33350D03*
X48248Y-35271D03*
G54D17*
X30177Y-32007D03*
X28799Y-32007D03*
G54D18*
X61051Y-25177D03*
X60051Y-25177D03*
G54D19*
X34763Y-40661D03*
X34763Y-36661D03*
X33582Y-40661D03*
X33582Y-36661D03*
X32401Y-40661D03*
X32401Y-36661D03*
X31220Y-40661D03*
X31220Y-36661D03*
X30039Y-40661D03*
X30039Y-36661D03*
X28858Y-40661D03*
X28858Y-36661D03*
G54D20*
X44940Y-43976D03*
X44940Y-43976D03*
G54D18*
X47362Y-43188D03*
G54D21*
X47196Y-25078D03*
X47196Y-25078D03*
G54D18*
X47362Y-26653D03*
G54D10*
G36*
X34097Y-34874D02*
X35228Y-33743D01*
X35865Y-34379D01*
X34733Y-35511D01*
X34097Y-34874D01*
X34097Y-34874D01*
G37*
G36*
X35158Y-35935D02*
X36289Y-34803D01*
X36926Y-35440D01*
X35794Y-36571D01*
X35158Y-35935D01*
X35158Y-35935D01*
G37*
G54D18*
X45810Y-41827D03*
X45810Y-40827D03*
X45810Y-39827D03*
X45810Y-38827D03*
X45810Y-37827D03*
X45810Y-36827D03*
X45810Y-35827D03*
X45810Y-34827D03*
X45810Y-32227D03*
X45810Y-31227D03*
X45810Y-30227D03*
X45810Y-29227D03*
X45810Y-28227D03*
X45810Y-27227D03*
X45810Y-26227D03*
X45810Y-25227D03*
X26810Y-34827D03*
X26810Y-33827D03*
X26810Y-32827D03*
X26810Y-31827D03*
X26810Y-30827D03*
X26810Y-29827D03*
X26810Y-28827D03*
X26810Y-27827D03*
X26810Y-43827D03*
X26810Y-42827D03*
X26810Y-41827D03*
X26810Y-40827D03*
X26810Y-39827D03*
X26810Y-38827D03*
X26810Y-37827D03*
X26810Y-36827D03*
G54D19*
X47517Y-31007D03*
X47517Y-30007D03*
X48517Y-31007D03*
X48517Y-30007D03*
X49517Y-31007D03*
X49517Y-30007D03*
X37322Y-28590D03*
X37322Y-32590D03*
X52874Y-36464D03*
X52874Y-40464D03*
X54251Y-36464D03*
X54251Y-40464D03*
X57007Y-36464D03*
X57007Y-40464D03*
X58385Y-36464D03*
X58385Y-40464D03*
X55629Y-40464D03*
X55629Y-36464D03*
X58385Y-33968D03*
X58385Y-29968D03*
X57007Y-33968D03*
X57007Y-29968D03*
X55629Y-33968D03*
X55629Y-29968D03*
X54251Y-33968D03*
X54251Y-29968D03*
X44212Y-28590D03*
X44212Y-32590D03*
X41456Y-28590D03*
X41456Y-32590D03*
X40078Y-28590D03*
X40078Y-32590D03*
X38700Y-28590D03*
X38700Y-32590D03*
X31811Y-28590D03*
X31811Y-32590D03*
X33188Y-28590D03*
X33188Y-32590D03*
X34566Y-28590D03*
X34566Y-32590D03*
X42834Y-28590D03*
X42834Y-32590D03*
X35944Y-28590D03*
X35944Y-32590D03*
G54D22*
X44827Y-36889D03*
X44227Y-36889D03*
X37687Y-40527D03*
X38287Y-40527D03*
G54D23*
X52587Y-32727D03*
X52587Y-33327D03*
X43779Y-35300D03*
X43779Y-34700D03*
G54D22*
X40103Y-40511D03*
X39503Y-40511D03*
G54D23*
X36811Y-37337D03*
X36811Y-37937D03*
G54D22*
X40192Y-33562D03*
X40792Y-33562D03*
X43787Y-39977D03*
X43187Y-39977D03*
G54D15*
X49862Y-38587D03*
X49862Y-37987D03*
X49035Y-37386D03*
X49035Y-36786D03*
G54D23*
X50688Y-35349D03*
X50688Y-35949D03*
X31870Y-35201D03*
X31870Y-34601D03*
X44448Y-35300D03*
X44448Y-34700D03*
X32519Y-34601D03*
X32519Y-35201D03*
G54D15*
X49035Y-37987D03*
X49035Y-38587D03*
G54D23*
X33169Y-34601D03*
X33169Y-35201D03*
G54D10*
G36*
X36590Y-36683D02*
X36131Y-36224D01*
X36449Y-35905D01*
X36909Y-36365D01*
X36590Y-36683D01*
X36590Y-36683D01*
G37*
G36*
X37015Y-36259D02*
X36555Y-35799D01*
X36873Y-35481D01*
X37333Y-35941D01*
X37015Y-36259D01*
X37015Y-36259D01*
G37*
G54D18*
X57948Y-29015D03*
X56948Y-29015D03*
X55948Y-29015D03*
X54948Y-29015D03*
X53948Y-29015D03*
X52948Y-29015D03*
X51948Y-29015D03*
X50948Y-29015D03*
G54D24*
X43610Y-26259D03*
G54D18*
X42330Y-24980D03*
X44889Y-24980D03*
X42330Y-27539D03*
X44889Y-27539D03*
G54D24*
X39999Y-26259D03*
G54D18*
X38720Y-24980D03*
X41279Y-24980D03*
X38720Y-27539D03*
X41279Y-27539D03*
G54D24*
X39999Y-42795D03*
G54D18*
X41279Y-44075D03*
X38720Y-44075D03*
X41279Y-41516D03*
X38720Y-41516D03*
G54D24*
X36377Y-42795D03*
G54D18*
X37657Y-44075D03*
X35098Y-44075D03*
X37657Y-41516D03*
X35098Y-41516D03*
G54D24*
X29133Y-42795D03*
G54D18*
X30413Y-44075D03*
X27854Y-44075D03*
X30413Y-41516D03*
X27854Y-41516D03*
G54D24*
X24527Y-41771D03*
G54D18*
X23248Y-43051D03*
X23248Y-40492D03*
X25807Y-43051D03*
X25807Y-40492D03*
G54D24*
X24527Y-38149D03*
G54D18*
X23248Y-39429D03*
X23248Y-36870D03*
X25807Y-39429D03*
X25807Y-36870D03*
G54D24*
X24527Y-34527D03*
G54D18*
X23248Y-35807D03*
X23248Y-33248D03*
X25807Y-35807D03*
X25807Y-33248D03*
G54D24*
X24527Y-30905D03*
G54D18*
X23248Y-32185D03*
X23248Y-29626D03*
X25807Y-32185D03*
X25807Y-29626D03*
G54D24*
X36377Y-26259D03*
G54D18*
X35098Y-24980D03*
X37657Y-24980D03*
X35098Y-27539D03*
X37657Y-27539D03*
G54D24*
X49881Y-26259D03*
G54D18*
X48602Y-24980D03*
X51161Y-24980D03*
X48602Y-27539D03*
X51161Y-27539D03*
G54D24*
X53503Y-26259D03*
G54D18*
X52224Y-24980D03*
X54783Y-24980D03*
X52224Y-27539D03*
X54783Y-27539D03*
G54D24*
X57125Y-26259D03*
G54D18*
X55846Y-24980D03*
X58405Y-24980D03*
X55846Y-27539D03*
X58405Y-27539D03*
G54D24*
X60747Y-27283D03*
G54D18*
X62027Y-26004D03*
X62027Y-28563D03*
X59468Y-26004D03*
X59468Y-28563D03*
G54D24*
X60747Y-30905D03*
G54D18*
X62027Y-29626D03*
X62027Y-32185D03*
X59468Y-29626D03*
X59468Y-32185D03*
G54D24*
X60747Y-34527D03*
G54D18*
X62027Y-33248D03*
X62027Y-35807D03*
X59468Y-33248D03*
X59468Y-35807D03*
G54D24*
X60747Y-38149D03*
G54D18*
X62027Y-36870D03*
X62027Y-39429D03*
X59468Y-36870D03*
X59468Y-39429D03*
G54D24*
X60747Y-41771D03*
G54D18*
X62027Y-40492D03*
X62027Y-43051D03*
X59468Y-40492D03*
X59468Y-43051D03*
G54D24*
X57125Y-42795D03*
G54D18*
X58405Y-44075D03*
X55846Y-44075D03*
X58405Y-41516D03*
X55846Y-41516D03*
G54D24*
X53503Y-42795D03*
G54D18*
X54783Y-44075D03*
X52224Y-44075D03*
X54783Y-41516D03*
X52224Y-41516D03*
G54D24*
X49881Y-42795D03*
G54D18*
X51161Y-44075D03*
X48602Y-44075D03*
X51161Y-41516D03*
X48602Y-41516D03*
G54D24*
X32755Y-42795D03*
G54D18*
X34035Y-44075D03*
X31476Y-44075D03*
X34035Y-41516D03*
X31476Y-41516D03*
G54D24*
X32755Y-26259D03*
G54D18*
X31476Y-24980D03*
X34035Y-24980D03*
X31476Y-27539D03*
X34035Y-27539D03*
G54D24*
X29133Y-26259D03*
G54D18*
X27854Y-24980D03*
X30413Y-24980D03*
X27854Y-27539D03*
X30413Y-27539D03*
G54D24*
X24527Y-27283D03*
G54D18*
X23248Y-28563D03*
X23248Y-26004D03*
X25807Y-28563D03*
X25807Y-26004D03*
G54D25*
X35826Y-37106D03*
X51937Y-31377D03*
X56299Y-31496D03*
X51937Y-30027D03*
X41929Y-41732D03*
X30688Y-34704D03*
X35748Y-35078D03*
X36476Y-39783D03*
X36122Y-40118D03*
X35610Y-40196D03*
X38858Y-39921D03*
X49940Y-32165D03*
X40857Y-29427D03*
X28543Y-28937D03*
X47342Y-38622D03*
X45098Y-33838D03*
X38976Y-34153D03*
X36497Y-34347D03*
X52893Y-38484D03*
X55669Y-38838D03*
X42204Y-41338D03*
X37322Y-31161D03*
X35925Y-30610D03*
X58011Y-35925D03*
X58366Y-38838D03*
X52559Y-37598D03*
X46476Y-33996D03*
X53169Y-37224D03*
X46929Y-33976D03*
X58385Y-38287D03*
X46023Y-33996D03*
X52874Y-37972D03*
X50354Y-31594D03*
X44921Y-29409D03*
X43537Y-28227D03*
X47795Y-38877D03*
X40059Y-35374D03*
X53661Y-38700D03*
X40964Y-38700D03*
X40492Y-38602D03*
X53287Y-30728D03*
X33641Y-38385D03*
X36476Y-39330D03*
X44507Y-41692D03*
X42559Y-41043D03*
X50575Y-33164D03*
X41122Y-35846D03*
X36279Y-36909D03*
X38917Y-37657D03*
X56988Y-32657D03*
X54271Y-31850D03*
X54251Y-35196D03*
X57440Y-35984D03*
X52874Y-35787D03*
X52598Y-34429D03*
X36496Y-32933D03*
X34586Y-30531D03*
X53129Y-33405D03*
X49586Y-33858D03*
X44724Y-37440D03*
X40433Y-34153D03*
X42508Y-39477D03*
X32598Y-34133D03*
X49822Y-33031D03*
X51456Y-35196D03*
G54D10*
G36*
X48158Y-27646D02*
X46447Y-27646D01*
X46447Y-26947D01*
X45857Y-26357D01*
X45857Y-24892D01*
X48158Y-24892D01*
X48158Y-27646D01*
X48158Y-27646D01*
G37*
G54D26*
X48158Y-27646D02*
X46447Y-27646D01*
X46447Y-26947D01*
X45857Y-26357D01*
X45857Y-24892D01*
X48158Y-24892D01*
X48158Y-27646D01*
G54D10*
G36*
X48217Y-44201D02*
X41683Y-44201D01*
X41683Y-42274D01*
X42863Y-42274D01*
X42863Y-43258D01*
X44400Y-43258D01*
X44400Y-42274D01*
X45372Y-42274D01*
X45550Y-42451D01*
X46103Y-42451D01*
X46280Y-42274D01*
X48217Y-42274D01*
X48217Y-44201D01*
X48217Y-44201D01*
G37*
G54D26*
X48217Y-44201D02*
X41683Y-44201D01*
X41683Y-42274D01*
X42863Y-42274D01*
X42863Y-43258D01*
X44400Y-43258D01*
X44400Y-42274D01*
X45372Y-42274D01*
X45550Y-42451D01*
X46103Y-42451D01*
X46280Y-42274D01*
X48217Y-42274D01*
X48217Y-44201D01*
M02*
