G04 (created by PCBNEW (2013-feb-26)-stable) date ven. 05 avril 2013 21:49:39 CEST*
%MOIN*%
G04 Gerber Fmt 3.4, Leading zero omitted, Abs format*
%FSLAX34Y34*%
G01*
G70*
G90*
G04 APERTURE LIST*
%ADD10C,2.3622e-06*%
%ADD11C,0.015*%
%ADD12C,0.0001*%
G04 APERTURE END LIST*
G54D10*
G54D11*
X61535Y-44370D02*
G75*
G03X62322Y-43582I0J787D01*
G74*
G01*
X22952Y-43582D02*
G75*
G03X23740Y-44370I787J0D01*
G74*
G01*
X62322Y-25472D02*
G75*
G03X61535Y-24685I-787J0D01*
G74*
G01*
X61535Y-25472D02*
G75*
G03X61535Y-25472I0J0D01*
G74*
G01*
X23740Y-24685D02*
G75*
G03X22952Y-25472I0J-787D01*
G74*
G01*
X22952Y-43582D02*
X22952Y-25472D01*
X23740Y-24684D02*
X61535Y-24684D01*
X62322Y-25472D02*
X62322Y-43582D01*
X23740Y-44370D02*
X61535Y-44370D01*
G54D12*
G36*
X26165Y-41523D02*
X26166Y-41525D01*
X26170Y-41544D01*
X26170Y-41549D01*
X26177Y-41559D01*
X26194Y-41570D01*
X26214Y-41580D01*
X26231Y-41585D01*
X26234Y-41585D01*
X26244Y-41583D01*
X26268Y-41577D01*
X26302Y-41568D01*
X26345Y-41558D01*
X26393Y-41545D01*
X26399Y-41544D01*
X26612Y-41484D01*
X26811Y-41419D01*
X26994Y-41347D01*
X27162Y-41270D01*
X27314Y-41187D01*
X27451Y-41097D01*
X27573Y-41002D01*
X27658Y-40923D01*
X27744Y-40827D01*
X27814Y-40728D01*
X27869Y-40627D01*
X27907Y-40522D01*
X27929Y-40414D01*
X27934Y-40364D01*
X27939Y-40296D01*
X28011Y-40291D01*
X28046Y-40287D01*
X28092Y-40282D01*
X28144Y-40276D01*
X28196Y-40269D01*
X28212Y-40267D01*
X28262Y-40259D01*
X28299Y-40253D01*
X28325Y-40247D01*
X28342Y-40241D01*
X28353Y-40235D01*
X28358Y-40230D01*
X28369Y-40210D01*
X28381Y-40173D01*
X28393Y-40121D01*
X28405Y-40054D01*
X28413Y-40003D01*
X28417Y-39955D01*
X28419Y-39898D01*
X28419Y-39836D01*
X28417Y-39770D01*
X28412Y-39703D01*
X28406Y-39637D01*
X28399Y-39576D01*
X28390Y-39520D01*
X28380Y-39473D01*
X28370Y-39437D01*
X28359Y-39414D01*
X28355Y-39410D01*
X28332Y-39398D01*
X28295Y-39388D01*
X28246Y-39378D01*
X28188Y-39370D01*
X28121Y-39364D01*
X28050Y-39359D01*
X27976Y-39356D01*
X27902Y-39356D01*
X27829Y-39357D01*
X27794Y-39359D01*
X27716Y-39365D01*
X27643Y-39371D01*
X27578Y-39378D01*
X27522Y-39386D01*
X27478Y-39393D01*
X27446Y-39401D01*
X27431Y-39407D01*
X27415Y-39426D01*
X27401Y-39462D01*
X27391Y-39514D01*
X27383Y-39581D01*
X27378Y-39664D01*
X27376Y-39763D01*
X27376Y-39802D01*
X27377Y-39870D01*
X27380Y-39938D01*
X27384Y-40005D01*
X27388Y-40066D01*
X27394Y-40121D01*
X27400Y-40167D01*
X27406Y-40201D01*
X27412Y-40219D01*
X27427Y-40236D01*
X27437Y-40244D01*
X27458Y-40252D01*
X27493Y-40261D01*
X27497Y-40261D01*
X27497Y-39800D01*
X27497Y-39738D01*
X27499Y-39679D01*
X27501Y-39626D01*
X27503Y-39581D01*
X27506Y-39548D01*
X27510Y-39531D01*
X27514Y-39520D01*
X27520Y-39512D01*
X27532Y-39506D01*
X27553Y-39502D01*
X27585Y-39496D01*
X27600Y-39494D01*
X27637Y-39490D01*
X27686Y-39487D01*
X27744Y-39485D01*
X27808Y-39483D01*
X27876Y-39482D01*
X27945Y-39482D01*
X28012Y-39483D01*
X28075Y-39484D01*
X28130Y-39486D01*
X28175Y-39489D01*
X28207Y-39493D01*
X28216Y-39495D01*
X28266Y-39506D01*
X28281Y-39594D01*
X28289Y-39650D01*
X28294Y-39716D01*
X28297Y-39787D01*
X28298Y-39861D01*
X28296Y-39931D01*
X28292Y-39995D01*
X28285Y-40049D01*
X28282Y-40069D01*
X28266Y-40140D01*
X28216Y-40146D01*
X28141Y-40155D01*
X28079Y-40163D01*
X28027Y-40168D01*
X27981Y-40172D01*
X27937Y-40174D01*
X27891Y-40176D01*
X27847Y-40176D01*
X27776Y-40175D01*
X27708Y-40172D01*
X27650Y-40167D01*
X27628Y-40164D01*
X27591Y-40158D01*
X27559Y-40152D01*
X27536Y-40147D01*
X27529Y-40144D01*
X27523Y-40138D01*
X27518Y-40126D01*
X27513Y-40106D01*
X27509Y-40075D01*
X27505Y-40031D01*
X27503Y-40017D01*
X27500Y-39973D01*
X27498Y-39920D01*
X27497Y-39861D01*
X27497Y-39800D01*
X27497Y-40261D01*
X27537Y-40270D01*
X27588Y-40278D01*
X27641Y-40286D01*
X27694Y-40292D01*
X27713Y-40294D01*
X27752Y-40297D01*
X27785Y-40300D01*
X27807Y-40303D01*
X27817Y-40305D01*
X27818Y-40315D01*
X27817Y-40337D01*
X27813Y-40367D01*
X27808Y-40402D01*
X27802Y-40438D01*
X27796Y-40469D01*
X27790Y-40493D01*
X27754Y-40588D01*
X27702Y-40682D01*
X27634Y-40773D01*
X27551Y-40860D01*
X27453Y-40945D01*
X27341Y-41026D01*
X27216Y-41103D01*
X27077Y-41176D01*
X26926Y-41244D01*
X26762Y-41307D01*
X26587Y-41365D01*
X26401Y-41418D01*
X26378Y-41424D01*
X26318Y-41439D01*
X26272Y-41452D01*
X26238Y-41462D01*
X26213Y-41470D01*
X26196Y-41478D01*
X26185Y-41486D01*
X26180Y-41491D01*
X26168Y-41509D01*
X26165Y-41523D01*
X26165Y-41523D01*
X26165Y-41523D01*
G37*
G36*
X36963Y-40158D02*
X36964Y-40230D01*
X36967Y-40301D01*
X36971Y-40369D01*
X36976Y-40432D01*
X36982Y-40488D01*
X36989Y-40534D01*
X36996Y-40569D01*
X37005Y-40590D01*
X37006Y-40592D01*
X37024Y-40603D01*
X37054Y-40615D01*
X37080Y-40621D01*
X37080Y-40162D01*
X37080Y-40110D01*
X37081Y-40060D01*
X37085Y-40007D01*
X37085Y-40004D01*
X37089Y-39960D01*
X37093Y-39923D01*
X37097Y-39894D01*
X37101Y-39878D01*
X37102Y-39876D01*
X37113Y-39871D01*
X37139Y-39867D01*
X37175Y-39861D01*
X37220Y-39856D01*
X37271Y-39850D01*
X37325Y-39846D01*
X37380Y-39842D01*
X37431Y-39839D01*
X37435Y-39839D01*
X37488Y-39837D01*
X37545Y-39838D01*
X37604Y-39840D01*
X37662Y-39843D01*
X37717Y-39847D01*
X37766Y-39852D01*
X37806Y-39858D01*
X37835Y-39864D01*
X37850Y-39870D01*
X37850Y-39871D01*
X37852Y-39880D01*
X37857Y-39902D01*
X37863Y-39935D01*
X37869Y-39975D01*
X37871Y-39986D01*
X37878Y-40035D01*
X37883Y-40079D01*
X37885Y-40122D01*
X37885Y-40170D01*
X37884Y-40228D01*
X37884Y-40240D01*
X37882Y-40294D01*
X37878Y-40347D01*
X37873Y-40396D01*
X37867Y-40439D01*
X37861Y-40472D01*
X37855Y-40493D01*
X37852Y-40498D01*
X37842Y-40501D01*
X37820Y-40505D01*
X37787Y-40510D01*
X37747Y-40515D01*
X37705Y-40521D01*
X37661Y-40526D01*
X37621Y-40531D01*
X37588Y-40534D01*
X37587Y-40534D01*
X37460Y-40542D01*
X37345Y-40540D01*
X37291Y-40536D01*
X37249Y-40531D01*
X37204Y-40525D01*
X37166Y-40519D01*
X37161Y-40518D01*
X37142Y-40515D01*
X37128Y-40512D01*
X37117Y-40507D01*
X37109Y-40499D01*
X37103Y-40484D01*
X37098Y-40462D01*
X37095Y-40430D01*
X37092Y-40387D01*
X37088Y-40330D01*
X37086Y-40291D01*
X37082Y-40221D01*
X37080Y-40162D01*
X37080Y-40621D01*
X37096Y-40626D01*
X37145Y-40636D01*
X37198Y-40646D01*
X37253Y-40653D01*
X37306Y-40658D01*
X37355Y-40660D01*
X37356Y-40660D01*
X37383Y-40661D01*
X37397Y-40663D01*
X37403Y-40670D01*
X37404Y-40683D01*
X37404Y-40683D01*
X37410Y-40717D01*
X37429Y-40757D01*
X37462Y-40805D01*
X37507Y-40862D01*
X37524Y-40880D01*
X37563Y-40925D01*
X37592Y-40961D01*
X37613Y-40992D01*
X37628Y-41021D01*
X37639Y-41051D01*
X37647Y-41085D01*
X37649Y-41091D01*
X37659Y-41128D01*
X37671Y-41152D01*
X37680Y-41162D01*
X37695Y-41172D01*
X37703Y-41176D01*
X37714Y-41173D01*
X37724Y-41171D01*
X37749Y-41161D01*
X37763Y-41145D01*
X37769Y-41119D01*
X37768Y-41085D01*
X37760Y-41034D01*
X37746Y-40986D01*
X37723Y-40938D01*
X37689Y-40888D01*
X37645Y-40834D01*
X37611Y-40796D01*
X37580Y-40760D01*
X37553Y-40727D01*
X37534Y-40698D01*
X37523Y-40677D01*
X37522Y-40665D01*
X37522Y-40664D01*
X37531Y-40662D01*
X37554Y-40658D01*
X37585Y-40655D01*
X37612Y-40652D01*
X37672Y-40646D01*
X37731Y-40639D01*
X37788Y-40631D01*
X37838Y-40624D01*
X37880Y-40617D01*
X37909Y-40611D01*
X37918Y-40609D01*
X37933Y-40603D01*
X37945Y-40595D01*
X37954Y-40582D01*
X37962Y-40560D01*
X37970Y-40527D01*
X37977Y-40493D01*
X37991Y-40417D01*
X38001Y-40336D01*
X38008Y-40256D01*
X38010Y-40181D01*
X38008Y-40135D01*
X38005Y-40094D01*
X37999Y-40044D01*
X37992Y-39990D01*
X37984Y-39934D01*
X37976Y-39883D01*
X37968Y-39839D01*
X37961Y-39808D01*
X37954Y-39790D01*
X37943Y-39775D01*
X37925Y-39764D01*
X37897Y-39755D01*
X37857Y-39746D01*
X37816Y-39738D01*
X37767Y-39732D01*
X37706Y-39727D01*
X37637Y-39724D01*
X37562Y-39723D01*
X37483Y-39723D01*
X37403Y-39724D01*
X37324Y-39727D01*
X37249Y-39731D01*
X37180Y-39737D01*
X37119Y-39743D01*
X37070Y-39751D01*
X37034Y-39759D01*
X37027Y-39761D01*
X37014Y-39769D01*
X37003Y-39781D01*
X36994Y-39800D01*
X36987Y-39828D01*
X36980Y-39869D01*
X36973Y-39913D01*
X36968Y-39964D01*
X36965Y-40023D01*
X36963Y-40089D01*
X36963Y-40158D01*
X36963Y-40158D01*
X36963Y-40158D01*
G37*
G36*
X55958Y-39335D02*
X55959Y-39425D01*
X55961Y-39507D01*
X55965Y-39582D01*
X55970Y-39646D01*
X55977Y-39699D01*
X55984Y-39739D01*
X55992Y-39762D01*
X56000Y-39773D01*
X56011Y-39782D01*
X56028Y-39790D01*
X56055Y-39798D01*
X56073Y-39802D01*
X56073Y-39325D01*
X56073Y-39266D01*
X56075Y-39211D01*
X56078Y-39169D01*
X56083Y-39128D01*
X56088Y-39093D01*
X56093Y-39068D01*
X56098Y-39056D01*
X56098Y-39055D01*
X56113Y-39049D01*
X56142Y-39043D01*
X56183Y-39037D01*
X56234Y-39032D01*
X56292Y-39028D01*
X56355Y-39024D01*
X56421Y-39022D01*
X56486Y-39020D01*
X56550Y-39019D01*
X56610Y-39020D01*
X56662Y-39022D01*
X56706Y-39025D01*
X56716Y-39026D01*
X56765Y-39033D01*
X56799Y-39037D01*
X56822Y-39042D01*
X56835Y-39047D01*
X56843Y-39054D01*
X56846Y-39063D01*
X56849Y-39075D01*
X56849Y-39076D01*
X56862Y-39156D01*
X56871Y-39225D01*
X56876Y-39287D01*
X56879Y-39346D01*
X56880Y-39381D01*
X56879Y-39431D01*
X56875Y-39484D01*
X56871Y-39537D01*
X56865Y-39585D01*
X56858Y-39626D01*
X56850Y-39656D01*
X56846Y-39668D01*
X56839Y-39674D01*
X56826Y-39680D01*
X56802Y-39685D01*
X56767Y-39691D01*
X56719Y-39697D01*
X56675Y-39702D01*
X56636Y-39707D01*
X56605Y-39711D01*
X56586Y-39713D01*
X56583Y-39714D01*
X56554Y-39716D01*
X56513Y-39718D01*
X56462Y-39718D01*
X56406Y-39718D01*
X56349Y-39716D01*
X56295Y-39713D01*
X56247Y-39710D01*
X56209Y-39707D01*
X56200Y-39705D01*
X56164Y-39699D01*
X56133Y-39693D01*
X56112Y-39689D01*
X56105Y-39686D01*
X56099Y-39674D01*
X56093Y-39648D01*
X56087Y-39610D01*
X56083Y-39562D01*
X56079Y-39507D01*
X56076Y-39448D01*
X56074Y-39386D01*
X56073Y-39325D01*
X56073Y-39802D01*
X56093Y-39807D01*
X56131Y-39815D01*
X56159Y-39820D01*
X56200Y-39826D01*
X56247Y-39831D01*
X56296Y-39836D01*
X56341Y-39840D01*
X56379Y-39843D01*
X56397Y-39844D01*
X56404Y-39845D01*
X56406Y-39852D01*
X56402Y-39867D01*
X56394Y-39894D01*
X56391Y-39904D01*
X56375Y-39953D01*
X56359Y-40014D01*
X56341Y-40083D01*
X56324Y-40157D01*
X56307Y-40231D01*
X56294Y-40301D01*
X56292Y-40312D01*
X56280Y-40379D01*
X56270Y-40452D01*
X56260Y-40533D01*
X56251Y-40624D01*
X56243Y-40727D01*
X56234Y-40844D01*
X56233Y-40860D01*
X56228Y-40933D01*
X56225Y-40991D01*
X56222Y-41037D01*
X56221Y-41071D01*
X56221Y-41097D01*
X56223Y-41115D01*
X56226Y-41127D01*
X56230Y-41136D01*
X56236Y-41143D01*
X56237Y-41144D01*
X56261Y-41157D01*
X56289Y-41159D01*
X56313Y-41150D01*
X56320Y-41144D01*
X56325Y-41136D01*
X56329Y-41124D01*
X56333Y-41107D01*
X56337Y-41081D01*
X56340Y-41046D01*
X56343Y-40999D01*
X56348Y-40938D01*
X56349Y-40910D01*
X56359Y-40768D01*
X56370Y-40640D01*
X56382Y-40524D01*
X56396Y-40418D01*
X56411Y-40320D01*
X56429Y-40228D01*
X56449Y-40139D01*
X56473Y-40051D01*
X56499Y-39962D01*
X56512Y-39921D01*
X56540Y-39837D01*
X56603Y-39832D01*
X56653Y-39827D01*
X56705Y-39821D01*
X56759Y-39814D01*
X56809Y-39806D01*
X56855Y-39798D01*
X56891Y-39791D01*
X56917Y-39784D01*
X56926Y-39781D01*
X56941Y-39764D01*
X56954Y-39735D01*
X56958Y-39725D01*
X56981Y-39620D01*
X56995Y-39505D01*
X56999Y-39383D01*
X56994Y-39256D01*
X56979Y-39128D01*
X56976Y-39107D01*
X56966Y-39051D01*
X56956Y-39007D01*
X56948Y-38976D01*
X56941Y-38960D01*
X56940Y-38959D01*
X56918Y-38945D01*
X56882Y-38932D01*
X56832Y-38921D01*
X56772Y-38912D01*
X56702Y-38906D01*
X56625Y-38901D01*
X56542Y-38899D01*
X56456Y-38899D01*
X56368Y-38902D01*
X56281Y-38907D01*
X56195Y-38915D01*
X56178Y-38917D01*
X56129Y-38923D01*
X56086Y-38929D01*
X56051Y-38934D01*
X56027Y-38938D01*
X56017Y-38940D01*
X56001Y-38952D01*
X55988Y-38975D01*
X55978Y-39011D01*
X55970Y-39059D01*
X55964Y-39121D01*
X55960Y-39198D01*
X55958Y-39289D01*
X55958Y-39335D01*
X55958Y-39335D01*
X55958Y-39335D01*
G37*
G36*
X52975Y-39540D02*
X52975Y-39620D01*
X52977Y-39697D01*
X52981Y-39769D01*
X52985Y-39833D01*
X52991Y-39888D01*
X52997Y-39930D01*
X53004Y-39958D01*
X53005Y-39961D01*
X53017Y-39980D01*
X53028Y-39992D01*
X53048Y-39999D01*
X53080Y-40008D01*
X53089Y-40009D01*
X53089Y-39545D01*
X53089Y-39491D01*
X53091Y-39438D01*
X53094Y-39398D01*
X53098Y-39355D01*
X53102Y-39316D01*
X53105Y-39287D01*
X53108Y-39269D01*
X53108Y-39266D01*
X53119Y-39259D01*
X53144Y-39253D01*
X53182Y-39246D01*
X53230Y-39241D01*
X53287Y-39236D01*
X53349Y-39232D01*
X53416Y-39230D01*
X53484Y-39229D01*
X53553Y-39229D01*
X53579Y-39229D01*
X53645Y-39231D01*
X53706Y-39235D01*
X53760Y-39239D01*
X53805Y-39243D01*
X53837Y-39248D01*
X53857Y-39253D01*
X53860Y-39255D01*
X53862Y-39264D01*
X53866Y-39285D01*
X53871Y-39317D01*
X53878Y-39356D01*
X53879Y-39364D01*
X53890Y-39455D01*
X53896Y-39551D01*
X53896Y-39647D01*
X53889Y-39736D01*
X53884Y-39780D01*
X53877Y-39816D01*
X53870Y-39848D01*
X53865Y-39870D01*
X53862Y-39877D01*
X53856Y-39883D01*
X53844Y-39888D01*
X53822Y-39893D01*
X53790Y-39898D01*
X53743Y-39904D01*
X53727Y-39906D01*
X53682Y-39911D01*
X53642Y-39915D01*
X53611Y-39919D01*
X53591Y-39922D01*
X53587Y-39923D01*
X53568Y-39924D01*
X53537Y-39926D01*
X53495Y-39926D01*
X53448Y-39926D01*
X53399Y-39925D01*
X53350Y-39924D01*
X53307Y-39923D01*
X53272Y-39920D01*
X53251Y-39918D01*
X53214Y-39913D01*
X53178Y-39906D01*
X53153Y-39901D01*
X53139Y-39898D01*
X53129Y-39895D01*
X53121Y-39890D01*
X53115Y-39881D01*
X53111Y-39865D01*
X53107Y-39841D01*
X53104Y-39808D01*
X53101Y-39762D01*
X53097Y-39703D01*
X53095Y-39675D01*
X53091Y-39604D01*
X53089Y-39545D01*
X53089Y-40009D01*
X53123Y-40017D01*
X53174Y-40026D01*
X53228Y-40034D01*
X53284Y-40041D01*
X53338Y-40047D01*
X53386Y-40051D01*
X53417Y-40052D01*
X53424Y-40060D01*
X53432Y-40081D01*
X53443Y-40114D01*
X53455Y-40154D01*
X53466Y-40201D01*
X53477Y-40250D01*
X53484Y-40281D01*
X53495Y-40369D01*
X53498Y-40470D01*
X53492Y-40583D01*
X53478Y-40707D01*
X53476Y-40719D01*
X53462Y-40824D01*
X53452Y-40915D01*
X53447Y-40990D01*
X53447Y-41050D01*
X53452Y-41096D01*
X53461Y-41129D01*
X53471Y-41144D01*
X53496Y-41159D01*
X53523Y-41158D01*
X53547Y-41145D01*
X53553Y-41138D01*
X53560Y-41128D01*
X53565Y-41115D01*
X53568Y-41097D01*
X53570Y-41070D01*
X53570Y-41032D01*
X53570Y-41007D01*
X53573Y-40928D01*
X53580Y-40842D01*
X53592Y-40752D01*
X53610Y-40612D01*
X53616Y-40482D01*
X53613Y-40361D01*
X53599Y-40246D01*
X53574Y-40134D01*
X53568Y-40113D01*
X53549Y-40046D01*
X53612Y-40040D01*
X53661Y-40035D01*
X53714Y-40029D01*
X53768Y-40022D01*
X53819Y-40014D01*
X53865Y-40007D01*
X53903Y-39999D01*
X53931Y-39993D01*
X53943Y-39989D01*
X53957Y-39972D01*
X53971Y-39940D01*
X53984Y-39896D01*
X53995Y-39841D01*
X54005Y-39777D01*
X54012Y-39707D01*
X54017Y-39641D01*
X54018Y-39589D01*
X54016Y-39531D01*
X54012Y-39469D01*
X54006Y-39407D01*
X53999Y-39346D01*
X53990Y-39289D01*
X53980Y-39240D01*
X53970Y-39200D01*
X53959Y-39172D01*
X53952Y-39160D01*
X53931Y-39149D01*
X53896Y-39138D01*
X53848Y-39128D01*
X53791Y-39120D01*
X53726Y-39114D01*
X53655Y-39109D01*
X53581Y-39106D01*
X53506Y-39105D01*
X53433Y-39107D01*
X53389Y-39109D01*
X53330Y-39113D01*
X53269Y-39118D01*
X53210Y-39124D01*
X53154Y-39130D01*
X53105Y-39136D01*
X53067Y-39142D01*
X53040Y-39147D01*
X53035Y-39148D01*
X53019Y-39160D01*
X53006Y-39182D01*
X52995Y-39218D01*
X52986Y-39266D01*
X52980Y-39329D01*
X52976Y-39406D01*
X52975Y-39499D01*
X52975Y-39540D01*
X52975Y-39540D01*
X52975Y-39540D01*
G37*
G36*
X39709Y-40215D02*
X39711Y-40284D01*
X39713Y-40354D01*
X39717Y-40421D01*
X39721Y-40483D01*
X39727Y-40539D01*
X39733Y-40584D01*
X39739Y-40618D01*
X39746Y-40636D01*
X39754Y-40648D01*
X39768Y-40658D01*
X39789Y-40666D01*
X39822Y-40675D01*
X39829Y-40676D01*
X39829Y-40179D01*
X39830Y-40110D01*
X39833Y-40049D01*
X39837Y-40000D01*
X39837Y-39994D01*
X39841Y-39962D01*
X39845Y-39937D01*
X39847Y-39923D01*
X39848Y-39922D01*
X39856Y-39920D01*
X39878Y-39917D01*
X39911Y-39913D01*
X39952Y-39909D01*
X39974Y-39906D01*
X40038Y-39900D01*
X40108Y-39895D01*
X40181Y-39893D01*
X40254Y-39892D01*
X40327Y-39892D01*
X40395Y-39894D01*
X40457Y-39898D01*
X40511Y-39903D01*
X40553Y-39909D01*
X40582Y-39917D01*
X40588Y-39919D01*
X40595Y-39929D01*
X40602Y-39950D01*
X40609Y-39985D01*
X40617Y-40029D01*
X40626Y-40105D01*
X40631Y-40188D01*
X40632Y-40273D01*
X40630Y-40355D01*
X40623Y-40429D01*
X40617Y-40468D01*
X40611Y-40502D01*
X40605Y-40530D01*
X40601Y-40547D01*
X40600Y-40550D01*
X40590Y-40553D01*
X40567Y-40557D01*
X40534Y-40562D01*
X40495Y-40568D01*
X40451Y-40573D01*
X40407Y-40579D01*
X40367Y-40583D01*
X40353Y-40585D01*
X40267Y-40590D01*
X40176Y-40592D01*
X40086Y-40590D01*
X40005Y-40584D01*
X39983Y-40581D01*
X39934Y-40575D01*
X39898Y-40569D01*
X39874Y-40562D01*
X39858Y-40551D01*
X39849Y-40535D01*
X39844Y-40510D01*
X39840Y-40475D01*
X39838Y-40451D01*
X39834Y-40392D01*
X39831Y-40324D01*
X39829Y-40252D01*
X39829Y-40179D01*
X39829Y-40676D01*
X39845Y-40680D01*
X39933Y-40696D01*
X40010Y-40706D01*
X40082Y-40710D01*
X40099Y-40710D01*
X40170Y-40710D01*
X40170Y-40734D01*
X40165Y-40756D01*
X40152Y-40781D01*
X40147Y-40787D01*
X40111Y-40835D01*
X40083Y-40871D01*
X40063Y-40900D01*
X40049Y-40924D01*
X40038Y-40944D01*
X40029Y-40964D01*
X40028Y-40967D01*
X40018Y-41002D01*
X40009Y-41043D01*
X40006Y-41071D01*
X40004Y-41103D01*
X40005Y-41123D01*
X40011Y-41137D01*
X40016Y-41144D01*
X40038Y-41157D01*
X40066Y-41160D01*
X40093Y-41152D01*
X40103Y-41144D01*
X40116Y-41123D01*
X40120Y-41105D01*
X40122Y-41084D01*
X40128Y-41055D01*
X40133Y-41035D01*
X40140Y-41015D01*
X40149Y-40994D01*
X40163Y-40971D01*
X40182Y-40943D01*
X40208Y-40908D01*
X40244Y-40863D01*
X40248Y-40857D01*
X40275Y-40814D01*
X40291Y-40768D01*
X40295Y-40738D01*
X40296Y-40723D01*
X40301Y-40715D01*
X40314Y-40710D01*
X40340Y-40707D01*
X40343Y-40706D01*
X40402Y-40699D01*
X40461Y-40692D01*
X40518Y-40685D01*
X40570Y-40677D01*
X40614Y-40670D01*
X40648Y-40665D01*
X40668Y-40660D01*
X40672Y-40659D01*
X40686Y-40651D01*
X40697Y-40637D01*
X40707Y-40614D01*
X40717Y-40580D01*
X40723Y-40552D01*
X40741Y-40444D01*
X40751Y-40327D01*
X40752Y-40205D01*
X40744Y-40082D01*
X40729Y-39973D01*
X40720Y-39923D01*
X40714Y-39887D01*
X40708Y-39862D01*
X40703Y-39845D01*
X40698Y-39835D01*
X40692Y-39829D01*
X40684Y-39823D01*
X40683Y-39822D01*
X40656Y-39810D01*
X40616Y-39800D01*
X40563Y-39790D01*
X40501Y-39782D01*
X40432Y-39776D01*
X40358Y-39772D01*
X40282Y-39770D01*
X40206Y-39771D01*
X40183Y-39771D01*
X40127Y-39774D01*
X40068Y-39778D01*
X40007Y-39783D01*
X39947Y-39789D01*
X39891Y-39796D01*
X39842Y-39802D01*
X39802Y-39808D01*
X39774Y-39814D01*
X39763Y-39818D01*
X39748Y-39835D01*
X39735Y-39868D01*
X39725Y-39916D01*
X39717Y-39979D01*
X39712Y-40057D01*
X39710Y-40149D01*
X39709Y-40215D01*
X39709Y-40215D01*
X39709Y-40215D01*
G37*
G36*
X49266Y-40172D02*
X49267Y-40246D01*
X49268Y-40321D01*
X49271Y-40392D01*
X49275Y-40459D01*
X49280Y-40518D01*
X49286Y-40568D01*
X49292Y-40604D01*
X49297Y-40620D01*
X49311Y-40640D01*
X49327Y-40651D01*
X49362Y-40662D01*
X49384Y-40667D01*
X49384Y-40222D01*
X49384Y-40158D01*
X49386Y-40096D01*
X49388Y-40040D01*
X49391Y-39992D01*
X49395Y-39954D01*
X49399Y-39928D01*
X49402Y-39921D01*
X49414Y-39915D01*
X49439Y-39909D01*
X49477Y-39903D01*
X49524Y-39898D01*
X49578Y-39893D01*
X49636Y-39889D01*
X49697Y-39885D01*
X49758Y-39883D01*
X49808Y-39882D01*
X49869Y-39883D01*
X49930Y-39885D01*
X49989Y-39888D01*
X50042Y-39892D01*
X50087Y-39897D01*
X50121Y-39902D01*
X50141Y-39908D01*
X50144Y-39909D01*
X50152Y-39922D01*
X50159Y-39949D01*
X50167Y-39987D01*
X50174Y-40033D01*
X50180Y-40086D01*
X50184Y-40141D01*
X50188Y-40197D01*
X50189Y-40251D01*
X50189Y-40300D01*
X50187Y-40337D01*
X50181Y-40392D01*
X50175Y-40441D01*
X50168Y-40483D01*
X50161Y-40514D01*
X50156Y-40532D01*
X50155Y-40533D01*
X50144Y-40539D01*
X50119Y-40545D01*
X50083Y-40552D01*
X50038Y-40560D01*
X49986Y-40567D01*
X49931Y-40574D01*
X49895Y-40577D01*
X49845Y-40581D01*
X49785Y-40582D01*
X49718Y-40581D01*
X49650Y-40579D01*
X49586Y-40576D01*
X49528Y-40571D01*
X49483Y-40565D01*
X49450Y-40559D01*
X49424Y-40554D01*
X49409Y-40550D01*
X49407Y-40549D01*
X49405Y-40541D01*
X49402Y-40519D01*
X49399Y-40488D01*
X49395Y-40457D01*
X49391Y-40406D01*
X49388Y-40349D01*
X49385Y-40286D01*
X49384Y-40222D01*
X49384Y-40667D01*
X49408Y-40673D01*
X49462Y-40683D01*
X49520Y-40691D01*
X49576Y-40698D01*
X49627Y-40701D01*
X49650Y-40702D01*
X49704Y-40702D01*
X49703Y-40733D01*
X49702Y-40751D01*
X49701Y-40783D01*
X49698Y-40824D01*
X49695Y-40873D01*
X49692Y-40926D01*
X49692Y-40927D01*
X49689Y-40978D01*
X49687Y-41025D01*
X49686Y-41064D01*
X49686Y-41092D01*
X49688Y-41107D01*
X49688Y-41108D01*
X49704Y-41130D01*
X49729Y-41141D01*
X49757Y-41141D01*
X49773Y-41134D01*
X49788Y-41120D01*
X49795Y-41108D01*
X49797Y-41094D01*
X49800Y-41067D01*
X49804Y-41028D01*
X49807Y-40981D01*
X49811Y-40927D01*
X49812Y-40896D01*
X49823Y-40703D01*
X49886Y-40698D01*
X49933Y-40693D01*
X49984Y-40687D01*
X50037Y-40680D01*
X50090Y-40673D01*
X50139Y-40665D01*
X50181Y-40658D01*
X50214Y-40651D01*
X50235Y-40646D01*
X50242Y-40643D01*
X50253Y-40626D01*
X50265Y-40591D01*
X50278Y-40540D01*
X50292Y-40473D01*
X50293Y-40469D01*
X50301Y-40402D01*
X50306Y-40325D01*
X50308Y-40240D01*
X50305Y-40153D01*
X50299Y-40068D01*
X50289Y-39991D01*
X50288Y-39985D01*
X50278Y-39927D01*
X50270Y-39883D01*
X50261Y-39851D01*
X50251Y-39828D01*
X50238Y-39813D01*
X50221Y-39803D01*
X50197Y-39796D01*
X50167Y-39790D01*
X50161Y-39789D01*
X50067Y-39775D01*
X49960Y-39766D01*
X49845Y-39762D01*
X49723Y-39764D01*
X49599Y-39770D01*
X49475Y-39782D01*
X49454Y-39785D01*
X49399Y-39792D01*
X49358Y-39799D01*
X49329Y-39808D01*
X49310Y-39820D01*
X49297Y-39838D01*
X49289Y-39863D01*
X49282Y-39898D01*
X49278Y-39928D01*
X49273Y-39976D01*
X49270Y-40035D01*
X49267Y-40101D01*
X49266Y-40172D01*
X49266Y-40172D01*
X49266Y-40172D01*
G37*
G36*
X32367Y-39623D02*
X32369Y-39712D01*
X32373Y-39799D01*
X32380Y-39881D01*
X32389Y-39955D01*
X32396Y-39999D01*
X32404Y-40029D01*
X32417Y-40047D01*
X32423Y-40050D01*
X32454Y-40062D01*
X32487Y-40071D01*
X32487Y-39574D01*
X32488Y-39514D01*
X32490Y-39459D01*
X32494Y-39412D01*
X32496Y-39394D01*
X32500Y-39361D01*
X32504Y-39336D01*
X32507Y-39321D01*
X32508Y-39320D01*
X32520Y-39315D01*
X32546Y-39311D01*
X32584Y-39306D01*
X32632Y-39302D01*
X32686Y-39297D01*
X32745Y-39293D01*
X32806Y-39290D01*
X32862Y-39288D01*
X32932Y-39287D01*
X32990Y-39287D01*
X33039Y-39288D01*
X33083Y-39290D01*
X33126Y-39295D01*
X33145Y-39297D01*
X33185Y-39303D01*
X33219Y-39309D01*
X33243Y-39315D01*
X33254Y-39320D01*
X33254Y-39320D01*
X33259Y-39335D01*
X33265Y-39364D01*
X33272Y-39402D01*
X33278Y-39447D01*
X33284Y-39496D01*
X33288Y-39544D01*
X33292Y-39590D01*
X33293Y-39606D01*
X33291Y-39735D01*
X33275Y-39868D01*
X33268Y-39903D01*
X33259Y-39950D01*
X33142Y-39964D01*
X33098Y-39969D01*
X33059Y-39974D01*
X33029Y-39978D01*
X33010Y-39981D01*
X33008Y-39981D01*
X32988Y-39983D01*
X32955Y-39983D01*
X32912Y-39983D01*
X32861Y-39983D01*
X32807Y-39982D01*
X32751Y-39980D01*
X32698Y-39978D01*
X32650Y-39975D01*
X32611Y-39973D01*
X32583Y-39970D01*
X32574Y-39969D01*
X32546Y-39962D01*
X32524Y-39954D01*
X32515Y-39949D01*
X32509Y-39935D01*
X32503Y-39906D01*
X32499Y-39866D01*
X32495Y-39817D01*
X32491Y-39760D01*
X32489Y-39699D01*
X32488Y-39636D01*
X32487Y-39574D01*
X32487Y-40071D01*
X32499Y-40074D01*
X32555Y-40085D01*
X32620Y-40095D01*
X32690Y-40103D01*
X32742Y-40107D01*
X32818Y-40112D01*
X32823Y-40180D01*
X32827Y-40216D01*
X32834Y-40261D01*
X32843Y-40311D01*
X32853Y-40356D01*
X32877Y-40455D01*
X32896Y-40540D01*
X32912Y-40612D01*
X32924Y-40675D01*
X32933Y-40731D01*
X32939Y-40780D01*
X32943Y-40826D01*
X32945Y-40871D01*
X32945Y-40899D01*
X32944Y-40943D01*
X32942Y-40987D01*
X32938Y-41025D01*
X32936Y-41040D01*
X32931Y-41083D01*
X32935Y-41113D01*
X32949Y-41131D01*
X32973Y-41141D01*
X32984Y-41142D01*
X33009Y-41142D01*
X33023Y-41136D01*
X33032Y-41125D01*
X33046Y-41094D01*
X33056Y-41049D01*
X33063Y-40993D01*
X33067Y-40930D01*
X33066Y-40862D01*
X33062Y-40805D01*
X33055Y-40742D01*
X33044Y-40671D01*
X33028Y-40588D01*
X33009Y-40494D01*
X32984Y-40386D01*
X32975Y-40348D01*
X32964Y-40299D01*
X32954Y-40250D01*
X32946Y-40206D01*
X32941Y-40172D01*
X32940Y-40164D01*
X32935Y-40105D01*
X33009Y-40099D01*
X33059Y-40095D01*
X33112Y-40089D01*
X33167Y-40082D01*
X33218Y-40075D01*
X33265Y-40067D01*
X33303Y-40059D01*
X33330Y-40053D01*
X33342Y-40048D01*
X33352Y-40040D01*
X33360Y-40028D01*
X33367Y-40010D01*
X33374Y-39983D01*
X33382Y-39945D01*
X33392Y-39894D01*
X33396Y-39868D01*
X33403Y-39827D01*
X33407Y-39791D01*
X33410Y-39755D01*
X33411Y-39715D01*
X33411Y-39668D01*
X33409Y-39610D01*
X33406Y-39545D01*
X33401Y-39480D01*
X33395Y-39417D01*
X33387Y-39359D01*
X33378Y-39307D01*
X33369Y-39266D01*
X33360Y-39236D01*
X33351Y-39221D01*
X33333Y-39211D01*
X33299Y-39201D01*
X33250Y-39191D01*
X33187Y-39181D01*
X33152Y-39177D01*
X33106Y-39173D01*
X33049Y-39170D01*
X32985Y-39169D01*
X32916Y-39169D01*
X32843Y-39171D01*
X32769Y-39174D01*
X32697Y-39178D01*
X32629Y-39183D01*
X32566Y-39189D01*
X32512Y-39195D01*
X32468Y-39202D01*
X32436Y-39209D01*
X32423Y-39215D01*
X32408Y-39231D01*
X32397Y-39254D01*
X32396Y-39258D01*
X32385Y-39310D01*
X32377Y-39376D01*
X32371Y-39452D01*
X32368Y-39535D01*
X32367Y-39623D01*
X32367Y-39623D01*
X32367Y-39623D01*
G37*
G36*
X28809Y-39622D02*
X28811Y-39711D01*
X28815Y-39798D01*
X28821Y-39880D01*
X28830Y-39954D01*
X28838Y-39999D01*
X28844Y-40023D01*
X28852Y-40039D01*
X28868Y-40051D01*
X28892Y-40061D01*
X28930Y-40071D01*
X28930Y-39632D01*
X28930Y-39569D01*
X28931Y-39508D01*
X28934Y-39451D01*
X28937Y-39402D01*
X28941Y-39362D01*
X28947Y-39333D01*
X28954Y-39319D01*
X28954Y-39318D01*
X28972Y-39312D01*
X29004Y-39307D01*
X29048Y-39303D01*
X29101Y-39299D01*
X29162Y-39296D01*
X29228Y-39293D01*
X29297Y-39292D01*
X29366Y-39291D01*
X29433Y-39291D01*
X29496Y-39293D01*
X29552Y-39295D01*
X29600Y-39298D01*
X29636Y-39302D01*
X29641Y-39303D01*
X29699Y-39315D01*
X29714Y-39402D01*
X29731Y-39543D01*
X29735Y-39677D01*
X29725Y-39808D01*
X29710Y-39903D01*
X29701Y-39950D01*
X29583Y-39964D01*
X29540Y-39969D01*
X29501Y-39974D01*
X29470Y-39978D01*
X29452Y-39980D01*
X29449Y-39981D01*
X29421Y-39983D01*
X29380Y-39984D01*
X29330Y-39985D01*
X29274Y-39984D01*
X29217Y-39983D01*
X29161Y-39981D01*
X29111Y-39978D01*
X29070Y-39975D01*
X29050Y-39972D01*
X29014Y-39966D01*
X28983Y-39959D01*
X28963Y-39953D01*
X28957Y-39949D01*
X28950Y-39934D01*
X28944Y-39905D01*
X28939Y-39864D01*
X28935Y-39814D01*
X28932Y-39757D01*
X28930Y-39696D01*
X28930Y-39632D01*
X28930Y-40071D01*
X28930Y-40071D01*
X28933Y-40072D01*
X29002Y-40087D01*
X29074Y-40097D01*
X29152Y-40103D01*
X29241Y-40105D01*
X29251Y-40105D01*
X29304Y-40106D01*
X29342Y-40107D01*
X29368Y-40109D01*
X29383Y-40112D01*
X29390Y-40116D01*
X29391Y-40118D01*
X29397Y-40141D01*
X29402Y-40179D01*
X29406Y-40228D01*
X29409Y-40286D01*
X29410Y-40349D01*
X29410Y-40416D01*
X29410Y-40469D01*
X29404Y-40595D01*
X29392Y-40707D01*
X29376Y-40807D01*
X29353Y-40897D01*
X29323Y-40979D01*
X29307Y-41016D01*
X29293Y-41047D01*
X29283Y-41074D01*
X29279Y-41091D01*
X29278Y-41093D01*
X29286Y-41116D01*
X29304Y-41133D01*
X29329Y-41142D01*
X29355Y-41143D01*
X29377Y-41133D01*
X29380Y-41129D01*
X29403Y-41096D01*
X29427Y-41048D01*
X29449Y-40989D01*
X29470Y-40920D01*
X29489Y-40845D01*
X29503Y-40773D01*
X29515Y-40690D01*
X29524Y-40598D01*
X29529Y-40500D01*
X29532Y-40402D01*
X29530Y-40308D01*
X29526Y-40220D01*
X29518Y-40144D01*
X29515Y-40129D01*
X29513Y-40107D01*
X29516Y-40095D01*
X29518Y-40094D01*
X29539Y-40092D01*
X29571Y-40088D01*
X29609Y-40083D01*
X29652Y-40076D01*
X29693Y-40069D01*
X29731Y-40061D01*
X29761Y-40055D01*
X29780Y-40050D01*
X29784Y-40048D01*
X29793Y-40040D01*
X29801Y-40028D01*
X29809Y-40010D01*
X29816Y-39983D01*
X29824Y-39945D01*
X29833Y-39894D01*
X29838Y-39868D01*
X29844Y-39827D01*
X29849Y-39791D01*
X29852Y-39755D01*
X29853Y-39715D01*
X29852Y-39668D01*
X29851Y-39610D01*
X29848Y-39545D01*
X29843Y-39480D01*
X29836Y-39417D01*
X29828Y-39359D01*
X29820Y-39307D01*
X29811Y-39266D01*
X29801Y-39236D01*
X29793Y-39221D01*
X29775Y-39211D01*
X29741Y-39201D01*
X29692Y-39191D01*
X29628Y-39181D01*
X29594Y-39177D01*
X29547Y-39173D01*
X29491Y-39170D01*
X29427Y-39169D01*
X29357Y-39169D01*
X29285Y-39171D01*
X29211Y-39174D01*
X29139Y-39178D01*
X29070Y-39183D01*
X29008Y-39189D01*
X28953Y-39195D01*
X28909Y-39202D01*
X28878Y-39209D01*
X28864Y-39215D01*
X28850Y-39231D01*
X28839Y-39254D01*
X28838Y-39258D01*
X28827Y-39310D01*
X28819Y-39376D01*
X28813Y-39452D01*
X28810Y-39535D01*
X28809Y-39622D01*
X28809Y-39622D01*
X28809Y-39622D01*
G37*
G36*
X57260Y-39548D02*
X57261Y-39621D01*
X57264Y-39693D01*
X57268Y-39761D01*
X57273Y-39824D01*
X57280Y-39878D01*
X57287Y-39921D01*
X57294Y-39952D01*
X57300Y-39966D01*
X57318Y-39981D01*
X57353Y-39995D01*
X57380Y-40002D01*
X57380Y-39556D01*
X57381Y-39480D01*
X57382Y-39469D01*
X57383Y-39415D01*
X57386Y-39366D01*
X57388Y-39324D01*
X57390Y-39292D01*
X57392Y-39274D01*
X57392Y-39272D01*
X57397Y-39246D01*
X57539Y-39231D01*
X57599Y-39226D01*
X57655Y-39222D01*
X57713Y-39220D01*
X57776Y-39220D01*
X57850Y-39221D01*
X57869Y-39221D01*
X57951Y-39224D01*
X58017Y-39227D01*
X58068Y-39232D01*
X58105Y-39237D01*
X58131Y-39243D01*
X58144Y-39251D01*
X58146Y-39253D01*
X58153Y-39272D01*
X58160Y-39305D01*
X58167Y-39348D01*
X58173Y-39399D01*
X58177Y-39454D01*
X58181Y-39510D01*
X58182Y-39565D01*
X58182Y-39581D01*
X58181Y-39639D01*
X58178Y-39696D01*
X58174Y-39749D01*
X58168Y-39797D01*
X58161Y-39836D01*
X58153Y-39863D01*
X58145Y-39877D01*
X58145Y-39877D01*
X58133Y-39881D01*
X58104Y-39885D01*
X58061Y-39891D01*
X58001Y-39899D01*
X57928Y-39908D01*
X57883Y-39913D01*
X57844Y-39916D01*
X57794Y-39918D01*
X57735Y-39918D01*
X57674Y-39916D01*
X57615Y-39914D01*
X57561Y-39911D01*
X57519Y-39906D01*
X57514Y-39906D01*
X57476Y-39899D01*
X57443Y-39893D01*
X57420Y-39888D01*
X57412Y-39885D01*
X57404Y-39873D01*
X57397Y-39846D01*
X57391Y-39806D01*
X57386Y-39755D01*
X57383Y-39695D01*
X57381Y-39628D01*
X57380Y-39556D01*
X57380Y-40002D01*
X57405Y-40009D01*
X57472Y-40021D01*
X57517Y-40027D01*
X57565Y-40032D01*
X57625Y-40034D01*
X57695Y-40035D01*
X57771Y-40033D01*
X57849Y-40031D01*
X57926Y-40026D01*
X57997Y-40021D01*
X58060Y-40014D01*
X58076Y-40012D01*
X58131Y-40003D01*
X58171Y-39997D01*
X58200Y-39992D01*
X58220Y-39987D01*
X58233Y-39981D01*
X58241Y-39975D01*
X58247Y-39967D01*
X58248Y-39966D01*
X58255Y-39947D01*
X58264Y-39916D01*
X58274Y-39875D01*
X58283Y-39828D01*
X58291Y-39780D01*
X58298Y-39733D01*
X58302Y-39691D01*
X58304Y-39659D01*
X58305Y-39636D01*
X58309Y-39623D01*
X58320Y-39618D01*
X58330Y-39616D01*
X58388Y-39611D01*
X58441Y-39620D01*
X58486Y-39642D01*
X58515Y-39669D01*
X58526Y-39685D01*
X58543Y-39714D01*
X58564Y-39751D01*
X58587Y-39795D01*
X58611Y-39843D01*
X58613Y-39846D01*
X58638Y-39895D01*
X58662Y-39941D01*
X58683Y-39982D01*
X58701Y-40013D01*
X58714Y-40034D01*
X58714Y-40034D01*
X58778Y-40113D01*
X58853Y-40180D01*
X58939Y-40235D01*
X58976Y-40252D01*
X59014Y-40268D01*
X59043Y-40275D01*
X59065Y-40274D01*
X59084Y-40265D01*
X59088Y-40262D01*
X59102Y-40241D01*
X59107Y-40214D01*
X59101Y-40189D01*
X59096Y-40182D01*
X59085Y-40174D01*
X59062Y-40160D01*
X59032Y-40144D01*
X59009Y-40132D01*
X58963Y-40107D01*
X58923Y-40081D01*
X58887Y-40051D01*
X58854Y-40015D01*
X58822Y-39972D01*
X58788Y-39919D01*
X58753Y-39854D01*
X58714Y-39776D01*
X58709Y-39766D01*
X58682Y-39711D01*
X58660Y-39668D01*
X58641Y-39636D01*
X58625Y-39611D01*
X58608Y-39590D01*
X58593Y-39573D01*
X58551Y-39537D01*
X58506Y-39513D01*
X58455Y-39499D01*
X58393Y-39494D01*
X58379Y-39494D01*
X58305Y-39494D01*
X58300Y-39446D01*
X58295Y-39407D01*
X58288Y-39362D01*
X58281Y-39315D01*
X58274Y-39270D01*
X58266Y-39229D01*
X58260Y-39196D01*
X58255Y-39175D01*
X58253Y-39170D01*
X58244Y-39157D01*
X58228Y-39145D01*
X58202Y-39136D01*
X58165Y-39126D01*
X58114Y-39117D01*
X58091Y-39114D01*
X58021Y-39106D01*
X57938Y-39101D01*
X57846Y-39099D01*
X57749Y-39099D01*
X57651Y-39103D01*
X57555Y-39109D01*
X57477Y-39117D01*
X57428Y-39123D01*
X57384Y-39130D01*
X57348Y-39136D01*
X57323Y-39140D01*
X57312Y-39144D01*
X57298Y-39160D01*
X57286Y-39192D01*
X57276Y-39238D01*
X57269Y-39299D01*
X57263Y-39372D01*
X57260Y-39458D01*
X57260Y-39548D01*
X57260Y-39548D01*
X57260Y-39548D01*
G37*
G36*
X39754Y-38854D02*
X39756Y-38881D01*
X39767Y-38937D01*
X39791Y-38987D01*
X39809Y-39008D01*
X39809Y-38862D01*
X39818Y-38845D01*
X39820Y-38844D01*
X39837Y-38843D01*
X39859Y-38853D01*
X39885Y-38873D01*
X39912Y-38899D01*
X39937Y-38930D01*
X39958Y-38963D01*
X39963Y-38973D01*
X39974Y-39001D01*
X39977Y-39018D01*
X39971Y-39029D01*
X39960Y-39034D01*
X39939Y-39039D01*
X39919Y-39033D01*
X39894Y-39018D01*
X39884Y-39009D01*
X39857Y-38982D01*
X39836Y-38951D01*
X39819Y-38918D01*
X39810Y-38887D01*
X39809Y-38862D01*
X39809Y-39008D01*
X39830Y-39033D01*
X39837Y-39039D01*
X39876Y-39068D01*
X39914Y-39087D01*
X39948Y-39094D01*
X39977Y-39088D01*
X39987Y-39081D01*
X39994Y-39076D01*
X39998Y-39078D01*
X40003Y-39088D01*
X40007Y-39109D01*
X40013Y-39143D01*
X40015Y-39157D01*
X40024Y-39209D01*
X40033Y-39246D01*
X40043Y-39269D01*
X40054Y-39278D01*
X40066Y-39276D01*
X40077Y-39267D01*
X40082Y-39259D01*
X40085Y-39249D01*
X40085Y-39233D01*
X40082Y-39208D01*
X40076Y-39173D01*
X40066Y-39124D01*
X40066Y-39123D01*
X40056Y-39067D01*
X40047Y-39003D01*
X40041Y-38942D01*
X40040Y-38919D01*
X40036Y-38866D01*
X40033Y-38828D01*
X40028Y-38802D01*
X40022Y-38786D01*
X40013Y-38779D01*
X40004Y-38777D01*
X39985Y-38784D01*
X39975Y-38806D01*
X39973Y-38841D01*
X39975Y-38859D01*
X39981Y-38906D01*
X39951Y-38868D01*
X39915Y-38829D01*
X39878Y-38802D01*
X39842Y-38787D01*
X39808Y-38786D01*
X39779Y-38798D01*
X39770Y-38806D01*
X39760Y-38819D01*
X39755Y-38833D01*
X39754Y-38854D01*
X39754Y-38854D01*
X39754Y-38854D01*
G37*
G36*
X34329Y-38839D02*
X34333Y-38860D01*
X34341Y-38886D01*
X34347Y-38908D01*
X34354Y-38943D01*
X34361Y-38984D01*
X34367Y-39026D01*
X34378Y-39099D01*
X34394Y-39156D01*
X34395Y-39159D01*
X34395Y-38867D01*
X34398Y-38850D01*
X34409Y-38844D01*
X34415Y-38844D01*
X34439Y-38850D01*
X34466Y-38867D01*
X34494Y-38891D01*
X34519Y-38920D01*
X34541Y-38951D01*
X34556Y-38980D01*
X34561Y-39005D01*
X34558Y-39018D01*
X34550Y-39026D01*
X34537Y-39025D01*
X34515Y-39016D01*
X34505Y-39011D01*
X34472Y-38988D01*
X34441Y-38958D01*
X34415Y-38923D01*
X34399Y-38890D01*
X34395Y-38867D01*
X34395Y-39159D01*
X34413Y-39199D01*
X34438Y-39230D01*
X34469Y-39248D01*
X34507Y-39257D01*
X34511Y-39257D01*
X34541Y-39257D01*
X34571Y-39252D01*
X34577Y-39249D01*
X34604Y-39236D01*
X34630Y-39217D01*
X34653Y-39197D01*
X34667Y-39178D01*
X34670Y-39168D01*
X34667Y-39156D01*
X34657Y-39153D01*
X34638Y-39159D01*
X34608Y-39174D01*
X34602Y-39177D01*
X34555Y-39197D01*
X34515Y-39204D01*
X34483Y-39196D01*
X34459Y-39173D01*
X34458Y-39173D01*
X34447Y-39149D01*
X34436Y-39114D01*
X34426Y-39077D01*
X34421Y-39042D01*
X34420Y-39029D01*
X34420Y-39000D01*
X34451Y-39027D01*
X34492Y-39057D01*
X34530Y-39074D01*
X34563Y-39077D01*
X34590Y-39070D01*
X34609Y-39051D01*
X34617Y-39023D01*
X34614Y-38986D01*
X34601Y-38949D01*
X34576Y-38906D01*
X34544Y-38869D01*
X34507Y-38837D01*
X34468Y-38813D01*
X34429Y-38798D01*
X34393Y-38792D01*
X34362Y-38799D01*
X34345Y-38810D01*
X34334Y-38824D01*
X34329Y-38839D01*
X34329Y-38839D01*
X34329Y-38839D01*
G37*
G36*
X39248Y-38680D02*
X39252Y-38693D01*
X39263Y-38714D01*
X39284Y-38744D01*
X39285Y-38745D01*
X39304Y-38772D01*
X39329Y-38809D01*
X39359Y-38853D01*
X39391Y-38901D01*
X39420Y-38944D01*
X39449Y-38987D01*
X39476Y-39027D01*
X39498Y-39061D01*
X39515Y-39085D01*
X39524Y-39099D01*
X39525Y-39100D01*
X39541Y-39115D01*
X39556Y-39118D01*
X39567Y-39107D01*
X39567Y-39107D01*
X39568Y-39096D01*
X39564Y-39081D01*
X39554Y-39059D01*
X39537Y-39029D01*
X39514Y-38990D01*
X39483Y-38941D01*
X39442Y-38881D01*
X39415Y-38840D01*
X39375Y-38781D01*
X39343Y-38735D01*
X39317Y-38700D01*
X39298Y-38677D01*
X39283Y-38662D01*
X39271Y-38656D01*
X39262Y-38658D01*
X39254Y-38665D01*
X39251Y-38670D01*
X39248Y-38680D01*
X39248Y-38680D01*
X39248Y-38680D01*
G37*
G36*
X38931Y-38676D02*
X38932Y-38686D01*
X38938Y-38700D01*
X38949Y-38720D01*
X38967Y-38748D01*
X38992Y-38784D01*
X39025Y-38832D01*
X39045Y-38861D01*
X39078Y-38908D01*
X39110Y-38955D01*
X39138Y-38998D01*
X39162Y-39034D01*
X39178Y-39060D01*
X39179Y-39062D01*
X39202Y-39096D01*
X39221Y-39115D01*
X39236Y-39120D01*
X39247Y-39109D01*
X39248Y-39107D01*
X39247Y-39093D01*
X39241Y-39072D01*
X39237Y-39064D01*
X39228Y-39047D01*
X39212Y-39019D01*
X39189Y-38983D01*
X39161Y-38941D01*
X39131Y-38895D01*
X39100Y-38847D01*
X39068Y-38801D01*
X39038Y-38758D01*
X39012Y-38720D01*
X38991Y-38690D01*
X38976Y-38671D01*
X38970Y-38665D01*
X38957Y-38654D01*
X38947Y-38655D01*
X38939Y-38663D01*
X38934Y-38669D01*
X38931Y-38676D01*
X38931Y-38676D01*
X38931Y-38676D01*
G37*
G36*
X34005Y-38679D02*
X34006Y-38685D01*
X34009Y-38693D01*
X34017Y-38707D01*
X34029Y-38726D01*
X34047Y-38753D01*
X34072Y-38789D01*
X34103Y-38835D01*
X34143Y-38893D01*
X34158Y-38915D01*
X34187Y-38956D01*
X34214Y-38997D01*
X34239Y-39034D01*
X34257Y-39063D01*
X34262Y-39071D01*
X34283Y-39100D01*
X34301Y-39117D01*
X34316Y-39119D01*
X34325Y-39107D01*
X34326Y-39098D01*
X34322Y-39083D01*
X34312Y-39062D01*
X34296Y-39034D01*
X34274Y-38997D01*
X34243Y-38949D01*
X34204Y-38889D01*
X34185Y-38860D01*
X34143Y-38798D01*
X34110Y-38749D01*
X34084Y-38711D01*
X34063Y-38684D01*
X34047Y-38666D01*
X34035Y-38657D01*
X34026Y-38654D01*
X34019Y-38658D01*
X34012Y-38666D01*
X34009Y-38671D01*
X34006Y-38675D01*
X34005Y-38679D01*
X34005Y-38679D01*
X34005Y-38679D01*
G37*
G36*
X38773Y-38642D02*
X38773Y-38669D01*
X38780Y-38708D01*
X38792Y-38760D01*
X38802Y-38804D01*
X38809Y-38845D01*
X38813Y-38889D01*
X38816Y-38941D01*
X38817Y-38967D01*
X38819Y-39019D01*
X38822Y-39060D01*
X38825Y-39087D01*
X38829Y-39099D01*
X38845Y-39110D01*
X38861Y-39104D01*
X38871Y-39087D01*
X38876Y-39065D01*
X38877Y-39029D01*
X38875Y-38982D01*
X38872Y-38928D01*
X38865Y-38868D01*
X38857Y-38806D01*
X38853Y-38785D01*
X38842Y-38724D01*
X38831Y-38679D01*
X38819Y-38648D01*
X38806Y-38630D01*
X38793Y-38623D01*
X38791Y-38623D01*
X38779Y-38627D01*
X38773Y-38642D01*
X38773Y-38642D01*
X38773Y-38642D01*
G37*
G36*
X40621Y-39059D02*
X40630Y-39070D01*
X40634Y-39072D01*
X40658Y-39074D01*
X40679Y-39061D01*
X40695Y-39033D01*
X40706Y-38991D01*
X40709Y-38967D01*
X40713Y-38936D01*
X40718Y-38908D01*
X40722Y-38894D01*
X40729Y-38874D01*
X40755Y-38899D01*
X40769Y-38916D01*
X40790Y-38943D01*
X40813Y-38977D01*
X40830Y-39004D01*
X40856Y-39046D01*
X40877Y-39074D01*
X40893Y-39090D01*
X40906Y-39096D01*
X40918Y-39094D01*
X40925Y-39090D01*
X40931Y-39085D01*
X40934Y-39079D01*
X40935Y-39068D01*
X40934Y-39051D01*
X40931Y-39024D01*
X40925Y-38986D01*
X40918Y-38938D01*
X40909Y-38886D01*
X40901Y-38833D01*
X40894Y-38785D01*
X40888Y-38747D01*
X40886Y-38731D01*
X40878Y-38686D01*
X40868Y-38653D01*
X40856Y-38632D01*
X40846Y-38627D01*
X40834Y-38632D01*
X40824Y-38641D01*
X40817Y-38654D01*
X40814Y-38674D01*
X40816Y-38704D01*
X40823Y-38745D01*
X40835Y-38799D01*
X40840Y-38819D01*
X40849Y-38858D01*
X40858Y-38896D01*
X40864Y-38926D01*
X40865Y-38935D01*
X40868Y-38957D01*
X40867Y-38965D01*
X40862Y-38960D01*
X40860Y-38957D01*
X40820Y-38900D01*
X40785Y-38858D01*
X40755Y-38830D01*
X40728Y-38814D01*
X40710Y-38810D01*
X40693Y-38818D01*
X40679Y-38841D01*
X40667Y-38880D01*
X40661Y-38914D01*
X40655Y-38951D01*
X40646Y-38985D01*
X40637Y-39010D01*
X40636Y-39012D01*
X40624Y-39041D01*
X40621Y-39059D01*
X40621Y-39059D01*
X40621Y-39059D01*
G37*
G36*
X40073Y-38816D02*
X40075Y-38829D01*
X40086Y-38839D01*
X40113Y-38846D01*
X40127Y-38848D01*
X40165Y-38852D01*
X40190Y-38857D01*
X40204Y-38863D01*
X40213Y-38872D01*
X40218Y-38887D01*
X40220Y-38893D01*
X40233Y-38951D01*
X40239Y-38996D01*
X40236Y-39026D01*
X40224Y-39041D01*
X40214Y-39044D01*
X40199Y-39039D01*
X40177Y-39028D01*
X40162Y-39019D01*
X40141Y-39006D01*
X40124Y-38999D01*
X40119Y-38999D01*
X40112Y-39011D01*
X40117Y-39029D01*
X40131Y-39050D01*
X40152Y-39070D01*
X40177Y-39087D01*
X40191Y-39094D01*
X40223Y-39099D01*
X40254Y-39095D01*
X40278Y-39081D01*
X40282Y-39075D01*
X40292Y-39050D01*
X40294Y-39014D01*
X40291Y-38969D01*
X40282Y-38923D01*
X40275Y-38891D01*
X40272Y-38873D01*
X40274Y-38864D01*
X40283Y-38861D01*
X40299Y-38860D01*
X40300Y-38860D01*
X40322Y-38857D01*
X40334Y-38849D01*
X40341Y-38841D01*
X40357Y-38842D01*
X40364Y-38844D01*
X40392Y-38850D01*
X40421Y-38852D01*
X40445Y-38854D01*
X40462Y-38864D01*
X40475Y-38882D01*
X40485Y-38913D01*
X40491Y-38938D01*
X40499Y-38985D01*
X40500Y-39019D01*
X40492Y-39038D01*
X40475Y-39044D01*
X40450Y-39036D01*
X40421Y-39019D01*
X40395Y-39003D01*
X40379Y-38999D01*
X40371Y-39008D01*
X40370Y-39018D01*
X40377Y-39036D01*
X40396Y-39056D01*
X40423Y-39076D01*
X40453Y-39092D01*
X40482Y-39101D01*
X40494Y-39102D01*
X40512Y-39097D01*
X40532Y-39084D01*
X40533Y-39083D01*
X40547Y-39069D01*
X40553Y-39053D01*
X40555Y-39029D01*
X40555Y-39018D01*
X40553Y-38985D01*
X40548Y-38945D01*
X40543Y-38917D01*
X40531Y-38860D01*
X40562Y-38860D01*
X40587Y-38857D01*
X40599Y-38847D01*
X40599Y-38829D01*
X40584Y-38816D01*
X40555Y-38809D01*
X40551Y-38809D01*
X40516Y-38806D01*
X40500Y-38750D01*
X40486Y-38713D01*
X40472Y-38691D01*
X40456Y-38686D01*
X40444Y-38690D01*
X40440Y-38702D01*
X40439Y-38724D01*
X40443Y-38754D01*
X40450Y-38784D01*
X40452Y-38794D01*
X40449Y-38799D01*
X40437Y-38801D01*
X40414Y-38801D01*
X40399Y-38801D01*
X40370Y-38801D01*
X40349Y-38803D01*
X40339Y-38807D01*
X40330Y-38811D01*
X40310Y-38812D01*
X40296Y-38812D01*
X40255Y-38809D01*
X40240Y-38754D01*
X40226Y-38715D01*
X40212Y-38693D01*
X40196Y-38687D01*
X40182Y-38695D01*
X40174Y-38706D01*
X40173Y-38721D01*
X40178Y-38743D01*
X40185Y-38768D01*
X40191Y-38787D01*
X40192Y-38790D01*
X40192Y-38797D01*
X40184Y-38800D01*
X40163Y-38801D01*
X40142Y-38801D01*
X40104Y-38802D01*
X40082Y-38807D01*
X40073Y-38816D01*
X40073Y-38816D01*
X40073Y-38816D01*
G37*
G36*
X38492Y-38987D02*
X38493Y-39002D01*
X38505Y-39024D01*
X38523Y-39045D01*
X38560Y-39074D01*
X38601Y-39093D01*
X38643Y-39101D01*
X38680Y-39096D01*
X38694Y-39090D01*
X38719Y-39069D01*
X38733Y-39036D01*
X38737Y-38997D01*
X38729Y-38936D01*
X38705Y-38879D01*
X38676Y-38839D01*
X38643Y-38808D01*
X38610Y-38788D01*
X38579Y-38778D01*
X38553Y-38780D01*
X38533Y-38793D01*
X38522Y-38816D01*
X38520Y-38833D01*
X38527Y-38864D01*
X38549Y-38897D01*
X38576Y-38922D01*
X38576Y-38839D01*
X38582Y-38830D01*
X38599Y-38833D01*
X38604Y-38835D01*
X38619Y-38848D01*
X38637Y-38868D01*
X38654Y-38892D01*
X38667Y-38913D01*
X38670Y-38925D01*
X38665Y-38928D01*
X38651Y-38922D01*
X38632Y-38909D01*
X38612Y-38893D01*
X38595Y-38876D01*
X38583Y-38860D01*
X38582Y-38859D01*
X38576Y-38839D01*
X38576Y-38922D01*
X38586Y-38931D01*
X38618Y-38955D01*
X38652Y-38979D01*
X38671Y-38998D01*
X38678Y-39014D01*
X38673Y-39029D01*
X38668Y-39034D01*
X38647Y-39044D01*
X38618Y-39043D01*
X38585Y-39031D01*
X38551Y-39009D01*
X38542Y-39002D01*
X38517Y-38984D01*
X38501Y-38980D01*
X38492Y-38987D01*
X38492Y-38987D01*
X38492Y-38987D01*
G37*
G36*
X38191Y-38909D02*
X38192Y-38943D01*
X38195Y-38966D01*
X38202Y-38985D01*
X38214Y-39006D01*
X38219Y-39013D01*
X38239Y-39035D01*
X38239Y-38899D01*
X38247Y-38872D01*
X38262Y-38853D01*
X38283Y-38844D01*
X38308Y-38846D01*
X38334Y-38863D01*
X38344Y-38873D01*
X38365Y-38904D01*
X38381Y-38941D01*
X38389Y-38977D01*
X38389Y-39008D01*
X38387Y-39015D01*
X38372Y-39040D01*
X38356Y-39049D01*
X38347Y-39048D01*
X38332Y-39044D01*
X38328Y-39044D01*
X38314Y-39037D01*
X38295Y-39021D01*
X38275Y-39000D01*
X38258Y-38977D01*
X38253Y-38968D01*
X38240Y-38931D01*
X38239Y-38899D01*
X38239Y-39035D01*
X38256Y-39056D01*
X38299Y-39085D01*
X38346Y-39099D01*
X38349Y-39100D01*
X38373Y-39101D01*
X38389Y-39097D01*
X38406Y-39084D01*
X38417Y-39074D01*
X38433Y-39057D01*
X38442Y-39043D01*
X38445Y-39026D01*
X38445Y-39001D01*
X38444Y-38987D01*
X38435Y-38935D01*
X38418Y-38889D01*
X38393Y-38850D01*
X38363Y-38819D01*
X38329Y-38798D01*
X38294Y-38789D01*
X38259Y-38792D01*
X38226Y-38810D01*
X38215Y-38820D01*
X38203Y-38834D01*
X38195Y-38848D01*
X38192Y-38867D01*
X38191Y-38896D01*
X38191Y-38909D01*
X38191Y-38909D01*
X38191Y-38909D01*
G37*
G36*
X37837Y-39059D02*
X37844Y-39080D01*
X37865Y-39093D01*
X37893Y-39097D01*
X37908Y-39096D01*
X37922Y-39090D01*
X37938Y-39078D01*
X37959Y-39058D01*
X37980Y-39035D01*
X38005Y-39007D01*
X38022Y-38990D01*
X38034Y-38982D01*
X38042Y-38981D01*
X38049Y-38986D01*
X38053Y-38989D01*
X38065Y-39006D01*
X38070Y-39033D01*
X38070Y-39043D01*
X38072Y-39069D01*
X38077Y-39088D01*
X38080Y-39092D01*
X38096Y-39100D01*
X38115Y-39101D01*
X38129Y-39094D01*
X38131Y-39091D01*
X38132Y-39077D01*
X38130Y-39053D01*
X38128Y-39039D01*
X38124Y-39017D01*
X38119Y-38982D01*
X38114Y-38938D01*
X38108Y-38889D01*
X38103Y-38848D01*
X38097Y-38797D01*
X38091Y-38750D01*
X38085Y-38711D01*
X38081Y-38681D01*
X38078Y-38667D01*
X38067Y-38643D01*
X38052Y-38631D01*
X38036Y-38630D01*
X38025Y-38641D01*
X38020Y-38662D01*
X38022Y-38676D01*
X38026Y-38702D01*
X38032Y-38736D01*
X38036Y-38762D01*
X38044Y-38804D01*
X38051Y-38845D01*
X38057Y-38880D01*
X38059Y-38893D01*
X38064Y-38938D01*
X38040Y-38921D01*
X38017Y-38902D01*
X37995Y-38881D01*
X37961Y-38847D01*
X37928Y-38821D01*
X37898Y-38803D01*
X37874Y-38796D01*
X37856Y-38798D01*
X37850Y-38806D01*
X37848Y-38821D01*
X37854Y-38835D01*
X37871Y-38852D01*
X37900Y-38873D01*
X37912Y-38881D01*
X37946Y-38904D01*
X37968Y-38921D01*
X37978Y-38934D01*
X37978Y-38947D01*
X37969Y-38961D01*
X37953Y-38980D01*
X37915Y-39016D01*
X37881Y-39038D01*
X37854Y-39044D01*
X37840Y-39049D01*
X37837Y-39059D01*
X37837Y-39059D01*
X37837Y-39059D01*
G37*
G36*
X37562Y-38997D02*
X37571Y-39018D01*
X37587Y-39040D01*
X37593Y-39046D01*
X37634Y-39078D01*
X37677Y-39096D01*
X37720Y-39101D01*
X37759Y-39092D01*
X37764Y-39089D01*
X37783Y-39075D01*
X37795Y-39061D01*
X37801Y-39039D01*
X37803Y-39008D01*
X37802Y-38972D01*
X37798Y-38938D01*
X37791Y-38914D01*
X37769Y-38872D01*
X37741Y-38835D01*
X37710Y-38807D01*
X37678Y-38787D01*
X37647Y-38777D01*
X37619Y-38780D01*
X37601Y-38792D01*
X37588Y-38818D01*
X37589Y-38847D01*
X37604Y-38880D01*
X37632Y-38913D01*
X37642Y-38922D01*
X37642Y-38837D01*
X37645Y-38833D01*
X37656Y-38831D01*
X37674Y-38840D01*
X37694Y-38857D01*
X37714Y-38878D01*
X37729Y-38900D01*
X37736Y-38920D01*
X37737Y-38925D01*
X37732Y-38929D01*
X37718Y-38923D01*
X37698Y-38908D01*
X37675Y-38886D01*
X37662Y-38872D01*
X37646Y-38851D01*
X37642Y-38837D01*
X37642Y-38922D01*
X37670Y-38945D01*
X37714Y-38973D01*
X37739Y-38988D01*
X37748Y-39002D01*
X37745Y-39018D01*
X37740Y-39026D01*
X37721Y-39040D01*
X37694Y-39043D01*
X37662Y-39036D01*
X37630Y-39020D01*
X37603Y-38997D01*
X37587Y-38983D01*
X37573Y-38977D01*
X37573Y-38977D01*
X37563Y-38983D01*
X37562Y-38997D01*
X37562Y-38997D01*
X37562Y-38997D01*
G37*
G36*
X36762Y-38982D02*
X36763Y-38997D01*
X36772Y-39017D01*
X36791Y-39040D01*
X36799Y-39049D01*
X36839Y-39079D01*
X36882Y-39097D01*
X36925Y-39101D01*
X36958Y-39094D01*
X36985Y-39075D01*
X37002Y-39045D01*
X37009Y-39006D01*
X37007Y-38963D01*
X36996Y-38917D01*
X36974Y-38872D01*
X36962Y-38853D01*
X36933Y-38820D01*
X36901Y-38797D01*
X36870Y-38783D01*
X36841Y-38778D01*
X36817Y-38783D01*
X36800Y-38797D01*
X36792Y-38820D01*
X36795Y-38853D01*
X36796Y-38855D01*
X36811Y-38883D01*
X36840Y-38915D01*
X36846Y-38920D01*
X36846Y-38837D01*
X36850Y-38828D01*
X36863Y-38829D01*
X36884Y-38842D01*
X36899Y-38857D01*
X36916Y-38878D01*
X36931Y-38901D01*
X36942Y-38920D01*
X36945Y-38929D01*
X36940Y-38931D01*
X36925Y-38925D01*
X36906Y-38912D01*
X36886Y-38895D01*
X36869Y-38879D01*
X36852Y-38855D01*
X36846Y-38837D01*
X36846Y-38920D01*
X36880Y-38948D01*
X36912Y-38970D01*
X36939Y-38988D01*
X36951Y-39004D01*
X36950Y-39018D01*
X36940Y-39031D01*
X36916Y-39044D01*
X36885Y-39042D01*
X36849Y-39027D01*
X36812Y-39001D01*
X36792Y-38986D01*
X36776Y-38978D01*
X36772Y-38977D01*
X36762Y-38982D01*
X36762Y-38982D01*
X36762Y-38982D01*
G37*
G36*
X36520Y-38799D02*
X36526Y-38815D01*
X36547Y-38825D01*
X36562Y-38827D01*
X36606Y-38837D01*
X36639Y-38856D01*
X36649Y-38865D01*
X36657Y-38882D01*
X36649Y-38901D01*
X36625Y-38920D01*
X36613Y-38927D01*
X36569Y-38953D01*
X36541Y-38980D01*
X36529Y-39006D01*
X36528Y-39014D01*
X36532Y-39036D01*
X36545Y-39055D01*
X36570Y-39072D01*
X36587Y-39081D01*
X36612Y-39091D01*
X36644Y-39097D01*
X36677Y-39100D01*
X36707Y-39100D01*
X36729Y-39096D01*
X36735Y-39093D01*
X36744Y-39075D01*
X36741Y-39060D01*
X36736Y-39056D01*
X36723Y-39052D01*
X36700Y-39050D01*
X36676Y-39048D01*
X36640Y-39045D01*
X36610Y-39038D01*
X36589Y-39028D01*
X36581Y-39018D01*
X36581Y-39015D01*
X36589Y-39007D01*
X36608Y-38993D01*
X36634Y-38978D01*
X36634Y-38977D01*
X36662Y-38961D01*
X36685Y-38946D01*
X36698Y-38936D01*
X36709Y-38918D01*
X36711Y-38891D01*
X36706Y-38862D01*
X36698Y-38844D01*
X36679Y-38821D01*
X36651Y-38800D01*
X36619Y-38784D01*
X36586Y-38773D01*
X36557Y-38770D01*
X36536Y-38775D01*
X36530Y-38780D01*
X36520Y-38799D01*
X36520Y-38799D01*
X36520Y-38799D01*
G37*
G36*
X35697Y-38792D02*
X35698Y-38811D01*
X35709Y-38841D01*
X35721Y-38863D01*
X35736Y-38894D01*
X35752Y-38933D01*
X35768Y-38973D01*
X35770Y-38979D01*
X35784Y-39019D01*
X35794Y-39047D01*
X35801Y-39064D01*
X35808Y-39073D01*
X35816Y-39076D01*
X35826Y-39077D01*
X35830Y-39077D01*
X35857Y-39069D01*
X35882Y-39046D01*
X35903Y-39009D01*
X35906Y-39000D01*
X35917Y-38972D01*
X35927Y-38945D01*
X35929Y-38940D01*
X35938Y-38915D01*
X35979Y-38994D01*
X35998Y-39028D01*
X36015Y-39058D01*
X36028Y-39079D01*
X36034Y-39087D01*
X36054Y-39100D01*
X36074Y-39097D01*
X36093Y-39078D01*
X36095Y-39076D01*
X36106Y-39052D01*
X36118Y-39016D01*
X36131Y-38974D01*
X36141Y-38929D01*
X36149Y-38888D01*
X36150Y-38883D01*
X36152Y-38841D01*
X36145Y-38811D01*
X36128Y-38793D01*
X36128Y-38793D01*
X36110Y-38788D01*
X36098Y-38794D01*
X36091Y-38813D01*
X36087Y-38847D01*
X36087Y-38872D01*
X36085Y-38909D01*
X36081Y-38945D01*
X36074Y-38978D01*
X36066Y-39003D01*
X36058Y-39017D01*
X36054Y-39019D01*
X36049Y-39012D01*
X36037Y-38993D01*
X36020Y-38964D01*
X36001Y-38929D01*
X35995Y-38918D01*
X35974Y-38881D01*
X35956Y-38848D01*
X35942Y-38824D01*
X35933Y-38811D01*
X35932Y-38810D01*
X35916Y-38804D01*
X35904Y-38813D01*
X35896Y-38839D01*
X35893Y-38860D01*
X35888Y-38888D01*
X35880Y-38920D01*
X35869Y-38951D01*
X35857Y-38978D01*
X35846Y-38996D01*
X35839Y-39002D01*
X35833Y-38995D01*
X35824Y-38975D01*
X35813Y-38947D01*
X35808Y-38933D01*
X35786Y-38874D01*
X35766Y-38830D01*
X35748Y-38801D01*
X35730Y-38785D01*
X35712Y-38782D01*
X35706Y-38783D01*
X35697Y-38792D01*
X35697Y-38792D01*
X35697Y-38792D01*
G37*
G36*
X35397Y-39063D02*
X35398Y-39082D01*
X35411Y-39093D01*
X35431Y-39101D01*
X35446Y-39097D01*
X35457Y-39086D01*
X35468Y-39067D01*
X35475Y-39042D01*
X35475Y-39040D01*
X35475Y-38872D01*
X35481Y-38849D01*
X35482Y-38847D01*
X35492Y-38837D01*
X35503Y-38837D01*
X35516Y-38844D01*
X35539Y-38861D01*
X35562Y-38888D01*
X35584Y-38921D01*
X35602Y-38955D01*
X35615Y-38987D01*
X35619Y-39013D01*
X35617Y-39022D01*
X35607Y-39034D01*
X35590Y-39031D01*
X35565Y-39015D01*
X35553Y-39005D01*
X35521Y-38971D01*
X35497Y-38936D01*
X35481Y-38902D01*
X35475Y-38872D01*
X35475Y-39040D01*
X35476Y-39036D01*
X35481Y-39002D01*
X35520Y-39039D01*
X35560Y-39070D01*
X35595Y-39087D01*
X35624Y-39091D01*
X35648Y-39083D01*
X35664Y-39065D01*
X35673Y-39039D01*
X35674Y-39007D01*
X35667Y-38969D01*
X35650Y-38927D01*
X35623Y-38883D01*
X35598Y-38852D01*
X35559Y-38814D01*
X35524Y-38792D01*
X35492Y-38786D01*
X35461Y-38794D01*
X35438Y-38810D01*
X35409Y-38835D01*
X35419Y-38893D01*
X35426Y-38944D01*
X35428Y-38983D01*
X35425Y-39011D01*
X35416Y-39032D01*
X35412Y-39038D01*
X35397Y-39063D01*
X35397Y-39063D01*
X35397Y-39063D01*
G37*
G36*
X34940Y-38893D02*
X34944Y-38936D01*
X34948Y-38954D01*
X34967Y-38998D01*
X34995Y-39036D01*
X34995Y-38910D01*
X35001Y-38876D01*
X35008Y-38862D01*
X35028Y-38847D01*
X35054Y-38845D01*
X35081Y-38855D01*
X35089Y-38860D01*
X35111Y-38885D01*
X35129Y-38917D01*
X35140Y-38952D01*
X35145Y-38986D01*
X35141Y-39016D01*
X35130Y-39037D01*
X35127Y-39039D01*
X35112Y-39049D01*
X35103Y-39051D01*
X35090Y-39046D01*
X35080Y-39040D01*
X35045Y-39015D01*
X35019Y-38983D01*
X35001Y-38947D01*
X34995Y-38910D01*
X34995Y-39036D01*
X34996Y-39037D01*
X35030Y-39069D01*
X35068Y-39090D01*
X35107Y-39100D01*
X35143Y-39096D01*
X35149Y-39094D01*
X35178Y-39074D01*
X35196Y-39041D01*
X35201Y-39012D01*
X35199Y-38956D01*
X35181Y-38901D01*
X35160Y-38864D01*
X35126Y-38824D01*
X35089Y-38800D01*
X35046Y-38791D01*
X35039Y-38791D01*
X35013Y-38793D01*
X34995Y-38801D01*
X34975Y-38819D01*
X34974Y-38821D01*
X34950Y-38855D01*
X34940Y-38893D01*
X34940Y-38893D01*
X34940Y-38893D01*
G37*
G36*
X34608Y-38855D02*
X34609Y-38856D01*
X34620Y-38865D01*
X34638Y-38869D01*
X34654Y-38864D01*
X34658Y-38860D01*
X34671Y-38852D01*
X34688Y-38856D01*
X34709Y-38872D01*
X34732Y-38897D01*
X34754Y-38930D01*
X34775Y-38967D01*
X34792Y-39007D01*
X34803Y-39042D01*
X34811Y-39072D01*
X34818Y-39089D01*
X34827Y-39097D01*
X34838Y-39100D01*
X34858Y-39097D01*
X34865Y-39089D01*
X34867Y-39074D01*
X34869Y-39046D01*
X34870Y-39009D01*
X34870Y-38968D01*
X34869Y-38927D01*
X34867Y-38889D01*
X34864Y-38858D01*
X34862Y-38845D01*
X34853Y-38814D01*
X34838Y-38798D01*
X34820Y-38796D01*
X34811Y-38806D01*
X34808Y-38831D01*
X34810Y-38869D01*
X34815Y-38906D01*
X34821Y-38948D01*
X34796Y-38906D01*
X34770Y-38867D01*
X34740Y-38834D01*
X34709Y-38809D01*
X34681Y-38796D01*
X34668Y-38794D01*
X34647Y-38796D01*
X34632Y-38800D01*
X34632Y-38800D01*
X34618Y-38816D01*
X34609Y-38837D01*
X34608Y-38855D01*
X34608Y-38855D01*
X34608Y-38855D01*
G37*
G36*
X37053Y-39033D02*
X37056Y-39049D01*
X37066Y-39064D01*
X37073Y-39069D01*
X37106Y-39087D01*
X37134Y-39088D01*
X37156Y-39075D01*
X37171Y-39048D01*
X37175Y-39032D01*
X37177Y-39016D01*
X37177Y-38885D01*
X37181Y-38864D01*
X37198Y-38853D01*
X37212Y-38852D01*
X37237Y-38859D01*
X37263Y-38878D01*
X37287Y-38906D01*
X37308Y-38939D01*
X37324Y-38972D01*
X37331Y-39004D01*
X37328Y-39029D01*
X37325Y-39033D01*
X37319Y-39042D01*
X37311Y-39042D01*
X37295Y-39035D01*
X37288Y-39032D01*
X37262Y-39013D01*
X37233Y-38984D01*
X37207Y-38951D01*
X37187Y-38918D01*
X37187Y-38916D01*
X37177Y-38885D01*
X37177Y-39016D01*
X37180Y-38996D01*
X37214Y-39033D01*
X37237Y-39055D01*
X37259Y-39074D01*
X37271Y-39082D01*
X37304Y-39092D01*
X37335Y-39092D01*
X37361Y-39082D01*
X37367Y-39076D01*
X37377Y-39058D01*
X37381Y-39031D01*
X37381Y-39014D01*
X37375Y-38967D01*
X37358Y-38922D01*
X37333Y-38881D01*
X37302Y-38847D01*
X37267Y-38821D01*
X37230Y-38806D01*
X37194Y-38804D01*
X37177Y-38808D01*
X37154Y-38817D01*
X37141Y-38753D01*
X37130Y-38704D01*
X37121Y-38669D01*
X37114Y-38645D01*
X37106Y-38631D01*
X37098Y-38625D01*
X37087Y-38623D01*
X37087Y-38623D01*
X37073Y-38625D01*
X37068Y-38633D01*
X37067Y-38653D01*
X37067Y-38656D01*
X37069Y-38679D01*
X37075Y-38712D01*
X37084Y-38750D01*
X37089Y-38770D01*
X37104Y-38829D01*
X37115Y-38885D01*
X37122Y-38935D01*
X37125Y-38976D01*
X37124Y-39006D01*
X37121Y-39016D01*
X37113Y-39029D01*
X37101Y-39033D01*
X37081Y-39028D01*
X37068Y-39023D01*
X37057Y-39023D01*
X37053Y-39033D01*
X37053Y-39033D01*
X37053Y-39033D01*
G37*
G36*
X36202Y-38877D02*
X36210Y-38920D01*
X36224Y-38956D01*
X36250Y-38998D01*
X36254Y-39003D01*
X36254Y-38860D01*
X36260Y-38845D01*
X36274Y-38842D01*
X36304Y-38855D01*
X36337Y-38883D01*
X36373Y-38926D01*
X36375Y-38929D01*
X36401Y-38967D01*
X36415Y-38996D01*
X36418Y-39016D01*
X36410Y-39030D01*
X36408Y-39032D01*
X36387Y-39037D01*
X36360Y-39030D01*
X36330Y-39010D01*
X36316Y-38998D01*
X36294Y-38971D01*
X36276Y-38941D01*
X36263Y-38910D01*
X36255Y-38882D01*
X36254Y-38860D01*
X36254Y-39003D01*
X36283Y-39035D01*
X36320Y-39064D01*
X36359Y-39084D01*
X36395Y-39092D01*
X36427Y-39088D01*
X36437Y-39079D01*
X36452Y-39060D01*
X36459Y-39050D01*
X36466Y-39038D01*
X36472Y-39027D01*
X36475Y-39016D01*
X36476Y-39000D01*
X36475Y-38979D01*
X36472Y-38951D01*
X36466Y-38913D01*
X36458Y-38863D01*
X36447Y-38800D01*
X36444Y-38785D01*
X36433Y-38724D01*
X36423Y-38678D01*
X36414Y-38644D01*
X36405Y-38622D01*
X36396Y-38609D01*
X36385Y-38604D01*
X36376Y-38604D01*
X36361Y-38613D01*
X36355Y-38635D01*
X36358Y-38671D01*
X36370Y-38720D01*
X36373Y-38730D01*
X36383Y-38764D01*
X36393Y-38802D01*
X36402Y-38838D01*
X36408Y-38867D01*
X36412Y-38887D01*
X36412Y-38890D01*
X36407Y-38886D01*
X36393Y-38873D01*
X36377Y-38855D01*
X36340Y-38821D01*
X36304Y-38798D01*
X36270Y-38787D01*
X36241Y-38788D01*
X36219Y-38801D01*
X36215Y-38807D01*
X36204Y-38837D01*
X36202Y-38877D01*
X36202Y-38877D01*
X36202Y-38877D01*
G37*
G36*
X39613Y-39036D02*
X39622Y-39057D01*
X39631Y-39067D01*
X39646Y-39080D01*
X39655Y-39084D01*
X39666Y-39081D01*
X39668Y-39080D01*
X39675Y-39069D01*
X39678Y-39049D01*
X39678Y-39043D01*
X39677Y-39021D01*
X39670Y-39010D01*
X39658Y-39005D01*
X39637Y-39003D01*
X39624Y-39005D01*
X39614Y-39017D01*
X39613Y-39036D01*
X39613Y-39036D01*
X39613Y-39036D01*
G37*
G36*
X37437Y-39032D02*
X37443Y-39050D01*
X37459Y-39065D01*
X37479Y-39075D01*
X37498Y-39076D01*
X37506Y-39071D01*
X37510Y-39060D01*
X37512Y-39040D01*
X37512Y-39039D01*
X37510Y-39019D01*
X37499Y-39010D01*
X37486Y-39006D01*
X37461Y-39006D01*
X37443Y-39016D01*
X37437Y-39032D01*
X37437Y-39032D01*
X37437Y-39032D01*
G37*
G36*
X35270Y-39030D02*
X35278Y-39053D01*
X35296Y-39071D01*
X35319Y-39077D01*
X35331Y-39075D01*
X35336Y-39064D01*
X35337Y-39044D01*
X35335Y-39022D01*
X35329Y-39010D01*
X35316Y-39005D01*
X35290Y-39004D01*
X35274Y-39013D01*
X35270Y-39030D01*
X35270Y-39030D01*
X35270Y-39030D01*
G37*
G36*
X39605Y-38851D02*
X39613Y-38867D01*
X39632Y-38876D01*
X39653Y-38874D01*
X39669Y-38862D01*
X39670Y-38861D01*
X39674Y-38838D01*
X39663Y-38818D01*
X39653Y-38810D01*
X39633Y-38807D01*
X39616Y-38815D01*
X39606Y-38832D01*
X39605Y-38851D01*
X39605Y-38851D01*
X39605Y-38851D01*
G37*
G36*
X57517Y-37436D02*
X57518Y-37516D01*
X57522Y-37595D01*
X57527Y-37671D01*
X57535Y-37742D01*
X57545Y-37807D01*
X57546Y-37816D01*
X57552Y-37839D01*
X57562Y-37857D01*
X57578Y-37870D01*
X57604Y-37880D01*
X57638Y-37889D01*
X57638Y-37395D01*
X57639Y-37317D01*
X57642Y-37253D01*
X57645Y-37223D01*
X57649Y-37188D01*
X57653Y-37159D01*
X57656Y-37142D01*
X57657Y-37137D01*
X57667Y-37135D01*
X57689Y-37131D01*
X57721Y-37126D01*
X57759Y-37120D01*
X57803Y-37116D01*
X57858Y-37112D01*
X57922Y-37110D01*
X57991Y-37108D01*
X58062Y-37107D01*
X58132Y-37108D01*
X58199Y-37109D01*
X58258Y-37111D01*
X58308Y-37115D01*
X58344Y-37119D01*
X58350Y-37120D01*
X58408Y-37131D01*
X58422Y-37219D01*
X58440Y-37358D01*
X58444Y-37493D01*
X58434Y-37626D01*
X58419Y-37720D01*
X58410Y-37767D01*
X58299Y-37781D01*
X58185Y-37794D01*
X58083Y-37803D01*
X57991Y-37806D01*
X57905Y-37804D01*
X57823Y-37798D01*
X57754Y-37789D01*
X57719Y-37783D01*
X57690Y-37776D01*
X57671Y-37771D01*
X57667Y-37769D01*
X57661Y-37757D01*
X57656Y-37734D01*
X57651Y-37700D01*
X57647Y-37652D01*
X57644Y-37591D01*
X57641Y-37514D01*
X57640Y-37489D01*
X57638Y-37395D01*
X57638Y-37889D01*
X57641Y-37890D01*
X57675Y-37897D01*
X57806Y-37917D01*
X57946Y-37925D01*
X58092Y-37923D01*
X58160Y-37918D01*
X58209Y-37913D01*
X58262Y-37907D01*
X58315Y-37900D01*
X58366Y-37892D01*
X58412Y-37885D01*
X58449Y-37879D01*
X58475Y-37873D01*
X58486Y-37869D01*
X58499Y-37860D01*
X58509Y-37847D01*
X58517Y-37827D01*
X58526Y-37795D01*
X58531Y-37769D01*
X58547Y-37687D01*
X58557Y-37613D01*
X58562Y-37552D01*
X58562Y-37537D01*
X58562Y-37488D01*
X58643Y-37483D01*
X58720Y-37474D01*
X58789Y-37455D01*
X58850Y-37429D01*
X58870Y-37418D01*
X58899Y-37400D01*
X58936Y-37379D01*
X58975Y-37355D01*
X59013Y-37331D01*
X59046Y-37310D01*
X59071Y-37293D01*
X59077Y-37289D01*
X59092Y-37269D01*
X59095Y-37244D01*
X59084Y-37217D01*
X59074Y-37205D01*
X59062Y-37195D01*
X59048Y-37189D01*
X59031Y-37189D01*
X59010Y-37195D01*
X58982Y-37208D01*
X58945Y-37229D01*
X58898Y-37257D01*
X58853Y-37286D01*
X58787Y-37324D01*
X58723Y-37349D01*
X58658Y-37363D01*
X58628Y-37366D01*
X58564Y-37371D01*
X58558Y-37326D01*
X58553Y-37284D01*
X58546Y-37238D01*
X58538Y-37191D01*
X58530Y-37146D01*
X58523Y-37107D01*
X58516Y-37077D01*
X58512Y-37060D01*
X58505Y-37046D01*
X58494Y-37036D01*
X58478Y-37027D01*
X58454Y-37019D01*
X58419Y-37012D01*
X58371Y-37005D01*
X58348Y-37001D01*
X58307Y-36995D01*
X58271Y-36991D01*
X58237Y-36988D01*
X58201Y-36987D01*
X58159Y-36986D01*
X58110Y-36986D01*
X58048Y-36988D01*
X58012Y-36988D01*
X57908Y-36992D01*
X57816Y-36997D01*
X57737Y-37003D01*
X57672Y-37010D01*
X57620Y-37019D01*
X57584Y-37029D01*
X57564Y-37040D01*
X57562Y-37042D01*
X57550Y-37066D01*
X57540Y-37104D01*
X57531Y-37154D01*
X57525Y-37215D01*
X57520Y-37284D01*
X57518Y-37358D01*
X57517Y-37436D01*
X57517Y-37436D01*
X57517Y-37436D01*
G37*
G36*
X26178Y-37367D02*
X26189Y-37393D01*
X26197Y-37402D01*
X26214Y-37413D01*
X26235Y-37417D01*
X26264Y-37413D01*
X26304Y-37402D01*
X26306Y-37401D01*
X26355Y-37388D01*
X26407Y-37379D01*
X26465Y-37374D01*
X26533Y-37373D01*
X26612Y-37376D01*
X26640Y-37378D01*
X26779Y-37384D01*
X26905Y-37385D01*
X27018Y-37380D01*
X27121Y-37369D01*
X27215Y-37351D01*
X27282Y-37334D01*
X27339Y-37317D01*
X27361Y-37321D01*
X27361Y-36841D01*
X27362Y-36772D01*
X27364Y-36710D01*
X27367Y-36658D01*
X27370Y-36632D01*
X27374Y-36601D01*
X27378Y-36577D01*
X27380Y-36565D01*
X27381Y-36564D01*
X27390Y-36562D01*
X27412Y-36559D01*
X27446Y-36556D01*
X27487Y-36551D01*
X27533Y-36547D01*
X27582Y-36542D01*
X27629Y-36538D01*
X27672Y-36535D01*
X27709Y-36532D01*
X27720Y-36531D01*
X27768Y-36530D01*
X27825Y-36531D01*
X27887Y-36533D01*
X27950Y-36537D01*
X28008Y-36542D01*
X28058Y-36548D01*
X28085Y-36553D01*
X28103Y-36556D01*
X28116Y-36560D01*
X28125Y-36568D01*
X28132Y-36581D01*
X28137Y-36603D01*
X28143Y-36636D01*
X28149Y-36672D01*
X28165Y-36805D01*
X28167Y-36939D01*
X28156Y-37070D01*
X28143Y-37145D01*
X28136Y-37174D01*
X28128Y-37190D01*
X28117Y-37197D01*
X28103Y-37199D01*
X28076Y-37203D01*
X28040Y-37208D01*
X27998Y-37213D01*
X27954Y-37218D01*
X27911Y-37223D01*
X27874Y-37228D01*
X27853Y-37230D01*
X27815Y-37232D01*
X27766Y-37234D01*
X27710Y-37234D01*
X27653Y-37233D01*
X27600Y-37231D01*
X27555Y-37229D01*
X27537Y-37227D01*
X27497Y-37222D01*
X27458Y-37216D01*
X27427Y-37210D01*
X27424Y-37209D01*
X27381Y-37200D01*
X27371Y-37098D01*
X27367Y-37044D01*
X27364Y-36981D01*
X27362Y-36912D01*
X27361Y-36841D01*
X27361Y-37321D01*
X27451Y-37336D01*
X27490Y-37342D01*
X27525Y-37346D01*
X27559Y-37349D01*
X27596Y-37351D01*
X27638Y-37351D01*
X27691Y-37351D01*
X27747Y-37350D01*
X27819Y-37347D01*
X27891Y-37343D01*
X27962Y-37338D01*
X28030Y-37331D01*
X28091Y-37324D01*
X28142Y-37316D01*
X28182Y-37308D01*
X28205Y-37301D01*
X28219Y-37293D01*
X28230Y-37280D01*
X28239Y-37258D01*
X28248Y-37225D01*
X28256Y-37190D01*
X28278Y-37051D01*
X28286Y-36904D01*
X28279Y-36753D01*
X28262Y-36615D01*
X28253Y-36562D01*
X28246Y-36524D01*
X28239Y-36498D01*
X28231Y-36480D01*
X28222Y-36468D01*
X28209Y-36460D01*
X28201Y-36456D01*
X28163Y-36444D01*
X28110Y-36435D01*
X28046Y-36426D01*
X27973Y-36420D01*
X27893Y-36416D01*
X27808Y-36415D01*
X27721Y-36415D01*
X27635Y-36418D01*
X27551Y-36423D01*
X27478Y-36430D01*
X27416Y-36438D01*
X27369Y-36444D01*
X27333Y-36450D01*
X27309Y-36457D01*
X27292Y-36463D01*
X27282Y-36471D01*
X27278Y-36477D01*
X27272Y-36496D01*
X27265Y-36529D01*
X27258Y-36572D01*
X27252Y-36622D01*
X27246Y-36677D01*
X27242Y-36732D01*
X27241Y-36754D01*
X27239Y-36803D01*
X27240Y-36863D01*
X27242Y-36931D01*
X27245Y-37002D01*
X27249Y-37071D01*
X27254Y-37134D01*
X27259Y-37174D01*
X27264Y-37217D01*
X27190Y-37234D01*
X27129Y-37247D01*
X27073Y-37257D01*
X27019Y-37263D01*
X26962Y-37266D01*
X26898Y-37267D01*
X26823Y-37265D01*
X26795Y-37264D01*
X26690Y-37259D01*
X26599Y-37257D01*
X26521Y-37257D01*
X26455Y-37258D01*
X26398Y-37261D01*
X26349Y-37267D01*
X26306Y-37275D01*
X26267Y-37285D01*
X26231Y-37298D01*
X26228Y-37299D01*
X26198Y-37317D01*
X26181Y-37341D01*
X26178Y-37367D01*
X26178Y-37367D01*
X26178Y-37367D01*
G37*
G36*
X26178Y-35719D02*
X26185Y-35748D01*
X26205Y-35769D01*
X26240Y-35782D01*
X26253Y-35785D01*
X26284Y-35792D01*
X26322Y-35803D01*
X26360Y-35817D01*
X26366Y-35819D01*
X26413Y-35836D01*
X26454Y-35845D01*
X26485Y-35847D01*
X26537Y-35848D01*
X26537Y-35894D01*
X26538Y-35925D01*
X26541Y-35964D01*
X26545Y-36008D01*
X26550Y-36053D01*
X26555Y-36095D01*
X26561Y-36131D01*
X26566Y-36156D01*
X26569Y-36167D01*
X26586Y-36183D01*
X26618Y-36197D01*
X26654Y-36208D01*
X26654Y-35784D01*
X26654Y-35721D01*
X26655Y-35659D01*
X26657Y-35602D01*
X26659Y-35550D01*
X26663Y-35507D01*
X26667Y-35476D01*
X26671Y-35457D01*
X26673Y-35455D01*
X26682Y-35452D01*
X26704Y-35449D01*
X26737Y-35444D01*
X26776Y-35438D01*
X26779Y-35438D01*
X26837Y-35432D01*
X26900Y-35427D01*
X26969Y-35424D01*
X27039Y-35423D01*
X27109Y-35423D01*
X27177Y-35425D01*
X27241Y-35427D01*
X27298Y-35432D01*
X27347Y-35437D01*
X27384Y-35444D01*
X27409Y-35451D01*
X27417Y-35457D01*
X27425Y-35475D01*
X27433Y-35507D01*
X27440Y-35550D01*
X27446Y-35601D01*
X27452Y-35657D01*
X27455Y-35715D01*
X27457Y-35772D01*
X27457Y-35785D01*
X27456Y-35838D01*
X27453Y-35892D01*
X27448Y-35945D01*
X27443Y-35992D01*
X27436Y-36032D01*
X27430Y-36062D01*
X27423Y-36078D01*
X27422Y-36078D01*
X27411Y-36082D01*
X27386Y-36087D01*
X27351Y-36093D01*
X27308Y-36099D01*
X27261Y-36105D01*
X27212Y-36111D01*
X27165Y-36116D01*
X27145Y-36118D01*
X27081Y-36122D01*
X27028Y-36125D01*
X26980Y-36125D01*
X26934Y-36124D01*
X26883Y-36120D01*
X26866Y-36118D01*
X26822Y-36114D01*
X26779Y-36108D01*
X26741Y-36103D01*
X26724Y-36100D01*
X26674Y-36090D01*
X26664Y-36002D01*
X26660Y-35957D01*
X26657Y-35904D01*
X26655Y-35846D01*
X26654Y-35784D01*
X26654Y-36208D01*
X26662Y-36210D01*
X26717Y-36221D01*
X26781Y-36230D01*
X26852Y-36237D01*
X26928Y-36241D01*
X27008Y-36242D01*
X27088Y-36241D01*
X27168Y-36236D01*
X27183Y-36235D01*
X27231Y-36230D01*
X27283Y-36224D01*
X27335Y-36217D01*
X27386Y-36210D01*
X27429Y-36203D01*
X27464Y-36197D01*
X27484Y-36193D01*
X27503Y-36185D01*
X27517Y-36174D01*
X27527Y-36157D01*
X27536Y-36130D01*
X27545Y-36092D01*
X27569Y-35944D01*
X27578Y-35790D01*
X27571Y-35634D01*
X27554Y-35502D01*
X27544Y-35448D01*
X27536Y-35407D01*
X27527Y-35379D01*
X27514Y-35359D01*
X27496Y-35345D01*
X27471Y-35336D01*
X27435Y-35329D01*
X27390Y-35321D01*
X27339Y-35315D01*
X27276Y-35310D01*
X27202Y-35307D01*
X27121Y-35306D01*
X27037Y-35306D01*
X26953Y-35307D01*
X26872Y-35311D01*
X26798Y-35316D01*
X26741Y-35321D01*
X26696Y-35327D01*
X26655Y-35333D01*
X26622Y-35338D01*
X26601Y-35343D01*
X26597Y-35344D01*
X26584Y-35352D01*
X26574Y-35367D01*
X26564Y-35389D01*
X26556Y-35420D01*
X26549Y-35463D01*
X26542Y-35517D01*
X26535Y-35586D01*
X26530Y-35648D01*
X26524Y-35723D01*
X26494Y-35725D01*
X26465Y-35723D01*
X26424Y-35711D01*
X26387Y-35698D01*
X26327Y-35678D01*
X26276Y-35667D01*
X26234Y-35667D01*
X26203Y-35675D01*
X26185Y-35693D01*
X26178Y-35719D01*
X26178Y-35719D01*
X26178Y-35719D01*
G37*
G36*
X57518Y-34923D02*
X57519Y-34985D01*
X57522Y-35051D01*
X57525Y-35116D01*
X57530Y-35179D01*
X57535Y-35236D01*
X57540Y-35284D01*
X57546Y-35321D01*
X57550Y-35338D01*
X57564Y-35353D01*
X57591Y-35368D01*
X57632Y-35381D01*
X57639Y-35383D01*
X57639Y-34946D01*
X57639Y-34887D01*
X57640Y-34845D01*
X57642Y-34780D01*
X57644Y-34729D01*
X57646Y-34691D01*
X57650Y-34664D01*
X57656Y-34646D01*
X57664Y-34634D01*
X57677Y-34627D01*
X57694Y-34624D01*
X57716Y-34621D01*
X57731Y-34619D01*
X57823Y-34609D01*
X57916Y-34601D01*
X58006Y-34597D01*
X58088Y-34595D01*
X58146Y-34597D01*
X58205Y-34600D01*
X58260Y-34605D01*
X58310Y-34610D01*
X58352Y-34616D01*
X58382Y-34622D01*
X58399Y-34627D01*
X58401Y-34628D01*
X58406Y-34639D01*
X58412Y-34663D01*
X58419Y-34696D01*
X58425Y-34729D01*
X58434Y-34798D01*
X58439Y-34876D01*
X58441Y-34956D01*
X58440Y-35036D01*
X58435Y-35110D01*
X58427Y-35172D01*
X58426Y-35178D01*
X58419Y-35215D01*
X58413Y-35239D01*
X58408Y-35252D01*
X58400Y-35259D01*
X58390Y-35262D01*
X58384Y-35263D01*
X58365Y-35266D01*
X58332Y-35271D01*
X58291Y-35276D01*
X58246Y-35281D01*
X58200Y-35287D01*
X58157Y-35291D01*
X58122Y-35295D01*
X58104Y-35297D01*
X58065Y-35299D01*
X58015Y-35299D01*
X57958Y-35298D01*
X57897Y-35295D01*
X57839Y-35292D01*
X57787Y-35287D01*
X57747Y-35282D01*
X57742Y-35281D01*
X57708Y-35274D01*
X57681Y-35267D01*
X57664Y-35261D01*
X57661Y-35259D01*
X57657Y-35243D01*
X57652Y-35214D01*
X57648Y-35172D01*
X57645Y-35123D01*
X57642Y-35066D01*
X57640Y-35007D01*
X57639Y-34946D01*
X57639Y-35383D01*
X57684Y-35393D01*
X57744Y-35403D01*
X57812Y-35410D01*
X57885Y-35415D01*
X57961Y-35418D01*
X58039Y-35418D01*
X58116Y-35415D01*
X58183Y-35410D01*
X58241Y-35403D01*
X58299Y-35396D01*
X58353Y-35389D01*
X58401Y-35382D01*
X58441Y-35376D01*
X58469Y-35370D01*
X58480Y-35367D01*
X58500Y-35353D01*
X58511Y-35337D01*
X58521Y-35305D01*
X58532Y-35261D01*
X58542Y-35209D01*
X58550Y-35154D01*
X58557Y-35101D01*
X58561Y-35054D01*
X58562Y-35029D01*
X58563Y-34998D01*
X58568Y-34980D01*
X58571Y-34977D01*
X58583Y-34973D01*
X58605Y-34964D01*
X58634Y-34950D01*
X58646Y-34945D01*
X58717Y-34915D01*
X58789Y-34900D01*
X58862Y-34899D01*
X58941Y-34912D01*
X58984Y-34924D01*
X59011Y-34932D01*
X59029Y-34933D01*
X59045Y-34928D01*
X59050Y-34926D01*
X59073Y-34907D01*
X59083Y-34882D01*
X59079Y-34855D01*
X59075Y-34847D01*
X59060Y-34831D01*
X59039Y-34817D01*
X59007Y-34806D01*
X58963Y-34794D01*
X58944Y-34790D01*
X58848Y-34778D01*
X58755Y-34783D01*
X58666Y-34803D01*
X58617Y-34822D01*
X58592Y-34833D01*
X58573Y-34841D01*
X58566Y-34844D01*
X58563Y-34836D01*
X58559Y-34819D01*
X58559Y-34817D01*
X58547Y-34741D01*
X58537Y-34680D01*
X58529Y-34632D01*
X58522Y-34595D01*
X58516Y-34568D01*
X58510Y-34550D01*
X58504Y-34537D01*
X58497Y-34529D01*
X58489Y-34524D01*
X58480Y-34520D01*
X58480Y-34520D01*
X58449Y-34511D01*
X58402Y-34502D01*
X58340Y-34493D01*
X58266Y-34485D01*
X58218Y-34481D01*
X58160Y-34479D01*
X58095Y-34479D01*
X58024Y-34480D01*
X57952Y-34482D01*
X57879Y-34486D01*
X57809Y-34491D01*
X57743Y-34497D01*
X57684Y-34503D01*
X57635Y-34510D01*
X57597Y-34517D01*
X57574Y-34525D01*
X57573Y-34526D01*
X57557Y-34543D01*
X57544Y-34576D01*
X57534Y-34625D01*
X57526Y-34690D01*
X57521Y-34769D01*
X57519Y-34863D01*
X57518Y-34923D01*
X57518Y-34923D01*
X57518Y-34923D01*
G37*
G36*
X57518Y-32348D02*
X57519Y-32410D01*
X57521Y-32474D01*
X57525Y-32538D01*
X57529Y-32600D01*
X57534Y-32657D01*
X57539Y-32706D01*
X57545Y-32745D01*
X57551Y-32770D01*
X57554Y-32777D01*
X57570Y-32793D01*
X57603Y-32807D01*
X57637Y-32817D01*
X57637Y-32347D01*
X57637Y-32339D01*
X57638Y-32293D01*
X57639Y-32245D01*
X57642Y-32197D01*
X57645Y-32152D01*
X57648Y-32113D01*
X57651Y-32083D01*
X57655Y-32066D01*
X57656Y-32063D01*
X57665Y-32062D01*
X57687Y-32059D01*
X57720Y-32055D01*
X57760Y-32050D01*
X57783Y-32047D01*
X57847Y-32041D01*
X57917Y-32037D01*
X57991Y-32034D01*
X58065Y-32033D01*
X58137Y-32033D01*
X58205Y-32036D01*
X58267Y-32039D01*
X58321Y-32044D01*
X58363Y-32051D01*
X58391Y-32058D01*
X58396Y-32061D01*
X58404Y-32071D01*
X58411Y-32094D01*
X58419Y-32131D01*
X58425Y-32166D01*
X58435Y-32240D01*
X58440Y-32322D01*
X58442Y-32406D01*
X58439Y-32488D01*
X58433Y-32563D01*
X58426Y-32612D01*
X58419Y-32649D01*
X58413Y-32673D01*
X58407Y-32687D01*
X58400Y-32694D01*
X58390Y-32697D01*
X58388Y-32697D01*
X58372Y-32700D01*
X58343Y-32704D01*
X58304Y-32709D01*
X58261Y-32714D01*
X58217Y-32720D01*
X58175Y-32725D01*
X58140Y-32729D01*
X58125Y-32730D01*
X58093Y-32732D01*
X58049Y-32732D01*
X57997Y-32732D01*
X57940Y-32730D01*
X57882Y-32728D01*
X57828Y-32724D01*
X57780Y-32721D01*
X57744Y-32717D01*
X57734Y-32715D01*
X57702Y-32708D01*
X57677Y-32701D01*
X57663Y-32695D01*
X57662Y-32693D01*
X57658Y-32679D01*
X57654Y-32651D01*
X57650Y-32612D01*
X57646Y-32564D01*
X57642Y-32511D01*
X57640Y-32455D01*
X57638Y-32399D01*
X57637Y-32347D01*
X57637Y-32817D01*
X57652Y-32821D01*
X57715Y-32834D01*
X57781Y-32843D01*
X57810Y-32846D01*
X57851Y-32848D01*
X57901Y-32849D01*
X57956Y-32850D01*
X58012Y-32851D01*
X58065Y-32850D01*
X58113Y-32850D01*
X58149Y-32848D01*
X58166Y-32847D01*
X58238Y-32838D01*
X58304Y-32829D01*
X58362Y-32821D01*
X58411Y-32814D01*
X58449Y-32808D01*
X58473Y-32803D01*
X58480Y-32801D01*
X58500Y-32788D01*
X58511Y-32774D01*
X58519Y-32753D01*
X58527Y-32718D01*
X58536Y-32675D01*
X58544Y-32626D01*
X58552Y-32576D01*
X58557Y-32529D01*
X58560Y-32496D01*
X58564Y-32412D01*
X58595Y-32407D01*
X58636Y-32395D01*
X58682Y-32374D01*
X58727Y-32346D01*
X58765Y-32316D01*
X58769Y-32312D01*
X58796Y-32282D01*
X58819Y-32249D01*
X58837Y-32211D01*
X58853Y-32166D01*
X58866Y-32111D01*
X58879Y-32044D01*
X58887Y-31989D01*
X58898Y-31919D01*
X58912Y-31864D01*
X58927Y-31821D01*
X58946Y-31790D01*
X58970Y-31769D01*
X59000Y-31755D01*
X59028Y-31749D01*
X59062Y-31737D01*
X59085Y-31718D01*
X59095Y-31694D01*
X59092Y-31668D01*
X59075Y-31644D01*
X59061Y-31633D01*
X59046Y-31628D01*
X59023Y-31629D01*
X59010Y-31630D01*
X58945Y-31646D01*
X58890Y-31675D01*
X58846Y-31716D01*
X58825Y-31748D01*
X58813Y-31769D01*
X58803Y-31792D01*
X58795Y-31820D01*
X58788Y-31855D01*
X58780Y-31900D01*
X58771Y-31958D01*
X58770Y-31964D01*
X58763Y-32011D01*
X58755Y-32055D01*
X58748Y-32093D01*
X58742Y-32120D01*
X58741Y-32123D01*
X58719Y-32175D01*
X58685Y-32222D01*
X58644Y-32258D01*
X58596Y-32282D01*
X58589Y-32284D01*
X58574Y-32288D01*
X58566Y-32285D01*
X58561Y-32272D01*
X58558Y-32253D01*
X58546Y-32166D01*
X58534Y-32095D01*
X58524Y-32040D01*
X58514Y-32001D01*
X58504Y-31977D01*
X58500Y-31971D01*
X58479Y-31957D01*
X58442Y-31944D01*
X58393Y-31934D01*
X58332Y-31925D01*
X58262Y-31919D01*
X58185Y-31915D01*
X58102Y-31913D01*
X58014Y-31913D01*
X57925Y-31917D01*
X57835Y-31922D01*
X57746Y-31931D01*
X57716Y-31934D01*
X57663Y-31941D01*
X57623Y-31947D01*
X57595Y-31952D01*
X57577Y-31957D01*
X57565Y-31963D01*
X57558Y-31970D01*
X57554Y-31976D01*
X57545Y-32001D01*
X57538Y-32040D01*
X57531Y-32091D01*
X57525Y-32151D01*
X57521Y-32219D01*
X57519Y-32292D01*
X57518Y-32348D01*
X57518Y-32348D01*
X57518Y-32348D01*
G37*
G36*
X26180Y-32401D02*
X26190Y-32425D01*
X26195Y-32431D01*
X26204Y-32437D01*
X26216Y-32441D01*
X26234Y-32443D01*
X26260Y-32444D01*
X26294Y-32443D01*
X26339Y-32441D01*
X26396Y-32436D01*
X26467Y-32430D01*
X26508Y-32427D01*
X26602Y-32417D01*
X26695Y-32407D01*
X26786Y-32396D01*
X26871Y-32385D01*
X26950Y-32374D01*
X27020Y-32362D01*
X27080Y-32351D01*
X27127Y-32341D01*
X27160Y-32332D01*
X27165Y-32330D01*
X27175Y-32330D01*
X27178Y-32343D01*
X27178Y-32345D01*
X27183Y-32378D01*
X27195Y-32406D01*
X27213Y-32424D01*
X27214Y-32425D01*
X27252Y-32439D01*
X27273Y-32445D01*
X27273Y-32011D01*
X27274Y-31913D01*
X27278Y-31831D01*
X27282Y-31788D01*
X27287Y-31750D01*
X27291Y-31721D01*
X27294Y-31704D01*
X27295Y-31701D01*
X27308Y-31694D01*
X27334Y-31687D01*
X27373Y-31680D01*
X27423Y-31674D01*
X27480Y-31670D01*
X27543Y-31666D01*
X27609Y-31663D01*
X27677Y-31661D01*
X27744Y-31661D01*
X27809Y-31662D01*
X27868Y-31665D01*
X27920Y-31669D01*
X27944Y-31672D01*
X27982Y-31677D01*
X28013Y-31682D01*
X28034Y-31686D01*
X28042Y-31688D01*
X28045Y-31696D01*
X28049Y-31718D01*
X28055Y-31750D01*
X28062Y-31789D01*
X28063Y-31790D01*
X28074Y-31873D01*
X28080Y-31963D01*
X28081Y-32055D01*
X28076Y-32143D01*
X28067Y-32221D01*
X28066Y-32223D01*
X28060Y-32259D01*
X28053Y-32289D01*
X28047Y-32309D01*
X28044Y-32315D01*
X28034Y-32319D01*
X28010Y-32325D01*
X27976Y-32330D01*
X27935Y-32336D01*
X27918Y-32338D01*
X27874Y-32344D01*
X27835Y-32349D01*
X27804Y-32352D01*
X27786Y-32355D01*
X27783Y-32355D01*
X27761Y-32357D01*
X27725Y-32358D01*
X27681Y-32359D01*
X27631Y-32359D01*
X27579Y-32358D01*
X27529Y-32357D01*
X27485Y-32356D01*
X27449Y-32354D01*
X27428Y-32352D01*
X27393Y-32346D01*
X27357Y-32339D01*
X27336Y-32334D01*
X27297Y-32326D01*
X27288Y-32237D01*
X27278Y-32118D01*
X27273Y-32011D01*
X27273Y-32445D01*
X27302Y-32452D01*
X27364Y-32462D01*
X27434Y-32471D01*
X27510Y-32477D01*
X27587Y-32480D01*
X27665Y-32481D01*
X27739Y-32478D01*
X27766Y-32476D01*
X27835Y-32470D01*
X27902Y-32462D01*
X27965Y-32454D01*
X28021Y-32446D01*
X28067Y-32437D01*
X28103Y-32429D01*
X28125Y-32422D01*
X28128Y-32419D01*
X28145Y-32399D01*
X28160Y-32363D01*
X28173Y-32316D01*
X28183Y-32258D01*
X28191Y-32192D01*
X28196Y-32120D01*
X28199Y-32044D01*
X28198Y-31966D01*
X28194Y-31889D01*
X28187Y-31814D01*
X28180Y-31760D01*
X28170Y-31702D01*
X28162Y-31658D01*
X28153Y-31626D01*
X28142Y-31604D01*
X28128Y-31589D01*
X28109Y-31579D01*
X28083Y-31572D01*
X28048Y-31566D01*
X28037Y-31564D01*
X27913Y-31548D01*
X27777Y-31540D01*
X27632Y-31540D01*
X27479Y-31549D01*
X27333Y-31565D01*
X27284Y-31571D01*
X27250Y-31576D01*
X27227Y-31581D01*
X27212Y-31586D01*
X27202Y-31593D01*
X27196Y-31602D01*
X27191Y-31609D01*
X27183Y-31635D01*
X27175Y-31674D01*
X27168Y-31726D01*
X27162Y-31787D01*
X27158Y-31854D01*
X27155Y-31926D01*
X27154Y-32001D01*
X27155Y-32035D01*
X27158Y-32206D01*
X27070Y-32228D01*
X27013Y-32240D01*
X26942Y-32253D01*
X26858Y-32266D01*
X26765Y-32279D01*
X26664Y-32291D01*
X26559Y-32302D01*
X26450Y-32312D01*
X26341Y-32321D01*
X26304Y-32323D01*
X26264Y-32326D01*
X26236Y-32330D01*
X26218Y-32335D01*
X26205Y-32342D01*
X26198Y-32348D01*
X26182Y-32373D01*
X26180Y-32401D01*
X26180Y-32401D01*
X26180Y-32401D01*
G37*
G36*
X57018Y-31255D02*
X57019Y-31336D01*
X57022Y-31417D01*
X57027Y-31494D01*
X57035Y-31565D01*
X57044Y-31628D01*
X57046Y-31640D01*
X57052Y-31664D01*
X57060Y-31680D01*
X57075Y-31691D01*
X57099Y-31701D01*
X57129Y-31710D01*
X57138Y-31712D01*
X57138Y-31248D01*
X57139Y-31184D01*
X57141Y-31130D01*
X57143Y-31080D01*
X57146Y-31037D01*
X57148Y-31004D01*
X57151Y-30984D01*
X57152Y-30981D01*
X57156Y-30969D01*
X57162Y-30961D01*
X57174Y-30956D01*
X57195Y-30952D01*
X57229Y-30947D01*
X57238Y-30946D01*
X57270Y-30942D01*
X57314Y-30939D01*
X57368Y-30936D01*
X57428Y-30933D01*
X57489Y-30931D01*
X57512Y-30930D01*
X57583Y-30929D01*
X57641Y-30928D01*
X57688Y-30929D01*
X57729Y-30930D01*
X57766Y-30934D01*
X57803Y-30938D01*
X57841Y-30944D01*
X57872Y-30949D01*
X57894Y-30953D01*
X57902Y-30956D01*
X57907Y-30968D01*
X57913Y-30993D01*
X57919Y-31029D01*
X57925Y-31071D01*
X57931Y-31118D01*
X57936Y-31165D01*
X57940Y-31210D01*
X57942Y-31239D01*
X57944Y-31311D01*
X57941Y-31375D01*
X57934Y-31441D01*
X57934Y-31443D01*
X57926Y-31495D01*
X57920Y-31533D01*
X57914Y-31559D01*
X57908Y-31576D01*
X57899Y-31586D01*
X57887Y-31591D01*
X57871Y-31595D01*
X57861Y-31596D01*
X57753Y-31610D01*
X57644Y-31620D01*
X57540Y-31625D01*
X57442Y-31627D01*
X57353Y-31624D01*
X57277Y-31616D01*
X57263Y-31614D01*
X57228Y-31608D01*
X57197Y-31601D01*
X57176Y-31596D01*
X57171Y-31594D01*
X57162Y-31581D01*
X57155Y-31553D01*
X57149Y-31512D01*
X57144Y-31459D01*
X57140Y-31397D01*
X57139Y-31326D01*
X57138Y-31248D01*
X57138Y-31712D01*
X57179Y-31722D01*
X57243Y-31732D01*
X57315Y-31739D01*
X57393Y-31745D01*
X57473Y-31747D01*
X57550Y-31747D01*
X57620Y-31744D01*
X57631Y-31743D01*
X57677Y-31739D01*
X57727Y-31733D01*
X57781Y-31727D01*
X57833Y-31720D01*
X57882Y-31713D01*
X57925Y-31706D01*
X57959Y-31700D01*
X57981Y-31696D01*
X57987Y-31694D01*
X58000Y-31681D01*
X58013Y-31656D01*
X58024Y-31619D01*
X58036Y-31569D01*
X58047Y-31503D01*
X58054Y-31453D01*
X58059Y-31400D01*
X58061Y-31335D01*
X58060Y-31261D01*
X58057Y-31185D01*
X58051Y-31109D01*
X58042Y-31038D01*
X58037Y-31006D01*
X58027Y-30952D01*
X58018Y-30912D01*
X58009Y-30884D01*
X57999Y-30865D01*
X57987Y-30853D01*
X57971Y-30846D01*
X57964Y-30844D01*
X57934Y-30838D01*
X57893Y-30831D01*
X57847Y-30824D01*
X57800Y-30817D01*
X57757Y-30813D01*
X57724Y-30810D01*
X57715Y-30810D01*
X57683Y-30809D01*
X57651Y-30806D01*
X57642Y-30805D01*
X57610Y-30799D01*
X57616Y-30682D01*
X57628Y-30526D01*
X57647Y-30383D01*
X57675Y-30253D01*
X57712Y-30133D01*
X57757Y-30023D01*
X57812Y-29921D01*
X57845Y-29869D01*
X57878Y-29823D01*
X57911Y-29781D01*
X57947Y-29740D01*
X57987Y-29699D01*
X58032Y-29656D01*
X58085Y-29611D01*
X58148Y-29560D01*
X58221Y-29503D01*
X58292Y-29449D01*
X58371Y-29388D01*
X58436Y-29334D01*
X58490Y-29284D01*
X58532Y-29238D01*
X58566Y-29194D01*
X58589Y-29154D01*
X58606Y-29121D01*
X58618Y-29091D01*
X58628Y-29062D01*
X58634Y-29029D01*
X58639Y-28990D01*
X58642Y-28940D01*
X58645Y-28893D01*
X58647Y-28842D01*
X58649Y-28804D01*
X58652Y-28776D01*
X58656Y-28755D01*
X58662Y-28737D01*
X58670Y-28719D01*
X58678Y-28702D01*
X58715Y-28646D01*
X58762Y-28594D01*
X58817Y-28551D01*
X58876Y-28516D01*
X58937Y-28494D01*
X58997Y-28485D01*
X59001Y-28485D01*
X59036Y-28481D01*
X59066Y-28470D01*
X59086Y-28455D01*
X59090Y-28447D01*
X59096Y-28416D01*
X59089Y-28392D01*
X59069Y-28375D01*
X59038Y-28365D01*
X58999Y-28363D01*
X58952Y-28369D01*
X58899Y-28382D01*
X58841Y-28403D01*
X58796Y-28423D01*
X58718Y-28471D01*
X58651Y-28532D01*
X58595Y-28603D01*
X58553Y-28683D01*
X58544Y-28706D01*
X58536Y-28731D01*
X58531Y-28759D01*
X58527Y-28792D01*
X58525Y-28835D01*
X58523Y-28877D01*
X58521Y-28937D01*
X58516Y-28989D01*
X58508Y-29035D01*
X58494Y-29076D01*
X58475Y-29115D01*
X58448Y-29153D01*
X58414Y-29191D01*
X58369Y-29233D01*
X58314Y-29279D01*
X58247Y-29331D01*
X58200Y-29367D01*
X58131Y-29419D01*
X58074Y-29462D01*
X58027Y-29500D01*
X57986Y-29534D01*
X57951Y-29566D01*
X57918Y-29597D01*
X57886Y-29630D01*
X57859Y-29659D01*
X57776Y-29759D01*
X57705Y-29864D01*
X57645Y-29977D01*
X57595Y-30099D01*
X57556Y-30230D01*
X57527Y-30373D01*
X57507Y-30528D01*
X57504Y-30560D01*
X57500Y-30609D01*
X57497Y-30661D01*
X57496Y-30710D01*
X57495Y-30733D01*
X57495Y-30810D01*
X57439Y-30810D01*
X57409Y-30811D01*
X57369Y-30814D01*
X57323Y-30818D01*
X57273Y-30823D01*
X57223Y-30829D01*
X57175Y-30835D01*
X57134Y-30841D01*
X57102Y-30846D01*
X57081Y-30851D01*
X57077Y-30852D01*
X57063Y-30866D01*
X57050Y-30887D01*
X57050Y-30888D01*
X57040Y-30922D01*
X57031Y-30971D01*
X57025Y-31031D01*
X57021Y-31100D01*
X57018Y-31175D01*
X57018Y-31255D01*
X57018Y-31255D01*
X57018Y-31255D01*
G37*
G36*
X55126Y-30893D02*
X55127Y-30959D01*
X55130Y-31027D01*
X55133Y-31092D01*
X55138Y-31155D01*
X55143Y-31210D01*
X55149Y-31257D01*
X55155Y-31293D01*
X55161Y-31315D01*
X55162Y-31318D01*
X55178Y-31333D01*
X55209Y-31347D01*
X55247Y-31358D01*
X55247Y-30909D01*
X55247Y-30841D01*
X55248Y-30777D01*
X55250Y-30722D01*
X55254Y-30680D01*
X55254Y-30677D01*
X55258Y-30645D01*
X55262Y-30620D01*
X55264Y-30606D01*
X55265Y-30605D01*
X55273Y-30603D01*
X55295Y-30600D01*
X55327Y-30596D01*
X55367Y-30591D01*
X55383Y-30589D01*
X55441Y-30583D01*
X55505Y-30578D01*
X55574Y-30575D01*
X55644Y-30574D01*
X55714Y-30574D01*
X55781Y-30575D01*
X55844Y-30578D01*
X55900Y-30582D01*
X55947Y-30587D01*
X55983Y-30593D01*
X56005Y-30600D01*
X56011Y-30605D01*
X56015Y-30616D01*
X56021Y-30641D01*
X56028Y-30674D01*
X56034Y-30710D01*
X56043Y-30781D01*
X56048Y-30859D01*
X56050Y-30942D01*
X56048Y-31022D01*
X56042Y-31096D01*
X56034Y-31151D01*
X56028Y-31185D01*
X56023Y-31212D01*
X56019Y-31229D01*
X56018Y-31232D01*
X56009Y-31234D01*
X55986Y-31238D01*
X55954Y-31243D01*
X55915Y-31248D01*
X55872Y-31254D01*
X55830Y-31259D01*
X55790Y-31264D01*
X55758Y-31267D01*
X55754Y-31267D01*
X55640Y-31274D01*
X55536Y-31274D01*
X55445Y-31268D01*
X55402Y-31263D01*
X55361Y-31257D01*
X55326Y-31252D01*
X55312Y-31249D01*
X55266Y-31239D01*
X55257Y-31152D01*
X55253Y-31103D01*
X55249Y-31044D01*
X55247Y-30978D01*
X55247Y-30909D01*
X55247Y-31358D01*
X55253Y-31360D01*
X55307Y-31370D01*
X55370Y-31379D01*
X55440Y-31386D01*
X55514Y-31391D01*
X55590Y-31393D01*
X55668Y-31392D01*
X55743Y-31388D01*
X55791Y-31384D01*
X55843Y-31379D01*
X55897Y-31372D01*
X55949Y-31365D01*
X55998Y-31358D01*
X56039Y-31352D01*
X56070Y-31346D01*
X56084Y-31343D01*
X56098Y-31337D01*
X56109Y-31327D01*
X56119Y-31311D01*
X56127Y-31287D01*
X56136Y-31251D01*
X56147Y-31202D01*
X56147Y-31200D01*
X56157Y-31138D01*
X56163Y-31063D01*
X56167Y-30981D01*
X56167Y-30896D01*
X56164Y-30811D01*
X56158Y-30733D01*
X56148Y-30664D01*
X56148Y-30660D01*
X56130Y-30564D01*
X56166Y-30518D01*
X56222Y-30435D01*
X56273Y-30337D01*
X56319Y-30226D01*
X56359Y-30099D01*
X56395Y-29958D01*
X56425Y-29802D01*
X56449Y-29643D01*
X56458Y-29564D01*
X56467Y-29482D01*
X56475Y-29397D01*
X56482Y-29307D01*
X56489Y-29212D01*
X56495Y-29108D01*
X56500Y-28997D01*
X56504Y-28875D01*
X56508Y-28741D01*
X56511Y-28595D01*
X56515Y-28434D01*
X56517Y-28293D01*
X56518Y-28206D01*
X56519Y-28134D01*
X56520Y-28076D01*
X56520Y-28030D01*
X56520Y-27994D01*
X56519Y-27967D01*
X56518Y-27948D01*
X56516Y-27935D01*
X56514Y-27927D01*
X56511Y-27921D01*
X56507Y-27917D01*
X56506Y-27916D01*
X56483Y-27904D01*
X56456Y-27902D01*
X56431Y-27910D01*
X56415Y-27927D01*
X56415Y-27927D01*
X56412Y-27938D01*
X56410Y-27962D01*
X56407Y-28000D01*
X56405Y-28051D01*
X56403Y-28116D01*
X56401Y-28196D01*
X56398Y-28292D01*
X56396Y-28403D01*
X56396Y-28414D01*
X56392Y-28582D01*
X56389Y-28733D01*
X56385Y-28868D01*
X56381Y-28988D01*
X56376Y-29092D01*
X56372Y-29180D01*
X56367Y-29254D01*
X56366Y-29273D01*
X56351Y-29442D01*
X56334Y-29596D01*
X56314Y-29736D01*
X56291Y-29864D01*
X56266Y-29980D01*
X56237Y-30086D01*
X56205Y-30184D01*
X56176Y-30258D01*
X56150Y-30317D01*
X56124Y-30365D01*
X56096Y-30409D01*
X56071Y-30441D01*
X56053Y-30464D01*
X56040Y-30476D01*
X56028Y-30480D01*
X56012Y-30478D01*
X56006Y-30477D01*
X55948Y-30467D01*
X55875Y-30459D01*
X55793Y-30455D01*
X55702Y-30453D01*
X55606Y-30455D01*
X55604Y-30455D01*
X55536Y-30458D01*
X55468Y-30462D01*
X55401Y-30467D01*
X55339Y-30473D01*
X55284Y-30480D01*
X55237Y-30486D01*
X55203Y-30493D01*
X55182Y-30500D01*
X55181Y-30500D01*
X55165Y-30518D01*
X55152Y-30551D01*
X55142Y-30601D01*
X55134Y-30666D01*
X55129Y-30746D01*
X55127Y-30841D01*
X55126Y-30893D01*
X55126Y-30893D01*
X55126Y-30893D01*
G37*
G36*
X50625Y-30127D02*
X50626Y-30206D01*
X50628Y-30282D01*
X50631Y-30353D01*
X50636Y-30417D01*
X50641Y-30471D01*
X50647Y-30513D01*
X50654Y-30541D01*
X50655Y-30544D01*
X50667Y-30564D01*
X50678Y-30575D01*
X50697Y-30582D01*
X50730Y-30591D01*
X50739Y-30593D01*
X50739Y-30122D01*
X50740Y-30064D01*
X50743Y-30005D01*
X50745Y-29983D01*
X50748Y-29939D01*
X50752Y-29900D01*
X50755Y-29870D01*
X50758Y-29852D01*
X50759Y-29848D01*
X50769Y-29842D01*
X50794Y-29835D01*
X50832Y-29830D01*
X50879Y-29824D01*
X50935Y-29820D01*
X50997Y-29816D01*
X51062Y-29813D01*
X51130Y-29812D01*
X51196Y-29812D01*
X51229Y-29812D01*
X51295Y-29814D01*
X51356Y-29818D01*
X51410Y-29822D01*
X51455Y-29826D01*
X51487Y-29831D01*
X51507Y-29836D01*
X51510Y-29838D01*
X51512Y-29847D01*
X51516Y-29869D01*
X51521Y-29901D01*
X51528Y-29940D01*
X51529Y-29948D01*
X51539Y-30026D01*
X51545Y-30107D01*
X51547Y-30189D01*
X51544Y-30269D01*
X51538Y-30341D01*
X51528Y-30404D01*
X51518Y-30442D01*
X51515Y-30453D01*
X51511Y-30460D01*
X51505Y-30467D01*
X51495Y-30472D01*
X51478Y-30476D01*
X51453Y-30480D01*
X51416Y-30485D01*
X51367Y-30491D01*
X51320Y-30497D01*
X51266Y-30502D01*
X51202Y-30506D01*
X51135Y-30508D01*
X51068Y-30509D01*
X51004Y-30508D01*
X50948Y-30506D01*
X50905Y-30502D01*
X50901Y-30501D01*
X50864Y-30496D01*
X50828Y-30489D01*
X50803Y-30484D01*
X50789Y-30481D01*
X50779Y-30478D01*
X50771Y-30472D01*
X50765Y-30461D01*
X50760Y-30444D01*
X50756Y-30419D01*
X50753Y-30384D01*
X50750Y-30336D01*
X50746Y-30274D01*
X50744Y-30256D01*
X50740Y-30184D01*
X50739Y-30122D01*
X50739Y-30593D01*
X50772Y-30600D01*
X50821Y-30609D01*
X50873Y-30617D01*
X50926Y-30623D01*
X50959Y-30627D01*
X50999Y-30630D01*
X51031Y-30632D01*
X51058Y-30633D01*
X51086Y-30633D01*
X51117Y-30632D01*
X51156Y-30630D01*
X51207Y-30627D01*
X51216Y-30626D01*
X51278Y-30621D01*
X51342Y-30615D01*
X51403Y-30608D01*
X51460Y-30600D01*
X51511Y-30591D01*
X51552Y-30583D01*
X51581Y-30575D01*
X51595Y-30569D01*
X51614Y-30547D01*
X51626Y-30515D01*
X51651Y-30387D01*
X51664Y-30251D01*
X51665Y-30111D01*
X51654Y-29970D01*
X51643Y-29891D01*
X51634Y-29847D01*
X51626Y-29807D01*
X51619Y-29776D01*
X51614Y-29756D01*
X51612Y-29752D01*
X51595Y-29737D01*
X51562Y-29725D01*
X51513Y-29715D01*
X51501Y-29713D01*
X51478Y-29709D01*
X51469Y-29705D01*
X51468Y-29695D01*
X51472Y-29686D01*
X51479Y-29657D01*
X51486Y-29612D01*
X51493Y-29550D01*
X51498Y-29473D01*
X51503Y-29379D01*
X51508Y-29269D01*
X51511Y-29144D01*
X51512Y-29123D01*
X51514Y-29045D01*
X51516Y-28969D01*
X51519Y-28898D01*
X51521Y-28833D01*
X51524Y-28777D01*
X51526Y-28733D01*
X51528Y-28703D01*
X51529Y-28698D01*
X51547Y-28565D01*
X51570Y-28447D01*
X51600Y-28345D01*
X51636Y-28257D01*
X51678Y-28184D01*
X51727Y-28124D01*
X51783Y-28078D01*
X51846Y-28045D01*
X51877Y-28035D01*
X51912Y-28019D01*
X51933Y-27997D01*
X51940Y-27968D01*
X51940Y-27967D01*
X51932Y-27940D01*
X51913Y-27919D01*
X51886Y-27910D01*
X51882Y-27910D01*
X51862Y-27913D01*
X51833Y-27922D01*
X51799Y-27934D01*
X51765Y-27948D01*
X51738Y-27961D01*
X51731Y-27965D01*
X51668Y-28012D01*
X51613Y-28067D01*
X51564Y-28133D01*
X51522Y-28211D01*
X51487Y-28300D01*
X51457Y-28403D01*
X51433Y-28520D01*
X51414Y-28651D01*
X51412Y-28664D01*
X51410Y-28688D01*
X51408Y-28726D01*
X51405Y-28777D01*
X51402Y-28839D01*
X51399Y-28909D01*
X51396Y-28985D01*
X51393Y-29066D01*
X51391Y-29139D01*
X51388Y-29238D01*
X51385Y-29321D01*
X51382Y-29391D01*
X51380Y-29449D01*
X51377Y-29497D01*
X51374Y-29537D01*
X51371Y-29569D01*
X51367Y-29596D01*
X51363Y-29619D01*
X51359Y-29641D01*
X51355Y-29656D01*
X51346Y-29689D01*
X51164Y-29690D01*
X51105Y-29691D01*
X51040Y-29694D01*
X50974Y-29698D01*
X50908Y-29702D01*
X50846Y-29708D01*
X50789Y-29714D01*
X50741Y-29720D01*
X50705Y-29726D01*
X50684Y-29732D01*
X50668Y-29745D01*
X50655Y-29770D01*
X50644Y-29809D01*
X50635Y-29862D01*
X50630Y-29929D01*
X50626Y-30012D01*
X50625Y-30110D01*
X50625Y-30127D01*
X50625Y-30127D01*
X50625Y-30127D01*
G37*
G36*
X33788Y-28512D02*
X33789Y-28565D01*
X33796Y-28651D01*
X33810Y-28726D01*
X33833Y-28796D01*
X33866Y-28864D01*
X33908Y-28931D01*
X33976Y-29020D01*
X34061Y-29104D01*
X34162Y-29185D01*
X34279Y-29262D01*
X34411Y-29335D01*
X34560Y-29404D01*
X34724Y-29468D01*
X34887Y-29523D01*
X34999Y-29559D01*
X35005Y-29653D01*
X35010Y-29735D01*
X35016Y-29808D01*
X35022Y-29873D01*
X35028Y-29926D01*
X35034Y-29967D01*
X35040Y-29994D01*
X35042Y-30000D01*
X35055Y-30020D01*
X35071Y-30034D01*
X35072Y-30034D01*
X35097Y-30042D01*
X35127Y-30050D01*
X35127Y-29603D01*
X35127Y-29539D01*
X35128Y-29479D01*
X35130Y-29423D01*
X35133Y-29375D01*
X35137Y-29336D01*
X35142Y-29309D01*
X35147Y-29297D01*
X35158Y-29294D01*
X35183Y-29289D01*
X35220Y-29285D01*
X35265Y-29281D01*
X35317Y-29276D01*
X35372Y-29272D01*
X35427Y-29269D01*
X35481Y-29267D01*
X35530Y-29265D01*
X35549Y-29265D01*
X35612Y-29266D01*
X35675Y-29268D01*
X35734Y-29271D01*
X35787Y-29275D01*
X35832Y-29280D01*
X35865Y-29286D01*
X35885Y-29292D01*
X35886Y-29293D01*
X35894Y-29306D01*
X35903Y-29333D01*
X35910Y-29371D01*
X35917Y-29418D01*
X35923Y-29471D01*
X35928Y-29528D01*
X35931Y-29586D01*
X35931Y-29623D01*
X35930Y-29679D01*
X35927Y-29736D01*
X35923Y-29790D01*
X35917Y-29838D01*
X35910Y-29878D01*
X35903Y-29907D01*
X35896Y-29921D01*
X35884Y-29925D01*
X35859Y-29931D01*
X35823Y-29937D01*
X35779Y-29943D01*
X35730Y-29950D01*
X35679Y-29956D01*
X35641Y-29959D01*
X35557Y-29965D01*
X35471Y-29967D01*
X35390Y-29965D01*
X35319Y-29960D01*
X35316Y-29960D01*
X35275Y-29955D01*
X35234Y-29949D01*
X35200Y-29944D01*
X35194Y-29942D01*
X35147Y-29933D01*
X35137Y-29832D01*
X35133Y-29783D01*
X35130Y-29727D01*
X35128Y-29666D01*
X35127Y-29603D01*
X35127Y-30050D01*
X35134Y-30052D01*
X35178Y-30061D01*
X35225Y-30069D01*
X35271Y-30076D01*
X35273Y-30077D01*
X35302Y-30079D01*
X35344Y-30081D01*
X35394Y-30083D01*
X35449Y-30084D01*
X35505Y-30084D01*
X35557Y-30083D01*
X35601Y-30082D01*
X35634Y-30080D01*
X35641Y-30080D01*
X35725Y-30070D01*
X35793Y-30061D01*
X35848Y-30054D01*
X35892Y-30048D01*
X35925Y-30043D01*
X35949Y-30037D01*
X35966Y-30033D01*
X35978Y-30028D01*
X35984Y-30023D01*
X35998Y-30003D01*
X36011Y-29968D01*
X36023Y-29922D01*
X36033Y-29867D01*
X36042Y-29805D01*
X36048Y-29739D01*
X36051Y-29671D01*
X36052Y-29604D01*
X36051Y-29573D01*
X36048Y-29521D01*
X36042Y-29464D01*
X36036Y-29406D01*
X36028Y-29350D01*
X36019Y-29299D01*
X36011Y-29257D01*
X36003Y-29227D01*
X36002Y-29224D01*
X35992Y-29207D01*
X35977Y-29194D01*
X35952Y-29183D01*
X35915Y-29174D01*
X35902Y-29172D01*
X35814Y-29159D01*
X35712Y-29150D01*
X35602Y-29146D01*
X35487Y-29146D01*
X35370Y-29151D01*
X35255Y-29160D01*
X35224Y-29164D01*
X35165Y-29172D01*
X35121Y-29178D01*
X35088Y-29185D01*
X35066Y-29193D01*
X35052Y-29202D01*
X35045Y-29211D01*
X35039Y-29229D01*
X35032Y-29258D01*
X35025Y-29295D01*
X35019Y-29333D01*
X35014Y-29370D01*
X35012Y-29399D01*
X35012Y-29404D01*
X35011Y-29425D01*
X35006Y-29433D01*
X34997Y-29432D01*
X34904Y-29402D01*
X34824Y-29375D01*
X34753Y-29351D01*
X34690Y-29327D01*
X34631Y-29303D01*
X34573Y-29278D01*
X34512Y-29249D01*
X34483Y-29235D01*
X34355Y-29167D01*
X34243Y-29095D01*
X34147Y-29019D01*
X34068Y-28940D01*
X34004Y-28856D01*
X33956Y-28769D01*
X33923Y-28677D01*
X33906Y-28581D01*
X33903Y-28520D01*
X33908Y-28450D01*
X33921Y-28367D01*
X33944Y-28270D01*
X33970Y-28177D01*
X33984Y-28130D01*
X33995Y-28084D01*
X34004Y-28044D01*
X34009Y-28013D01*
X34009Y-28010D01*
X34011Y-27979D01*
X34009Y-27959D01*
X34003Y-27943D01*
X33995Y-27933D01*
X33973Y-27915D01*
X33947Y-27911D01*
X33923Y-27919D01*
X33905Y-27937D01*
X33896Y-27965D01*
X33895Y-27972D01*
X33893Y-27988D01*
X33887Y-28018D01*
X33877Y-28058D01*
X33865Y-28104D01*
X33851Y-28154D01*
X33850Y-28157D01*
X33829Y-28235D01*
X33812Y-28301D01*
X33800Y-28358D01*
X33793Y-28410D01*
X33789Y-28460D01*
X33788Y-28512D01*
X33788Y-28512D01*
X33788Y-28512D01*
G37*
G36*
X43042Y-29556D02*
X43043Y-29649D01*
X43046Y-29734D01*
X43051Y-29809D01*
X43056Y-29872D01*
X43063Y-29923D01*
X43071Y-29960D01*
X43081Y-29982D01*
X43083Y-29985D01*
X43103Y-29998D01*
X43139Y-30011D01*
X43160Y-30016D01*
X43160Y-29514D01*
X43161Y-29453D01*
X43162Y-29396D01*
X43165Y-29347D01*
X43169Y-29308D01*
X43174Y-29281D01*
X43178Y-29270D01*
X43190Y-29264D01*
X43216Y-29257D01*
X43255Y-29251D01*
X43303Y-29246D01*
X43360Y-29241D01*
X43422Y-29236D01*
X43487Y-29234D01*
X43554Y-29232D01*
X43575Y-29232D01*
X43641Y-29232D01*
X43706Y-29234D01*
X43766Y-29237D01*
X43820Y-29241D01*
X43865Y-29246D01*
X43899Y-29251D01*
X43920Y-29257D01*
X43925Y-29261D01*
X43930Y-29275D01*
X43935Y-29302D01*
X43942Y-29339D01*
X43948Y-29383D01*
X43955Y-29430D01*
X43960Y-29476D01*
X43962Y-29500D01*
X43965Y-29547D01*
X43965Y-29600D01*
X43963Y-29656D01*
X43959Y-29713D01*
X43954Y-29767D01*
X43948Y-29815D01*
X43940Y-29853D01*
X43932Y-29879D01*
X43930Y-29883D01*
X43919Y-29889D01*
X43893Y-29895D01*
X43855Y-29902D01*
X43807Y-29910D01*
X43750Y-29917D01*
X43686Y-29924D01*
X43662Y-29926D01*
X43604Y-29930D01*
X43537Y-29931D01*
X43465Y-29930D01*
X43394Y-29927D01*
X43328Y-29922D01*
X43274Y-29915D01*
X43266Y-29914D01*
X43233Y-29908D01*
X43205Y-29902D01*
X43189Y-29897D01*
X43186Y-29895D01*
X43180Y-29881D01*
X43174Y-29852D01*
X43170Y-29811D01*
X43166Y-29761D01*
X43163Y-29704D01*
X43161Y-29642D01*
X43160Y-29578D01*
X43160Y-29514D01*
X43160Y-30016D01*
X43186Y-30022D01*
X43244Y-30032D01*
X43309Y-30040D01*
X43380Y-30046D01*
X43454Y-30049D01*
X43530Y-30051D01*
X43604Y-30049D01*
X43675Y-30045D01*
X43700Y-30043D01*
X43772Y-30035D01*
X43839Y-30026D01*
X43897Y-30018D01*
X43945Y-30011D01*
X43980Y-30004D01*
X44001Y-29997D01*
X44001Y-29997D01*
X44019Y-29987D01*
X44030Y-29971D01*
X44040Y-29945D01*
X44041Y-29942D01*
X44062Y-29846D01*
X44076Y-29740D01*
X44083Y-29627D01*
X44081Y-29511D01*
X44072Y-29396D01*
X44059Y-29311D01*
X44051Y-29267D01*
X44042Y-29227D01*
X44034Y-29196D01*
X44027Y-29176D01*
X44025Y-29172D01*
X44006Y-29156D01*
X43971Y-29144D01*
X43969Y-29144D01*
X43933Y-29137D01*
X43887Y-29130D01*
X43836Y-29123D01*
X43784Y-29117D01*
X43736Y-29113D01*
X43699Y-29111D01*
X43688Y-29110D01*
X43643Y-29110D01*
X43649Y-29079D01*
X43654Y-29038D01*
X43658Y-28985D01*
X43660Y-28927D01*
X43660Y-28868D01*
X43658Y-28813D01*
X43655Y-28769D01*
X43654Y-28764D01*
X43649Y-28731D01*
X43640Y-28686D01*
X43629Y-28633D01*
X43616Y-28578D01*
X43607Y-28539D01*
X43586Y-28451D01*
X43572Y-28376D01*
X43564Y-28309D01*
X43564Y-28247D01*
X43569Y-28188D01*
X43581Y-28128D01*
X43600Y-28063D01*
X43604Y-28049D01*
X43620Y-27999D01*
X43627Y-27962D01*
X43627Y-27934D01*
X43620Y-27916D01*
X43610Y-27906D01*
X43584Y-27894D01*
X43560Y-27895D01*
X43538Y-27911D01*
X43517Y-27942D01*
X43497Y-27989D01*
X43489Y-28014D01*
X43469Y-28083D01*
X43456Y-28142D01*
X43449Y-28200D01*
X43446Y-28261D01*
X43448Y-28318D01*
X43450Y-28361D01*
X43454Y-28400D01*
X43460Y-28439D01*
X43469Y-28482D01*
X43481Y-28535D01*
X43490Y-28571D01*
X43512Y-28660D01*
X43527Y-28737D01*
X43537Y-28804D01*
X43542Y-28867D01*
X43543Y-28926D01*
X43538Y-28987D01*
X43538Y-28989D01*
X43534Y-29028D01*
X43530Y-29062D01*
X43526Y-29086D01*
X43524Y-29096D01*
X43516Y-29102D01*
X43495Y-29107D01*
X43460Y-29111D01*
X43439Y-29113D01*
X43388Y-29117D01*
X43334Y-29122D01*
X43279Y-29128D01*
X43227Y-29134D01*
X43179Y-29140D01*
X43140Y-29146D01*
X43113Y-29151D01*
X43102Y-29153D01*
X43086Y-29165D01*
X43073Y-29187D01*
X43062Y-29220D01*
X43054Y-29265D01*
X43048Y-29324D01*
X43044Y-29396D01*
X43042Y-29484D01*
X43042Y-29556D01*
X43042Y-29556D01*
X43042Y-29556D01*
G37*
G36*
X38946Y-29477D02*
X38947Y-29538D01*
X38948Y-29606D01*
X38952Y-29705D01*
X38956Y-29788D01*
X38961Y-29855D01*
X38968Y-29908D01*
X38975Y-29948D01*
X38984Y-29974D01*
X38992Y-29986D01*
X39016Y-30000D01*
X39054Y-30014D01*
X39062Y-30015D01*
X39062Y-29537D01*
X39063Y-29494D01*
X39065Y-29447D01*
X39068Y-29399D01*
X39072Y-29354D01*
X39076Y-29315D01*
X39080Y-29286D01*
X39085Y-29269D01*
X39086Y-29266D01*
X39096Y-29263D01*
X39120Y-29258D01*
X39153Y-29253D01*
X39193Y-29247D01*
X39200Y-29246D01*
X39259Y-29240D01*
X39325Y-29236D01*
X39396Y-29233D01*
X39470Y-29232D01*
X39543Y-29232D01*
X39614Y-29234D01*
X39679Y-29237D01*
X39736Y-29242D01*
X39783Y-29247D01*
X39816Y-29254D01*
X39824Y-29257D01*
X39830Y-29267D01*
X39838Y-29294D01*
X39847Y-29337D01*
X39854Y-29379D01*
X39861Y-29430D01*
X39866Y-29473D01*
X39869Y-29514D01*
X39869Y-29559D01*
X39868Y-29614D01*
X39868Y-29635D01*
X39865Y-29687D01*
X39861Y-29739D01*
X39856Y-29787D01*
X39850Y-29830D01*
X39844Y-29863D01*
X39838Y-29884D01*
X39835Y-29890D01*
X39826Y-29892D01*
X39803Y-29896D01*
X39770Y-29901D01*
X39730Y-29907D01*
X39687Y-29913D01*
X39643Y-29918D01*
X39603Y-29923D01*
X39568Y-29926D01*
X39564Y-29927D01*
X39502Y-29930D01*
X39431Y-29931D01*
X39357Y-29930D01*
X39284Y-29926D01*
X39218Y-29920D01*
X39166Y-29913D01*
X39088Y-29899D01*
X39083Y-29865D01*
X39078Y-29821D01*
X39073Y-29765D01*
X39069Y-29703D01*
X39065Y-29640D01*
X39063Y-29581D01*
X39062Y-29537D01*
X39062Y-30015D01*
X39104Y-30025D01*
X39165Y-30035D01*
X39233Y-30042D01*
X39308Y-30047D01*
X39387Y-30050D01*
X39467Y-30049D01*
X39547Y-30047D01*
X39624Y-30041D01*
X39641Y-30039D01*
X39713Y-30030D01*
X39778Y-30022D01*
X39833Y-30013D01*
X39876Y-30006D01*
X39906Y-29999D01*
X39919Y-29994D01*
X39928Y-29987D01*
X39936Y-29975D01*
X39944Y-29955D01*
X39952Y-29926D01*
X39960Y-29885D01*
X39971Y-29829D01*
X39971Y-29827D01*
X39984Y-29733D01*
X39989Y-29629D01*
X39989Y-29522D01*
X39981Y-29416D01*
X39971Y-29343D01*
X39961Y-29286D01*
X39953Y-29242D01*
X39946Y-29210D01*
X39940Y-29188D01*
X39933Y-29174D01*
X39925Y-29164D01*
X39916Y-29158D01*
X39914Y-29157D01*
X39891Y-29149D01*
X39855Y-29140D01*
X39808Y-29132D01*
X39755Y-29125D01*
X39698Y-29119D01*
X39641Y-29114D01*
X39615Y-29112D01*
X39515Y-29108D01*
X39522Y-29073D01*
X39526Y-29041D01*
X39530Y-28996D01*
X39533Y-28942D01*
X39534Y-28883D01*
X39535Y-28823D01*
X39534Y-28766D01*
X39532Y-28716D01*
X39529Y-28678D01*
X39515Y-28589D01*
X39493Y-28488D01*
X39463Y-28378D01*
X39426Y-28261D01*
X39409Y-28210D01*
X39391Y-28159D01*
X39375Y-28110D01*
X39361Y-28068D01*
X39350Y-28035D01*
X39345Y-28014D01*
X39345Y-28014D01*
X39330Y-27965D01*
X39314Y-27932D01*
X39295Y-27914D01*
X39272Y-27910D01*
X39249Y-27917D01*
X39234Y-27926D01*
X39223Y-27938D01*
X39217Y-27954D01*
X39216Y-27976D01*
X39220Y-28007D01*
X39229Y-28046D01*
X39243Y-28096D01*
X39263Y-28158D01*
X39289Y-28234D01*
X39292Y-28243D01*
X39320Y-28324D01*
X39342Y-28392D01*
X39360Y-28451D01*
X39374Y-28503D01*
X39386Y-28552D01*
X39396Y-28601D01*
X39400Y-28623D01*
X39411Y-28703D01*
X39417Y-28792D01*
X39418Y-28882D01*
X39413Y-28965D01*
X39412Y-28972D01*
X39407Y-29022D01*
X39403Y-29058D01*
X39398Y-29083D01*
X39391Y-29098D01*
X39382Y-29107D01*
X39367Y-29110D01*
X39347Y-29112D01*
X39330Y-29114D01*
X39269Y-29119D01*
X39209Y-29125D01*
X39152Y-29132D01*
X39101Y-29138D01*
X39059Y-29144D01*
X39028Y-29149D01*
X39011Y-29153D01*
X39011Y-29153D01*
X38997Y-29160D01*
X38986Y-29172D01*
X38977Y-29191D01*
X38970Y-29220D01*
X38963Y-29260D01*
X38957Y-29304D01*
X38952Y-29344D01*
X38949Y-29384D01*
X38947Y-29427D01*
X38946Y-29477D01*
X38946Y-29477D01*
X38946Y-29477D01*
G37*
G36*
X36504Y-27989D02*
X36505Y-28020D01*
X36507Y-28061D01*
X36510Y-28114D01*
X36514Y-28181D01*
X36516Y-28212D01*
X36529Y-28375D01*
X36546Y-28525D01*
X36566Y-28661D01*
X36592Y-28786D01*
X36621Y-28900D01*
X36656Y-29007D01*
X36696Y-29107D01*
X36708Y-29133D01*
X36766Y-29241D01*
X36833Y-29339D01*
X36907Y-29424D01*
X36990Y-29497D01*
X37078Y-29555D01*
X37171Y-29599D01*
X37191Y-29606D01*
X37274Y-29629D01*
X37362Y-29645D01*
X37447Y-29652D01*
X37463Y-29652D01*
X37526Y-29652D01*
X37532Y-29712D01*
X37538Y-29785D01*
X37544Y-29843D01*
X37549Y-29888D01*
X37554Y-29922D01*
X37558Y-29947D01*
X37563Y-29964D01*
X37568Y-29976D01*
X37571Y-29980D01*
X37591Y-29995D01*
X37626Y-30009D01*
X37645Y-30014D01*
X37645Y-29539D01*
X37646Y-29498D01*
X37648Y-29452D01*
X37651Y-29406D01*
X37655Y-29361D01*
X37659Y-29321D01*
X37663Y-29290D01*
X37667Y-29271D01*
X37669Y-29266D01*
X37681Y-29262D01*
X37706Y-29257D01*
X37743Y-29252D01*
X37788Y-29247D01*
X37839Y-29242D01*
X37894Y-29237D01*
X37949Y-29233D01*
X38002Y-29230D01*
X38003Y-29230D01*
X38054Y-29229D01*
X38110Y-29229D01*
X38168Y-29231D01*
X38225Y-29234D01*
X38280Y-29238D01*
X38328Y-29243D01*
X38369Y-29248D01*
X38399Y-29254D01*
X38415Y-29260D01*
X38416Y-29261D01*
X38418Y-29270D01*
X38423Y-29292D01*
X38429Y-29323D01*
X38434Y-29348D01*
X38441Y-29396D01*
X38446Y-29455D01*
X38449Y-29521D01*
X38450Y-29590D01*
X38449Y-29658D01*
X38447Y-29722D01*
X38442Y-29777D01*
X38436Y-29820D01*
X38435Y-29826D01*
X38428Y-29856D01*
X38422Y-29878D01*
X38419Y-29889D01*
X38418Y-29890D01*
X38409Y-29892D01*
X38386Y-29896D01*
X38353Y-29901D01*
X38314Y-29907D01*
X38270Y-29913D01*
X38227Y-29918D01*
X38186Y-29923D01*
X38151Y-29926D01*
X38148Y-29927D01*
X38085Y-29930D01*
X38014Y-29931D01*
X37940Y-29930D01*
X37867Y-29926D01*
X37801Y-29920D01*
X37750Y-29913D01*
X37672Y-29899D01*
X37667Y-29865D01*
X37662Y-29828D01*
X37658Y-29778D01*
X37653Y-29721D01*
X37650Y-29662D01*
X37647Y-29605D01*
X37646Y-29556D01*
X37645Y-29539D01*
X37645Y-30014D01*
X37673Y-30021D01*
X37730Y-30031D01*
X37795Y-30040D01*
X37867Y-30046D01*
X37942Y-30050D01*
X38018Y-30051D01*
X38095Y-30049D01*
X38168Y-30045D01*
X38191Y-30043D01*
X38244Y-30037D01*
X38299Y-30030D01*
X38352Y-30023D01*
X38401Y-30016D01*
X38442Y-30009D01*
X38472Y-30004D01*
X38485Y-30000D01*
X38500Y-29995D01*
X38512Y-29986D01*
X38520Y-29973D01*
X38528Y-29951D01*
X38537Y-29917D01*
X38544Y-29885D01*
X38557Y-29810D01*
X38568Y-29730D01*
X38574Y-29650D01*
X38576Y-29577D01*
X38575Y-29527D01*
X38571Y-29486D01*
X38566Y-29436D01*
X38558Y-29381D01*
X38550Y-29326D01*
X38542Y-29274D01*
X38534Y-29231D01*
X38528Y-29200D01*
X38528Y-29200D01*
X38521Y-29181D01*
X38510Y-29167D01*
X38491Y-29155D01*
X38464Y-29146D01*
X38424Y-29137D01*
X38383Y-29130D01*
X38331Y-29123D01*
X38265Y-29118D01*
X38190Y-29115D01*
X38109Y-29114D01*
X38024Y-29114D01*
X37940Y-29116D01*
X37859Y-29119D01*
X37785Y-29125D01*
X37741Y-29129D01*
X37684Y-29137D01*
X37641Y-29143D01*
X37610Y-29149D01*
X37589Y-29156D01*
X37575Y-29164D01*
X37567Y-29174D01*
X37564Y-29180D01*
X37556Y-29204D01*
X37549Y-29242D01*
X37542Y-29290D01*
X37536Y-29345D01*
X37531Y-29405D01*
X37530Y-29431D01*
X37524Y-29531D01*
X37439Y-29529D01*
X37332Y-29518D01*
X37233Y-29493D01*
X37142Y-29452D01*
X37057Y-29397D01*
X36980Y-29327D01*
X36911Y-29242D01*
X36849Y-29142D01*
X36795Y-29027D01*
X36748Y-28898D01*
X36709Y-28753D01*
X36677Y-28594D01*
X36658Y-28468D01*
X36654Y-28432D01*
X36649Y-28383D01*
X36644Y-28325D01*
X36640Y-28261D01*
X36635Y-28196D01*
X36633Y-28164D01*
X36629Y-28098D01*
X36625Y-28046D01*
X36621Y-28007D01*
X36618Y-27978D01*
X36614Y-27958D01*
X36610Y-27945D01*
X36605Y-27936D01*
X36605Y-27935D01*
X36582Y-27917D01*
X36555Y-27912D01*
X36529Y-27921D01*
X36522Y-27927D01*
X36516Y-27933D01*
X36511Y-27941D01*
X36507Y-27952D01*
X36505Y-27967D01*
X36504Y-27989D01*
X36504Y-27989D01*
X36504Y-27989D01*
G37*
G36*
X48655Y-28653D02*
X48656Y-28727D01*
X48657Y-28800D01*
X48660Y-28867D01*
X48664Y-28926D01*
X48666Y-28937D01*
X48672Y-28994D01*
X48677Y-29036D01*
X48682Y-29067D01*
X48688Y-29088D01*
X48695Y-29101D01*
X48704Y-29110D01*
X48713Y-29116D01*
X48749Y-29130D01*
X48771Y-29135D01*
X48771Y-28693D01*
X48771Y-28606D01*
X48774Y-28527D01*
X48780Y-28462D01*
X48789Y-28380D01*
X48877Y-28369D01*
X49011Y-28356D01*
X49132Y-28349D01*
X49242Y-28348D01*
X49332Y-28352D01*
X49386Y-28356D01*
X49436Y-28361D01*
X49479Y-28366D01*
X49513Y-28371D01*
X49534Y-28376D01*
X49541Y-28379D01*
X49546Y-28392D01*
X49551Y-28419D01*
X49556Y-28455D01*
X49562Y-28500D01*
X49567Y-28548D01*
X49571Y-28597D01*
X49574Y-28645D01*
X49576Y-28681D01*
X49577Y-28740D01*
X49577Y-28787D01*
X49574Y-28828D01*
X49570Y-28868D01*
X49563Y-28909D01*
X49557Y-28946D01*
X49550Y-28978D01*
X49546Y-28999D01*
X49543Y-29007D01*
X49533Y-29010D01*
X49510Y-29015D01*
X49476Y-29020D01*
X49436Y-29026D01*
X49392Y-29032D01*
X49348Y-29038D01*
X49310Y-29042D01*
X49251Y-29047D01*
X49184Y-29050D01*
X49112Y-29050D01*
X49043Y-29049D01*
X48981Y-29046D01*
X48950Y-29043D01*
X48910Y-29038D01*
X48872Y-29033D01*
X48841Y-29027D01*
X48835Y-29026D01*
X48820Y-29022D01*
X48808Y-29018D01*
X48800Y-29011D01*
X48794Y-28998D01*
X48790Y-28978D01*
X48786Y-28947D01*
X48782Y-28904D01*
X48779Y-28864D01*
X48774Y-28780D01*
X48771Y-28693D01*
X48771Y-29135D01*
X48799Y-29142D01*
X48861Y-29151D01*
X48931Y-29159D01*
X49008Y-29164D01*
X49089Y-29167D01*
X49171Y-29168D01*
X49253Y-29165D01*
X49330Y-29160D01*
X49376Y-29155D01*
X49460Y-29145D01*
X49527Y-29135D01*
X49579Y-29125D01*
X49614Y-29117D01*
X49633Y-29109D01*
X49635Y-29107D01*
X49644Y-29093D01*
X49653Y-29068D01*
X49659Y-29046D01*
X49686Y-28903D01*
X49697Y-28758D01*
X49694Y-28610D01*
X49676Y-28456D01*
X49675Y-28449D01*
X49666Y-28395D01*
X49659Y-28354D01*
X49652Y-28325D01*
X49645Y-28305D01*
X49638Y-28291D01*
X49630Y-28282D01*
X49626Y-28278D01*
X49609Y-28270D01*
X49577Y-28262D01*
X49533Y-28254D01*
X49478Y-28246D01*
X49416Y-28239D01*
X49364Y-28234D01*
X49241Y-28224D01*
X49241Y-28165D01*
X49240Y-28133D01*
X49235Y-28104D01*
X49226Y-28072D01*
X49211Y-28032D01*
X49209Y-28027D01*
X49194Y-27986D01*
X49180Y-27945D01*
X49171Y-27909D01*
X49168Y-27896D01*
X49161Y-27864D01*
X49151Y-27838D01*
X49144Y-27827D01*
X49122Y-27814D01*
X49095Y-27810D01*
X49069Y-27817D01*
X49059Y-27825D01*
X49048Y-27849D01*
X49046Y-27885D01*
X49053Y-27933D01*
X49067Y-27991D01*
X49090Y-28059D01*
X49100Y-28084D01*
X49114Y-28120D01*
X49122Y-28144D01*
X49125Y-28162D01*
X49124Y-28177D01*
X49120Y-28189D01*
X49108Y-28213D01*
X49089Y-28227D01*
X49058Y-28234D01*
X49030Y-28235D01*
X49009Y-28236D01*
X48974Y-28239D01*
X48931Y-28243D01*
X48883Y-28248D01*
X48854Y-28252D01*
X48798Y-28259D01*
X48757Y-28265D01*
X48727Y-28273D01*
X48706Y-28282D01*
X48692Y-28296D01*
X48683Y-28315D01*
X48677Y-28340D01*
X48673Y-28357D01*
X48667Y-28396D01*
X48662Y-28447D01*
X48659Y-28510D01*
X48657Y-28579D01*
X48655Y-28653D01*
X48655Y-28653D01*
X48655Y-28653D01*
G37*
G36*
X27380Y-28393D02*
X27380Y-28452D01*
X27382Y-28523D01*
X27385Y-28587D01*
X27388Y-28652D01*
X27393Y-28713D01*
X27398Y-28770D01*
X27403Y-28818D01*
X27408Y-28856D01*
X27414Y-28881D01*
X27415Y-28885D01*
X27423Y-28897D01*
X27437Y-28907D01*
X27460Y-28916D01*
X27494Y-28925D01*
X27498Y-28926D01*
X27498Y-28481D01*
X27499Y-28377D01*
X27503Y-28310D01*
X27508Y-28259D01*
X27511Y-28223D01*
X27517Y-28197D01*
X27526Y-28181D01*
X27543Y-28171D01*
X27568Y-28166D01*
X27604Y-28162D01*
X27652Y-28157D01*
X27726Y-28151D01*
X27806Y-28147D01*
X27889Y-28144D01*
X27971Y-28144D01*
X28048Y-28145D01*
X28117Y-28149D01*
X28174Y-28155D01*
X28182Y-28156D01*
X28217Y-28161D01*
X28245Y-28166D01*
X28263Y-28170D01*
X28267Y-28171D01*
X28270Y-28180D01*
X28274Y-28202D01*
X28280Y-28234D01*
X28287Y-28272D01*
X28288Y-28273D01*
X28299Y-28356D01*
X28305Y-28446D01*
X28306Y-28538D01*
X28301Y-28626D01*
X28292Y-28704D01*
X28291Y-28706D01*
X28285Y-28742D01*
X28278Y-28772D01*
X28272Y-28792D01*
X28269Y-28798D01*
X28259Y-28803D01*
X28235Y-28808D01*
X28200Y-28813D01*
X28158Y-28819D01*
X28135Y-28822D01*
X28090Y-28827D01*
X28050Y-28832D01*
X28019Y-28836D01*
X27999Y-28838D01*
X27995Y-28839D01*
X27976Y-28841D01*
X27945Y-28842D01*
X27903Y-28843D01*
X27856Y-28842D01*
X27807Y-28842D01*
X27758Y-28841D01*
X27715Y-28839D01*
X27680Y-28837D01*
X27659Y-28835D01*
X27622Y-28829D01*
X27586Y-28823D01*
X27561Y-28818D01*
X27522Y-28809D01*
X27513Y-28720D01*
X27503Y-28596D01*
X27498Y-28481D01*
X27498Y-28926D01*
X27536Y-28935D01*
X27567Y-28940D01*
X27606Y-28946D01*
X27650Y-28952D01*
X27695Y-28957D01*
X27739Y-28962D01*
X27778Y-28965D01*
X27808Y-28967D01*
X27826Y-28967D01*
X27828Y-28967D01*
X27838Y-28966D01*
X27861Y-28965D01*
X27894Y-28963D01*
X27935Y-28961D01*
X27949Y-28960D01*
X28015Y-28956D01*
X28081Y-28950D01*
X28146Y-28943D01*
X28206Y-28935D01*
X28259Y-28926D01*
X28304Y-28917D01*
X28337Y-28908D01*
X28357Y-28900D01*
X28359Y-28898D01*
X28371Y-28880D01*
X28383Y-28849D01*
X28395Y-28806D01*
X28405Y-28757D01*
X28413Y-28704D01*
X28417Y-28670D01*
X28422Y-28612D01*
X28490Y-28607D01*
X28593Y-28593D01*
X28684Y-28568D01*
X28764Y-28530D01*
X28833Y-28481D01*
X28889Y-28420D01*
X28934Y-28348D01*
X28966Y-28265D01*
X28968Y-28257D01*
X28975Y-28224D01*
X28980Y-28182D01*
X28982Y-28134D01*
X28983Y-28085D01*
X28982Y-28038D01*
X28979Y-27995D01*
X28975Y-27962D01*
X28968Y-27942D01*
X28968Y-27940D01*
X28945Y-27919D01*
X28917Y-27912D01*
X28888Y-27919D01*
X28887Y-27920D01*
X28866Y-27932D01*
X28861Y-28077D01*
X28859Y-28133D01*
X28857Y-28176D01*
X28854Y-28208D01*
X28850Y-28232D01*
X28844Y-28253D01*
X28839Y-28267D01*
X28807Y-28329D01*
X28764Y-28380D01*
X28709Y-28422D01*
X28642Y-28453D01*
X28561Y-28476D01*
X28482Y-28489D01*
X28432Y-28495D01*
X28422Y-28388D01*
X28416Y-28334D01*
X28409Y-28278D01*
X28401Y-28224D01*
X28392Y-28175D01*
X28384Y-28133D01*
X28376Y-28102D01*
X28370Y-28085D01*
X28355Y-28072D01*
X28324Y-28059D01*
X28280Y-28049D01*
X28226Y-28040D01*
X28161Y-28033D01*
X28090Y-28028D01*
X28012Y-28024D01*
X27930Y-28023D01*
X27846Y-28025D01*
X27761Y-28028D01*
X27678Y-28034D01*
X27599Y-28042D01*
X27551Y-28048D01*
X27508Y-28054D01*
X27474Y-28059D01*
X27450Y-28063D01*
X27442Y-28065D01*
X27429Y-28074D01*
X27419Y-28090D01*
X27410Y-28117D01*
X27402Y-28155D01*
X27394Y-28208D01*
X27390Y-28236D01*
X27385Y-28289D01*
X27381Y-28340D01*
X27380Y-28393D01*
X27380Y-28393D01*
X27380Y-28393D01*
G37*
G36*
X26190Y-26710D02*
X26190Y-26724D01*
X26198Y-26744D01*
X26199Y-26746D01*
X26214Y-26777D01*
X26273Y-26776D01*
X26312Y-26774D01*
X26352Y-26768D01*
X26378Y-26761D01*
X26427Y-26743D01*
X26466Y-26723D01*
X26502Y-26696D01*
X26526Y-26674D01*
X26566Y-26631D01*
X26601Y-26582D01*
X26631Y-26525D01*
X26656Y-26459D01*
X26677Y-26383D01*
X26694Y-26295D01*
X26709Y-26193D01*
X26720Y-26081D01*
X26727Y-26003D01*
X26735Y-25941D01*
X26743Y-25894D01*
X26752Y-25860D01*
X26761Y-25838D01*
X26772Y-25828D01*
X26778Y-25827D01*
X26811Y-25826D01*
X26854Y-25823D01*
X26905Y-25818D01*
X26960Y-25812D01*
X27018Y-25806D01*
X27074Y-25798D01*
X27127Y-25791D01*
X27174Y-25784D01*
X27211Y-25777D01*
X27237Y-25771D01*
X27246Y-25768D01*
X27258Y-25759D01*
X27268Y-25746D01*
X27276Y-25725D01*
X27284Y-25692D01*
X27290Y-25668D01*
X27303Y-25601D01*
X27312Y-25540D01*
X27317Y-25481D01*
X27319Y-25417D01*
X27318Y-25343D01*
X27318Y-25320D01*
X27314Y-25243D01*
X27308Y-25170D01*
X27300Y-25104D01*
X27291Y-25046D01*
X27280Y-24997D01*
X27269Y-24961D01*
X27257Y-24939D01*
X27253Y-24935D01*
X27230Y-24924D01*
X27191Y-24914D01*
X27141Y-24906D01*
X27079Y-24899D01*
X27009Y-24893D01*
X26933Y-24890D01*
X26853Y-24888D01*
X26769Y-24888D01*
X26686Y-24890D01*
X26604Y-24894D01*
X26526Y-24900D01*
X26475Y-24905D01*
X26419Y-24912D01*
X26377Y-24919D01*
X26347Y-24927D01*
X26327Y-24937D01*
X26313Y-24952D01*
X26305Y-24971D01*
X26299Y-24998D01*
X26296Y-25011D01*
X26281Y-25130D01*
X26275Y-25263D01*
X26277Y-25410D01*
X26287Y-25571D01*
X26288Y-25577D01*
X26293Y-25637D01*
X26299Y-25682D01*
X26304Y-25715D01*
X26311Y-25739D01*
X26319Y-25755D01*
X26329Y-25765D01*
X26339Y-25771D01*
X26369Y-25781D01*
X26395Y-25788D01*
X26395Y-25310D01*
X26396Y-25261D01*
X26398Y-25211D01*
X26400Y-25162D01*
X26403Y-25117D01*
X26407Y-25079D01*
X26411Y-25052D01*
X26415Y-25038D01*
X26416Y-25037D01*
X26425Y-25034D01*
X26447Y-25031D01*
X26479Y-25026D01*
X26517Y-25020D01*
X26561Y-25016D01*
X26617Y-25012D01*
X26680Y-25009D01*
X26749Y-25008D01*
X26820Y-25007D01*
X26890Y-25007D01*
X26957Y-25009D01*
X27016Y-25011D01*
X27065Y-25014D01*
X27102Y-25019D01*
X27107Y-25020D01*
X27166Y-25031D01*
X27181Y-25118D01*
X27190Y-25180D01*
X27196Y-25251D01*
X27199Y-25328D01*
X27199Y-25406D01*
X27196Y-25480D01*
X27190Y-25545D01*
X27184Y-25586D01*
X27169Y-25665D01*
X27059Y-25680D01*
X26941Y-25694D01*
X26836Y-25703D01*
X26740Y-25706D01*
X26650Y-25703D01*
X26563Y-25696D01*
X26512Y-25689D01*
X26473Y-25681D01*
X26443Y-25674D01*
X26426Y-25666D01*
X26424Y-25664D01*
X26418Y-25649D01*
X26413Y-25621D01*
X26408Y-25580D01*
X26404Y-25531D01*
X26400Y-25476D01*
X26397Y-25418D01*
X26396Y-25358D01*
X26395Y-25310D01*
X26395Y-25788D01*
X26410Y-25792D01*
X26459Y-25802D01*
X26511Y-25810D01*
X26561Y-25815D01*
X26567Y-25816D01*
X26635Y-25821D01*
X26627Y-25851D01*
X26624Y-25869D01*
X26620Y-25901D01*
X26615Y-25942D01*
X26610Y-25988D01*
X26607Y-26014D01*
X26597Y-26118D01*
X26586Y-26206D01*
X26574Y-26281D01*
X26562Y-26345D01*
X26548Y-26400D01*
X26532Y-26446D01*
X26514Y-26487D01*
X26493Y-26523D01*
X26472Y-26553D01*
X26450Y-26581D01*
X26426Y-26603D01*
X26400Y-26620D01*
X26367Y-26634D01*
X26325Y-26647D01*
X26271Y-26660D01*
X26242Y-26666D01*
X26212Y-26679D01*
X26198Y-26694D01*
X26190Y-26710D01*
X26190Y-26710D01*
X26190Y-26710D01*
G37*
G36*
X27763Y-39881D02*
X27770Y-39918D01*
X27788Y-39951D01*
X27818Y-39976D01*
X27821Y-39977D01*
X27853Y-39988D01*
X27895Y-39993D01*
X27939Y-39992D01*
X27980Y-39986D01*
X27985Y-39984D01*
X28002Y-39978D01*
X28009Y-39969D01*
X28012Y-39950D01*
X28012Y-39939D01*
X28011Y-39915D01*
X28006Y-39904D01*
X27994Y-39906D01*
X27978Y-39915D01*
X27954Y-39923D01*
X27924Y-39926D01*
X27895Y-39924D01*
X27877Y-39917D01*
X27861Y-39896D01*
X27858Y-39873D01*
X27868Y-39852D01*
X27888Y-39837D01*
X27913Y-39832D01*
X27941Y-39834D01*
X27971Y-39838D01*
X27972Y-39839D01*
X28003Y-39846D01*
X28003Y-39753D01*
X28003Y-39660D01*
X27895Y-39660D01*
X27787Y-39660D01*
X27787Y-39694D01*
X27787Y-39727D01*
X27858Y-39727D01*
X27892Y-39727D01*
X27913Y-39729D01*
X27924Y-39732D01*
X27928Y-39738D01*
X27928Y-39746D01*
X27927Y-39757D01*
X27919Y-39762D01*
X27902Y-39765D01*
X27883Y-39766D01*
X27850Y-39769D01*
X27823Y-39777D01*
X27816Y-39780D01*
X27787Y-39808D01*
X27769Y-39843D01*
X27763Y-39881D01*
X27763Y-39881D01*
X27763Y-39881D01*
G37*
G36*
X37362Y-40352D02*
X37483Y-40352D01*
X37603Y-40352D01*
X37603Y-40315D01*
X37602Y-40292D01*
X37599Y-40279D01*
X37597Y-40277D01*
X37589Y-40272D01*
X37571Y-40257D01*
X37547Y-40235D01*
X37522Y-40212D01*
X37490Y-40181D01*
X37469Y-40158D01*
X37457Y-40140D01*
X37454Y-40127D01*
X37453Y-40126D01*
X37460Y-40102D01*
X37479Y-40087D01*
X37506Y-40082D01*
X37539Y-40087D01*
X37561Y-40096D01*
X37581Y-40105D01*
X37595Y-40110D01*
X37596Y-40110D01*
X37601Y-40103D01*
X37603Y-40086D01*
X37603Y-40064D01*
X37601Y-40044D01*
X37597Y-40033D01*
X37597Y-40032D01*
X37585Y-40029D01*
X37563Y-40024D01*
X37537Y-40019D01*
X37481Y-40015D01*
X37434Y-40022D01*
X37398Y-40039D01*
X37374Y-40065D01*
X37363Y-40100D01*
X37362Y-40113D01*
X37364Y-40138D01*
X37373Y-40162D01*
X37390Y-40186D01*
X37417Y-40215D01*
X37441Y-40239D01*
X37491Y-40285D01*
X37426Y-40285D01*
X37362Y-40285D01*
X37362Y-40319D01*
X37362Y-40352D01*
X37362Y-40352D01*
X37362Y-40352D01*
G37*
G36*
X56195Y-39433D02*
X56199Y-39469D01*
X56211Y-39494D01*
X56234Y-39512D01*
X56248Y-39519D01*
X56279Y-39528D01*
X56319Y-39533D01*
X56362Y-39535D01*
X56402Y-39532D01*
X56420Y-39528D01*
X56434Y-39521D01*
X56441Y-39509D01*
X56444Y-39486D01*
X56445Y-39464D01*
X56442Y-39454D01*
X56434Y-39454D01*
X56427Y-39456D01*
X56396Y-39463D01*
X56362Y-39466D01*
X56331Y-39466D01*
X56308Y-39462D01*
X56305Y-39461D01*
X56291Y-39446D01*
X56288Y-39426D01*
X56296Y-39408D01*
X56303Y-39402D01*
X56322Y-39397D01*
X56348Y-39394D01*
X56353Y-39394D01*
X56387Y-39394D01*
X56387Y-39361D01*
X56387Y-39328D01*
X56348Y-39325D01*
X56317Y-39319D01*
X56299Y-39307D01*
X56296Y-39291D01*
X56301Y-39279D01*
X56315Y-39270D01*
X56339Y-39265D01*
X56369Y-39264D01*
X56398Y-39268D01*
X56410Y-39271D01*
X56422Y-39274D01*
X56427Y-39269D01*
X56429Y-39253D01*
X56429Y-39241D01*
X56428Y-39218D01*
X56423Y-39207D01*
X56410Y-39201D01*
X56397Y-39199D01*
X56345Y-39194D01*
X56296Y-39196D01*
X56256Y-39204D01*
X56227Y-39219D01*
X56213Y-39234D01*
X56204Y-39262D01*
X56204Y-39294D01*
X56212Y-39322D01*
X56222Y-39335D01*
X56240Y-39352D01*
X56218Y-39374D01*
X56202Y-39394D01*
X56196Y-39418D01*
X56195Y-39433D01*
X56195Y-39433D01*
X56195Y-39433D01*
G37*
G36*
X56504Y-39527D02*
X56625Y-39527D01*
X56745Y-39527D01*
X56745Y-39492D01*
X56744Y-39476D01*
X56740Y-39462D01*
X56731Y-39449D01*
X56715Y-39432D01*
X56690Y-39409D01*
X56674Y-39395D01*
X56643Y-39367D01*
X56622Y-39347D01*
X56611Y-39332D01*
X56605Y-39319D01*
X56604Y-39306D01*
X56610Y-39280D01*
X56628Y-39265D01*
X56655Y-39261D01*
X56692Y-39269D01*
X56710Y-39277D01*
X56745Y-39293D01*
X56745Y-39252D01*
X56745Y-39227D01*
X56740Y-39213D01*
X56730Y-39207D01*
X56722Y-39204D01*
X56703Y-39201D01*
X56673Y-39199D01*
X56639Y-39198D01*
X56636Y-39198D01*
X56589Y-39201D01*
X56555Y-39211D01*
X56532Y-39229D01*
X56516Y-39258D01*
X56515Y-39262D01*
X56509Y-39292D01*
X56513Y-39320D01*
X56528Y-39349D01*
X56555Y-39383D01*
X56577Y-39405D01*
X56633Y-39460D01*
X56568Y-39460D01*
X56504Y-39460D01*
X56504Y-39494D01*
X56504Y-39527D01*
X56504Y-39527D01*
X56504Y-39527D01*
G37*
G36*
X53520Y-39735D02*
X53641Y-39735D01*
X53762Y-39735D01*
X53762Y-39702D01*
X53760Y-39682D01*
X53754Y-39666D01*
X53739Y-39648D01*
X53722Y-39633D01*
X53683Y-39598D01*
X53655Y-39571D01*
X53637Y-39551D01*
X53626Y-39536D01*
X53621Y-39523D01*
X53620Y-39516D01*
X53627Y-39490D01*
X53645Y-39475D01*
X53672Y-39469D01*
X53706Y-39476D01*
X53729Y-39486D01*
X53762Y-39502D01*
X53762Y-39461D01*
X53761Y-39436D01*
X53757Y-39422D01*
X53747Y-39415D01*
X53739Y-39413D01*
X53720Y-39409D01*
X53690Y-39407D01*
X53655Y-39406D01*
X53652Y-39406D01*
X53606Y-39409D01*
X53572Y-39419D01*
X53549Y-39438D01*
X53533Y-39466D01*
X53531Y-39471D01*
X53525Y-39500D01*
X53529Y-39527D01*
X53544Y-39556D01*
X53570Y-39589D01*
X53595Y-39613D01*
X53652Y-39669D01*
X53586Y-39669D01*
X53520Y-39669D01*
X53520Y-39702D01*
X53520Y-39735D01*
X53520Y-39735D01*
X53520Y-39735D01*
G37*
G36*
X53195Y-39644D02*
X53197Y-39665D01*
X53202Y-39675D01*
X53214Y-39677D01*
X53216Y-39677D01*
X53230Y-39679D01*
X53236Y-39689D01*
X53237Y-39706D01*
X53237Y-39735D01*
X53283Y-39735D01*
X53329Y-39735D01*
X53329Y-39706D01*
X53329Y-39677D01*
X53329Y-39610D01*
X53329Y-39555D01*
X53329Y-39499D01*
X53360Y-39544D01*
X53382Y-39575D01*
X53394Y-39594D01*
X53398Y-39605D01*
X53393Y-39609D01*
X53380Y-39610D01*
X53367Y-39610D01*
X53329Y-39610D01*
X53329Y-39677D01*
X53400Y-39677D01*
X53470Y-39677D01*
X53470Y-39638D01*
X53470Y-39621D01*
X53466Y-39604D01*
X53458Y-39586D01*
X53444Y-39562D01*
X53423Y-39529D01*
X53406Y-39505D01*
X53342Y-39410D01*
X53290Y-39410D01*
X53237Y-39410D01*
X53237Y-39510D01*
X53237Y-39610D01*
X53216Y-39610D01*
X53203Y-39612D01*
X53197Y-39621D01*
X53195Y-39641D01*
X53195Y-39644D01*
X53195Y-39644D01*
X53195Y-39644D01*
G37*
G36*
X40095Y-40402D02*
X40212Y-40402D01*
X40328Y-40402D01*
X40328Y-40369D01*
X40328Y-40335D01*
X40291Y-40335D01*
X40253Y-40335D01*
X40253Y-40236D01*
X40253Y-40137D01*
X40285Y-40144D01*
X40313Y-40150D01*
X40328Y-40150D01*
X40335Y-40142D01*
X40337Y-40125D01*
X40337Y-40120D01*
X40337Y-40088D01*
X40290Y-40078D01*
X40256Y-40073D01*
X40221Y-40069D01*
X40206Y-40069D01*
X40170Y-40069D01*
X40170Y-40202D01*
X40170Y-40335D01*
X40133Y-40335D01*
X40095Y-40335D01*
X40095Y-40369D01*
X40095Y-40402D01*
X40095Y-40402D01*
X40095Y-40402D01*
G37*
G36*
X49499Y-40290D02*
X49508Y-40330D01*
X49530Y-40364D01*
X49547Y-40380D01*
X49570Y-40390D01*
X49604Y-40397D01*
X49644Y-40399D01*
X49683Y-40398D01*
X49714Y-40392D01*
X49734Y-40386D01*
X49743Y-40377D01*
X49745Y-40360D01*
X49745Y-40347D01*
X49745Y-40325D01*
X49743Y-40312D01*
X49742Y-40310D01*
X49733Y-40313D01*
X49715Y-40320D01*
X49709Y-40323D01*
X49679Y-40332D01*
X49649Y-40335D01*
X49624Y-40333D01*
X49615Y-40329D01*
X49605Y-40317D01*
X49596Y-40304D01*
X49590Y-40286D01*
X49596Y-40269D01*
X49599Y-40264D01*
X49617Y-40246D01*
X49640Y-40237D01*
X49673Y-40238D01*
X49717Y-40248D01*
X49718Y-40249D01*
X49726Y-40250D01*
X49732Y-40249D01*
X49735Y-40240D01*
X49736Y-40223D01*
X49737Y-40194D01*
X49737Y-40157D01*
X49737Y-40060D01*
X49629Y-40060D01*
X49520Y-40060D01*
X49520Y-40098D01*
X49520Y-40135D01*
X49591Y-40135D01*
X49626Y-40136D01*
X49647Y-40137D01*
X49658Y-40140D01*
X49662Y-40146D01*
X49662Y-40152D01*
X49659Y-40163D01*
X49648Y-40168D01*
X49629Y-40169D01*
X49590Y-40174D01*
X49553Y-40187D01*
X49525Y-40207D01*
X49518Y-40214D01*
X49502Y-40250D01*
X49499Y-40290D01*
X49499Y-40290D01*
X49499Y-40290D01*
G37*
G36*
X49812Y-40394D02*
X49933Y-40394D01*
X50054Y-40394D01*
X50054Y-40358D01*
X50053Y-40341D01*
X50050Y-40327D01*
X50041Y-40314D01*
X50025Y-40298D01*
X50000Y-40275D01*
X49988Y-40265D01*
X49960Y-40240D01*
X49936Y-40218D01*
X49921Y-40202D01*
X49917Y-40196D01*
X49912Y-40171D01*
X49916Y-40147D01*
X49922Y-40137D01*
X49940Y-40129D01*
X49968Y-40128D01*
X50000Y-40133D01*
X50018Y-40140D01*
X50038Y-40147D01*
X50050Y-40152D01*
X50051Y-40152D01*
X50053Y-40145D01*
X50053Y-40126D01*
X50052Y-40113D01*
X50050Y-40089D01*
X50044Y-40076D01*
X50031Y-40069D01*
X50020Y-40066D01*
X49997Y-40063D01*
X49964Y-40061D01*
X49931Y-40062D01*
X49898Y-40064D01*
X49877Y-40068D01*
X49861Y-40076D01*
X49846Y-40089D01*
X49845Y-40091D01*
X49828Y-40111D01*
X49820Y-40133D01*
X49819Y-40154D01*
X49820Y-40179D01*
X49825Y-40199D01*
X49836Y-40218D01*
X49854Y-40240D01*
X49883Y-40267D01*
X49892Y-40276D01*
X49948Y-40327D01*
X49880Y-40327D01*
X49812Y-40327D01*
X49812Y-40360D01*
X49812Y-40394D01*
X49812Y-40394D01*
X49812Y-40394D01*
G37*
G36*
X32762Y-39704D02*
X32767Y-39741D01*
X32784Y-39769D01*
X32813Y-39788D01*
X32855Y-39798D01*
X32909Y-39801D01*
X32943Y-39800D01*
X32973Y-39798D01*
X32992Y-39796D01*
X32993Y-39796D01*
X33005Y-39791D01*
X33010Y-39780D01*
X33012Y-39757D01*
X33012Y-39756D01*
X33011Y-39733D01*
X33010Y-39720D01*
X33010Y-39719D01*
X33001Y-39721D01*
X32982Y-39727D01*
X32966Y-39731D01*
X32928Y-39739D01*
X32894Y-39738D01*
X32869Y-39729D01*
X32855Y-39712D01*
X32853Y-39701D01*
X32861Y-39683D01*
X32881Y-39669D01*
X32909Y-39661D01*
X32922Y-39660D01*
X32943Y-39659D01*
X32951Y-39653D01*
X32953Y-39637D01*
X32953Y-39632D01*
X32952Y-39614D01*
X32945Y-39605D01*
X32929Y-39599D01*
X32918Y-39598D01*
X32886Y-39590D01*
X32868Y-39578D01*
X32862Y-39562D01*
X32862Y-39560D01*
X32869Y-39543D01*
X32889Y-39533D01*
X32917Y-39529D01*
X32950Y-39531D01*
X32981Y-39540D01*
X32990Y-39542D01*
X32994Y-39535D01*
X32994Y-39515D01*
X32994Y-39509D01*
X32991Y-39473D01*
X32943Y-39466D01*
X32886Y-39462D01*
X32838Y-39469D01*
X32800Y-39487D01*
X32795Y-39491D01*
X32779Y-39508D01*
X32772Y-39527D01*
X32770Y-39549D01*
X32773Y-39578D01*
X32783Y-39597D01*
X32789Y-39604D01*
X32808Y-39621D01*
X32785Y-39644D01*
X32769Y-39665D01*
X32762Y-39689D01*
X32762Y-39704D01*
X32762Y-39704D01*
X32762Y-39704D01*
G37*
G36*
X29187Y-39706D02*
X29188Y-39729D01*
X29192Y-39740D01*
X29202Y-39743D01*
X29212Y-39744D01*
X29229Y-39745D01*
X29236Y-39754D01*
X29237Y-39773D01*
X29237Y-39802D01*
X29278Y-39802D01*
X29320Y-39802D01*
X29320Y-39773D01*
X29320Y-39744D01*
X29320Y-39669D01*
X29320Y-39613D01*
X29321Y-39586D01*
X29322Y-39567D01*
X29323Y-39561D01*
X29329Y-39569D01*
X29341Y-39587D01*
X29358Y-39612D01*
X29361Y-39617D01*
X29396Y-39669D01*
X29358Y-39669D01*
X29320Y-39669D01*
X29320Y-39744D01*
X29391Y-39744D01*
X29462Y-39744D01*
X29462Y-39702D01*
X29461Y-39684D01*
X29458Y-39667D01*
X29451Y-39649D01*
X29438Y-39626D01*
X29418Y-39595D01*
X29398Y-39564D01*
X29334Y-39469D01*
X29286Y-39469D01*
X29237Y-39469D01*
X29237Y-39569D01*
X29237Y-39669D01*
X29212Y-39669D01*
X29196Y-39670D01*
X29189Y-39676D01*
X29187Y-39692D01*
X29187Y-39706D01*
X29187Y-39706D01*
X29187Y-39706D01*
G37*
G36*
X57812Y-39727D02*
X57933Y-39727D01*
X58054Y-39727D01*
X58054Y-39695D01*
X58053Y-39681D01*
X58048Y-39668D01*
X58039Y-39653D01*
X58021Y-39635D01*
X57994Y-39609D01*
X57983Y-39599D01*
X57946Y-39564D01*
X57921Y-39536D01*
X57909Y-39514D01*
X57906Y-39496D01*
X57914Y-39480D01*
X57917Y-39477D01*
X57939Y-39463D01*
X57971Y-39462D01*
X58007Y-39473D01*
X58016Y-39477D01*
X58037Y-39487D01*
X58049Y-39493D01*
X58051Y-39494D01*
X58053Y-39486D01*
X58054Y-39467D01*
X58054Y-39453D01*
X58054Y-39412D01*
X58011Y-39402D01*
X57972Y-39396D01*
X57930Y-39396D01*
X57891Y-39400D01*
X57860Y-39409D01*
X57852Y-39414D01*
X57827Y-39439D01*
X57814Y-39473D01*
X57814Y-39510D01*
X57824Y-39543D01*
X57836Y-39560D01*
X57857Y-39583D01*
X57883Y-39608D01*
X57889Y-39614D01*
X57941Y-39660D01*
X57877Y-39660D01*
X57812Y-39660D01*
X57812Y-39694D01*
X57812Y-39727D01*
X57812Y-39727D01*
X57812Y-39727D01*
G37*
G36*
X57504Y-39727D02*
X57625Y-39727D01*
X57745Y-39727D01*
X57745Y-39695D01*
X57744Y-39677D01*
X57738Y-39663D01*
X57726Y-39647D01*
X57703Y-39626D01*
X57696Y-39620D01*
X57656Y-39584D01*
X57628Y-39557D01*
X57609Y-39537D01*
X57599Y-39521D01*
X57595Y-39508D01*
X57595Y-39507D01*
X57602Y-39483D01*
X57621Y-39467D01*
X57648Y-39462D01*
X57681Y-39466D01*
X57708Y-39477D01*
X57728Y-39487D01*
X57741Y-39493D01*
X57743Y-39494D01*
X57744Y-39486D01*
X57745Y-39467D01*
X57745Y-39453D01*
X57745Y-39412D01*
X57708Y-39403D01*
X57651Y-39394D01*
X57602Y-39395D01*
X57560Y-39407D01*
X57529Y-39429D01*
X57510Y-39459D01*
X57504Y-39494D01*
X57508Y-39521D01*
X57520Y-39548D01*
X57543Y-39578D01*
X57579Y-39613D01*
X57580Y-39614D01*
X57632Y-39660D01*
X57568Y-39660D01*
X57504Y-39660D01*
X57504Y-39694D01*
X57504Y-39727D01*
X57504Y-39727D01*
X57504Y-39727D01*
G37*
G36*
X58070Y-37619D02*
X58191Y-37619D01*
X58312Y-37619D01*
X58312Y-37583D01*
X58311Y-37566D01*
X58308Y-37553D01*
X58299Y-37539D01*
X58284Y-37523D01*
X58258Y-37500D01*
X58246Y-37489D01*
X58207Y-37454D01*
X58182Y-37426D01*
X58168Y-37403D01*
X58165Y-37384D01*
X58170Y-37370D01*
X58184Y-37353D01*
X58205Y-37347D01*
X58234Y-37350D01*
X58274Y-37362D01*
X58306Y-37376D01*
X58309Y-37370D01*
X58312Y-37352D01*
X58312Y-37337D01*
X58312Y-37296D01*
X58258Y-37285D01*
X58200Y-37279D01*
X58152Y-37284D01*
X58114Y-37300D01*
X58087Y-37326D01*
X58074Y-37361D01*
X58073Y-37365D01*
X58073Y-37393D01*
X58080Y-37419D01*
X58097Y-37446D01*
X58125Y-37477D01*
X58145Y-37496D01*
X58196Y-37544D01*
X58133Y-37544D01*
X58070Y-37544D01*
X58070Y-37581D01*
X58070Y-37619D01*
X58070Y-37619D01*
X58070Y-37619D01*
G37*
G36*
X57754Y-37619D02*
X57870Y-37619D01*
X57987Y-37619D01*
X57987Y-37585D01*
X57987Y-37552D01*
X57950Y-37552D01*
X57912Y-37552D01*
X57912Y-37452D01*
X57913Y-37413D01*
X57914Y-37382D01*
X57916Y-37360D01*
X57918Y-37352D01*
X57930Y-37354D01*
X57951Y-37358D01*
X57956Y-37360D01*
X57987Y-37367D01*
X57987Y-37335D01*
X57985Y-37313D01*
X57980Y-37299D01*
X57978Y-37297D01*
X57966Y-37294D01*
X57942Y-37291D01*
X57910Y-37288D01*
X57899Y-37287D01*
X57829Y-37283D01*
X57829Y-37417D01*
X57829Y-37552D01*
X57791Y-37552D01*
X57754Y-37552D01*
X57754Y-37585D01*
X57754Y-37619D01*
X57754Y-37619D01*
X57754Y-37619D01*
G37*
G36*
X27624Y-36955D02*
X27637Y-36991D01*
X27661Y-37021D01*
X27692Y-37041D01*
X27713Y-37045D01*
X27713Y-36952D01*
X27714Y-36924D01*
X27724Y-36901D01*
X27740Y-36888D01*
X27760Y-36886D01*
X27774Y-36894D01*
X27782Y-36909D01*
X27786Y-36932D01*
X27786Y-36957D01*
X27780Y-36974D01*
X27764Y-36986D01*
X27744Y-36986D01*
X27726Y-36976D01*
X27714Y-36957D01*
X27713Y-36952D01*
X27713Y-37045D01*
X27733Y-37050D01*
X27777Y-37049D01*
X27808Y-37040D01*
X27844Y-37016D01*
X27869Y-36981D01*
X27883Y-36933D01*
X27887Y-36882D01*
X27880Y-36827D01*
X27862Y-36780D01*
X27833Y-36744D01*
X27794Y-36720D01*
X27793Y-36719D01*
X27767Y-36714D01*
X27733Y-36711D01*
X27697Y-36711D01*
X27668Y-36715D01*
X27664Y-36716D01*
X27652Y-36722D01*
X27646Y-36734D01*
X27645Y-36756D01*
X27645Y-36792D01*
X27680Y-36780D01*
X27720Y-36772D01*
X27753Y-36779D01*
X27776Y-36796D01*
X27792Y-36813D01*
X27794Y-36823D01*
X27782Y-36829D01*
X27754Y-36829D01*
X27743Y-36829D01*
X27712Y-36828D01*
X27693Y-36830D01*
X27677Y-36837D01*
X27664Y-36847D01*
X27637Y-36879D01*
X27624Y-36916D01*
X27624Y-36955D01*
X27624Y-36955D01*
X27624Y-36955D01*
G37*
G36*
X26928Y-35634D02*
X26932Y-35655D01*
X26942Y-35688D01*
X26960Y-35733D01*
X26986Y-35792D01*
X26989Y-35799D01*
X27050Y-35931D01*
X27094Y-35934D01*
X27122Y-35934D01*
X27136Y-35929D01*
X27137Y-35927D01*
X27133Y-35916D01*
X27124Y-35893D01*
X27110Y-35861D01*
X27093Y-35822D01*
X27083Y-35799D01*
X27064Y-35759D01*
X27048Y-35723D01*
X27036Y-35696D01*
X27030Y-35679D01*
X27028Y-35675D01*
X27036Y-35672D01*
X27057Y-35670D01*
X27087Y-35669D01*
X27103Y-35669D01*
X27178Y-35669D01*
X27178Y-35635D01*
X27178Y-35602D01*
X27053Y-35602D01*
X26928Y-35602D01*
X26928Y-35634D01*
X26928Y-35634D01*
X26928Y-35634D01*
G37*
G36*
X57746Y-34948D02*
X57750Y-35004D01*
X57764Y-35048D01*
X57788Y-35081D01*
X57804Y-35095D01*
X57831Y-35107D01*
X57837Y-35108D01*
X57837Y-34949D01*
X57837Y-34942D01*
X57838Y-34905D01*
X57840Y-34881D01*
X57844Y-34865D01*
X57852Y-34854D01*
X57854Y-34852D01*
X57869Y-34840D01*
X57879Y-34835D01*
X57890Y-34841D01*
X57904Y-34852D01*
X57914Y-34867D01*
X57920Y-34888D01*
X57922Y-34920D01*
X57921Y-34964D01*
X57921Y-34977D01*
X57915Y-35012D01*
X57903Y-35037D01*
X57888Y-35050D01*
X57870Y-35051D01*
X57852Y-35036D01*
X57850Y-35033D01*
X57843Y-35017D01*
X57839Y-34989D01*
X57837Y-34949D01*
X57837Y-35108D01*
X57866Y-35114D01*
X57902Y-35115D01*
X57924Y-35110D01*
X57961Y-35091D01*
X57989Y-35059D01*
X58006Y-35015D01*
X58013Y-34958D01*
X58013Y-34943D01*
X58009Y-34885D01*
X57995Y-34839D01*
X57971Y-34807D01*
X57937Y-34785D01*
X57914Y-34778D01*
X57884Y-34775D01*
X57855Y-34776D01*
X57849Y-34777D01*
X57809Y-34792D01*
X57779Y-34817D01*
X57759Y-34853D01*
X57748Y-34902D01*
X57746Y-34948D01*
X57746Y-34948D01*
X57746Y-34948D01*
G37*
G36*
X58070Y-35110D02*
X58191Y-35110D01*
X58312Y-35110D01*
X58312Y-35075D01*
X58311Y-35059D01*
X58307Y-35045D01*
X58299Y-35032D01*
X58282Y-35015D01*
X58257Y-34992D01*
X58244Y-34981D01*
X58216Y-34956D01*
X58192Y-34933D01*
X58175Y-34915D01*
X58169Y-34908D01*
X58164Y-34883D01*
X58173Y-34860D01*
X58194Y-34844D01*
X58211Y-34840D01*
X58230Y-34841D01*
X58255Y-34847D01*
X58290Y-34861D01*
X58298Y-34864D01*
X58307Y-34867D01*
X58311Y-34860D01*
X58311Y-34843D01*
X58311Y-34831D01*
X58308Y-34806D01*
X58302Y-34793D01*
X58290Y-34786D01*
X58283Y-34783D01*
X58261Y-34779D01*
X58230Y-34776D01*
X58203Y-34775D01*
X58152Y-34779D01*
X58113Y-34793D01*
X58087Y-34818D01*
X58074Y-34852D01*
X58073Y-34885D01*
X58076Y-34903D01*
X58082Y-34919D01*
X58094Y-34936D01*
X58114Y-34957D01*
X58139Y-34983D01*
X58202Y-35044D01*
X58136Y-35044D01*
X58070Y-35044D01*
X58070Y-35077D01*
X58070Y-35110D01*
X58070Y-35110D01*
X58070Y-35110D01*
G37*
G36*
X57752Y-32374D02*
X57757Y-32432D01*
X57773Y-32478D01*
X57799Y-32512D01*
X57828Y-32532D01*
X57870Y-32547D01*
X57918Y-32551D01*
X57966Y-32545D01*
X57970Y-32544D01*
X57984Y-32538D01*
X57991Y-32525D01*
X57994Y-32502D01*
X57995Y-32480D01*
X57992Y-32471D01*
X57984Y-32472D01*
X57981Y-32473D01*
X57955Y-32480D01*
X57921Y-32484D01*
X57891Y-32483D01*
X57883Y-32482D01*
X57865Y-32471D01*
X57850Y-32452D01*
X57840Y-32431D01*
X57839Y-32422D01*
X57847Y-32423D01*
X57848Y-32424D01*
X57848Y-32311D01*
X57858Y-32289D01*
X57876Y-32275D01*
X57887Y-32273D01*
X57907Y-32280D01*
X57919Y-32297D01*
X57925Y-32320D01*
X57922Y-32343D01*
X57911Y-32362D01*
X57901Y-32368D01*
X57877Y-32370D01*
X57858Y-32357D01*
X57848Y-32338D01*
X57848Y-32311D01*
X57848Y-32424D01*
X57853Y-32426D01*
X57879Y-32434D01*
X57912Y-32434D01*
X57945Y-32429D01*
X57962Y-32422D01*
X57990Y-32399D01*
X58007Y-32365D01*
X58012Y-32325D01*
X58005Y-32281D01*
X57985Y-32246D01*
X57953Y-32223D01*
X57910Y-32211D01*
X57888Y-32210D01*
X57839Y-32217D01*
X57802Y-32236D01*
X57774Y-32268D01*
X57758Y-32312D01*
X57752Y-32370D01*
X57752Y-32374D01*
X57752Y-32374D01*
X57752Y-32374D01*
G37*
G36*
X58062Y-32543D02*
X58179Y-32543D01*
X58295Y-32543D01*
X58295Y-32510D01*
X58295Y-32477D01*
X58258Y-32477D01*
X58220Y-32477D01*
X58220Y-32378D01*
X58220Y-32279D01*
X58252Y-32286D01*
X58277Y-32291D01*
X58290Y-32291D01*
X58295Y-32282D01*
X58295Y-32264D01*
X58295Y-32262D01*
X58295Y-32243D01*
X58290Y-32232D01*
X58276Y-32226D01*
X58253Y-32220D01*
X58220Y-32214D01*
X58185Y-32210D01*
X58174Y-32210D01*
X58137Y-32210D01*
X58137Y-32343D01*
X58137Y-32477D01*
X58100Y-32477D01*
X58062Y-32477D01*
X58062Y-32510D01*
X58062Y-32543D01*
X58062Y-32543D01*
X58062Y-32543D01*
G37*
G36*
X27543Y-32091D02*
X27553Y-32123D01*
X27572Y-32149D01*
X27586Y-32161D01*
X27601Y-32169D01*
X27622Y-32172D01*
X27631Y-32173D01*
X27631Y-32085D01*
X27631Y-32062D01*
X27638Y-32047D01*
X27638Y-31939D01*
X27640Y-31918D01*
X27653Y-31902D01*
X27654Y-31901D01*
X27677Y-31896D01*
X27696Y-31906D01*
X27703Y-31917D01*
X27706Y-31937D01*
X27697Y-31954D01*
X27681Y-31965D01*
X27662Y-31967D01*
X27647Y-31958D01*
X27638Y-31939D01*
X27638Y-32047D01*
X27640Y-32041D01*
X27657Y-32028D01*
X27667Y-32027D01*
X27693Y-32033D01*
X27708Y-32052D01*
X27712Y-32072D01*
X27706Y-32098D01*
X27690Y-32114D01*
X27669Y-32119D01*
X27646Y-32110D01*
X27642Y-32105D01*
X27631Y-32085D01*
X27631Y-32173D01*
X27653Y-32174D01*
X27660Y-32175D01*
X27709Y-32174D01*
X27744Y-32168D01*
X27751Y-32165D01*
X27778Y-32145D01*
X27795Y-32116D01*
X27802Y-32082D01*
X27798Y-32049D01*
X27783Y-32020D01*
X27776Y-32014D01*
X27756Y-31996D01*
X27776Y-31974D01*
X27792Y-31943D01*
X27794Y-31911D01*
X27783Y-31881D01*
X27759Y-31857D01*
X27732Y-31843D01*
X27698Y-31837D01*
X27659Y-31836D01*
X27622Y-31841D01*
X27591Y-31851D01*
X27581Y-31857D01*
X27557Y-31884D01*
X27547Y-31916D01*
X27552Y-31948D01*
X27572Y-31978D01*
X27574Y-31980D01*
X27595Y-31999D01*
X27574Y-32010D01*
X27554Y-32030D01*
X27543Y-32058D01*
X27543Y-32091D01*
X27543Y-32091D01*
X27543Y-32091D01*
G37*
G36*
X57248Y-31357D02*
X57258Y-31392D01*
X57281Y-31420D01*
X57296Y-31429D01*
X57329Y-31439D01*
X57339Y-31440D01*
X57339Y-31351D01*
X57339Y-31328D01*
X57346Y-31314D01*
X57346Y-31204D01*
X57349Y-31184D01*
X57360Y-31169D01*
X57376Y-31161D01*
X57393Y-31165D01*
X57407Y-31181D01*
X57411Y-31202D01*
X57404Y-31221D01*
X57389Y-31233D01*
X57379Y-31235D01*
X57361Y-31229D01*
X57354Y-31223D01*
X57346Y-31204D01*
X57346Y-31314D01*
X57350Y-31307D01*
X57368Y-31295D01*
X57379Y-31293D01*
X57400Y-31301D01*
X57416Y-31319D01*
X57420Y-31339D01*
X57414Y-31363D01*
X57397Y-31380D01*
X57379Y-31385D01*
X57360Y-31379D01*
X57350Y-31372D01*
X57339Y-31351D01*
X57339Y-31440D01*
X57371Y-31444D01*
X57414Y-31441D01*
X57451Y-31433D01*
X57462Y-31428D01*
X57491Y-31404D01*
X57507Y-31371D01*
X57508Y-31333D01*
X57505Y-31318D01*
X57491Y-31290D01*
X57475Y-31275D01*
X57455Y-31266D01*
X57476Y-31249D01*
X57494Y-31223D01*
X57502Y-31191D01*
X57498Y-31160D01*
X57492Y-31147D01*
X57467Y-31124D01*
X57433Y-31109D01*
X57392Y-31102D01*
X57351Y-31103D01*
X57312Y-31113D01*
X57280Y-31130D01*
X57267Y-31144D01*
X57255Y-31176D01*
X57257Y-31209D01*
X57274Y-31239D01*
X57277Y-31243D01*
X57301Y-31267D01*
X57282Y-31276D01*
X57265Y-31291D01*
X57253Y-31318D01*
X57248Y-31357D01*
X57248Y-31357D01*
X57248Y-31357D01*
G37*
G36*
X57562Y-31435D02*
X57679Y-31435D01*
X57795Y-31435D01*
X57795Y-31406D01*
X57795Y-31388D01*
X57789Y-31380D01*
X57775Y-31377D01*
X57758Y-31377D01*
X57720Y-31377D01*
X57720Y-31276D01*
X57720Y-31176D01*
X57758Y-31181D01*
X57795Y-31187D01*
X57795Y-31154D01*
X57794Y-31132D01*
X57788Y-31122D01*
X57772Y-31117D01*
X57764Y-31115D01*
X57738Y-31113D01*
X57705Y-31111D01*
X57681Y-31110D01*
X57629Y-31110D01*
X57629Y-31243D01*
X57629Y-31377D01*
X57595Y-31377D01*
X57574Y-31378D01*
X57565Y-31383D01*
X57562Y-31397D01*
X57562Y-31406D01*
X57562Y-31435D01*
X57562Y-31435D01*
X57562Y-31435D01*
G37*
G36*
X55670Y-31085D02*
X55787Y-31085D01*
X55904Y-31085D01*
X55904Y-31052D01*
X55904Y-31018D01*
X55866Y-31018D01*
X55829Y-31018D01*
X55829Y-30918D01*
X55829Y-30875D01*
X55830Y-30847D01*
X55832Y-30830D01*
X55835Y-30822D01*
X55840Y-30821D01*
X55843Y-30821D01*
X55874Y-30829D01*
X55892Y-30832D01*
X55901Y-30828D01*
X55904Y-30817D01*
X55904Y-30803D01*
X55903Y-30783D01*
X55897Y-30772D01*
X55882Y-30765D01*
X55867Y-30761D01*
X55835Y-30755D01*
X55799Y-30752D01*
X55788Y-30752D01*
X55745Y-30752D01*
X55745Y-30885D01*
X55745Y-31018D01*
X55708Y-31018D01*
X55670Y-31018D01*
X55670Y-31052D01*
X55670Y-31085D01*
X55670Y-31085D01*
X55670Y-31085D01*
G37*
G36*
X55362Y-30778D02*
X55366Y-30794D01*
X55375Y-30823D01*
X55390Y-30861D01*
X55409Y-30906D01*
X55426Y-30945D01*
X55490Y-31085D01*
X55534Y-31085D01*
X55559Y-31084D01*
X55575Y-31081D01*
X55578Y-31079D01*
X55575Y-31070D01*
X55566Y-31048D01*
X55552Y-31016D01*
X55534Y-30977D01*
X55521Y-30948D01*
X55464Y-30823D01*
X55538Y-30820D01*
X55612Y-30818D01*
X55612Y-30785D01*
X55612Y-30752D01*
X55487Y-30752D01*
X55362Y-30752D01*
X55362Y-30778D01*
X55362Y-30778D01*
X55362Y-30778D01*
G37*
G36*
X50849Y-30221D02*
X50859Y-30258D01*
X50882Y-30291D01*
X50906Y-30310D01*
X50938Y-30322D01*
X50938Y-30322D01*
X50938Y-30211D01*
X50945Y-30189D01*
X50959Y-30172D01*
X50978Y-30165D01*
X50987Y-30166D01*
X51003Y-30173D01*
X51011Y-30186D01*
X51014Y-30211D01*
X51014Y-30215D01*
X51009Y-30245D01*
X50996Y-30263D01*
X50978Y-30268D01*
X50956Y-30258D01*
X50952Y-30255D01*
X50940Y-30235D01*
X50938Y-30211D01*
X50938Y-30322D01*
X50977Y-30326D01*
X51017Y-30322D01*
X51042Y-30315D01*
X51073Y-30292D01*
X51095Y-30256D01*
X51108Y-30207D01*
X51110Y-30181D01*
X51110Y-30127D01*
X51101Y-30084D01*
X51083Y-30047D01*
X51072Y-30034D01*
X51037Y-30005D01*
X50992Y-29988D01*
X50939Y-29985D01*
X50896Y-29990D01*
X50880Y-29995D01*
X50873Y-30003D01*
X50871Y-30021D01*
X50870Y-30033D01*
X50871Y-30056D01*
X50875Y-30065D01*
X50883Y-30065D01*
X50885Y-30064D01*
X50902Y-30059D01*
X50927Y-30055D01*
X50940Y-30054D01*
X50967Y-30053D01*
X50985Y-30058D01*
X51000Y-30069D01*
X51017Y-30087D01*
X51019Y-30098D01*
X51007Y-30104D01*
X50980Y-30104D01*
X50972Y-30104D01*
X50942Y-30103D01*
X50920Y-30107D01*
X50899Y-30117D01*
X50895Y-30120D01*
X50867Y-30148D01*
X50852Y-30183D01*
X50849Y-30221D01*
X50849Y-30221D01*
X50849Y-30221D01*
G37*
G36*
X51162Y-30318D02*
X51279Y-30318D01*
X51395Y-30318D01*
X51395Y-30289D01*
X51394Y-30271D01*
X51388Y-30262D01*
X51372Y-30260D01*
X51362Y-30260D01*
X51329Y-30260D01*
X51329Y-30160D01*
X51329Y-30059D01*
X51367Y-30065D01*
X51405Y-30070D01*
X51402Y-30039D01*
X51399Y-30020D01*
X51391Y-30008D01*
X51376Y-30000D01*
X51351Y-29996D01*
X51313Y-29995D01*
X51297Y-29994D01*
X51237Y-29993D01*
X51237Y-30127D01*
X51237Y-30260D01*
X51200Y-30260D01*
X51177Y-30261D01*
X51166Y-30265D01*
X51162Y-30276D01*
X51162Y-30289D01*
X51162Y-30318D01*
X51162Y-30318D01*
X51162Y-30318D01*
G37*
G36*
X35545Y-29777D02*
X35666Y-29777D01*
X35787Y-29777D01*
X35787Y-29743D01*
X35787Y-29710D01*
X35749Y-29710D01*
X35712Y-29710D01*
X35712Y-29611D01*
X35712Y-29511D01*
X35739Y-29519D01*
X35765Y-29525D01*
X35780Y-29524D01*
X35786Y-29514D01*
X35787Y-29495D01*
X35787Y-29462D01*
X35740Y-29453D01*
X35706Y-29447D01*
X35671Y-29444D01*
X35656Y-29443D01*
X35620Y-29443D01*
X35620Y-29577D01*
X35620Y-29710D01*
X35583Y-29710D01*
X35545Y-29710D01*
X35545Y-29743D01*
X35545Y-29777D01*
X35545Y-29777D01*
X35545Y-29777D01*
G37*
G36*
X35237Y-29777D02*
X35358Y-29777D01*
X35478Y-29777D01*
X35478Y-29743D01*
X35478Y-29710D01*
X35441Y-29710D01*
X35403Y-29710D01*
X35403Y-29613D01*
X35403Y-29517D01*
X35441Y-29522D01*
X35478Y-29528D01*
X35478Y-29495D01*
X35478Y-29462D01*
X35431Y-29453D01*
X35397Y-29447D01*
X35363Y-29444D01*
X35348Y-29443D01*
X35312Y-29443D01*
X35312Y-29577D01*
X35312Y-29710D01*
X35274Y-29710D01*
X35237Y-29710D01*
X35237Y-29743D01*
X35237Y-29777D01*
X35237Y-29777D01*
X35237Y-29777D01*
G37*
G36*
X43579Y-29743D02*
X43695Y-29743D01*
X43812Y-29743D01*
X43812Y-29710D01*
X43811Y-29689D01*
X43806Y-29679D01*
X43790Y-29677D01*
X43779Y-29677D01*
X43745Y-29677D01*
X43745Y-29576D01*
X43746Y-29534D01*
X43746Y-29506D01*
X43748Y-29489D01*
X43752Y-29481D01*
X43757Y-29479D01*
X43760Y-29480D01*
X43791Y-29489D01*
X43809Y-29492D01*
X43817Y-29488D01*
X43820Y-29476D01*
X43820Y-29462D01*
X43820Y-29428D01*
X43778Y-29419D01*
X43743Y-29414D01*
X43706Y-29410D01*
X43695Y-29410D01*
X43654Y-29410D01*
X43654Y-29543D01*
X43654Y-29677D01*
X43616Y-29677D01*
X43579Y-29677D01*
X43579Y-29710D01*
X43579Y-29743D01*
X43579Y-29743D01*
X43579Y-29743D01*
G37*
G36*
X43262Y-29652D02*
X43263Y-29673D01*
X43268Y-29683D01*
X43282Y-29685D01*
X43287Y-29685D01*
X43304Y-29687D01*
X43311Y-29695D01*
X43312Y-29714D01*
X43312Y-29743D01*
X43354Y-29743D01*
X43395Y-29743D01*
X43395Y-29714D01*
X43395Y-29685D01*
X43395Y-29618D01*
X43395Y-29558D01*
X43395Y-29498D01*
X43433Y-29554D01*
X43450Y-29580D01*
X43463Y-29601D01*
X43470Y-29613D01*
X43470Y-29614D01*
X43463Y-29617D01*
X43444Y-29618D01*
X43433Y-29618D01*
X43395Y-29618D01*
X43395Y-29685D01*
X43466Y-29685D01*
X43537Y-29685D01*
X43537Y-29643D01*
X43536Y-29625D01*
X43533Y-29609D01*
X43526Y-29591D01*
X43513Y-29568D01*
X43494Y-29537D01*
X43473Y-29506D01*
X43410Y-29410D01*
X43361Y-29410D01*
X43312Y-29410D01*
X43312Y-29514D01*
X43312Y-29618D01*
X43287Y-29618D01*
X43271Y-29620D01*
X43264Y-29627D01*
X43262Y-29645D01*
X43262Y-29652D01*
X43262Y-29652D01*
X43262Y-29652D01*
G37*
G36*
X39187Y-29650D02*
X39189Y-29678D01*
X39196Y-29697D01*
X39210Y-29712D01*
X39243Y-29734D01*
X39288Y-29746D01*
X39340Y-29750D01*
X39396Y-29743D01*
X39401Y-29742D01*
X39423Y-29736D01*
X39433Y-29729D01*
X39437Y-29714D01*
X39437Y-29696D01*
X39436Y-29673D01*
X39433Y-29664D01*
X39425Y-29664D01*
X39422Y-29665D01*
X39406Y-29670D01*
X39380Y-29677D01*
X39367Y-29680D01*
X39339Y-29684D01*
X39320Y-29683D01*
X39305Y-29676D01*
X39286Y-29660D01*
X39282Y-29641D01*
X39291Y-29624D01*
X39310Y-29610D01*
X39339Y-29603D01*
X39351Y-29602D01*
X39370Y-29600D01*
X39377Y-29593D01*
X39378Y-29573D01*
X39378Y-29573D01*
X39377Y-29553D01*
X39370Y-29545D01*
X39354Y-29543D01*
X39319Y-29539D01*
X39296Y-29527D01*
X39287Y-29508D01*
X39287Y-29506D01*
X39292Y-29487D01*
X39310Y-29476D01*
X39327Y-29471D01*
X39347Y-29471D01*
X39375Y-29476D01*
X39398Y-29481D01*
X39412Y-29484D01*
X39418Y-29479D01*
X39420Y-29462D01*
X39420Y-29453D01*
X39419Y-29434D01*
X39413Y-29421D01*
X39399Y-29413D01*
X39375Y-29409D01*
X39338Y-29408D01*
X39325Y-29408D01*
X39271Y-29411D01*
X39232Y-29423D01*
X39207Y-29443D01*
X39196Y-29464D01*
X39192Y-29501D01*
X39200Y-29532D01*
X39215Y-29549D01*
X39233Y-29563D01*
X39210Y-29586D01*
X39195Y-29604D01*
X39188Y-29625D01*
X39187Y-29650D01*
X39187Y-29650D01*
X39187Y-29650D01*
G37*
G36*
X39487Y-29743D02*
X39603Y-29743D01*
X39720Y-29743D01*
X39720Y-29710D01*
X39720Y-29677D01*
X39683Y-29677D01*
X39645Y-29677D01*
X39645Y-29576D01*
X39645Y-29534D01*
X39646Y-29506D01*
X39648Y-29489D01*
X39651Y-29481D01*
X39657Y-29479D01*
X39660Y-29480D01*
X39690Y-29488D01*
X39708Y-29490D01*
X39717Y-29487D01*
X39720Y-29475D01*
X39720Y-29461D01*
X39719Y-29443D01*
X39714Y-29430D01*
X39702Y-29422D01*
X39680Y-29417D01*
X39646Y-29414D01*
X39626Y-29412D01*
X39562Y-29408D01*
X39562Y-29542D01*
X39562Y-29677D01*
X39524Y-29677D01*
X39487Y-29677D01*
X39487Y-29710D01*
X39487Y-29743D01*
X39487Y-29743D01*
X39487Y-29743D01*
G37*
G36*
X38070Y-29743D02*
X38187Y-29743D01*
X38303Y-29743D01*
X38303Y-29710D01*
X38303Y-29677D01*
X38266Y-29677D01*
X38228Y-29677D01*
X38228Y-29576D01*
X38229Y-29534D01*
X38230Y-29506D01*
X38231Y-29489D01*
X38235Y-29481D01*
X38240Y-29479D01*
X38243Y-29480D01*
X38274Y-29488D01*
X38292Y-29490D01*
X38300Y-29487D01*
X38303Y-29475D01*
X38303Y-29461D01*
X38302Y-29443D01*
X38297Y-29430D01*
X38285Y-29422D01*
X38263Y-29417D01*
X38229Y-29414D01*
X38210Y-29412D01*
X38145Y-29408D01*
X38145Y-29542D01*
X38145Y-29677D01*
X38108Y-29677D01*
X38070Y-29677D01*
X38070Y-29710D01*
X38070Y-29743D01*
X38070Y-29743D01*
X38070Y-29743D01*
G37*
G36*
X37770Y-29743D02*
X37891Y-29743D01*
X38012Y-29743D01*
X38012Y-29707D01*
X38011Y-29691D01*
X38008Y-29677D01*
X37999Y-29664D01*
X37983Y-29647D01*
X37958Y-29625D01*
X37946Y-29614D01*
X37909Y-29581D01*
X37884Y-29555D01*
X37870Y-29534D01*
X37866Y-29517D01*
X37871Y-29502D01*
X37874Y-29497D01*
X37888Y-29481D01*
X37906Y-29473D01*
X37930Y-29474D01*
X37963Y-29484D01*
X37997Y-29497D01*
X38006Y-29499D01*
X38010Y-29492D01*
X38012Y-29472D01*
X38012Y-29465D01*
X38011Y-29441D01*
X38005Y-29427D01*
X37993Y-29419D01*
X37989Y-29418D01*
X37960Y-29411D01*
X37922Y-29408D01*
X37883Y-29409D01*
X37847Y-29414D01*
X37822Y-29422D01*
X37793Y-29445D01*
X37776Y-29478D01*
X37773Y-29517D01*
X37774Y-29524D01*
X37779Y-29542D01*
X37791Y-29561D01*
X37810Y-29584D01*
X37840Y-29615D01*
X37842Y-29616D01*
X37904Y-29677D01*
X37837Y-29677D01*
X37770Y-29677D01*
X37770Y-29710D01*
X37770Y-29743D01*
X37770Y-29743D01*
X37770Y-29743D01*
G37*
G36*
X48889Y-28767D02*
X48899Y-28806D01*
X48920Y-28834D01*
X48953Y-28854D01*
X48996Y-28865D01*
X49047Y-28867D01*
X49102Y-28859D01*
X49124Y-28853D01*
X49134Y-28845D01*
X49137Y-28830D01*
X49137Y-28814D01*
X49136Y-28790D01*
X49131Y-28779D01*
X49118Y-28780D01*
X49093Y-28789D01*
X49093Y-28789D01*
X49053Y-28800D01*
X49020Y-28799D01*
X48995Y-28785D01*
X48981Y-28761D01*
X48983Y-28737D01*
X48996Y-28717D01*
X49011Y-28706D01*
X49028Y-28703D01*
X49053Y-28705D01*
X49081Y-28709D01*
X49104Y-28714D01*
X49110Y-28715D01*
X49118Y-28717D01*
X49123Y-28715D01*
X49127Y-28707D01*
X49128Y-28690D01*
X49129Y-28661D01*
X49129Y-28624D01*
X49129Y-28527D01*
X49020Y-28527D01*
X48912Y-28527D01*
X48912Y-28564D01*
X48912Y-28602D01*
X48983Y-28602D01*
X49017Y-28602D01*
X49038Y-28603D01*
X49049Y-28607D01*
X49053Y-28613D01*
X49054Y-28621D01*
X49052Y-28633D01*
X49043Y-28638D01*
X49024Y-28637D01*
X48988Y-28638D01*
X48951Y-28650D01*
X48920Y-28669D01*
X48903Y-28688D01*
X48890Y-28725D01*
X48889Y-28767D01*
X48889Y-28767D01*
X48889Y-28767D01*
G37*
G36*
X49195Y-28860D02*
X49312Y-28860D01*
X49429Y-28860D01*
X49429Y-28827D01*
X49429Y-28793D01*
X49391Y-28793D01*
X49354Y-28793D01*
X49354Y-28694D01*
X49354Y-28595D01*
X49385Y-28602D01*
X49410Y-28608D01*
X49423Y-28607D01*
X49428Y-28599D01*
X49429Y-28580D01*
X49429Y-28577D01*
X49428Y-28558D01*
X49423Y-28547D01*
X49410Y-28541D01*
X49387Y-28536D01*
X49353Y-28530D01*
X49318Y-28527D01*
X49308Y-28527D01*
X49270Y-28527D01*
X49270Y-28660D01*
X49270Y-28793D01*
X49233Y-28793D01*
X49195Y-28793D01*
X49195Y-28827D01*
X49195Y-28860D01*
X49195Y-28860D01*
X49195Y-28860D01*
G37*
G36*
X27608Y-28489D02*
X27613Y-28549D01*
X27628Y-28597D01*
X27654Y-28631D01*
X27689Y-28652D01*
X27696Y-28653D01*
X27696Y-28488D01*
X27699Y-28446D01*
X27706Y-28418D01*
X27715Y-28399D01*
X27727Y-28390D01*
X27741Y-28389D01*
X27761Y-28393D01*
X27775Y-28407D01*
X27783Y-28433D01*
X27785Y-28472D01*
X27785Y-28498D01*
X27782Y-28541D01*
X27775Y-28570D01*
X27764Y-28586D01*
X27747Y-28593D01*
X27740Y-28593D01*
X27723Y-28589D01*
X27711Y-28572D01*
X27707Y-28565D01*
X27699Y-28530D01*
X27696Y-28488D01*
X27696Y-28653D01*
X27734Y-28660D01*
X27740Y-28660D01*
X27769Y-28658D01*
X27792Y-28654D01*
X27800Y-28652D01*
X27824Y-28636D01*
X27847Y-28608D01*
X27865Y-28575D01*
X27871Y-28558D01*
X27876Y-28522D01*
X27877Y-28479D01*
X27873Y-28437D01*
X27864Y-28401D01*
X27857Y-28385D01*
X27833Y-28352D01*
X27804Y-28333D01*
X27766Y-28324D01*
X27741Y-28323D01*
X27694Y-28328D01*
X27657Y-28346D01*
X27631Y-28375D01*
X27615Y-28418D01*
X27608Y-28473D01*
X27608Y-28489D01*
X27608Y-28489D01*
X27608Y-28489D01*
G37*
G36*
X27920Y-28652D02*
X28041Y-28652D01*
X28162Y-28652D01*
X28162Y-28623D01*
X28161Y-28605D01*
X28156Y-28596D01*
X28141Y-28594D01*
X28124Y-28593D01*
X28087Y-28593D01*
X28087Y-28493D01*
X28087Y-28392D01*
X28124Y-28398D01*
X28162Y-28404D01*
X28162Y-28370D01*
X28161Y-28349D01*
X28154Y-28338D01*
X28138Y-28333D01*
X28131Y-28332D01*
X28105Y-28329D01*
X28071Y-28327D01*
X28047Y-28327D01*
X27995Y-28327D01*
X27995Y-28460D01*
X27995Y-28593D01*
X27958Y-28593D01*
X27935Y-28594D01*
X27924Y-28598D01*
X27920Y-28610D01*
X27920Y-28623D01*
X27920Y-28652D01*
X27920Y-28652D01*
X27920Y-28652D01*
G37*
G36*
X26666Y-25343D02*
X26667Y-25382D01*
X26670Y-25409D01*
X26676Y-25430D01*
X26686Y-25449D01*
X26712Y-25483D01*
X26747Y-25505D01*
X26791Y-25516D01*
X26825Y-25518D01*
X26856Y-25517D01*
X26880Y-25515D01*
X26893Y-25513D01*
X26900Y-25502D01*
X26903Y-25481D01*
X26903Y-25475D01*
X26902Y-25454D01*
X26898Y-25446D01*
X26890Y-25447D01*
X26847Y-25457D01*
X26808Y-25455D01*
X26777Y-25440D01*
X26764Y-25427D01*
X26754Y-25410D01*
X26757Y-25401D01*
X26763Y-25401D01*
X26763Y-25278D01*
X26769Y-25257D01*
X26772Y-25253D01*
X26788Y-25245D01*
X26799Y-25243D01*
X26822Y-25250D01*
X26835Y-25269D01*
X26837Y-25287D01*
X26832Y-25318D01*
X26818Y-25338D01*
X26799Y-25343D01*
X26780Y-25337D01*
X26770Y-25327D01*
X26763Y-25304D01*
X26763Y-25278D01*
X26763Y-25401D01*
X26775Y-25401D01*
X26789Y-25404D01*
X26826Y-25407D01*
X26857Y-25400D01*
X26891Y-25381D01*
X26913Y-25352D01*
X26925Y-25318D01*
X26925Y-25280D01*
X26914Y-25243D01*
X26890Y-25210D01*
X26876Y-25198D01*
X26846Y-25185D01*
X26808Y-25180D01*
X26769Y-25183D01*
X26734Y-25194D01*
X26722Y-25200D01*
X26696Y-25223D01*
X26679Y-25249D01*
X26670Y-25283D01*
X26666Y-25328D01*
X26666Y-25343D01*
X26666Y-25343D01*
X26666Y-25343D01*
G37*
G54D11*
X43122Y-44370D02*
X44122Y-44370D01*
M02*
