G04 (created by PCBNEW (2013-may-18)-stable) date dim. 12 janv. 2014 01:51:18 CET*
%MOIN*%
G04 Gerber Fmt 3.4, Leading zero omitted, Abs format*
%FSLAX34Y34*%
G01*
G70*
G90*
G04 APERTURE LIST*
%ADD10C,0.00590551*%
%ADD11R,0.649606X0.0787402*%
%ADD12C,0.055*%
%ADD13R,0.294094X0.0787402*%
%ADD14R,0.015748X0.0531496*%
%ADD15R,0.0826772X0.0629921*%
%ADD16R,0.0314961X0.0787402*%
%ADD17R,0.0118X0.059074*%
%ADD18R,0.045X0.0393701*%
%ADD19C,0.0708661*%
%ADD20C,0.110236*%
%ADD21C,0.06*%
%ADD22R,0.025X0.045*%
%ADD23R,0.045X0.025*%
%ADD24R,0.311024X0.311024*%
%ADD25C,0.035*%
%ADD26C,0.0157*%
%ADD27C,0.01*%
G04 APERTURE END LIST*
G54D10*
G54D11*
X44940Y-43956D03*
G54D12*
X47362Y-43188D03*
G54D13*
X46738Y-25098D03*
G54D12*
X47362Y-26653D03*
G54D14*
X43110Y-42746D03*
X43366Y-42746D03*
X43622Y-42746D03*
X43877Y-42746D03*
X44133Y-42746D03*
G54D15*
X44842Y-42795D03*
X42401Y-42795D03*
G54D16*
X43818Y-36062D03*
X45000Y-36062D03*
G54D17*
X52177Y-31380D03*
X51927Y-31380D03*
X51667Y-31380D03*
X51417Y-31380D03*
X51157Y-31380D03*
X50902Y-31380D03*
X50647Y-31380D03*
X50647Y-33659D03*
X50902Y-33659D03*
X51157Y-33659D03*
X51417Y-33659D03*
X51672Y-33659D03*
X51927Y-33659D03*
X52182Y-33659D03*
G54D18*
X51879Y-36658D03*
X51879Y-37258D03*
X50580Y-36067D03*
X50580Y-35467D03*
X50580Y-36658D03*
X50580Y-37258D03*
X51230Y-36658D03*
X51230Y-37258D03*
X51230Y-36067D03*
X51230Y-35467D03*
G54D10*
G36*
X39065Y-38412D02*
X38508Y-38969D01*
X38395Y-38856D01*
X38952Y-38299D01*
X39065Y-38412D01*
X39065Y-38412D01*
G37*
G36*
X39288Y-38635D02*
X38731Y-39192D01*
X38618Y-39079D01*
X39175Y-38522D01*
X39288Y-38635D01*
X39288Y-38635D01*
G37*
G36*
X39510Y-38858D02*
X38954Y-39415D01*
X38841Y-39302D01*
X39397Y-38745D01*
X39510Y-38858D01*
X39510Y-38858D01*
G37*
G36*
X39733Y-39081D02*
X39176Y-39637D01*
X39063Y-39524D01*
X39620Y-38968D01*
X39733Y-39081D01*
X39733Y-39081D01*
G37*
G36*
X39956Y-39303D02*
X39399Y-39860D01*
X39286Y-39747D01*
X39843Y-39190D01*
X39956Y-39303D01*
X39956Y-39303D01*
G37*
G36*
X40179Y-39526D02*
X39622Y-40083D01*
X39509Y-39970D01*
X40066Y-39413D01*
X40179Y-39526D01*
X40179Y-39526D01*
G37*
G36*
X38842Y-38190D02*
X38285Y-38747D01*
X38172Y-38633D01*
X38729Y-38077D01*
X38842Y-38190D01*
X38842Y-38190D01*
G37*
G36*
X38620Y-37967D02*
X38063Y-38524D01*
X37950Y-38411D01*
X38506Y-37854D01*
X38620Y-37967D01*
X38620Y-37967D01*
G37*
G36*
X38397Y-37744D02*
X37840Y-38301D01*
X37727Y-38188D01*
X38284Y-37631D01*
X38397Y-37744D01*
X38397Y-37744D01*
G37*
G36*
X38174Y-37522D02*
X37617Y-38078D01*
X37504Y-37965D01*
X38061Y-37408D01*
X38174Y-37522D01*
X38174Y-37522D01*
G37*
G36*
X37951Y-37299D02*
X37395Y-37856D01*
X37225Y-37686D01*
X37782Y-37129D01*
X37951Y-37299D01*
X37951Y-37299D01*
G37*
G36*
X42379Y-35098D02*
X41823Y-35655D01*
X41710Y-35542D01*
X42266Y-34985D01*
X42379Y-35098D01*
X42379Y-35098D01*
G37*
G36*
X42602Y-35321D02*
X42045Y-35878D01*
X41932Y-35764D01*
X42489Y-35208D01*
X42602Y-35321D01*
X42602Y-35321D01*
G37*
G36*
X42825Y-35543D02*
X42268Y-36100D01*
X42155Y-35987D01*
X42712Y-35430D01*
X42825Y-35543D01*
X42825Y-35543D01*
G37*
G36*
X43048Y-35766D02*
X42491Y-36323D01*
X42378Y-36210D01*
X42935Y-35653D01*
X43048Y-35766D01*
X43048Y-35766D01*
G37*
G36*
X43270Y-35989D02*
X42714Y-36546D01*
X42601Y-36433D01*
X43157Y-35876D01*
X43270Y-35989D01*
X43270Y-35989D01*
G37*
G36*
X42157Y-34875D02*
X41600Y-35432D01*
X41487Y-35319D01*
X42044Y-34762D01*
X42157Y-34875D01*
X42157Y-34875D01*
G37*
G36*
X41934Y-34653D02*
X41377Y-35209D01*
X41264Y-35096D01*
X41821Y-34539D01*
X41934Y-34653D01*
X41934Y-34653D01*
G37*
G36*
X41711Y-34430D02*
X41155Y-34987D01*
X41041Y-34873D01*
X41598Y-34317D01*
X41711Y-34430D01*
X41711Y-34430D01*
G37*
G36*
X41489Y-34207D02*
X40932Y-34764D01*
X40819Y-34651D01*
X41375Y-34094D01*
X41489Y-34207D01*
X41489Y-34207D01*
G37*
G36*
X41266Y-33984D02*
X40709Y-34541D01*
X40596Y-34428D01*
X41153Y-33871D01*
X41266Y-33984D01*
X41266Y-33984D01*
G37*
G36*
X42379Y-38856D02*
X42266Y-38969D01*
X41710Y-38412D01*
X41823Y-38299D01*
X42379Y-38856D01*
X42379Y-38856D01*
G37*
G36*
X39065Y-35542D02*
X38952Y-35655D01*
X38395Y-35098D01*
X38508Y-34985D01*
X39065Y-35542D01*
X39065Y-35542D01*
G37*
G36*
X42602Y-38633D02*
X42489Y-38747D01*
X41932Y-38190D01*
X42045Y-38077D01*
X42602Y-38633D01*
X42602Y-38633D01*
G37*
G36*
X39288Y-35319D02*
X39175Y-35432D01*
X38618Y-34875D01*
X38731Y-34762D01*
X39288Y-35319D01*
X39288Y-35319D01*
G37*
G36*
X39510Y-35096D02*
X39397Y-35209D01*
X38841Y-34653D01*
X38954Y-34539D01*
X39510Y-35096D01*
X39510Y-35096D01*
G37*
G36*
X42825Y-38411D02*
X42712Y-38524D01*
X42155Y-37967D01*
X42268Y-37854D01*
X42825Y-38411D01*
X42825Y-38411D01*
G37*
G36*
X43048Y-38188D02*
X42935Y-38301D01*
X42378Y-37744D01*
X42491Y-37631D01*
X43048Y-38188D01*
X43048Y-38188D01*
G37*
G36*
X39733Y-34873D02*
X39620Y-34987D01*
X39063Y-34430D01*
X39176Y-34317D01*
X39733Y-34873D01*
X39733Y-34873D01*
G37*
G36*
X39956Y-34651D02*
X39843Y-34764D01*
X39286Y-34207D01*
X39399Y-34094D01*
X39956Y-34651D01*
X39956Y-34651D01*
G37*
G36*
X43270Y-37965D02*
X43157Y-38078D01*
X42601Y-37522D01*
X42714Y-37408D01*
X43270Y-37965D01*
X43270Y-37965D01*
G37*
G36*
X43493Y-37742D02*
X43380Y-37856D01*
X42823Y-37299D01*
X42936Y-37186D01*
X43493Y-37742D01*
X43493Y-37742D01*
G37*
G36*
X40235Y-34371D02*
X40066Y-34541D01*
X39509Y-33984D01*
X39678Y-33815D01*
X40235Y-34371D01*
X40235Y-34371D01*
G37*
G36*
X38842Y-35764D02*
X38729Y-35878D01*
X38172Y-35321D01*
X38285Y-35208D01*
X38842Y-35764D01*
X38842Y-35764D01*
G37*
G36*
X42157Y-39079D02*
X42044Y-39192D01*
X41487Y-38635D01*
X41600Y-38522D01*
X42157Y-39079D01*
X42157Y-39079D01*
G37*
G36*
X41934Y-39302D02*
X41821Y-39415D01*
X41264Y-38858D01*
X41377Y-38745D01*
X41934Y-39302D01*
X41934Y-39302D01*
G37*
G36*
X38620Y-35987D02*
X38506Y-36100D01*
X37950Y-35543D01*
X38063Y-35430D01*
X38620Y-35987D01*
X38620Y-35987D01*
G37*
G36*
X38397Y-36210D02*
X38284Y-36323D01*
X37727Y-35766D01*
X37840Y-35653D01*
X38397Y-36210D01*
X38397Y-36210D01*
G37*
G36*
X41711Y-39524D02*
X41598Y-39637D01*
X41041Y-39081D01*
X41155Y-38968D01*
X41711Y-39524D01*
X41711Y-39524D01*
G37*
G36*
X41489Y-39747D02*
X41375Y-39860D01*
X40819Y-39303D01*
X40932Y-39190D01*
X41489Y-39747D01*
X41489Y-39747D01*
G37*
G36*
X38174Y-36433D02*
X38061Y-36546D01*
X37504Y-35989D01*
X37617Y-35876D01*
X38174Y-36433D01*
X38174Y-36433D01*
G37*
G36*
X37951Y-36655D02*
X37838Y-36768D01*
X37281Y-36212D01*
X37395Y-36099D01*
X37951Y-36655D01*
X37951Y-36655D01*
G37*
G36*
X41266Y-39970D02*
X41096Y-40140D01*
X40539Y-39583D01*
X40709Y-39413D01*
X41266Y-39970D01*
X41266Y-39970D01*
G37*
G36*
X43550Y-36268D02*
X42993Y-36825D01*
X42823Y-36655D01*
X43380Y-36099D01*
X43550Y-36268D01*
X43550Y-36268D01*
G37*
G54D18*
X43700Y-41874D03*
X43700Y-41274D03*
X43070Y-41874D03*
X43070Y-41274D03*
G54D19*
X48257Y-32100D03*
X48257Y-34021D03*
G54D20*
X30177Y-32007D03*
X28799Y-32007D03*
G54D12*
X61051Y-25177D03*
X60051Y-25177D03*
G54D21*
X34763Y-40661D03*
X34763Y-36661D03*
X33582Y-40661D03*
X33582Y-36661D03*
X32401Y-40661D03*
X32401Y-36661D03*
X31220Y-40661D03*
X31220Y-36661D03*
X30039Y-40661D03*
X30039Y-36661D03*
X28858Y-40661D03*
X28858Y-36661D03*
G54D10*
G36*
X34239Y-34874D02*
X35228Y-33884D01*
X35723Y-34379D01*
X34733Y-35369D01*
X34239Y-34874D01*
X34239Y-34874D01*
G37*
G36*
X35299Y-35935D02*
X36289Y-34945D01*
X36784Y-35440D01*
X35794Y-36430D01*
X35299Y-35935D01*
X35299Y-35935D01*
G37*
G54D12*
X45810Y-41827D03*
X45810Y-40827D03*
X45810Y-39827D03*
X45810Y-38827D03*
X45810Y-37827D03*
X45810Y-36827D03*
X45810Y-35827D03*
X45810Y-34827D03*
X45810Y-33188D03*
X45810Y-32188D03*
X45810Y-31188D03*
X45810Y-30188D03*
X45810Y-29188D03*
X45810Y-28188D03*
X45810Y-27188D03*
X45810Y-26188D03*
X26810Y-34827D03*
X26810Y-33827D03*
X26810Y-32827D03*
X26810Y-31827D03*
X26810Y-30827D03*
X26810Y-29827D03*
X26810Y-28827D03*
X26810Y-27827D03*
X26810Y-43827D03*
X26810Y-42827D03*
X26810Y-41827D03*
X26810Y-40827D03*
X26810Y-39827D03*
X26810Y-38827D03*
X26810Y-37827D03*
X26810Y-36827D03*
G54D21*
X37322Y-28590D03*
X37322Y-32590D03*
X52874Y-36464D03*
X52874Y-40464D03*
X54251Y-36464D03*
X54251Y-40464D03*
X57007Y-36464D03*
X57007Y-40464D03*
X58385Y-36464D03*
X58385Y-40464D03*
X55629Y-40464D03*
X55629Y-36464D03*
X58385Y-33968D03*
X58385Y-29968D03*
X57007Y-33968D03*
X57007Y-29968D03*
X55629Y-33968D03*
X55629Y-29968D03*
X54251Y-33968D03*
X54251Y-29968D03*
X44212Y-28590D03*
X44212Y-32590D03*
X41456Y-28590D03*
X41456Y-32590D03*
X40078Y-28590D03*
X40078Y-32590D03*
X38700Y-28590D03*
X38700Y-32590D03*
X31811Y-28590D03*
X31811Y-32590D03*
X33188Y-28590D03*
X33188Y-32590D03*
X34566Y-28590D03*
X34566Y-32590D03*
X42834Y-28590D03*
X42834Y-32590D03*
X35944Y-28590D03*
X35944Y-32590D03*
G54D22*
X44827Y-36889D03*
X44227Y-36889D03*
X37687Y-40527D03*
X38287Y-40527D03*
G54D23*
X52913Y-32140D03*
X52913Y-32740D03*
X43779Y-35300D03*
X43779Y-34700D03*
G54D22*
X40103Y-40511D03*
X39503Y-40511D03*
G54D23*
X36811Y-37337D03*
X36811Y-37937D03*
G54D22*
X40192Y-33562D03*
X40792Y-33562D03*
X43787Y-39977D03*
X43187Y-39977D03*
G54D18*
X51879Y-36067D03*
X51879Y-35467D03*
X49931Y-37258D03*
X49931Y-36658D03*
G54D23*
X49950Y-33528D03*
X49950Y-32928D03*
X31870Y-35201D03*
X31870Y-34601D03*
X44448Y-35300D03*
X44448Y-34700D03*
X32519Y-34601D03*
X32519Y-35201D03*
G54D18*
X49931Y-36067D03*
X49931Y-35467D03*
G54D23*
X33169Y-34601D03*
X33169Y-35201D03*
G54D10*
G36*
X36590Y-36542D02*
X36272Y-36224D01*
X36449Y-36047D01*
X36767Y-36365D01*
X36590Y-36542D01*
X36590Y-36542D01*
G37*
G36*
X37015Y-36118D02*
X36696Y-35799D01*
X36873Y-35623D01*
X37191Y-35941D01*
X37015Y-36118D01*
X37015Y-36118D01*
G37*
G54D12*
X57948Y-29015D03*
X56948Y-29015D03*
X55948Y-29015D03*
X54948Y-29015D03*
X53948Y-29015D03*
X52948Y-29015D03*
X51948Y-29015D03*
X50948Y-29015D03*
G54D24*
X43610Y-26259D03*
G54D12*
X42330Y-24980D03*
X44889Y-24980D03*
X42330Y-27539D03*
X44889Y-27539D03*
G54D24*
X39999Y-26259D03*
G54D12*
X38720Y-24980D03*
X41279Y-24980D03*
X38720Y-27539D03*
X41279Y-27539D03*
G54D24*
X39999Y-42795D03*
G54D12*
X41279Y-44075D03*
X38720Y-44075D03*
X41279Y-41516D03*
X38720Y-41516D03*
G54D24*
X36377Y-42795D03*
G54D12*
X37657Y-44075D03*
X35098Y-44075D03*
X37657Y-41516D03*
X35098Y-41516D03*
G54D24*
X29133Y-42795D03*
G54D12*
X30413Y-44075D03*
X27854Y-44075D03*
X30413Y-41516D03*
X27854Y-41516D03*
G54D24*
X24527Y-41771D03*
G54D12*
X23248Y-43051D03*
X23248Y-40492D03*
X25807Y-43051D03*
X25807Y-40492D03*
G54D24*
X24527Y-38149D03*
G54D12*
X23248Y-39429D03*
X23248Y-36870D03*
X25807Y-39429D03*
X25807Y-36870D03*
G54D24*
X24527Y-34527D03*
G54D12*
X23248Y-35807D03*
X23248Y-33248D03*
X25807Y-35807D03*
X25807Y-33248D03*
G54D24*
X24527Y-30905D03*
G54D12*
X23248Y-32185D03*
X23248Y-29626D03*
X25807Y-32185D03*
X25807Y-29626D03*
G54D24*
X36377Y-26259D03*
G54D12*
X35098Y-24980D03*
X37657Y-24980D03*
X35098Y-27539D03*
X37657Y-27539D03*
G54D24*
X49881Y-26259D03*
G54D12*
X48602Y-24980D03*
X51161Y-24980D03*
X48602Y-27539D03*
X51161Y-27539D03*
G54D24*
X53503Y-26259D03*
G54D12*
X52224Y-24980D03*
X54783Y-24980D03*
X52224Y-27539D03*
X54783Y-27539D03*
G54D24*
X57125Y-26259D03*
G54D12*
X55846Y-24980D03*
X58405Y-24980D03*
X55846Y-27539D03*
X58405Y-27539D03*
G54D24*
X60747Y-27283D03*
G54D12*
X62027Y-26004D03*
X62027Y-28563D03*
X59468Y-26004D03*
X59468Y-28563D03*
G54D24*
X60747Y-30905D03*
G54D12*
X62027Y-29626D03*
X62027Y-32185D03*
X59468Y-29626D03*
X59468Y-32185D03*
G54D24*
X60747Y-34527D03*
G54D12*
X62027Y-33248D03*
X62027Y-35807D03*
X59468Y-33248D03*
X59468Y-35807D03*
G54D24*
X60747Y-38149D03*
G54D12*
X62027Y-36870D03*
X62027Y-39429D03*
X59468Y-36870D03*
X59468Y-39429D03*
G54D24*
X60747Y-41771D03*
G54D12*
X62027Y-40492D03*
X62027Y-43051D03*
X59468Y-40492D03*
X59468Y-43051D03*
G54D24*
X57125Y-42795D03*
G54D12*
X58405Y-44075D03*
X55846Y-44075D03*
X58405Y-41516D03*
X55846Y-41516D03*
G54D24*
X53503Y-42795D03*
G54D12*
X54783Y-44075D03*
X52224Y-44075D03*
X54783Y-41516D03*
X52224Y-41516D03*
G54D24*
X49881Y-42795D03*
G54D12*
X51161Y-44075D03*
X48602Y-44075D03*
X51161Y-41516D03*
X48602Y-41516D03*
G54D24*
X32755Y-42795D03*
G54D12*
X34035Y-44075D03*
X31476Y-44075D03*
X34035Y-41516D03*
X31476Y-41516D03*
G54D24*
X32755Y-26259D03*
G54D12*
X31476Y-24980D03*
X34035Y-24980D03*
X31476Y-27539D03*
X34035Y-27539D03*
G54D24*
X29133Y-26259D03*
G54D12*
X27854Y-24980D03*
X30413Y-24980D03*
X27854Y-27539D03*
X30413Y-27539D03*
G54D24*
X24527Y-27283D03*
G54D12*
X23248Y-28563D03*
X23248Y-26004D03*
X25807Y-28563D03*
X25807Y-26004D03*
G54D25*
X47844Y-35974D03*
X47883Y-37657D03*
X35826Y-37106D03*
X41929Y-41732D03*
X30688Y-34704D03*
X35748Y-35078D03*
X36476Y-39783D03*
X36122Y-40118D03*
X35610Y-40196D03*
X38356Y-40029D03*
X49901Y-30649D03*
X40857Y-29427D03*
X28681Y-28946D03*
X46259Y-39507D03*
X47519Y-38710D03*
X57706Y-38877D03*
X52874Y-37746D03*
X58385Y-38366D03*
X56309Y-32775D03*
X46033Y-28690D03*
X44773Y-28208D03*
X50305Y-31003D03*
X46515Y-38307D03*
X44822Y-33562D03*
X38976Y-34153D03*
X36497Y-34347D03*
X46801Y-37372D03*
X55570Y-38848D03*
X42204Y-41338D03*
X36653Y-31486D03*
X36712Y-30738D03*
X48346Y-29261D03*
X40059Y-35374D03*
X40964Y-38700D03*
X52096Y-30285D03*
X48228Y-35738D03*
X40492Y-38602D03*
X33228Y-37421D03*
X36480Y-39322D03*
X44507Y-41692D03*
X42559Y-41043D03*
X49862Y-31643D03*
X49261Y-36801D03*
X28149Y-34734D03*
X34606Y-30570D03*
X36791Y-32381D03*
X56919Y-38120D03*
X53553Y-38129D03*
X49596Y-33907D03*
X46811Y-34133D03*
X47844Y-35511D03*
X56289Y-31564D03*
X54271Y-31564D03*
X52303Y-35009D03*
X52913Y-33316D03*
X47362Y-26653D03*
X36279Y-36909D03*
X41122Y-35846D03*
X38917Y-37657D03*
X44724Y-37440D03*
X40433Y-34153D03*
X42508Y-39477D03*
X49852Y-32165D03*
X32598Y-34133D03*
X50305Y-31456D03*
G54D26*
X47844Y-35974D02*
X46968Y-35974D01*
X46968Y-35974D02*
X46481Y-35487D01*
X46279Y-35285D02*
X46481Y-35487D01*
X45000Y-35285D02*
X46279Y-35285D01*
X52089Y-37248D02*
X52874Y-36464D01*
X58868Y-29911D02*
X58868Y-33486D01*
X58868Y-33486D02*
X58385Y-33968D01*
X57401Y-29468D02*
X56948Y-29015D01*
X58700Y-29468D02*
X57401Y-29468D01*
X58868Y-29635D02*
X58700Y-29468D01*
X58868Y-29911D02*
X58868Y-29635D01*
X52874Y-36464D02*
X54251Y-36464D01*
X57007Y-36464D02*
X58385Y-36464D01*
X54807Y-35909D02*
X56452Y-35909D01*
X56452Y-35909D02*
X57007Y-36464D01*
X54807Y-35909D02*
X54251Y-36464D01*
X54251Y-33464D02*
X54251Y-33028D01*
X54251Y-33968D02*
X54251Y-33464D01*
X54251Y-33028D02*
X53364Y-32140D01*
X53364Y-32140D02*
X52913Y-32140D01*
X52037Y-31850D02*
X52622Y-31850D01*
X52622Y-31850D02*
X52913Y-32140D01*
X51417Y-31380D02*
X51417Y-31751D01*
X51515Y-31850D02*
X52037Y-31850D01*
X51417Y-31751D02*
X51515Y-31850D01*
X40210Y-39153D02*
X40210Y-38813D01*
X39744Y-38347D02*
X39744Y-37755D01*
X40210Y-38813D02*
X39744Y-38347D01*
X40210Y-39382D02*
X39844Y-39748D01*
X40210Y-39153D02*
X40210Y-39382D01*
X35826Y-37106D02*
X35826Y-35903D01*
X35826Y-35903D02*
X36042Y-35687D01*
X36811Y-37337D02*
X36058Y-37337D01*
X36058Y-37337D02*
X35826Y-37106D01*
X39177Y-37188D02*
X39177Y-37066D01*
X39744Y-37755D02*
X39177Y-37188D01*
X41259Y-41007D02*
X41637Y-41007D01*
X40098Y-41007D02*
X41259Y-41007D01*
X27440Y-30433D02*
X27440Y-29457D01*
X27440Y-29457D02*
X26810Y-28827D01*
X27440Y-31197D02*
X26810Y-31827D01*
X27440Y-30433D02*
X27440Y-31197D01*
X57007Y-33968D02*
X58385Y-33968D01*
X43779Y-35300D02*
X43401Y-35300D01*
X43401Y-35300D02*
X42713Y-35988D01*
X44448Y-34700D02*
X44660Y-34700D01*
X45000Y-35039D02*
X45000Y-35285D01*
X45000Y-35285D02*
X45000Y-36062D01*
X44660Y-34700D02*
X45000Y-35039D01*
X44448Y-34700D02*
X44379Y-34700D01*
X44379Y-34700D02*
X43779Y-35300D01*
X41088Y-36496D02*
X42205Y-36496D01*
X42205Y-36496D02*
X42713Y-35988D01*
X41088Y-36496D02*
X40417Y-35826D01*
X40417Y-35826D02*
X40417Y-35225D01*
X40417Y-35225D02*
X39621Y-34429D01*
X40192Y-33562D02*
X39488Y-33562D01*
X39330Y-34138D02*
X39621Y-34429D01*
X39330Y-33720D02*
X39330Y-34138D01*
X39488Y-33562D02*
X39330Y-33720D01*
X39177Y-37066D02*
X38014Y-37066D01*
X38014Y-37066D02*
X37588Y-37492D01*
X36811Y-37337D02*
X37433Y-37337D01*
X37433Y-37337D02*
X37588Y-37492D01*
X40393Y-39199D02*
X40827Y-39199D01*
X40827Y-39199D02*
X41087Y-39459D01*
X40393Y-39199D02*
X39910Y-39682D01*
X40103Y-40511D02*
X40103Y-39874D01*
X40103Y-39874D02*
X39910Y-39682D01*
X40103Y-40511D02*
X40103Y-41002D01*
X40103Y-41002D02*
X40098Y-41007D01*
X35437Y-41007D02*
X40098Y-41007D01*
X35091Y-40661D02*
X35437Y-41007D01*
X34763Y-40661D02*
X35091Y-40661D01*
X40192Y-33562D02*
X40196Y-33562D01*
X42112Y-32631D02*
X42112Y-31432D01*
X41633Y-33110D02*
X42112Y-32631D01*
X40649Y-33110D02*
X41633Y-33110D01*
X40196Y-33562D02*
X40649Y-33110D01*
X42112Y-31432D02*
X44212Y-29332D01*
X44212Y-29332D02*
X44212Y-28590D01*
X40417Y-35826D02*
X39177Y-37066D01*
X55629Y-33968D02*
X57007Y-33968D01*
X58387Y-36462D02*
X58387Y-33970D01*
X58387Y-36462D02*
X58385Y-36464D01*
X58387Y-33970D02*
X58385Y-33968D01*
X34763Y-40661D02*
X33582Y-40661D01*
X33582Y-40661D02*
X32401Y-40661D01*
X32401Y-40661D02*
X31220Y-40661D01*
X28858Y-40661D02*
X30039Y-40661D01*
X30039Y-40661D02*
X31220Y-40661D01*
X41791Y-41161D02*
X41791Y-41594D01*
X41791Y-41594D02*
X41929Y-41732D01*
X41791Y-41161D02*
X41637Y-41007D01*
X51791Y-37248D02*
X52089Y-37248D01*
X51141Y-37248D02*
X51791Y-37248D01*
X47883Y-37657D02*
X48779Y-37657D01*
X50492Y-37549D02*
X50492Y-37248D01*
X48779Y-37657D02*
X50383Y-37657D01*
X50383Y-37657D02*
X50492Y-37549D01*
X50492Y-37248D02*
X51141Y-37248D01*
X31870Y-35201D02*
X31185Y-35201D01*
X31185Y-35201D02*
X30688Y-34704D01*
X34981Y-34627D02*
X35296Y-34627D01*
X35296Y-34627D02*
X35748Y-35078D01*
X36240Y-38298D02*
X35109Y-38298D01*
X34763Y-37952D02*
X34763Y-36661D01*
X35109Y-38298D02*
X34763Y-37952D01*
X36496Y-38298D02*
X36240Y-38298D01*
X37480Y-38298D02*
X36496Y-38298D01*
X32677Y-35527D02*
X33629Y-35527D01*
X26810Y-36304D02*
X26810Y-36827D01*
X30447Y-35087D02*
X30887Y-35527D01*
X28027Y-35087D02*
X26810Y-36304D01*
X30447Y-35087D02*
X28027Y-35087D01*
X32677Y-35527D02*
X30887Y-35527D01*
X33629Y-35527D02*
X34763Y-36661D01*
X37730Y-38298D02*
X38128Y-37900D01*
X37480Y-38298D02*
X37730Y-38298D01*
X25488Y-38149D02*
X26810Y-36827D01*
X24527Y-38149D02*
X25488Y-38149D01*
X35791Y-38547D02*
X34854Y-38547D01*
X34854Y-38547D02*
X33582Y-37275D01*
X36122Y-38547D02*
X35791Y-38547D01*
X33582Y-37275D02*
X33582Y-36661D01*
X36751Y-38547D02*
X36122Y-38547D01*
X37926Y-38547D02*
X38351Y-38123D01*
X36751Y-38547D02*
X37926Y-38547D01*
X33582Y-36661D02*
X33582Y-36272D01*
X33137Y-35827D02*
X30747Y-35827D01*
X33582Y-36272D02*
X33137Y-35827D01*
X27487Y-36041D02*
X27487Y-37150D01*
X27487Y-37150D02*
X26810Y-37827D01*
X30267Y-35347D02*
X30747Y-35827D01*
X28181Y-35347D02*
X30267Y-35347D01*
X28181Y-35347D02*
X27487Y-36041D01*
X26337Y-39977D02*
X26337Y-38300D01*
X26337Y-38300D02*
X26810Y-37827D01*
X24543Y-41771D02*
X26337Y-39977D01*
X24527Y-41771D02*
X24543Y-41771D01*
X36476Y-39783D02*
X36300Y-39783D01*
X32755Y-39173D02*
X32401Y-38818D01*
X32401Y-38818D02*
X32401Y-38451D01*
X32401Y-36661D02*
X32401Y-38451D01*
X36300Y-39783D02*
X35690Y-39173D01*
X35690Y-39173D02*
X32755Y-39173D01*
X38042Y-38877D02*
X37461Y-38877D01*
X38042Y-38877D02*
X38574Y-38345D01*
X37461Y-38877D02*
X36555Y-39783D01*
X36555Y-39783D02*
X36476Y-39783D01*
X32401Y-36661D02*
X32401Y-36411D01*
X32117Y-36127D02*
X30637Y-36127D01*
X32401Y-36411D02*
X32117Y-36127D01*
X27767Y-36129D02*
X27767Y-37870D01*
X30117Y-35607D02*
X30637Y-36127D01*
X27767Y-37870D02*
X26810Y-38827D01*
X30117Y-35607D02*
X28289Y-35607D01*
X28289Y-35607D02*
X27767Y-36129D01*
X38730Y-38634D02*
X38727Y-38634D01*
X36252Y-40248D02*
X36122Y-40118D01*
X36564Y-40248D02*
X36252Y-40248D01*
X37680Y-39133D02*
X36564Y-40248D01*
X38228Y-39133D02*
X37680Y-39133D01*
X38727Y-38634D02*
X38228Y-39133D01*
X35472Y-39468D02*
X35137Y-39468D01*
X36122Y-40118D02*
X35472Y-39468D01*
X31220Y-39015D02*
X31220Y-38630D01*
X31220Y-36661D02*
X31220Y-38630D01*
X35137Y-39468D02*
X31673Y-39468D01*
X31673Y-39468D02*
X31220Y-39015D01*
X31220Y-36661D02*
X30771Y-36661D01*
X30771Y-36661D02*
X29977Y-35867D01*
X26810Y-39827D02*
X26987Y-39827D01*
X28027Y-38610D02*
X28027Y-36237D01*
X28027Y-38610D02*
X26810Y-39827D01*
X28397Y-35867D02*
X29977Y-35867D01*
X28027Y-36237D02*
X28397Y-35867D01*
X35000Y-39822D02*
X35236Y-39822D01*
X35236Y-39822D02*
X35610Y-40196D01*
X35236Y-39822D02*
X35610Y-40196D01*
X36496Y-40498D02*
X35911Y-40498D01*
X35911Y-40498D02*
X35610Y-40196D01*
X38393Y-39417D02*
X37749Y-39417D01*
X37749Y-39417D02*
X37588Y-39578D01*
X34488Y-39822D02*
X35000Y-39822D01*
X36496Y-40498D02*
X36668Y-40498D01*
X36668Y-40498D02*
X37588Y-39578D01*
X30039Y-38503D02*
X30039Y-39389D01*
X30472Y-39822D02*
X34488Y-39822D01*
X30039Y-39389D02*
X30472Y-39822D01*
X38393Y-39417D02*
X38953Y-38857D01*
X30039Y-36661D02*
X30039Y-38503D01*
X28587Y-36127D02*
X29505Y-36127D01*
X29505Y-36127D02*
X30039Y-36661D01*
X28287Y-36427D02*
X28287Y-39350D01*
X28587Y-36127D02*
X28287Y-36427D01*
X28287Y-39350D02*
X26810Y-40827D01*
X38576Y-39679D02*
X37840Y-39679D01*
X37840Y-39679D02*
X37691Y-39828D01*
X31791Y-40177D02*
X34980Y-40177D01*
X31791Y-40177D02*
X29568Y-40177D01*
X29568Y-40177D02*
X28858Y-39467D01*
X34980Y-40177D02*
X35551Y-40748D01*
X35551Y-40748D02*
X36771Y-40748D01*
X36771Y-40748D02*
X37691Y-39828D01*
X38576Y-39679D02*
X39176Y-39080D01*
X26810Y-41827D02*
X26810Y-41514D01*
X26810Y-41514D02*
X28858Y-39467D01*
X28858Y-39467D02*
X28858Y-36661D01*
X29133Y-42795D02*
X27778Y-42795D01*
X27778Y-42795D02*
X26810Y-41827D01*
X38257Y-40029D02*
X38356Y-40029D01*
X37687Y-40527D02*
X37687Y-40184D01*
X37843Y-40029D02*
X38257Y-40029D01*
X37687Y-40184D02*
X37843Y-40029D01*
X38356Y-40029D02*
X38672Y-40029D01*
X38672Y-40029D02*
X39398Y-39303D01*
X50836Y-28488D02*
X48411Y-28488D01*
X48411Y-28488D02*
X46220Y-30679D01*
X53421Y-28488D02*
X50836Y-28488D01*
X53421Y-28488D02*
X53948Y-29015D01*
X45037Y-31397D02*
X45037Y-30926D01*
X45285Y-30679D02*
X46220Y-30679D01*
X45037Y-30926D02*
X45285Y-30679D01*
X55466Y-29251D02*
X55466Y-27918D01*
X55466Y-29297D02*
X54795Y-29968D01*
X54795Y-29968D02*
X54251Y-29968D01*
X55466Y-29251D02*
X55466Y-29297D01*
X55466Y-27918D02*
X57125Y-26259D01*
X54251Y-29968D02*
X54251Y-29318D01*
X54251Y-29318D02*
X53948Y-29015D01*
X44177Y-33327D02*
X42701Y-33327D01*
X42701Y-33327D02*
X41310Y-34718D01*
X44177Y-33327D02*
X45037Y-32467D01*
X45037Y-31397D02*
X45037Y-32467D01*
X45620Y-29727D02*
X46355Y-29727D01*
X46355Y-29727D02*
X47966Y-28116D01*
X53759Y-28405D02*
X54338Y-28405D01*
X54338Y-28405D02*
X54948Y-29015D01*
X53464Y-28116D02*
X53464Y-26298D01*
X53464Y-26298D02*
X53503Y-26259D01*
X53470Y-28116D02*
X53464Y-28116D01*
X53464Y-28116D02*
X47966Y-28116D01*
X53759Y-28405D02*
X53470Y-28116D01*
X44212Y-32590D02*
X44212Y-31032D01*
X45517Y-29727D02*
X45620Y-29727D01*
X44212Y-31032D02*
X45517Y-29727D01*
X43308Y-33077D02*
X43725Y-33077D01*
X43725Y-33077D02*
X44212Y-32590D01*
X42505Y-33077D02*
X43308Y-33077D01*
X42505Y-33077D02*
X41087Y-34495D01*
X28858Y-28127D02*
X30103Y-28127D01*
X30103Y-28127D02*
X34566Y-32590D01*
X34566Y-32590D02*
X35260Y-32590D01*
X36987Y-34467D02*
X38351Y-35831D01*
X36987Y-34467D02*
X36987Y-34317D01*
X35260Y-32590D02*
X36987Y-34317D01*
X27537Y-28127D02*
X27342Y-27933D01*
X27342Y-27933D02*
X27342Y-27519D01*
X27342Y-27519D02*
X27106Y-27283D01*
X27106Y-27283D02*
X24527Y-27283D01*
X27537Y-28127D02*
X28858Y-28127D01*
X48592Y-36171D02*
X48592Y-35098D01*
X48592Y-35098D02*
X49143Y-34547D01*
X48169Y-36594D02*
X46692Y-36594D01*
X46692Y-36594D02*
X45964Y-37322D01*
X45610Y-37322D02*
X45728Y-37322D01*
X45728Y-37322D02*
X45964Y-37322D01*
X44488Y-37814D02*
X45118Y-37814D01*
X43173Y-36500D02*
X43092Y-36500D01*
X44488Y-37814D02*
X43173Y-36500D01*
X45118Y-37814D02*
X45610Y-37322D01*
X48592Y-36171D02*
X48169Y-36594D01*
X49891Y-30649D02*
X49625Y-30649D01*
X49901Y-30649D02*
X49891Y-30649D01*
X49625Y-30649D02*
X49143Y-31131D01*
X49143Y-31131D02*
X49143Y-34547D01*
X53110Y-30649D02*
X53543Y-31082D01*
X49901Y-30649D02*
X53110Y-30649D01*
X55039Y-31082D02*
X53543Y-31082D01*
X55039Y-31082D02*
X56614Y-31082D01*
X56614Y-31082D02*
X57302Y-31082D01*
X57302Y-31082D02*
X57302Y-31051D01*
X57302Y-31051D02*
X58385Y-29968D01*
X40078Y-32590D02*
X39594Y-32590D01*
X39594Y-32590D02*
X38597Y-33587D01*
X40857Y-29427D02*
X40857Y-27117D01*
X40857Y-27117D02*
X39999Y-26259D01*
X40857Y-29427D02*
X40078Y-30206D01*
X40078Y-32590D02*
X40078Y-30206D01*
X38597Y-33587D02*
X38597Y-34296D01*
X38597Y-34296D02*
X39242Y-34941D01*
X28425Y-29202D02*
X28425Y-29409D01*
X28681Y-28946D02*
X28425Y-29202D01*
X28425Y-29409D02*
X28425Y-29990D01*
X28425Y-31023D02*
X28425Y-29990D01*
X26692Y-32302D02*
X27146Y-32302D01*
X31811Y-32007D02*
X31811Y-32590D01*
X30826Y-31023D02*
X31811Y-32007D01*
X28425Y-31023D02*
X30826Y-31023D01*
X27146Y-32302D02*
X28425Y-31023D01*
X33818Y-33346D02*
X33267Y-33346D01*
X33818Y-33346D02*
X34974Y-33346D01*
X34974Y-33346D02*
X37839Y-36211D01*
X33267Y-33346D02*
X32511Y-32590D01*
X32511Y-32590D02*
X31811Y-32590D01*
X26613Y-32302D02*
X24527Y-34387D01*
X26613Y-32302D02*
X26692Y-32302D01*
X24527Y-34387D02*
X24527Y-34527D01*
X47864Y-40314D02*
X47066Y-40314D01*
X49596Y-40314D02*
X48179Y-40314D01*
X50951Y-40314D02*
X52035Y-39230D01*
X49596Y-40314D02*
X50951Y-40314D01*
X48179Y-40314D02*
X47864Y-40314D01*
X47066Y-40314D02*
X46259Y-39507D01*
X46099Y-39347D02*
X45629Y-39347D01*
X45629Y-39347D02*
X45270Y-39347D01*
X43423Y-37786D02*
X43158Y-37521D01*
X43749Y-37786D02*
X43423Y-37786D01*
X43749Y-37786D02*
X45270Y-39307D01*
X45270Y-39347D02*
X45270Y-39307D01*
X46259Y-39507D02*
X46099Y-39347D01*
X52035Y-39230D02*
X59666Y-39230D01*
X59666Y-39230D02*
X60747Y-38149D01*
X52035Y-39230D02*
X52038Y-39227D01*
X56909Y-37047D02*
X56212Y-37047D01*
X56212Y-37047D02*
X55629Y-36464D01*
X59645Y-37047D02*
X60747Y-38149D01*
X56909Y-37047D02*
X59645Y-37047D01*
X47519Y-39446D02*
X47519Y-38710D01*
X47888Y-39815D02*
X47519Y-39446D01*
X50744Y-39815D02*
X47888Y-39815D01*
X52075Y-38484D02*
X50744Y-39815D01*
X55275Y-38484D02*
X56761Y-38484D01*
X55275Y-38484D02*
X52075Y-38484D01*
X57706Y-38877D02*
X57312Y-38484D01*
X57312Y-38484D02*
X56761Y-38484D01*
X53041Y-39738D02*
X52233Y-39738D01*
X47277Y-40813D02*
X46762Y-41327D01*
X51158Y-40813D02*
X47277Y-40813D01*
X52233Y-39738D02*
X51158Y-40813D01*
X46762Y-41327D02*
X46217Y-41327D01*
X43553Y-38356D02*
X43102Y-38356D01*
X45078Y-39881D02*
X43553Y-38356D01*
X56281Y-39738D02*
X57007Y-40464D01*
X53041Y-39738D02*
X56281Y-39738D01*
X43102Y-38356D02*
X42713Y-37966D01*
X57007Y-40464D02*
X57007Y-42677D01*
X57007Y-42677D02*
X57125Y-42795D01*
X45618Y-41327D02*
X46217Y-41327D01*
X45078Y-40787D02*
X45618Y-41327D01*
X45078Y-40787D02*
X45078Y-39881D01*
X58385Y-38366D02*
X58385Y-38070D01*
X58070Y-37755D02*
X57185Y-37755D01*
X58385Y-38070D02*
X58070Y-37755D01*
X57185Y-37755D02*
X52883Y-37755D01*
X52883Y-37755D02*
X52874Y-37746D01*
X53681Y-39488D02*
X52130Y-39488D01*
X46311Y-40563D02*
X46075Y-40327D01*
X51054Y-40563D02*
X46311Y-40563D01*
X52130Y-39488D02*
X51054Y-40563D01*
X46075Y-40327D02*
X45537Y-40327D01*
X43651Y-38080D02*
X43272Y-38080D01*
X45537Y-40327D02*
X45337Y-40127D01*
X45337Y-39766D02*
X43651Y-38080D01*
X45337Y-40127D02*
X45337Y-39766D01*
X43272Y-38080D02*
X42935Y-37743D01*
X57409Y-39488D02*
X58385Y-40464D01*
X53681Y-39488D02*
X57409Y-39488D01*
X58385Y-40464D02*
X59440Y-40464D01*
X59440Y-40464D02*
X60747Y-41771D01*
X56309Y-32775D02*
X54704Y-32775D01*
X54704Y-32775D02*
X54133Y-32204D01*
X53774Y-39987D02*
X52336Y-39987D01*
X47854Y-41062D02*
X46850Y-42066D01*
X51261Y-41062D02*
X47854Y-41062D01*
X52336Y-39987D02*
X51261Y-41062D01*
X45767Y-42282D02*
X46004Y-42282D01*
X43435Y-38612D02*
X42913Y-38612D01*
X45767Y-42282D02*
X45628Y-42282D01*
X44829Y-41482D02*
X45628Y-42282D01*
X44829Y-41482D02*
X44829Y-40006D01*
X44829Y-40006D02*
X43435Y-38612D01*
X42913Y-38612D02*
X42490Y-38189D01*
X46004Y-42282D02*
X46220Y-42066D01*
X46220Y-42066D02*
X46850Y-42066D01*
X53774Y-39987D02*
X54251Y-40464D01*
X51667Y-31042D02*
X51811Y-30899D01*
X51811Y-30899D02*
X52729Y-30899D01*
X51667Y-31380D02*
X51667Y-31042D01*
X54133Y-32204D02*
X52828Y-30899D01*
X52828Y-30899D02*
X52729Y-30899D01*
X54251Y-40464D02*
X54251Y-42047D01*
X54251Y-42047D02*
X53503Y-42795D01*
X46033Y-28690D02*
X46661Y-28690D01*
X46661Y-28690D02*
X47485Y-27867D01*
X47485Y-27867D02*
X48274Y-27867D01*
X42834Y-32590D02*
X42834Y-31525D01*
X42834Y-31525D02*
X45669Y-28690D01*
X46033Y-28690D02*
X45669Y-28690D01*
X45187Y-28208D02*
X44773Y-28208D01*
X45669Y-28690D02*
X45187Y-28208D01*
X48274Y-27867D02*
X49881Y-26259D01*
X50409Y-30899D02*
X50305Y-31003D01*
X51102Y-30899D02*
X50409Y-30899D01*
X51157Y-30954D02*
X51102Y-30899D01*
X51157Y-31380D02*
X51157Y-30954D01*
X42834Y-32590D02*
X42547Y-32590D01*
X42547Y-32590D02*
X40865Y-34272D01*
X48613Y-27527D02*
X49881Y-26259D01*
X50597Y-29652D02*
X48252Y-29652D01*
X48252Y-29652D02*
X46707Y-31197D01*
X55122Y-30476D02*
X53935Y-30476D01*
X53935Y-30476D02*
X53111Y-29652D01*
X61051Y-25177D02*
X61051Y-26980D01*
X61051Y-26980D02*
X60747Y-27283D01*
X46227Y-31677D02*
X45687Y-31677D01*
X45337Y-32027D02*
X45687Y-31677D01*
X45337Y-32547D02*
X45337Y-32027D01*
X44308Y-33577D02*
X45337Y-32547D01*
X42897Y-33577D02*
X41533Y-34941D01*
X44308Y-33577D02*
X42897Y-33577D01*
X46707Y-31197D02*
X46227Y-31677D01*
X53111Y-29652D02*
X50597Y-29652D01*
X55122Y-30476D02*
X55629Y-29968D01*
X56437Y-28777D02*
X56437Y-29160D01*
X56437Y-29160D02*
X55629Y-29968D01*
X59753Y-28277D02*
X60747Y-27283D01*
X56937Y-28277D02*
X59753Y-28277D01*
X56437Y-28777D02*
X56937Y-28277D01*
X45995Y-38827D02*
X45810Y-38827D01*
X46515Y-38307D02*
X45995Y-38827D01*
X50570Y-29919D02*
X48751Y-29919D01*
X52990Y-29919D02*
X53448Y-30377D01*
X53809Y-30738D02*
X56238Y-30738D01*
X53448Y-30377D02*
X53809Y-30738D01*
X56238Y-30738D02*
X57007Y-29968D01*
X50570Y-29919D02*
X52990Y-29919D01*
X44822Y-33415D02*
X44822Y-33562D01*
X45531Y-32706D02*
X44822Y-33415D01*
X46997Y-31687D02*
X46997Y-31673D01*
X45964Y-32706D02*
X45978Y-32706D01*
X45978Y-32706D02*
X46997Y-31687D01*
X45964Y-32706D02*
X45531Y-32706D01*
X48751Y-29919D02*
X46997Y-31673D01*
X44559Y-33826D02*
X43093Y-33826D01*
X43093Y-33826D02*
X41756Y-35163D01*
X44822Y-33562D02*
X44559Y-33826D01*
X38976Y-34153D02*
X38977Y-34153D01*
X38977Y-34153D02*
X38977Y-34231D01*
X40265Y-33100D02*
X39545Y-33100D01*
X38977Y-33667D02*
X38977Y-34231D01*
X40774Y-32590D02*
X40265Y-33100D01*
X41456Y-32590D02*
X40774Y-32590D01*
X39545Y-33100D02*
X38977Y-33667D01*
X43610Y-26259D02*
X43610Y-26395D01*
X42097Y-30507D02*
X41456Y-31148D01*
X42097Y-27907D02*
X42097Y-30507D01*
X43610Y-26395D02*
X42097Y-27907D01*
X41456Y-32590D02*
X41456Y-31148D01*
X38977Y-34231D02*
X39465Y-34718D01*
X27874Y-28378D02*
X29795Y-28378D01*
X33188Y-31771D02*
X33188Y-32590D01*
X29795Y-28378D02*
X33188Y-31771D01*
X27874Y-28378D02*
X26601Y-28378D01*
X35039Y-33070D02*
X33669Y-33070D01*
X33669Y-33070D02*
X33188Y-32590D01*
X35118Y-33070D02*
X35039Y-33070D01*
X35118Y-33070D02*
X35221Y-33070D01*
X35221Y-33070D02*
X36497Y-34347D01*
X26338Y-29094D02*
X24527Y-30905D01*
X26601Y-28378D02*
X26338Y-28641D01*
X26338Y-28641D02*
X26338Y-29094D01*
X36497Y-34347D02*
X36497Y-34423D01*
X36497Y-34423D02*
X38128Y-36054D01*
X38700Y-32590D02*
X38700Y-29590D01*
X38191Y-29081D02*
X38191Y-28073D01*
X38700Y-29590D02*
X38191Y-29081D01*
X38700Y-32590D02*
X38700Y-33084D01*
X38700Y-33084D02*
X38317Y-33467D01*
X38317Y-33467D02*
X38317Y-34462D01*
X38191Y-28073D02*
X36377Y-26259D01*
X38317Y-34462D02*
X39019Y-35163D01*
X47155Y-37726D02*
X47155Y-38021D01*
X46801Y-37372D02*
X47155Y-37726D01*
X52064Y-38848D02*
X55570Y-38848D01*
X47155Y-38021D02*
X47155Y-39434D01*
X47155Y-39434D02*
X47785Y-40064D01*
X47785Y-40064D02*
X50848Y-40064D01*
X50848Y-40064D02*
X52064Y-38848D01*
X42204Y-40688D02*
X42204Y-41338D01*
X52874Y-40464D02*
X52212Y-40464D01*
X52212Y-40464D02*
X49881Y-42795D01*
X41643Y-40127D02*
X41254Y-40127D01*
X41254Y-40127D02*
X40903Y-39776D01*
X41643Y-40127D02*
X42204Y-40688D01*
X37322Y-30669D02*
X37322Y-31200D01*
X37322Y-31200D02*
X37037Y-31486D01*
X37322Y-32590D02*
X37322Y-31771D01*
X37322Y-31771D02*
X37037Y-31486D01*
X37037Y-31486D02*
X36653Y-31486D01*
X32913Y-26259D02*
X32755Y-26259D01*
X37322Y-30669D02*
X32913Y-26259D01*
X37322Y-32590D02*
X37322Y-33312D01*
X37322Y-33312D02*
X37587Y-33577D01*
X37587Y-34177D02*
X38796Y-35386D01*
X37587Y-33577D02*
X37587Y-34177D01*
X35944Y-32590D02*
X37282Y-33928D01*
X35944Y-30637D02*
X36612Y-30637D01*
X36612Y-30637D02*
X36712Y-30738D01*
X35944Y-30637D02*
X33374Y-28067D01*
X31881Y-28067D02*
X33374Y-28067D01*
X32165Y-28067D02*
X32696Y-28067D01*
X30369Y-26259D02*
X29133Y-26259D01*
X30937Y-26827D02*
X30369Y-26259D01*
X30937Y-27867D02*
X30937Y-26827D01*
X31137Y-28067D02*
X30937Y-27867D01*
X32078Y-28067D02*
X31881Y-28067D01*
X31881Y-28067D02*
X31137Y-28067D01*
X32165Y-28067D02*
X32078Y-28067D01*
X32696Y-28067D02*
X33362Y-28067D01*
X36850Y-33496D02*
X36850Y-33503D01*
X36850Y-33503D02*
X36850Y-33496D01*
X37282Y-34318D02*
X37282Y-33928D01*
X37282Y-34318D02*
X38573Y-35609D01*
X37282Y-33928D02*
X36850Y-33496D01*
X50948Y-29015D02*
X48592Y-29015D01*
X48592Y-29015D02*
X48346Y-29261D01*
X37992Y-36811D02*
X38228Y-36811D01*
X38228Y-36811D02*
X39665Y-35374D01*
X37616Y-36435D02*
X37992Y-36811D01*
X37616Y-36434D02*
X37616Y-36435D01*
X39665Y-35374D02*
X40059Y-35374D01*
X36944Y-35870D02*
X37053Y-35870D01*
X37053Y-35870D02*
X37616Y-36434D01*
X48842Y-36332D02*
X48842Y-35291D01*
X48325Y-36848D02*
X48842Y-36332D01*
X48842Y-35291D02*
X49950Y-34183D01*
X48325Y-36848D02*
X46791Y-36848D01*
X45993Y-38337D02*
X45993Y-38327D01*
X46279Y-38051D02*
X45993Y-38337D01*
X46279Y-37360D02*
X46279Y-38051D01*
X46791Y-36848D02*
X46279Y-37360D01*
X45688Y-38327D02*
X45993Y-38327D01*
X42657Y-37007D02*
X40964Y-38700D01*
X44643Y-38327D02*
X45688Y-38327D01*
X43323Y-37007D02*
X44643Y-38327D01*
X43323Y-37007D02*
X43090Y-37007D01*
X43090Y-37007D02*
X42657Y-37007D01*
X49950Y-33528D02*
X49950Y-34183D01*
X50767Y-33188D02*
X50452Y-33188D01*
X51157Y-33273D02*
X51072Y-33188D01*
X51072Y-33188D02*
X50767Y-33188D01*
X51157Y-33659D02*
X51157Y-33273D01*
X50452Y-33188D02*
X50113Y-33528D01*
X50113Y-33528D02*
X49950Y-33528D01*
X48228Y-35738D02*
X48228Y-35078D01*
X48228Y-35078D02*
X48838Y-34468D01*
X50344Y-30285D02*
X52096Y-30285D01*
X49607Y-30285D02*
X48939Y-30953D01*
X50344Y-30285D02*
X49607Y-30285D01*
X48838Y-31054D02*
X48939Y-30953D01*
X48838Y-34468D02*
X48838Y-31054D01*
X47391Y-36327D02*
X47993Y-36327D01*
X46476Y-36327D02*
X47391Y-36327D01*
X45660Y-36327D02*
X46476Y-36327D01*
X45098Y-36889D02*
X45660Y-36327D01*
X44827Y-36889D02*
X45098Y-36889D01*
X47993Y-36327D02*
X48228Y-36092D01*
X48228Y-36092D02*
X48228Y-35738D01*
X40492Y-38602D02*
X40544Y-38602D01*
X40544Y-38602D02*
X42935Y-36211D01*
X43385Y-35905D02*
X43661Y-35905D01*
X43385Y-35905D02*
X43241Y-35905D01*
X43241Y-35905D02*
X42935Y-36211D01*
X43661Y-35905D02*
X43818Y-36062D01*
X44827Y-36889D02*
X44827Y-36796D01*
X44606Y-35984D02*
X44448Y-35826D01*
X44606Y-36574D02*
X44606Y-35984D01*
X44827Y-36796D02*
X44606Y-36574D01*
X43818Y-36062D02*
X44212Y-36062D01*
X44212Y-36062D02*
X44448Y-35826D01*
X44448Y-35826D02*
X44448Y-35300D01*
X35783Y-38862D02*
X34669Y-38862D01*
X34669Y-38862D02*
X33228Y-37421D01*
X36480Y-39322D02*
X36019Y-38862D01*
X36019Y-38862D02*
X35783Y-38862D01*
X44507Y-41692D02*
X44507Y-40078D01*
X44507Y-40078D02*
X43293Y-38864D01*
X42720Y-38864D02*
X42267Y-38412D01*
X43293Y-38864D02*
X42720Y-38864D01*
X42588Y-42175D02*
X42588Y-41072D01*
X43110Y-42746D02*
X43110Y-42480D01*
X43110Y-42480D02*
X42913Y-42283D01*
X42696Y-42283D02*
X42588Y-42175D01*
X42913Y-42283D02*
X42696Y-42283D01*
X42588Y-41072D02*
X42559Y-41043D01*
X51927Y-33659D02*
X51927Y-33000D01*
X50885Y-32667D02*
X49862Y-31643D01*
X51594Y-32667D02*
X50885Y-32667D01*
X51927Y-33000D02*
X51594Y-32667D01*
X49261Y-36801D02*
X49261Y-36702D01*
X49261Y-36702D02*
X49429Y-36535D01*
X49429Y-36535D02*
X49429Y-35688D01*
X49429Y-35688D02*
X49650Y-35467D01*
X49650Y-35467D02*
X49931Y-35467D01*
X51879Y-35467D02*
X51924Y-35467D01*
X52303Y-35088D02*
X52303Y-35009D01*
X51924Y-35467D02*
X52303Y-35088D01*
X27667Y-34350D02*
X28031Y-34350D01*
X28031Y-34350D02*
X28149Y-34468D01*
X28946Y-34350D02*
X28267Y-34350D01*
X28267Y-34350D02*
X28149Y-34468D01*
X28149Y-34468D02*
X28149Y-34734D01*
X34980Y-30570D02*
X34606Y-30570D01*
X36791Y-32381D02*
X34980Y-30570D01*
X56919Y-38120D02*
X53562Y-38120D01*
X53562Y-38120D02*
X53553Y-38129D01*
X49847Y-32928D02*
X49950Y-32928D01*
X49547Y-33228D02*
X49847Y-32928D01*
X49547Y-33858D02*
X49547Y-33228D01*
X49596Y-33907D02*
X49547Y-33858D01*
X47834Y-35501D02*
X47834Y-35157D01*
X47834Y-35157D02*
X46811Y-34133D01*
X47844Y-35511D02*
X47834Y-35501D01*
X54271Y-31564D02*
X56289Y-31564D01*
X52913Y-32740D02*
X52913Y-33316D01*
X52913Y-33316D02*
X52913Y-33622D01*
X52913Y-33622D02*
X52401Y-34133D01*
X51505Y-34133D02*
X51609Y-34133D01*
X51609Y-34133D02*
X52401Y-34133D01*
X51417Y-34045D02*
X51505Y-34133D01*
X51417Y-33659D02*
X51417Y-34045D01*
X47362Y-26653D02*
X47362Y-25244D01*
X47362Y-25244D02*
X47196Y-25078D01*
X44133Y-42746D02*
X44793Y-42746D01*
X44793Y-42746D02*
X44842Y-42795D01*
X44842Y-42795D02*
X44842Y-43858D01*
X44842Y-43858D02*
X44940Y-43956D01*
X44940Y-43956D02*
X42929Y-43956D01*
X42401Y-43429D02*
X42401Y-42795D01*
X42929Y-43956D02*
X42401Y-43429D01*
X36279Y-36909D02*
X36279Y-36535D01*
X36279Y-36535D02*
X36520Y-36294D01*
X36811Y-37937D02*
X35733Y-37937D01*
X33981Y-35201D02*
X35236Y-36456D01*
X33169Y-35201D02*
X33981Y-35201D01*
X35236Y-37440D02*
X35236Y-36968D01*
X35236Y-36456D02*
X35236Y-36968D01*
X35733Y-37937D02*
X35236Y-37440D01*
X31929Y-34901D02*
X31515Y-34901D01*
X30964Y-34350D02*
X28946Y-34350D01*
X27667Y-34350D02*
X27333Y-34350D01*
X31515Y-34901D02*
X30964Y-34350D01*
X41122Y-35846D02*
X41653Y-35846D01*
X42134Y-36122D02*
X42490Y-35765D01*
X41929Y-36122D02*
X42134Y-36122D01*
X41653Y-35846D02*
X41929Y-36122D01*
X38917Y-37657D02*
X38917Y-37874D01*
X39960Y-38917D02*
X39173Y-38129D01*
X39960Y-39186D02*
X39960Y-38917D01*
X38917Y-37874D02*
X39173Y-38129D01*
X39960Y-39186D02*
X39621Y-39525D01*
X38799Y-37755D02*
X38818Y-37755D01*
X38480Y-37437D02*
X38799Y-37755D01*
X38385Y-37437D02*
X38146Y-37437D01*
X38385Y-37437D02*
X38480Y-37437D01*
X38818Y-37755D02*
X38917Y-37657D01*
X38146Y-37437D02*
X37839Y-37743D01*
X37839Y-37743D02*
X38146Y-37437D01*
X38287Y-40527D02*
X39487Y-40527D01*
X39487Y-40527D02*
X39503Y-40511D01*
X39503Y-40511D02*
X39503Y-40487D01*
X39503Y-40487D02*
X39212Y-40196D01*
X39212Y-40196D02*
X39212Y-39934D01*
X39212Y-39934D02*
X39621Y-39525D01*
X44724Y-37440D02*
X44467Y-37440D01*
X44467Y-37440D02*
X44227Y-37201D01*
X44227Y-37201D02*
X44227Y-36889D01*
X43779Y-34700D02*
X43556Y-34700D01*
X43556Y-34700D02*
X42490Y-35765D01*
X40792Y-33794D02*
X40433Y-34153D01*
X40433Y-34153D02*
X40029Y-34153D01*
X32047Y-34901D02*
X31929Y-34901D01*
X27333Y-34350D02*
X26810Y-33827D01*
X32519Y-35059D02*
X32362Y-34901D01*
X32362Y-34901D02*
X32047Y-34901D01*
X32519Y-35201D02*
X32519Y-35059D01*
X37534Y-38048D02*
X37300Y-38048D01*
X37189Y-37937D02*
X36811Y-37937D01*
X37300Y-38048D02*
X37189Y-37937D01*
X37534Y-38048D02*
X37839Y-37743D01*
X42508Y-39477D02*
X42687Y-39477D01*
X42687Y-39477D02*
X43187Y-39977D01*
X42508Y-39477D02*
X42441Y-39477D01*
X41756Y-38791D02*
X41751Y-38791D01*
X42441Y-39477D02*
X41756Y-38791D01*
X43187Y-39977D02*
X43187Y-40027D01*
X43187Y-40027D02*
X44133Y-40973D01*
X44133Y-41712D02*
X44133Y-40973D01*
X40792Y-33562D02*
X40792Y-33794D01*
X40029Y-34153D02*
X39938Y-34244D01*
X44133Y-42746D02*
X44133Y-41712D01*
X32519Y-35201D02*
X33169Y-35201D01*
X51672Y-33659D02*
X51672Y-33158D01*
X50626Y-32939D02*
X49852Y-32165D01*
X51453Y-32939D02*
X50626Y-32939D01*
X51672Y-33158D02*
X51453Y-32939D01*
X32598Y-34133D02*
X32598Y-34522D01*
X32598Y-34522D02*
X32519Y-34601D01*
X32598Y-34522D02*
X32519Y-34601D01*
X32519Y-34601D02*
X33169Y-34601D01*
X31870Y-34601D02*
X32519Y-34601D01*
X52182Y-33659D02*
X52182Y-32812D01*
X50305Y-31722D02*
X50305Y-31456D01*
X50944Y-32362D02*
X50305Y-31722D01*
X51732Y-32362D02*
X50944Y-32362D01*
X52182Y-32812D02*
X51732Y-32362D01*
X48257Y-32100D02*
X47673Y-32100D01*
X43289Y-34076D02*
X43172Y-34192D01*
X45697Y-34076D02*
X43289Y-34076D01*
X47673Y-32100D02*
X45697Y-34076D01*
X43172Y-34192D02*
X42045Y-35320D01*
X48257Y-34021D02*
X48257Y-33651D01*
X46988Y-33287D02*
X46594Y-33681D01*
X47893Y-33287D02*
X46988Y-33287D01*
X48257Y-33651D02*
X47893Y-33287D01*
X45974Y-34301D02*
X45974Y-34325D01*
X43479Y-34325D02*
X45974Y-34325D01*
X42267Y-35537D02*
X43479Y-34325D01*
X42267Y-35543D02*
X42267Y-35537D01*
X46594Y-33681D02*
X45949Y-34325D01*
X45949Y-34325D02*
X45974Y-34301D01*
X42952Y-39114D02*
X42524Y-39114D01*
X42524Y-39114D02*
X42045Y-38634D01*
X43787Y-39977D02*
X43787Y-39949D01*
X43787Y-39949D02*
X42952Y-39114D01*
X43700Y-41274D02*
X43700Y-41181D01*
X43700Y-41181D02*
X41533Y-39014D01*
X51879Y-36658D02*
X51879Y-36067D01*
X43366Y-42746D02*
X43366Y-42383D01*
X43070Y-42088D02*
X43070Y-41874D01*
X43366Y-42383D02*
X43070Y-42088D01*
X43622Y-42746D02*
X43622Y-41953D01*
X43622Y-41953D02*
X43700Y-41874D01*
X51230Y-35467D02*
X51230Y-34921D01*
X51230Y-34921D02*
X51492Y-34658D01*
X52810Y-31380D02*
X52177Y-31380D01*
X51927Y-31380D02*
X52177Y-31380D01*
X51505Y-34658D02*
X51492Y-34658D01*
X54246Y-34658D02*
X54837Y-34067D01*
X51476Y-34658D02*
X51505Y-34658D01*
X51505Y-34658D02*
X54246Y-34658D01*
X54837Y-33750D02*
X54837Y-33261D01*
X52956Y-31380D02*
X52810Y-31380D01*
X54837Y-33261D02*
X52956Y-31380D01*
X54837Y-33750D02*
X54837Y-34067D01*
X43070Y-41274D02*
X43070Y-40997D01*
X43070Y-40997D02*
X41310Y-39236D01*
X49931Y-36067D02*
X49931Y-36658D01*
X51230Y-36067D02*
X51230Y-36658D01*
X51938Y-34409D02*
X51328Y-34409D01*
X51328Y-34409D02*
X50580Y-35157D01*
X50580Y-35467D02*
X50580Y-35157D01*
X52874Y-32440D02*
X52332Y-32440D01*
X53311Y-32440D02*
X52874Y-32440D01*
X51131Y-32106D02*
X50902Y-31876D01*
X50902Y-31876D02*
X50902Y-31380D01*
X51998Y-32106D02*
X51131Y-32106D01*
X52332Y-32440D02*
X51998Y-32106D01*
X50902Y-31380D02*
X50647Y-31380D01*
X53435Y-33503D02*
X53435Y-32564D01*
X52529Y-34409D02*
X53435Y-33503D01*
X51938Y-34409D02*
X52529Y-34409D01*
X53435Y-32564D02*
X53311Y-32440D01*
X49114Y-35551D02*
X49399Y-35265D01*
X49114Y-36446D02*
X49114Y-35551D01*
X48868Y-36692D02*
X49114Y-36446D01*
X48868Y-37076D02*
X48868Y-36692D01*
X49050Y-37258D02*
X48868Y-37076D01*
X49399Y-35265D02*
X50314Y-34350D01*
X50787Y-33659D02*
X50504Y-33659D01*
X50314Y-33848D02*
X50314Y-34350D01*
X50504Y-33659D02*
X50314Y-33848D01*
X49931Y-37258D02*
X49050Y-37258D01*
X50902Y-33659D02*
X50787Y-33659D01*
X50787Y-33659D02*
X50647Y-33659D01*
X50580Y-36658D02*
X50580Y-36067D01*
G54D10*
G36*
X43955Y-35520D02*
X43946Y-35520D01*
X43632Y-35520D01*
X43577Y-35543D01*
X43535Y-35585D01*
X43513Y-35639D01*
X43512Y-35678D01*
X43385Y-35678D01*
X43241Y-35678D01*
X43154Y-35695D01*
X43081Y-35745D01*
X43077Y-35748D01*
X43073Y-35750D01*
X43032Y-35792D01*
X42475Y-36348D01*
X42473Y-36352D01*
X40547Y-38278D01*
X40428Y-38278D01*
X40309Y-38328D01*
X40218Y-38418D01*
X40168Y-38537D01*
X40168Y-38666D01*
X40217Y-38785D01*
X40308Y-38876D01*
X40427Y-38925D01*
X40556Y-38925D01*
X40675Y-38876D01*
X40683Y-38868D01*
X40690Y-38883D01*
X40781Y-38974D01*
X40899Y-39024D01*
X40904Y-39024D01*
X40893Y-39051D01*
X40893Y-39110D01*
X40915Y-39165D01*
X40939Y-39188D01*
X40809Y-39303D01*
X40793Y-39287D01*
X40739Y-39265D01*
X40680Y-39265D01*
X40625Y-39287D01*
X40583Y-39329D01*
X40414Y-39499D01*
X40391Y-39553D01*
X40391Y-39612D01*
X40413Y-39667D01*
X40455Y-39709D01*
X40560Y-39813D01*
X40560Y-40835D01*
X39794Y-40835D01*
X39794Y-39879D01*
X39622Y-39848D01*
X40082Y-39388D01*
X40083Y-39384D01*
X40121Y-39347D01*
X40170Y-39273D01*
X40187Y-39186D01*
X40187Y-38917D01*
X40170Y-38830D01*
X40121Y-38756D01*
X39333Y-37969D01*
X39333Y-37969D01*
X39333Y-37969D01*
X39195Y-37831D01*
X39240Y-37722D01*
X39240Y-37593D01*
X39191Y-37474D01*
X39100Y-37383D01*
X38981Y-37334D01*
X38853Y-37333D01*
X38743Y-37379D01*
X38641Y-37276D01*
X38567Y-37227D01*
X38480Y-37210D01*
X38385Y-37210D01*
X38146Y-37210D01*
X38059Y-37227D01*
X37985Y-37276D01*
X37980Y-37281D01*
X37977Y-37282D01*
X37935Y-37324D01*
X37438Y-37821D01*
X37394Y-37821D01*
X37350Y-37777D01*
X37276Y-37728D01*
X37189Y-37710D01*
X37143Y-37710D01*
X37120Y-37687D01*
X37065Y-37664D01*
X37006Y-37664D01*
X36916Y-37664D01*
X36916Y-36336D01*
X36893Y-36281D01*
X36851Y-36239D01*
X36533Y-35921D01*
X36479Y-35898D01*
X36420Y-35898D01*
X36365Y-35921D01*
X36323Y-35963D01*
X36146Y-36139D01*
X36124Y-36194D01*
X36124Y-36253D01*
X36146Y-36308D01*
X36166Y-36327D01*
X36119Y-36374D01*
X36069Y-36448D01*
X36052Y-36535D01*
X36052Y-36678D01*
X36005Y-36726D01*
X35956Y-36844D01*
X35956Y-36973D01*
X36005Y-37092D01*
X36096Y-37183D01*
X36214Y-37232D01*
X36343Y-37232D01*
X36462Y-37183D01*
X36553Y-37092D01*
X36602Y-36974D01*
X36603Y-36845D01*
X36553Y-36726D01*
X36506Y-36678D01*
X36506Y-36667D01*
X36506Y-36668D01*
X36561Y-36690D01*
X36620Y-36690D01*
X36674Y-36668D01*
X36716Y-36626D01*
X36893Y-36449D01*
X36916Y-36395D01*
X36916Y-36336D01*
X36916Y-37664D01*
X36556Y-37664D01*
X36502Y-37686D01*
X36478Y-37710D01*
X35827Y-37710D01*
X35463Y-37346D01*
X35463Y-36968D01*
X35463Y-36456D01*
X35463Y-36456D01*
X35445Y-36369D01*
X35416Y-36325D01*
X35396Y-36296D01*
X35396Y-36296D01*
X34141Y-35041D01*
X34067Y-34991D01*
X33981Y-34974D01*
X33502Y-34974D01*
X33478Y-34950D01*
X33423Y-34928D01*
X33364Y-34928D01*
X32914Y-34928D01*
X32860Y-34950D01*
X32844Y-34966D01*
X32828Y-34950D01*
X32774Y-34928D01*
X32715Y-34928D01*
X32699Y-34928D01*
X32680Y-34898D01*
X32680Y-34898D01*
X32656Y-34875D01*
X32774Y-34875D01*
X32828Y-34852D01*
X32844Y-34836D01*
X32860Y-34852D01*
X32914Y-34874D01*
X32973Y-34875D01*
X33423Y-34875D01*
X33478Y-34852D01*
X33520Y-34810D01*
X33542Y-34756D01*
X33542Y-34697D01*
X33542Y-34447D01*
X33520Y-34392D01*
X33478Y-34350D01*
X33423Y-34328D01*
X33364Y-34328D01*
X32914Y-34328D01*
X32860Y-34350D01*
X32844Y-34366D01*
X32833Y-34355D01*
X32872Y-34317D01*
X32921Y-34198D01*
X32921Y-34069D01*
X32872Y-33950D01*
X32781Y-33859D01*
X32663Y-33810D01*
X32534Y-33810D01*
X32415Y-33859D01*
X32324Y-33950D01*
X32275Y-34069D01*
X32274Y-34197D01*
X32324Y-34316D01*
X32335Y-34328D01*
X32265Y-34328D01*
X32210Y-34350D01*
X32194Y-34366D01*
X32179Y-34350D01*
X32124Y-34328D01*
X32065Y-34328D01*
X31615Y-34328D01*
X31561Y-34350D01*
X31519Y-34392D01*
X31496Y-34446D01*
X31496Y-34505D01*
X31496Y-34561D01*
X31125Y-34189D01*
X31051Y-34140D01*
X30964Y-34123D01*
X30876Y-34123D01*
X30876Y-31869D01*
X30770Y-31612D01*
X30573Y-31415D01*
X30316Y-31308D01*
X30038Y-31308D01*
X29781Y-31414D01*
X29584Y-31611D01*
X29488Y-31843D01*
X29392Y-31612D01*
X29196Y-31415D01*
X28938Y-31308D01*
X28660Y-31308D01*
X28403Y-31414D01*
X28206Y-31611D01*
X28099Y-31868D01*
X28099Y-32146D01*
X28205Y-32403D01*
X28402Y-32600D01*
X28659Y-32707D01*
X28937Y-32707D01*
X29194Y-32601D01*
X29391Y-32404D01*
X29488Y-32172D01*
X29583Y-32403D01*
X29780Y-32600D01*
X30037Y-32707D01*
X30315Y-32707D01*
X30572Y-32601D01*
X30769Y-32404D01*
X30876Y-32147D01*
X30876Y-31869D01*
X30876Y-34123D01*
X28946Y-34123D01*
X28267Y-34123D01*
X28180Y-34140D01*
X28149Y-34161D01*
X28118Y-34140D01*
X28031Y-34123D01*
X27667Y-34123D01*
X27473Y-34123D01*
X27455Y-32313D01*
X28519Y-31250D01*
X30732Y-31250D01*
X31584Y-32101D01*
X31584Y-32199D01*
X31557Y-32210D01*
X31431Y-32336D01*
X31362Y-32500D01*
X31362Y-32679D01*
X31430Y-32844D01*
X31556Y-32970D01*
X31721Y-33038D01*
X31899Y-33039D01*
X32064Y-32970D01*
X32190Y-32844D01*
X32202Y-32817D01*
X32417Y-32817D01*
X33107Y-33506D01*
X33180Y-33556D01*
X33267Y-33573D01*
X33818Y-33573D01*
X34880Y-33573D01*
X35105Y-33798D01*
X35103Y-33800D01*
X34113Y-34790D01*
X34090Y-34844D01*
X34090Y-34904D01*
X34113Y-34958D01*
X34154Y-35000D01*
X34649Y-35495D01*
X34704Y-35518D01*
X34763Y-35518D01*
X34817Y-35495D01*
X34859Y-35453D01*
X35330Y-34982D01*
X35424Y-35076D01*
X35424Y-35142D01*
X35473Y-35261D01*
X35564Y-35352D01*
X35683Y-35402D01*
X35812Y-35402D01*
X35930Y-35353D01*
X36022Y-35262D01*
X36071Y-35143D01*
X36071Y-35014D01*
X36022Y-34895D01*
X35931Y-34804D01*
X35812Y-34755D01*
X35745Y-34755D01*
X35651Y-34661D01*
X35810Y-34503D01*
X36800Y-35492D01*
X36789Y-35497D01*
X36747Y-35538D01*
X36571Y-35715D01*
X36548Y-35770D01*
X36548Y-35829D01*
X36571Y-35883D01*
X36612Y-35925D01*
X36930Y-36243D01*
X36985Y-36266D01*
X37044Y-36266D01*
X37099Y-36243D01*
X37102Y-36240D01*
X37154Y-36292D01*
X37155Y-36296D01*
X37197Y-36337D01*
X37754Y-36894D01*
X37755Y-36895D01*
X37831Y-36971D01*
X37831Y-36971D01*
X37880Y-37004D01*
X37905Y-37020D01*
X37905Y-37020D01*
X37992Y-37037D01*
X37992Y-37037D01*
X38228Y-37037D01*
X38315Y-37020D01*
X38388Y-36971D01*
X39759Y-35600D01*
X39828Y-35600D01*
X39875Y-35648D01*
X39994Y-35697D01*
X40123Y-35697D01*
X40242Y-35648D01*
X40333Y-35557D01*
X40382Y-35438D01*
X40382Y-35309D01*
X40333Y-35191D01*
X40242Y-35099D01*
X40123Y-35050D01*
X39995Y-35050D01*
X39876Y-35099D01*
X39828Y-35147D01*
X39665Y-35147D01*
X39649Y-35150D01*
X39656Y-35132D01*
X39704Y-35112D01*
X39746Y-35071D01*
X39859Y-34958D01*
X39882Y-34903D01*
X39882Y-34844D01*
X39859Y-34789D01*
X39817Y-34748D01*
X39414Y-34345D01*
X39668Y-34353D01*
X39981Y-34667D01*
X40036Y-34689D01*
X40095Y-34690D01*
X40150Y-34667D01*
X40191Y-34625D01*
X40348Y-34468D01*
X40368Y-34476D01*
X40455Y-34476D01*
X40470Y-34512D01*
X40512Y-34554D01*
X40625Y-34667D01*
X40673Y-34687D01*
X40693Y-34735D01*
X40734Y-34776D01*
X40848Y-34890D01*
X40896Y-34910D01*
X40915Y-34957D01*
X40957Y-34999D01*
X41070Y-35112D01*
X41118Y-35132D01*
X41138Y-35180D01*
X41180Y-35222D01*
X41293Y-35335D01*
X41341Y-35355D01*
X41361Y-35403D01*
X41403Y-35445D01*
X41516Y-35558D01*
X41564Y-35578D01*
X41581Y-35619D01*
X41352Y-35619D01*
X41305Y-35572D01*
X41186Y-35523D01*
X41057Y-35522D01*
X40939Y-35572D01*
X40848Y-35663D01*
X40798Y-35781D01*
X40798Y-35910D01*
X40847Y-36029D01*
X40938Y-36120D01*
X41057Y-36169D01*
X41186Y-36169D01*
X41305Y-36120D01*
X41352Y-36073D01*
X41559Y-36073D01*
X41768Y-36282D01*
X41768Y-36282D01*
X41842Y-36331D01*
X41929Y-36348D01*
X42134Y-36348D01*
X42221Y-36331D01*
X42294Y-36282D01*
X42349Y-36228D01*
X42352Y-36226D01*
X42394Y-36184D01*
X42951Y-35628D01*
X42952Y-35624D01*
X43419Y-35157D01*
X43955Y-35480D01*
X43955Y-35520D01*
X43955Y-35520D01*
G37*
G54D27*
X43955Y-35520D02*
X43946Y-35520D01*
X43632Y-35520D01*
X43577Y-35543D01*
X43535Y-35585D01*
X43513Y-35639D01*
X43512Y-35678D01*
X43385Y-35678D01*
X43241Y-35678D01*
X43154Y-35695D01*
X43081Y-35745D01*
X43077Y-35748D01*
X43073Y-35750D01*
X43032Y-35792D01*
X42475Y-36348D01*
X42473Y-36352D01*
X40547Y-38278D01*
X40428Y-38278D01*
X40309Y-38328D01*
X40218Y-38418D01*
X40168Y-38537D01*
X40168Y-38666D01*
X40217Y-38785D01*
X40308Y-38876D01*
X40427Y-38925D01*
X40556Y-38925D01*
X40675Y-38876D01*
X40683Y-38868D01*
X40690Y-38883D01*
X40781Y-38974D01*
X40899Y-39024D01*
X40904Y-39024D01*
X40893Y-39051D01*
X40893Y-39110D01*
X40915Y-39165D01*
X40939Y-39188D01*
X40809Y-39303D01*
X40793Y-39287D01*
X40739Y-39265D01*
X40680Y-39265D01*
X40625Y-39287D01*
X40583Y-39329D01*
X40414Y-39499D01*
X40391Y-39553D01*
X40391Y-39612D01*
X40413Y-39667D01*
X40455Y-39709D01*
X40560Y-39813D01*
X40560Y-40835D01*
X39794Y-40835D01*
X39794Y-39879D01*
X39622Y-39848D01*
X40082Y-39388D01*
X40083Y-39384D01*
X40121Y-39347D01*
X40170Y-39273D01*
X40187Y-39186D01*
X40187Y-38917D01*
X40170Y-38830D01*
X40121Y-38756D01*
X39333Y-37969D01*
X39333Y-37969D01*
X39333Y-37969D01*
X39195Y-37831D01*
X39240Y-37722D01*
X39240Y-37593D01*
X39191Y-37474D01*
X39100Y-37383D01*
X38981Y-37334D01*
X38853Y-37333D01*
X38743Y-37379D01*
X38641Y-37276D01*
X38567Y-37227D01*
X38480Y-37210D01*
X38385Y-37210D01*
X38146Y-37210D01*
X38059Y-37227D01*
X37985Y-37276D01*
X37980Y-37281D01*
X37977Y-37282D01*
X37935Y-37324D01*
X37438Y-37821D01*
X37394Y-37821D01*
X37350Y-37777D01*
X37276Y-37728D01*
X37189Y-37710D01*
X37143Y-37710D01*
X37120Y-37687D01*
X37065Y-37664D01*
X37006Y-37664D01*
X36916Y-37664D01*
X36916Y-36336D01*
X36893Y-36281D01*
X36851Y-36239D01*
X36533Y-35921D01*
X36479Y-35898D01*
X36420Y-35898D01*
X36365Y-35921D01*
X36323Y-35963D01*
X36146Y-36139D01*
X36124Y-36194D01*
X36124Y-36253D01*
X36146Y-36308D01*
X36166Y-36327D01*
X36119Y-36374D01*
X36069Y-36448D01*
X36052Y-36535D01*
X36052Y-36678D01*
X36005Y-36726D01*
X35956Y-36844D01*
X35956Y-36973D01*
X36005Y-37092D01*
X36096Y-37183D01*
X36214Y-37232D01*
X36343Y-37232D01*
X36462Y-37183D01*
X36553Y-37092D01*
X36602Y-36974D01*
X36603Y-36845D01*
X36553Y-36726D01*
X36506Y-36678D01*
X36506Y-36667D01*
X36506Y-36668D01*
X36561Y-36690D01*
X36620Y-36690D01*
X36674Y-36668D01*
X36716Y-36626D01*
X36893Y-36449D01*
X36916Y-36395D01*
X36916Y-36336D01*
X36916Y-37664D01*
X36556Y-37664D01*
X36502Y-37686D01*
X36478Y-37710D01*
X35827Y-37710D01*
X35463Y-37346D01*
X35463Y-36968D01*
X35463Y-36456D01*
X35463Y-36456D01*
X35445Y-36369D01*
X35416Y-36325D01*
X35396Y-36296D01*
X35396Y-36296D01*
X34141Y-35041D01*
X34067Y-34991D01*
X33981Y-34974D01*
X33502Y-34974D01*
X33478Y-34950D01*
X33423Y-34928D01*
X33364Y-34928D01*
X32914Y-34928D01*
X32860Y-34950D01*
X32844Y-34966D01*
X32828Y-34950D01*
X32774Y-34928D01*
X32715Y-34928D01*
X32699Y-34928D01*
X32680Y-34898D01*
X32680Y-34898D01*
X32656Y-34875D01*
X32774Y-34875D01*
X32828Y-34852D01*
X32844Y-34836D01*
X32860Y-34852D01*
X32914Y-34874D01*
X32973Y-34875D01*
X33423Y-34875D01*
X33478Y-34852D01*
X33520Y-34810D01*
X33542Y-34756D01*
X33542Y-34697D01*
X33542Y-34447D01*
X33520Y-34392D01*
X33478Y-34350D01*
X33423Y-34328D01*
X33364Y-34328D01*
X32914Y-34328D01*
X32860Y-34350D01*
X32844Y-34366D01*
X32833Y-34355D01*
X32872Y-34317D01*
X32921Y-34198D01*
X32921Y-34069D01*
X32872Y-33950D01*
X32781Y-33859D01*
X32663Y-33810D01*
X32534Y-33810D01*
X32415Y-33859D01*
X32324Y-33950D01*
X32275Y-34069D01*
X32274Y-34197D01*
X32324Y-34316D01*
X32335Y-34328D01*
X32265Y-34328D01*
X32210Y-34350D01*
X32194Y-34366D01*
X32179Y-34350D01*
X32124Y-34328D01*
X32065Y-34328D01*
X31615Y-34328D01*
X31561Y-34350D01*
X31519Y-34392D01*
X31496Y-34446D01*
X31496Y-34505D01*
X31496Y-34561D01*
X31125Y-34189D01*
X31051Y-34140D01*
X30964Y-34123D01*
X30876Y-34123D01*
X30876Y-31869D01*
X30770Y-31612D01*
X30573Y-31415D01*
X30316Y-31308D01*
X30038Y-31308D01*
X29781Y-31414D01*
X29584Y-31611D01*
X29488Y-31843D01*
X29392Y-31612D01*
X29196Y-31415D01*
X28938Y-31308D01*
X28660Y-31308D01*
X28403Y-31414D01*
X28206Y-31611D01*
X28099Y-31868D01*
X28099Y-32146D01*
X28205Y-32403D01*
X28402Y-32600D01*
X28659Y-32707D01*
X28937Y-32707D01*
X29194Y-32601D01*
X29391Y-32404D01*
X29488Y-32172D01*
X29583Y-32403D01*
X29780Y-32600D01*
X30037Y-32707D01*
X30315Y-32707D01*
X30572Y-32601D01*
X30769Y-32404D01*
X30876Y-32147D01*
X30876Y-31869D01*
X30876Y-34123D01*
X28946Y-34123D01*
X28267Y-34123D01*
X28180Y-34140D01*
X28149Y-34161D01*
X28118Y-34140D01*
X28031Y-34123D01*
X27667Y-34123D01*
X27473Y-34123D01*
X27455Y-32313D01*
X28519Y-31250D01*
X30732Y-31250D01*
X31584Y-32101D01*
X31584Y-32199D01*
X31557Y-32210D01*
X31431Y-32336D01*
X31362Y-32500D01*
X31362Y-32679D01*
X31430Y-32844D01*
X31556Y-32970D01*
X31721Y-33038D01*
X31899Y-33039D01*
X32064Y-32970D01*
X32190Y-32844D01*
X32202Y-32817D01*
X32417Y-32817D01*
X33107Y-33506D01*
X33180Y-33556D01*
X33267Y-33573D01*
X33818Y-33573D01*
X34880Y-33573D01*
X35105Y-33798D01*
X35103Y-33800D01*
X34113Y-34790D01*
X34090Y-34844D01*
X34090Y-34904D01*
X34113Y-34958D01*
X34154Y-35000D01*
X34649Y-35495D01*
X34704Y-35518D01*
X34763Y-35518D01*
X34817Y-35495D01*
X34859Y-35453D01*
X35330Y-34982D01*
X35424Y-35076D01*
X35424Y-35142D01*
X35473Y-35261D01*
X35564Y-35352D01*
X35683Y-35402D01*
X35812Y-35402D01*
X35930Y-35353D01*
X36022Y-35262D01*
X36071Y-35143D01*
X36071Y-35014D01*
X36022Y-34895D01*
X35931Y-34804D01*
X35812Y-34755D01*
X35745Y-34755D01*
X35651Y-34661D01*
X35810Y-34503D01*
X36800Y-35492D01*
X36789Y-35497D01*
X36747Y-35538D01*
X36571Y-35715D01*
X36548Y-35770D01*
X36548Y-35829D01*
X36571Y-35883D01*
X36612Y-35925D01*
X36930Y-36243D01*
X36985Y-36266D01*
X37044Y-36266D01*
X37099Y-36243D01*
X37102Y-36240D01*
X37154Y-36292D01*
X37155Y-36296D01*
X37197Y-36337D01*
X37754Y-36894D01*
X37755Y-36895D01*
X37831Y-36971D01*
X37831Y-36971D01*
X37880Y-37004D01*
X37905Y-37020D01*
X37905Y-37020D01*
X37992Y-37037D01*
X37992Y-37037D01*
X38228Y-37037D01*
X38315Y-37020D01*
X38388Y-36971D01*
X39759Y-35600D01*
X39828Y-35600D01*
X39875Y-35648D01*
X39994Y-35697D01*
X40123Y-35697D01*
X40242Y-35648D01*
X40333Y-35557D01*
X40382Y-35438D01*
X40382Y-35309D01*
X40333Y-35191D01*
X40242Y-35099D01*
X40123Y-35050D01*
X39995Y-35050D01*
X39876Y-35099D01*
X39828Y-35147D01*
X39665Y-35147D01*
X39649Y-35150D01*
X39656Y-35132D01*
X39704Y-35112D01*
X39746Y-35071D01*
X39859Y-34958D01*
X39882Y-34903D01*
X39882Y-34844D01*
X39859Y-34789D01*
X39817Y-34748D01*
X39414Y-34345D01*
X39668Y-34353D01*
X39981Y-34667D01*
X40036Y-34689D01*
X40095Y-34690D01*
X40150Y-34667D01*
X40191Y-34625D01*
X40348Y-34468D01*
X40368Y-34476D01*
X40455Y-34476D01*
X40470Y-34512D01*
X40512Y-34554D01*
X40625Y-34667D01*
X40673Y-34687D01*
X40693Y-34735D01*
X40734Y-34776D01*
X40848Y-34890D01*
X40896Y-34910D01*
X40915Y-34957D01*
X40957Y-34999D01*
X41070Y-35112D01*
X41118Y-35132D01*
X41138Y-35180D01*
X41180Y-35222D01*
X41293Y-35335D01*
X41341Y-35355D01*
X41361Y-35403D01*
X41403Y-35445D01*
X41516Y-35558D01*
X41564Y-35578D01*
X41581Y-35619D01*
X41352Y-35619D01*
X41305Y-35572D01*
X41186Y-35523D01*
X41057Y-35522D01*
X40939Y-35572D01*
X40848Y-35663D01*
X40798Y-35781D01*
X40798Y-35910D01*
X40847Y-36029D01*
X40938Y-36120D01*
X41057Y-36169D01*
X41186Y-36169D01*
X41305Y-36120D01*
X41352Y-36073D01*
X41559Y-36073D01*
X41768Y-36282D01*
X41768Y-36282D01*
X41842Y-36331D01*
X41929Y-36348D01*
X42134Y-36348D01*
X42221Y-36331D01*
X42294Y-36282D01*
X42349Y-36228D01*
X42352Y-36226D01*
X42394Y-36184D01*
X42951Y-35628D01*
X42952Y-35624D01*
X43419Y-35157D01*
X43955Y-35480D01*
X43955Y-35520D01*
G54D10*
G36*
X48158Y-27620D02*
X47485Y-27620D01*
X47391Y-27639D01*
X47310Y-27692D01*
X47100Y-27902D01*
X46253Y-27902D01*
X46253Y-26100D01*
X46186Y-25937D01*
X46062Y-25812D01*
X45899Y-25745D01*
X45723Y-25745D01*
X45560Y-25812D01*
X45435Y-25936D01*
X45367Y-26099D01*
X45367Y-26275D01*
X45434Y-26438D01*
X45559Y-26563D01*
X45722Y-26631D01*
X45898Y-26631D01*
X46061Y-26564D01*
X46186Y-26439D01*
X46253Y-26276D01*
X46253Y-26100D01*
X46253Y-27902D01*
X46200Y-27902D01*
X46151Y-27902D01*
X46062Y-27812D01*
X45899Y-27745D01*
X45723Y-27745D01*
X45560Y-27812D01*
X45469Y-27902D01*
X45310Y-27902D01*
X45333Y-27848D01*
X45333Y-27781D01*
X45333Y-24927D01*
X48158Y-24927D01*
X48158Y-27620D01*
X48158Y-27620D01*
G37*
G54D27*
X48158Y-27620D02*
X47485Y-27620D01*
X47391Y-27639D01*
X47310Y-27692D01*
X47100Y-27902D01*
X46253Y-27902D01*
X46253Y-26100D01*
X46186Y-25937D01*
X46062Y-25812D01*
X45899Y-25745D01*
X45723Y-25745D01*
X45560Y-25812D01*
X45435Y-25936D01*
X45367Y-26099D01*
X45367Y-26275D01*
X45434Y-26438D01*
X45559Y-26563D01*
X45722Y-26631D01*
X45898Y-26631D01*
X46061Y-26564D01*
X46186Y-26439D01*
X46253Y-26276D01*
X46253Y-26100D01*
X46253Y-27902D01*
X46200Y-27902D01*
X46151Y-27902D01*
X46062Y-27812D01*
X45899Y-27745D01*
X45723Y-27745D01*
X45560Y-27812D01*
X45469Y-27902D01*
X45310Y-27902D01*
X45333Y-27848D01*
X45333Y-27781D01*
X45333Y-24927D01*
X48158Y-24927D01*
X48158Y-27620D01*
G54D10*
G36*
X48178Y-44147D02*
X41703Y-44147D01*
X41703Y-42274D01*
X42387Y-42274D01*
X42428Y-42335D01*
X42536Y-42443D01*
X42536Y-42443D01*
X42610Y-42493D01*
X42696Y-42510D01*
X42696Y-42510D01*
X42819Y-42510D01*
X42883Y-42574D01*
X42883Y-43041D01*
X42905Y-43095D01*
X42947Y-43137D01*
X43001Y-43160D01*
X43060Y-43160D01*
X43218Y-43160D01*
X43238Y-43152D01*
X43257Y-43160D01*
X43316Y-43160D01*
X43474Y-43160D01*
X43494Y-43152D01*
X43513Y-43160D01*
X43572Y-43160D01*
X43730Y-43160D01*
X43749Y-43152D01*
X43769Y-43160D01*
X43828Y-43160D01*
X43986Y-43160D01*
X44040Y-43137D01*
X44082Y-43095D01*
X44105Y-43041D01*
X44105Y-42982D01*
X44105Y-42450D01*
X44082Y-42396D01*
X44040Y-42354D01*
X43986Y-42331D01*
X43927Y-42331D01*
X43848Y-42331D01*
X43848Y-42274D01*
X45299Y-42274D01*
X45468Y-42442D01*
X45542Y-42492D01*
X45628Y-42509D01*
X45767Y-42509D01*
X46004Y-42509D01*
X46091Y-42492D01*
X46165Y-42442D01*
X46314Y-42293D01*
X46850Y-42293D01*
X46937Y-42276D01*
X46940Y-42274D01*
X48178Y-42274D01*
X48178Y-44147D01*
X48178Y-44147D01*
G37*
G54D27*
X48178Y-44147D02*
X41703Y-44147D01*
X41703Y-42274D01*
X42387Y-42274D01*
X42428Y-42335D01*
X42536Y-42443D01*
X42536Y-42443D01*
X42610Y-42493D01*
X42696Y-42510D01*
X42696Y-42510D01*
X42819Y-42510D01*
X42883Y-42574D01*
X42883Y-43041D01*
X42905Y-43095D01*
X42947Y-43137D01*
X43001Y-43160D01*
X43060Y-43160D01*
X43218Y-43160D01*
X43238Y-43152D01*
X43257Y-43160D01*
X43316Y-43160D01*
X43474Y-43160D01*
X43494Y-43152D01*
X43513Y-43160D01*
X43572Y-43160D01*
X43730Y-43160D01*
X43749Y-43152D01*
X43769Y-43160D01*
X43828Y-43160D01*
X43986Y-43160D01*
X44040Y-43137D01*
X44082Y-43095D01*
X44105Y-43041D01*
X44105Y-42982D01*
X44105Y-42450D01*
X44082Y-42396D01*
X44040Y-42354D01*
X43986Y-42331D01*
X43927Y-42331D01*
X43848Y-42331D01*
X43848Y-42274D01*
X45299Y-42274D01*
X45468Y-42442D01*
X45542Y-42492D01*
X45628Y-42509D01*
X45767Y-42509D01*
X46004Y-42509D01*
X46091Y-42492D01*
X46165Y-42442D01*
X46314Y-42293D01*
X46850Y-42293D01*
X46937Y-42276D01*
X46940Y-42274D01*
X48178Y-42274D01*
X48178Y-44147D01*
G54D10*
G36*
X54328Y-33974D02*
X54257Y-34044D01*
X54251Y-34039D01*
X54246Y-34044D01*
X54175Y-33974D01*
X54181Y-33968D01*
X54175Y-33962D01*
X54189Y-33949D01*
X54313Y-33948D01*
X54328Y-33962D01*
X54322Y-33968D01*
X54328Y-33974D01*
X54328Y-33974D01*
G37*
G54D27*
X54328Y-33974D02*
X54257Y-34044D01*
X54251Y-34039D01*
X54246Y-34044D01*
X54175Y-33974D01*
X54181Y-33968D01*
X54175Y-33962D01*
X54189Y-33949D01*
X54313Y-33948D01*
X54328Y-33962D01*
X54322Y-33968D01*
X54328Y-33974D01*
G54D10*
G36*
X58855Y-36173D02*
X58771Y-36149D01*
X58701Y-36220D01*
X58701Y-36078D01*
X58701Y-34354D01*
X58385Y-34039D01*
X58315Y-34109D01*
X58315Y-33968D01*
X57999Y-33653D01*
X57904Y-33680D01*
X57831Y-33886D01*
X57841Y-34105D01*
X57904Y-34256D01*
X57999Y-34283D01*
X58315Y-33968D01*
X58315Y-34109D01*
X58070Y-34354D01*
X58097Y-34449D01*
X58304Y-34523D01*
X58522Y-34512D01*
X58673Y-34449D01*
X58701Y-34354D01*
X58701Y-36078D01*
X58673Y-35983D01*
X58467Y-35909D01*
X58249Y-35920D01*
X58097Y-35983D01*
X58070Y-36078D01*
X58385Y-36393D01*
X58701Y-36078D01*
X58701Y-36220D01*
X58465Y-36455D01*
X58301Y-36451D01*
X57999Y-36149D01*
X57904Y-36176D01*
X57831Y-36382D01*
X57833Y-36440D01*
X57562Y-36433D01*
X57562Y-34050D01*
X57551Y-33831D01*
X57489Y-33680D01*
X57393Y-33653D01*
X57323Y-33724D01*
X57323Y-33582D01*
X57295Y-33487D01*
X57089Y-33413D01*
X56871Y-33424D01*
X56720Y-33487D01*
X56692Y-33582D01*
X57007Y-33897D01*
X57323Y-33582D01*
X57323Y-33724D01*
X57078Y-33968D01*
X57393Y-34283D01*
X57489Y-34256D01*
X57562Y-34050D01*
X57562Y-36433D01*
X57557Y-36433D01*
X57551Y-36327D01*
X57489Y-36176D01*
X57393Y-36149D01*
X57323Y-36220D01*
X57323Y-36078D01*
X57323Y-34354D01*
X57007Y-34039D01*
X56937Y-34109D01*
X56937Y-33968D01*
X56621Y-33653D01*
X56526Y-33680D01*
X56453Y-33886D01*
X56464Y-34105D01*
X56526Y-34256D01*
X56621Y-34283D01*
X56937Y-33968D01*
X56937Y-34109D01*
X56692Y-34354D01*
X56720Y-34449D01*
X56926Y-34523D01*
X57144Y-34512D01*
X57295Y-34449D01*
X57323Y-34354D01*
X57323Y-36078D01*
X57295Y-35983D01*
X57089Y-35909D01*
X56871Y-35920D01*
X56720Y-35983D01*
X56692Y-36078D01*
X57007Y-36393D01*
X57323Y-36078D01*
X57323Y-36220D01*
X57119Y-36423D01*
X56890Y-36417D01*
X56621Y-36149D01*
X56526Y-36176D01*
X56453Y-36382D01*
X56454Y-36407D01*
X56184Y-36400D01*
X56184Y-34050D01*
X56173Y-33831D01*
X56111Y-33680D01*
X56015Y-33653D01*
X55700Y-33968D01*
X56015Y-34283D01*
X56111Y-34256D01*
X56184Y-34050D01*
X56184Y-36400D01*
X56179Y-36400D01*
X56180Y-36355D01*
X56096Y-36153D01*
X55945Y-36001D01*
X55945Y-34354D01*
X55629Y-34039D01*
X55314Y-34354D01*
X55342Y-34449D01*
X55548Y-34523D01*
X55766Y-34512D01*
X55917Y-34449D01*
X55945Y-34354D01*
X55945Y-36001D01*
X55941Y-35998D01*
X55739Y-35914D01*
X55520Y-35914D01*
X55318Y-35998D01*
X55163Y-36152D01*
X55080Y-36354D01*
X55079Y-36573D01*
X55163Y-36775D01*
X55276Y-36888D01*
X54959Y-37427D01*
X54806Y-37427D01*
X54806Y-36546D01*
X54795Y-36327D01*
X54733Y-36176D01*
X54637Y-36149D01*
X54567Y-36220D01*
X54567Y-36078D01*
X54539Y-35983D01*
X54333Y-35909D01*
X54115Y-35920D01*
X53964Y-35983D01*
X53936Y-36078D01*
X54251Y-36393D01*
X54567Y-36078D01*
X54567Y-36220D01*
X54322Y-36464D01*
X54637Y-36779D01*
X54733Y-36752D01*
X54806Y-36546D01*
X54806Y-37427D01*
X54567Y-37427D01*
X54567Y-36850D01*
X54251Y-36535D01*
X54181Y-36605D01*
X54181Y-36464D01*
X53866Y-36149D01*
X53770Y-36176D01*
X53697Y-36382D01*
X53708Y-36601D01*
X53770Y-36752D01*
X53866Y-36779D01*
X54181Y-36464D01*
X54181Y-36605D01*
X53936Y-36850D01*
X53964Y-36945D01*
X54170Y-37019D01*
X54388Y-37008D01*
X54539Y-36945D01*
X54567Y-36850D01*
X54567Y-37427D01*
X53428Y-37427D01*
X53428Y-36546D01*
X53417Y-36327D01*
X53355Y-36176D01*
X53259Y-36149D01*
X53189Y-36220D01*
X53189Y-36078D01*
X53161Y-35983D01*
X52955Y-35909D01*
X52737Y-35920D01*
X52586Y-35983D01*
X52558Y-36078D01*
X52874Y-36393D01*
X53189Y-36078D01*
X53189Y-36220D01*
X52944Y-36464D01*
X53259Y-36779D01*
X53355Y-36752D01*
X53428Y-36546D01*
X53428Y-37427D01*
X53189Y-37427D01*
X53189Y-36850D01*
X52874Y-36535D01*
X52558Y-36850D01*
X52586Y-36945D01*
X52792Y-37019D01*
X53010Y-37008D01*
X53161Y-36945D01*
X53189Y-36850D01*
X53189Y-37427D01*
X53156Y-37427D01*
X53115Y-37385D01*
X52958Y-37321D01*
X52789Y-37320D01*
X52633Y-37385D01*
X52513Y-37505D01*
X52449Y-37661D01*
X52448Y-37830D01*
X52513Y-37986D01*
X52632Y-38106D01*
X52752Y-38155D01*
X52354Y-38155D01*
X52354Y-37505D01*
X52354Y-37371D01*
X52292Y-37308D01*
X51929Y-37308D01*
X51929Y-37643D01*
X51992Y-37705D01*
X52055Y-37705D01*
X52154Y-37705D01*
X52246Y-37667D01*
X52316Y-37596D01*
X52354Y-37505D01*
X52354Y-38155D01*
X52075Y-38155D01*
X51950Y-38180D01*
X51843Y-38251D01*
X51829Y-38265D01*
X51829Y-37643D01*
X51829Y-37308D01*
X51642Y-37308D01*
X51467Y-37308D01*
X51280Y-37308D01*
X51280Y-37643D01*
X51342Y-37705D01*
X51405Y-37705D01*
X51505Y-37705D01*
X51555Y-37684D01*
X51604Y-37705D01*
X51704Y-37705D01*
X51767Y-37705D01*
X51829Y-37643D01*
X51829Y-38265D01*
X51180Y-38915D01*
X51180Y-37643D01*
X51180Y-37308D01*
X50993Y-37308D01*
X50817Y-37308D01*
X50630Y-37308D01*
X50630Y-37643D01*
X50693Y-37705D01*
X50756Y-37705D01*
X50855Y-37705D01*
X50905Y-37684D01*
X50955Y-37705D01*
X51054Y-37705D01*
X51117Y-37705D01*
X51180Y-37643D01*
X51180Y-38915D01*
X50608Y-39486D01*
X48024Y-39486D01*
X47848Y-39310D01*
X47848Y-38983D01*
X47879Y-38951D01*
X47944Y-38795D01*
X47944Y-38626D01*
X47880Y-38470D01*
X47760Y-38350D01*
X47604Y-38285D01*
X47484Y-38285D01*
X47484Y-38021D01*
X47484Y-37726D01*
X47459Y-37600D01*
X47459Y-37600D01*
X47387Y-37494D01*
X47226Y-37332D01*
X47226Y-37287D01*
X47180Y-37177D01*
X48325Y-37177D01*
X48451Y-37152D01*
X48451Y-37152D01*
X48542Y-37091D01*
X48564Y-37202D01*
X48635Y-37309D01*
X48817Y-37490D01*
X48817Y-37490D01*
X48924Y-37562D01*
X48924Y-37562D01*
X49050Y-37587D01*
X49489Y-37587D01*
X49494Y-37596D01*
X49564Y-37667D01*
X49656Y-37705D01*
X49755Y-37705D01*
X50205Y-37705D01*
X50255Y-37684D01*
X50305Y-37705D01*
X50405Y-37705D01*
X50468Y-37705D01*
X50530Y-37643D01*
X50530Y-37308D01*
X50522Y-37308D01*
X50522Y-37208D01*
X50530Y-37208D01*
X50530Y-37200D01*
X50630Y-37200D01*
X50630Y-37208D01*
X50817Y-37208D01*
X50993Y-37208D01*
X51180Y-37208D01*
X51180Y-37200D01*
X51280Y-37200D01*
X51280Y-37208D01*
X51467Y-37208D01*
X51642Y-37208D01*
X51829Y-37208D01*
X51829Y-37200D01*
X51929Y-37200D01*
X51929Y-37208D01*
X52292Y-37208D01*
X52354Y-37146D01*
X52354Y-37012D01*
X52332Y-36958D01*
X52354Y-36905D01*
X52354Y-36806D01*
X52354Y-36661D01*
X52392Y-36752D01*
X52488Y-36779D01*
X52803Y-36464D01*
X52488Y-36149D01*
X52392Y-36176D01*
X52354Y-36282D01*
X52354Y-36215D01*
X52354Y-35821D01*
X52332Y-35767D01*
X52354Y-35714D01*
X52354Y-35615D01*
X52354Y-35501D01*
X52445Y-35410D01*
X52543Y-35370D01*
X52663Y-35250D01*
X52728Y-35094D01*
X52728Y-34987D01*
X54246Y-34987D01*
X54372Y-34962D01*
X54372Y-34962D01*
X54478Y-34891D01*
X55070Y-34299D01*
X55129Y-34210D01*
X55148Y-34256D01*
X55244Y-34283D01*
X55559Y-33968D01*
X55553Y-33962D01*
X55624Y-33892D01*
X55629Y-33897D01*
X55945Y-33582D01*
X55917Y-33487D01*
X55791Y-33442D01*
X56089Y-33144D01*
X56224Y-33200D01*
X56393Y-33200D01*
X56549Y-33136D01*
X56669Y-33016D01*
X56733Y-32860D01*
X56734Y-32691D01*
X56678Y-32555D01*
X58828Y-30405D01*
X58844Y-33674D01*
X58771Y-33653D01*
X58701Y-33724D01*
X58701Y-33582D01*
X58673Y-33487D01*
X58467Y-33413D01*
X58249Y-33424D01*
X58097Y-33487D01*
X58070Y-33582D01*
X58385Y-33897D01*
X58701Y-33582D01*
X58701Y-33724D01*
X58456Y-33968D01*
X58771Y-34283D01*
X58846Y-34262D01*
X58855Y-36173D01*
X58855Y-36173D01*
G37*
G54D27*
X58855Y-36173D02*
X58771Y-36149D01*
X58701Y-36220D01*
X58701Y-36078D01*
X58701Y-34354D01*
X58385Y-34039D01*
X58315Y-34109D01*
X58315Y-33968D01*
X57999Y-33653D01*
X57904Y-33680D01*
X57831Y-33886D01*
X57841Y-34105D01*
X57904Y-34256D01*
X57999Y-34283D01*
X58315Y-33968D01*
X58315Y-34109D01*
X58070Y-34354D01*
X58097Y-34449D01*
X58304Y-34523D01*
X58522Y-34512D01*
X58673Y-34449D01*
X58701Y-34354D01*
X58701Y-36078D01*
X58673Y-35983D01*
X58467Y-35909D01*
X58249Y-35920D01*
X58097Y-35983D01*
X58070Y-36078D01*
X58385Y-36393D01*
X58701Y-36078D01*
X58701Y-36220D01*
X58465Y-36455D01*
X58301Y-36451D01*
X57999Y-36149D01*
X57904Y-36176D01*
X57831Y-36382D01*
X57833Y-36440D01*
X57562Y-36433D01*
X57562Y-34050D01*
X57551Y-33831D01*
X57489Y-33680D01*
X57393Y-33653D01*
X57323Y-33724D01*
X57323Y-33582D01*
X57295Y-33487D01*
X57089Y-33413D01*
X56871Y-33424D01*
X56720Y-33487D01*
X56692Y-33582D01*
X57007Y-33897D01*
X57323Y-33582D01*
X57323Y-33724D01*
X57078Y-33968D01*
X57393Y-34283D01*
X57489Y-34256D01*
X57562Y-34050D01*
X57562Y-36433D01*
X57557Y-36433D01*
X57551Y-36327D01*
X57489Y-36176D01*
X57393Y-36149D01*
X57323Y-36220D01*
X57323Y-36078D01*
X57323Y-34354D01*
X57007Y-34039D01*
X56937Y-34109D01*
X56937Y-33968D01*
X56621Y-33653D01*
X56526Y-33680D01*
X56453Y-33886D01*
X56464Y-34105D01*
X56526Y-34256D01*
X56621Y-34283D01*
X56937Y-33968D01*
X56937Y-34109D01*
X56692Y-34354D01*
X56720Y-34449D01*
X56926Y-34523D01*
X57144Y-34512D01*
X57295Y-34449D01*
X57323Y-34354D01*
X57323Y-36078D01*
X57295Y-35983D01*
X57089Y-35909D01*
X56871Y-35920D01*
X56720Y-35983D01*
X56692Y-36078D01*
X57007Y-36393D01*
X57323Y-36078D01*
X57323Y-36220D01*
X57119Y-36423D01*
X56890Y-36417D01*
X56621Y-36149D01*
X56526Y-36176D01*
X56453Y-36382D01*
X56454Y-36407D01*
X56184Y-36400D01*
X56184Y-34050D01*
X56173Y-33831D01*
X56111Y-33680D01*
X56015Y-33653D01*
X55700Y-33968D01*
X56015Y-34283D01*
X56111Y-34256D01*
X56184Y-34050D01*
X56184Y-36400D01*
X56179Y-36400D01*
X56180Y-36355D01*
X56096Y-36153D01*
X55945Y-36001D01*
X55945Y-34354D01*
X55629Y-34039D01*
X55314Y-34354D01*
X55342Y-34449D01*
X55548Y-34523D01*
X55766Y-34512D01*
X55917Y-34449D01*
X55945Y-34354D01*
X55945Y-36001D01*
X55941Y-35998D01*
X55739Y-35914D01*
X55520Y-35914D01*
X55318Y-35998D01*
X55163Y-36152D01*
X55080Y-36354D01*
X55079Y-36573D01*
X55163Y-36775D01*
X55276Y-36888D01*
X54959Y-37427D01*
X54806Y-37427D01*
X54806Y-36546D01*
X54795Y-36327D01*
X54733Y-36176D01*
X54637Y-36149D01*
X54567Y-36220D01*
X54567Y-36078D01*
X54539Y-35983D01*
X54333Y-35909D01*
X54115Y-35920D01*
X53964Y-35983D01*
X53936Y-36078D01*
X54251Y-36393D01*
X54567Y-36078D01*
X54567Y-36220D01*
X54322Y-36464D01*
X54637Y-36779D01*
X54733Y-36752D01*
X54806Y-36546D01*
X54806Y-37427D01*
X54567Y-37427D01*
X54567Y-36850D01*
X54251Y-36535D01*
X54181Y-36605D01*
X54181Y-36464D01*
X53866Y-36149D01*
X53770Y-36176D01*
X53697Y-36382D01*
X53708Y-36601D01*
X53770Y-36752D01*
X53866Y-36779D01*
X54181Y-36464D01*
X54181Y-36605D01*
X53936Y-36850D01*
X53964Y-36945D01*
X54170Y-37019D01*
X54388Y-37008D01*
X54539Y-36945D01*
X54567Y-36850D01*
X54567Y-37427D01*
X53428Y-37427D01*
X53428Y-36546D01*
X53417Y-36327D01*
X53355Y-36176D01*
X53259Y-36149D01*
X53189Y-36220D01*
X53189Y-36078D01*
X53161Y-35983D01*
X52955Y-35909D01*
X52737Y-35920D01*
X52586Y-35983D01*
X52558Y-36078D01*
X52874Y-36393D01*
X53189Y-36078D01*
X53189Y-36220D01*
X52944Y-36464D01*
X53259Y-36779D01*
X53355Y-36752D01*
X53428Y-36546D01*
X53428Y-37427D01*
X53189Y-37427D01*
X53189Y-36850D01*
X52874Y-36535D01*
X52558Y-36850D01*
X52586Y-36945D01*
X52792Y-37019D01*
X53010Y-37008D01*
X53161Y-36945D01*
X53189Y-36850D01*
X53189Y-37427D01*
X53156Y-37427D01*
X53115Y-37385D01*
X52958Y-37321D01*
X52789Y-37320D01*
X52633Y-37385D01*
X52513Y-37505D01*
X52449Y-37661D01*
X52448Y-37830D01*
X52513Y-37986D01*
X52632Y-38106D01*
X52752Y-38155D01*
X52354Y-38155D01*
X52354Y-37505D01*
X52354Y-37371D01*
X52292Y-37308D01*
X51929Y-37308D01*
X51929Y-37643D01*
X51992Y-37705D01*
X52055Y-37705D01*
X52154Y-37705D01*
X52246Y-37667D01*
X52316Y-37596D01*
X52354Y-37505D01*
X52354Y-38155D01*
X52075Y-38155D01*
X51950Y-38180D01*
X51843Y-38251D01*
X51829Y-38265D01*
X51829Y-37643D01*
X51829Y-37308D01*
X51642Y-37308D01*
X51467Y-37308D01*
X51280Y-37308D01*
X51280Y-37643D01*
X51342Y-37705D01*
X51405Y-37705D01*
X51505Y-37705D01*
X51555Y-37684D01*
X51604Y-37705D01*
X51704Y-37705D01*
X51767Y-37705D01*
X51829Y-37643D01*
X51829Y-38265D01*
X51180Y-38915D01*
X51180Y-37643D01*
X51180Y-37308D01*
X50993Y-37308D01*
X50817Y-37308D01*
X50630Y-37308D01*
X50630Y-37643D01*
X50693Y-37705D01*
X50756Y-37705D01*
X50855Y-37705D01*
X50905Y-37684D01*
X50955Y-37705D01*
X51054Y-37705D01*
X51117Y-37705D01*
X51180Y-37643D01*
X51180Y-38915D01*
X50608Y-39486D01*
X48024Y-39486D01*
X47848Y-39310D01*
X47848Y-38983D01*
X47879Y-38951D01*
X47944Y-38795D01*
X47944Y-38626D01*
X47880Y-38470D01*
X47760Y-38350D01*
X47604Y-38285D01*
X47484Y-38285D01*
X47484Y-38021D01*
X47484Y-37726D01*
X47459Y-37600D01*
X47459Y-37600D01*
X47387Y-37494D01*
X47226Y-37332D01*
X47226Y-37287D01*
X47180Y-37177D01*
X48325Y-37177D01*
X48451Y-37152D01*
X48451Y-37152D01*
X48542Y-37091D01*
X48564Y-37202D01*
X48635Y-37309D01*
X48817Y-37490D01*
X48817Y-37490D01*
X48924Y-37562D01*
X48924Y-37562D01*
X49050Y-37587D01*
X49489Y-37587D01*
X49494Y-37596D01*
X49564Y-37667D01*
X49656Y-37705D01*
X49755Y-37705D01*
X50205Y-37705D01*
X50255Y-37684D01*
X50305Y-37705D01*
X50405Y-37705D01*
X50468Y-37705D01*
X50530Y-37643D01*
X50530Y-37308D01*
X50522Y-37308D01*
X50522Y-37208D01*
X50530Y-37208D01*
X50530Y-37200D01*
X50630Y-37200D01*
X50630Y-37208D01*
X50817Y-37208D01*
X50993Y-37208D01*
X51180Y-37208D01*
X51180Y-37200D01*
X51280Y-37200D01*
X51280Y-37208D01*
X51467Y-37208D01*
X51642Y-37208D01*
X51829Y-37208D01*
X51829Y-37200D01*
X51929Y-37200D01*
X51929Y-37208D01*
X52292Y-37208D01*
X52354Y-37146D01*
X52354Y-37012D01*
X52332Y-36958D01*
X52354Y-36905D01*
X52354Y-36806D01*
X52354Y-36661D01*
X52392Y-36752D01*
X52488Y-36779D01*
X52803Y-36464D01*
X52488Y-36149D01*
X52392Y-36176D01*
X52354Y-36282D01*
X52354Y-36215D01*
X52354Y-35821D01*
X52332Y-35767D01*
X52354Y-35714D01*
X52354Y-35615D01*
X52354Y-35501D01*
X52445Y-35410D01*
X52543Y-35370D01*
X52663Y-35250D01*
X52728Y-35094D01*
X52728Y-34987D01*
X54246Y-34987D01*
X54372Y-34962D01*
X54372Y-34962D01*
X54478Y-34891D01*
X55070Y-34299D01*
X55129Y-34210D01*
X55148Y-34256D01*
X55244Y-34283D01*
X55559Y-33968D01*
X55553Y-33962D01*
X55624Y-33892D01*
X55629Y-33897D01*
X55945Y-33582D01*
X55917Y-33487D01*
X55791Y-33442D01*
X56089Y-33144D01*
X56224Y-33200D01*
X56393Y-33200D01*
X56549Y-33136D01*
X56669Y-33016D01*
X56733Y-32860D01*
X56734Y-32691D01*
X56678Y-32555D01*
X58828Y-30405D01*
X58844Y-33674D01*
X58771Y-33653D01*
X58701Y-33724D01*
X58701Y-33582D01*
X58673Y-33487D01*
X58467Y-33413D01*
X58249Y-33424D01*
X58097Y-33487D01*
X58070Y-33582D01*
X58385Y-33897D01*
X58701Y-33582D01*
X58701Y-33724D01*
X58456Y-33968D01*
X58771Y-34283D01*
X58846Y-34262D01*
X58855Y-36173D01*
M02*
